<?xml version="1.0" encoding="UTF-8"?>
<!DOCTYPE svg PUBLIC "-//W3C//DTD SVG 1.1 Tiny//EN" "http://www.w3.org/Graphics/SVG/1.1/DTD/svg11-tiny.dtd">
<svg baseProfile="tiny" version="1.1" xmlns="http://www.w3.org/2000/svg" xmlns:xlink="http://www.w3.org/1999/xlink" width="100%" height="100%" viewBox="0 0 88 88">
<g>
<g>
<path fill="#FFFFFF" stroke="#B8B8B8" stroke-width="0.8694" stroke-miterlimit="3.8637" d="M81.938,42.54    c0,24.618-22.226,39.465-44.186,39.465L34.21,75.85c-14.988,0-29.896-16.009-29.896-32.485c0-18.039,15.806-36.626,40.262-36.626    C69.581,6.737,81.938,26.928,81.938,42.54z"/>
<path fill="#99CF16" stroke="#B8B8B8" stroke-width="0.8694" stroke-miterlimit="3.8637" d="M77.482,42.854    c0,21.984-20.942,33.896-36.328,34.365l-3.535-5.311c-16.036,0-29.107-13.605-29.107-28.319c0-16.108,14.112-32.361,35.952-32.361    C64.764,11.228,77.482,28.912,77.482,42.854z"/>
<path fill="url(#XMLID_22_)" d="M69.57,39.838c5.174-3.711-5.342-23.993-25.911-24.353c-22.518-0.394-32.417,21.64-27.495,25.412    C29.122,50.833,53.533,51.343,69.57,39.838z"/>
<path fill="none" d="M69.57,39.838c5.174-3.711-5.342-23.993-25.911-24.353c-22.518-0.394-32.417,21.64-27.495,25.412    C29.122,50.833,53.533,51.343,69.57,39.838z"/>
<path fill="#FFFFFF" stroke="#B8B8B8" stroke-width="0.8693" stroke-miterlimit="3.8637" d="M37.663,64.918    c3.876,0,9.003-3.252,9.003-8.732c0-5.479,0-23.124,0-23.124h-5.508c0,0,0,20.965,0,22.946c0,1.979-2.974,4.443-5.626,4.443    L37.663,64.918z"/>
<path fill="#FFFFFF" stroke="#B8B8B8" stroke-width="0.8693" stroke-miterlimit="3.8637" d="M43.629,21.666    c2.12,0.038,3.809,1.769,3.771,3.863c-0.034,2.098-1.78,3.766-3.9,3.727c-2.119-0.038-3.81-1.769-3.773-3.864    C39.764,23.296,41.51,21.628,43.629,21.666z"/>
<defs>
<linearGradient id="XMLID_22_" gradientUnits="userSpaceOnUse" x1="26.1021" y1="803.0889" x2="26.102" y2="770.1602" gradientTransform="matrix(1 0 0 1 16.7998 -754.6797)">
<stop offset="0" style="stop-color:#99CF16"/>
<stop offset="1" style="stop-color:#E4F2C1"/>
</linearGradient>
</defs>
</g>
<g>
<g>
<rect fill="none" width="88" height="88"/>
</g>
</g>
</g>
</svg>
