<?xml version="1.0" encoding="utf-8"?>
<!-- Generator: Adobe Illustrator 12.0.0, SVG Export Plug-In . SVG Version: 6.00 Build 51448)  -->
<!DOCTYPE svg PUBLIC "-//W3C//DTD SVG 1.1 Tiny//EN" "http://www.w3.org/Graphics/SVG/1.1/DTD/svg11-tiny.dtd" [
	<!ENTITY ns_svg "http://www.w3.org/2000/svg">
	<!ENTITY ns_xlink "http://www.w3.org/1999/xlink">
]>
<svg  version="1.1" baseProfile="tiny" id="Layer_1" xmlns="&ns_svg;" xmlns:xlink="&ns_xlink;" width="15.25" height="15.25"
	 viewBox="0 0 15.25 15.25" xml:space="preserve">
<rect fill="none" width="15.25" height="15.25"/>
<path fill="#FFFFFF" stroke="#FFFFFF" stroke-width="1.7" d="M11.519,2.088c0.986,0,1.575,0.599,1.575,1.603v7.838
	c0,0.988-0.564,1.557-1.551,1.557H3.672c-0.974,0-1.554-0.582-1.554-1.557V3.691c0-1.004,0.596-1.603,1.593-1.603
	C3.711,2.088,5.565,2.085,11.519,2.088z"/>
<path fill="#0BAFEF" d="M11.519,2.088c0.986,0,1.575,0.599,1.575,1.603v7.838c0,0.988-0.564,1.557-1.551,1.557H3.672
	c-0.974,0-1.554-0.582-1.554-1.557V3.691c0-1.004,0.596-1.603,1.593-1.603C3.711,2.088,5.565,2.085,11.519,2.088z M7.173,6.466
	L3.743,8.558v0.917l3.462-1.142v1.857l-0.789,0.627v0.725l1.232-0.381l1.234,0.381v-0.725l-0.803-0.627V8.333l3.464,1.142V8.558
	L8.068,6.466V3.982c0-0.608-0.892-0.608-0.895-0.016V6.466z"/>
</svg>
