<?xml version="1.0" encoding="utf-8"?>
<!-- Generator: Adobe Illustrator 12.0.0, SVG Export Plug-In . SVG Version: 6.00 Build 51448)  -->
<!DOCTYPE svg PUBLIC "-//W3C//DTD SVG 1.1 Tiny//EN" "http://www.w3.org/Graphics/SVG/1.1/DTD/svg11-tiny.dtd" [
	<!ENTITY ns_svg "http://www.w3.org/2000/svg">
	<!ENTITY ns_xlink "http://www.w3.org/1999/xlink">
]>
<svg  version="1.1" baseProfile="tiny" id="Layer_1" xmlns="&ns_svg;" xmlns:xlink="&ns_xlink;" width="15.25" height="15.25"
	 viewBox="0 0 15.25 15.25" xml:space="preserve">
<rect fill="none" width="15.25" height="15.25"/>
<path fill="#FFFFFF" stroke="#FFFFFF" stroke-width="1.7" d="M12.972,6.04c-0.151-0.482-0.463-0.865-0.879-1.083
	c-0.221-0.116-0.465-0.178-0.717-0.191c0-0.411-0.105-0.809-0.311-1.139c-0.238-0.389-0.597-0.656-1.01-0.753
	C9.643,2.777,9.203,2.856,8.813,3.094C8.44,3.326,8.149,3.695,7.967,4.129C7.839,4.095,7.708,4.072,7.571,4.072
	c-0.108,0-0.212,0.016-0.314,0.038C7.266,4.019,7.28,3.929,7.28,3.841c0-0.159-0.013-0.315-0.042-0.463
	c-0.129-0.656-0.496-1.23-1.005-1.575C5.814,1.522,5.332,1.417,4.869,1.507C4.407,1.598,3.997,1.878,3.72,2.295
	C3.376,2.807,3.251,3.478,3.382,4.134c0.043,0.217,0.132,0.43,0.239,0.638C3.476,4.799,3.334,4.838,3.202,4.904
	c-0.376,0.189-0.665,0.532-0.81,0.963C2.213,6.409,2.27,7.038,2.551,7.598c0.423,0.844,1.632,1.555,2.38,1.619l0.03,0.229
	c0.014,0.105,0.061,0.203,0.152,0.259c0.092,0.056,0.188,0.069,0.29,0.033l0.088-0.034l1.85,3.68
	c0.004,0.16,0.089,0.288,0.197,0.288c0.097,0,0.173-0.106,0.191-0.245l1.874-3.572c0.045,0.018,0.091,0.035,0.091,0.035
	c0.1,0.039,0.193,0.024,0.288-0.029c0.091-0.052,0.14-0.148,0.155-0.256l0.004-0.021c0.85,0.004,2.151-0.775,2.629-1.682
	c0.199-0.379,0.3-0.793,0.3-1.196C13.07,6.476,13.038,6.251,12.972,6.04z"/>
<path fill="#0BAFEF" d="M12.972,6.04c-0.151-0.482-0.463-0.865-0.879-1.083c-0.221-0.116-0.465-0.178-0.717-0.191
	c0-0.411-0.105-0.809-0.311-1.139c-0.238-0.389-0.597-0.656-1.01-0.753C9.643,2.777,9.203,2.856,8.813,3.094
	C8.44,3.326,8.149,3.695,7.967,4.129C7.839,4.095,7.708,4.072,7.571,4.072c-0.108,0-0.212,0.016-0.314,0.038
	C7.266,4.019,7.28,3.929,7.28,3.841c0-0.159-0.013-0.315-0.042-0.463c-0.129-0.656-0.496-1.23-1.005-1.575
	C5.814,1.522,5.332,1.417,4.869,1.507C4.407,1.598,3.997,1.878,3.72,2.295C3.376,2.807,3.251,3.478,3.382,4.134
	c0.043,0.217,0.132,0.43,0.239,0.638C3.476,4.799,3.334,4.838,3.202,4.904c-0.376,0.189-0.665,0.532-0.81,0.963
	C2.213,6.409,2.27,7.038,2.551,7.598c0.423,0.844,1.632,1.555,2.38,1.619l0.03,0.229c0.014,0.105,0.061,0.203,0.152,0.259
	c0.092,0.056,0.188,0.069,0.29,0.033l0.088-0.034l1.85,3.68c0.004,0.16,0.089,0.288,0.197,0.288c0.097,0,0.173-0.106,0.191-0.245
	l1.874-3.572c0.045,0.018,0.091,0.035,0.091,0.035c0.1,0.039,0.193,0.024,0.288-0.029c0.091-0.052,0.14-0.148,0.155-0.256
	l0.004-0.021c0.85,0.004,2.151-0.775,2.629-1.682c0.199-0.379,0.3-0.793,0.3-1.196C13.07,6.476,13.038,6.251,12.972,6.04z
	 M7.571,4.425c0.125,0,0.243,0.027,0.357,0.066c0.041,0.013,0.08,0.031,0.12,0.048C8.317,4.657,8.551,4.862,8.72,5.134
	C8.724,5.14,8.728,5.146,8.731,5.153c0.081,0.133,0.143,0.283,0.19,0.441C8.93,5.623,8.937,5.652,8.944,5.681
	c0.04,0.162,0.066,0.331,0.066,0.508c0,0.155-0.025,0.316-0.067,0.479C8.938,6.69,8.929,6.713,8.923,6.736
	c-0.043,0.154-0.1,0.309-0.168,0.459c-0.32,0.703-0.867,1.302-1.184,1.302c-0.394,0-1.437-1.282-1.437-2.309
	C6.134,5.215,6.778,4.425,7.571,4.425z M7.125,9.221C7.185,9.312,7.265,9.367,7.37,9.38l0.096,0.011v3.525L6.146,7.45
	c0.281,0.542,0.679,1.023,1.038,1.251l-0.076,0.22C7.073,9.021,7.069,9.131,7.125,9.221z M7.997,8.921L7.935,8.738
	C8.233,8.58,8.54,8.252,8.794,7.855L7.641,12.84V9.391l0.096-0.012C7.842,9.367,7.921,9.31,7.978,9.221
	C8.037,9.129,8.031,9.021,7.997,8.921z M5.186,8.859C4.833,9.035,3.327,8.357,2.864,7.441C2.626,6.964,2.577,6.43,2.726,5.978
	c0.116-0.344,0.34-0.614,0.634-0.761c0.294-0.148,0.644-0.168,0.988-0.054C4.8,5.314,5.196,5.673,5.437,6.148
	C5.894,7.056,5.603,8.65,5.186,8.859z M5.649,9.623c0.039-0.025,0.08-0.051,0.08-0.051C5.817,9.512,5.863,9.426,5.874,9.32
	c0.01-0.105-0.04-0.201-0.116-0.277L5.625,8.914c0.213-0.301,0.341-0.785,0.378-1.301l1.265,5.236L5.649,9.623z M7.821,12.874
	l1.191-5.14c0.021,0.345,0.069,0.679,0.154,0.949c0.06,0.19,0.131,0.347,0.211,0.477L9.349,9.188
	c-0.08,0.076-0.133,0.17-0.126,0.277c0.01,0.107,0.053,0.192,0.142,0.252l0.084,0.055L7.821,12.874z M10.702,4.851
	c-0.557,0.174-1.043,0.59-1.357,1.138c-0.062-0.776-0.48-1.43-1.059-1.733c0.154-0.363,0.4-0.668,0.713-0.861
	C9.31,3.205,9.652,3.14,9.973,3.216c0.323,0.076,0.604,0.287,0.794,0.596c0.172,0.278,0.254,0.619,0.252,0.971
	C10.913,4.799,10.808,4.818,10.702,4.851z"/>
</svg>
