<?xml version="1.0" encoding="utf-8"?>
<!-- Generator: Adobe Illustrator 12.0.0, SVG Export Plug-In . SVG Version: 6.00 Build 51448)  -->
<!DOCTYPE svg PUBLIC "-//W3C//DTD SVG 1.1 Tiny//EN" "http://www.w3.org/Graphics/SVG/1.1/DTD/svg11-tiny.dtd" [
	<!ENTITY ns_svg "http://www.w3.org/2000/svg">
	<!ENTITY ns_xlink "http://www.w3.org/1999/xlink">
]>
<svg  version="1.1" baseProfile="tiny" id="Layer_1" xmlns="&ns_svg;" xmlns:xlink="&ns_xlink;" width="15.25" height="15.25"
	 viewBox="0 0 15.25 15.25" xml:space="preserve">
<rect fill="none" width="15.25" height="15.25"/>
<path fill="#FFFFFF" stroke="#FFFFFF" stroke-width="1.7" d="M10.196,10.899v0.929c0.255,0,0.464,0.209,0.464,0.465v0.93
	c0,0.255-0.209,0.464-0.464,0.464H3.925c-0.258,0-0.466-0.209-0.466-0.464v-0.93c0-0.256,0.208-0.465,0.466-0.465V6.416
	C3.111,6.184,2.531,5.44,2.531,4.557c0-1.069,0.858-1.904,1.952-1.904c0.371-0.883,1.278-1.51,2.298-1.51
	c0.721,0,1.371,0.325,1.835,0.813C8.802,1.886,9.011,1.84,9.22,1.84c0.929,0,1.674,0.744,1.674,1.673
	c0,0.557-0.278,1.068-0.697,1.37v0.441c1.533,0,2.787,1.254,2.787,2.788C12.983,9.644,11.729,10.899,10.196,10.899z"/>
<g>
	<path fill="#0BAFEF" d="M10.196,10.899v0.929c0.255,0,0.464,0.209,0.464,0.465v0.93c0,0.255-0.209,0.464-0.464,0.464H3.925
		c-0.258,0-0.466-0.209-0.466-0.464v-0.93c0-0.256,0.208-0.465,0.466-0.465V6.416C3.111,6.184,2.531,5.44,2.531,4.557
		c0-1.069,0.858-1.904,1.952-1.904c0.371-0.883,1.278-1.51,2.298-1.51c0.721,0,1.371,0.325,1.835,0.813
		C8.802,1.886,9.011,1.84,9.22,1.84c0.929,0,1.674,0.744,1.674,1.673c0,0.557-0.278,1.068-0.697,1.37v0.441
		c1.533,0,2.787,1.254,2.787,2.788C12.983,9.644,11.729,10.899,10.196,10.899z M9.22,2.305c-0.277,0-0.532,0.093-0.742,0.232
		C8.106,1.979,7.502,1.607,6.781,1.607c-0.952,0-1.787,0.674-1.997,1.556C4.667,3.141,4.575,3.118,4.458,3.118
		c-0.811,0-1.464,0.627-1.464,1.439c0,0.813,0.653,1.464,1.464,1.464c0.535,0,0.976-0.279,1.23-0.697H8.22v1.859
		c0,0.139,0.094,0.232,0.234,0.232c0.138,0,0.233-0.093,0.233-0.232V5.324h1.045V4.627C10.148,4.441,10.429,4,10.429,3.513
		C10.429,2.838,9.894,2.305,9.22,2.305z M10.196,12.292H3.925v0.93h6.271V12.292z M8.454,8.343c-0.186,0-0.348,0.164-0.348,0.35
		s0.162,0.348,0.348,0.348s0.348-0.162,0.348-0.348S8.64,8.343,8.454,8.343z M10.196,5.789v0.696c0.906,0,1.625,0.721,1.625,1.627
		c0,0.905-0.719,1.626-1.625,1.626v0.696c1.278,0,2.322-1.046,2.322-2.322C12.519,6.834,11.475,5.789,10.196,5.789z M10.196,6.95
		v2.323c0.649,0,1.161-0.512,1.161-1.161C11.357,7.46,10.846,6.95,10.196,6.95z"/>
</g>
</svg>
