<?xml version="1.0" encoding="utf-8"?>
<!-- Generator: Adobe Illustrator 12.0.0, SVG Export Plug-In . SVG Version: 6.00 Build 51448)  -->
<!DOCTYPE svg PUBLIC "-//W3C//DTD SVG 1.1 Tiny//EN" "http://www.w3.org/Graphics/SVG/1.1/DTD/svg11-tiny.dtd" [
	<!ENTITY ns_svg "http://www.w3.org/2000/svg">
	<!ENTITY ns_xlink "http://www.w3.org/1999/xlink">
]>
<svg  version="1.1" baseProfile="tiny" id="Layer_1" xmlns="&ns_svg;" xmlns:xlink="&ns_xlink;" width="15.25" height="15.25"
	 viewBox="0 0 15.25 15.25" xml:space="preserve">
<rect fill="none" width="15.25" height="15.25"/>
<path fill="#FFFFFF" stroke="#FFFFFF" stroke-width="1.7" d="M11.533,6.231c-0.292,0-0.569,0.06-0.833,0.149l-0.687-2.794
	C9.986,3.47,9.882,3.391,9.766,3.391h-1.33c-0.142,0-0.254,0.115-0.254,0.256c0,0.143,0.112,0.258,0.254,0.258c0,0,0.836,0,1.127,0
	c0.021,0.089,0.095,0.387,0.19,0.778H5.417c-0.117,0-0.229,0.062-0.291,0.163S5.057,5.072,5.11,5.179l0.022,0.046l-0.555,1.17
	c-0.275-0.1-0.569-0.163-0.878-0.163c-1.432,0-2.599,1.167-2.599,2.6c0,1.434,1.167,2.6,2.599,2.6c1.355,0,2.456-1.045,2.576-2.367
	h0.799c0.05,0.043,0.107,0.076,0.174,0.084c0.116,0.015,0.229-0.029,0.304-0.119l2.539-2.973c0.046,0.187,0.091,0.369,0.134,0.543
	C9.456,7.05,8.934,7.877,8.934,8.832c0,1.434,1.166,2.6,2.6,2.6c1.432,0,2.599-1.166,2.599-2.6
	C14.131,7.398,12.964,6.231,11.533,6.231z M4.352,4.512h1.51c0.19,0,0.345-0.154,0.345-0.343c0-0.19-0.154-0.344-0.345-0.344h-1.51
	c-0.188,0-0.342,0.154-0.342,0.344C4.009,4.358,4.164,4.512,4.352,4.512z"/>
<path fill="#0BAFEF" d="M11.533,6.231c-0.292,0-0.569,0.06-0.833,0.149l-0.687-2.794C9.986,3.47,9.882,3.391,9.766,3.391h-1.33
	c-0.142,0-0.254,0.115-0.254,0.256c0,0.143,0.112,0.258,0.254,0.258c0,0,0.836,0,1.127,0c0.021,0.089,0.095,0.387,0.19,0.778H5.417
	c-0.117,0-0.229,0.062-0.291,0.163S5.057,5.072,5.11,5.179l0.022,0.046l-0.555,1.17c-0.275-0.1-0.569-0.163-0.878-0.163
	c-1.432,0-2.599,1.167-2.599,2.6c0,1.434,1.167,2.6,2.599,2.6c1.355,0,2.456-1.045,2.576-2.367h0.799
	c0.05,0.043,0.107,0.076,0.174,0.084c0.116,0.015,0.229-0.029,0.304-0.119l2.539-2.973c0.046,0.187,0.091,0.369,0.134,0.543
	C9.456,7.05,8.934,7.877,8.934,8.832c0,1.434,1.166,2.6,2.6,2.6c1.432,0,2.599-1.166,2.599-2.6
	C14.131,7.398,12.964,6.231,11.533,6.231z M4.822,7.08c0.501,0.322,0.849,0.854,0.933,1.47H4.123C4.24,8.305,4.526,7.703,4.822,7.08
	z M3.699,10.915c-1.147,0-2.082-0.935-2.082-2.083c0-1.15,0.934-2.085,2.082-2.085c0.231,0,0.449,0.046,0.656,0.115L3.484,8.697
	C3.447,8.775,3.453,8.871,3.498,8.945C3.547,9.02,3.629,9.064,3.717,9.064H5.76C5.643,10.104,4.769,10.915,3.699,10.915z
	 M6.27,8.549C6.18,7.728,5.715,7.026,5.042,6.616C5.183,6.319,5.315,6.04,5.423,5.811l1.358,2.738H6.27z M7.368,8.189
	C7.064,7.58,6.288,6.012,5.97,5.371h3.801C9.59,5.583,7.868,7.6,7.368,8.189z M11.533,10.915c-1.149,0-2.084-0.935-2.084-2.083
	c0-0.711,0.357-1.338,0.902-1.715c0.099,0.399,0.166,0.676,0.166,0.676c0.142,0.584,0.672,1.204,0.855,1.311
	c0.121,0.067,0.266,0.024,0.34-0.092c0.073-0.115,0.034-0.273-0.078-0.353c-0.088-0.062-0.509-0.54-0.617-0.987L10.823,6.88
	c0.223-0.082,0.459-0.133,0.71-0.133c1.148,0,2.084,0.935,2.084,2.085C13.617,9.98,12.682,10.915,11.533,10.915z M4.352,4.512h1.51
	c0.19,0,0.345-0.154,0.345-0.343c0-0.19-0.154-0.344-0.345-0.344h-1.51c-0.188,0-0.342,0.154-0.342,0.344
	C4.009,4.358,4.164,4.512,4.352,4.512z"/>
</svg>
