<?xml version="1.0" encoding="utf-8"?>
<!-- Generator: Adobe Illustrator 12.0.0, SVG Export Plug-In . SVG Version: 6.00 Build 51448)  -->
<!DOCTYPE svg PUBLIC "-//W3C//DTD SVG 1.1 Tiny//EN" "http://www.w3.org/Graphics/SVG/1.1/DTD/svg11-tiny.dtd" [
	<!ENTITY ns_svg "http://www.w3.org/2000/svg">
	<!ENTITY ns_xlink "http://www.w3.org/1999/xlink">
]>
<svg  version="1.1" baseProfile="tiny" id="Layer_1" xmlns="&ns_svg;" xmlns:xlink="&ns_xlink;" width="15.25" height="15.25"
	 viewBox="0 0 15.25 15.25" xml:space="preserve">
<rect fill="none" width="15.25" height="15.25"/>
<path fill="#FFFFFF" stroke="#FFFFFF" stroke-width="1.7" d="M13.225,12.428H9.846c-0.246,0-0.449-0.203-0.449-0.45V9.725H8.271
	c0,0.248-0.201,0.451-0.45,0.451h-0.45c-0.249,0-0.452-0.203-0.452-0.451H5.795v2.253c0,0.247-0.203,0.45-0.453,0.45H1.965
	c-0.248,0-0.45-0.203-0.45-0.45v-1.576c0-0.046,0.023-0.159,0.046-0.249l0.879-5.021c0.044-0.203,0.201-0.36,0.427-0.36h0.675V3.419
	c-0.249,0-0.452-0.203-0.452-0.45V2.743c0-0.247,0.203-0.45,0.452-0.45h2.703c0.246,0,0.45,0.203,0.45,0.45V2.97
	c0,0.247-0.204,0.45-0.45,0.45v1.352h0.674c0-0.249,0.203-0.453,0.452-0.453h0.45c0.249,0,0.45,0.204,0.45,0.453h0.676V3.419
	c-0.247,0-0.449-0.203-0.449-0.45V2.743c0-0.247,0.202-0.45,0.449-0.45h2.702c0.25,0,0.451,0.203,0.451,0.45V2.97
	c0,0.247-0.201,0.45-0.451,0.45v1.352h0.676c0.225,0,0.383,0.157,0.428,0.36l0.879,5.021c0.023,0.09,0.044,0.203,0.044,0.249v1.576
	C13.675,12.225,13.475,12.428,13.225,12.428z"/>
<g>
	<path fill="#0BAFEF" d="M13.225,12.428H9.846c-0.246,0-0.449-0.203-0.449-0.45V9.725H8.271c0,0.248-0.201,0.451-0.45,0.451h-0.45
		c-0.249,0-0.452-0.203-0.452-0.451H5.795v2.253c0,0.247-0.203,0.45-0.453,0.45H1.965c-0.248,0-0.45-0.203-0.45-0.45v-1.576
		c0-0.046,0.023-0.159,0.046-0.249l0.879-5.021c0.044-0.203,0.201-0.36,0.427-0.36h0.675V3.419c-0.249,0-0.452-0.203-0.452-0.45
		V2.743c0-0.247,0.203-0.45,0.452-0.45h2.703c0.246,0,0.45,0.203,0.45,0.45V2.97c0,0.247-0.204,0.45-0.45,0.45v1.352h0.674
		c0-0.249,0.203-0.453,0.452-0.453h0.45c0.249,0,0.45,0.204,0.45,0.453h0.676V3.419c-0.247,0-0.449-0.203-0.449-0.45V2.743
		c0-0.247,0.202-0.45,0.449-0.45h2.702c0.25,0,0.451,0.203,0.451,0.45V2.97c0,0.247-0.201,0.45-0.451,0.45v1.352h0.676
		c0.225,0,0.383,0.157,0.428,0.36l0.879,5.021c0.023,0.09,0.044,0.203,0.044,0.249v1.576C13.675,12.225,13.475,12.428,13.225,12.428
		z M6.919,8.823H2.236L2.167,9.275h4.751V8.823z M6.919,5.221H2.867L2.798,5.672h4.121V5.221z M5.795,3.419H3.993v0.45h1.802V3.419z
		 M6.919,6.122H6.245v2.251h0.674V6.122z M7.821,4.771h-0.45v0.9h0.45V4.771z M7.821,8.823h-0.45v0.901h0.45V8.823z M12.324,5.221
		H8.271v0.451h4.12L12.324,5.221z M8.946,6.122H8.271v2.251h0.676V6.122z M12.955,8.823H8.271v0.452h4.753L12.955,8.823z
		 M11.199,3.419H9.396v0.45h1.803V3.419z"/>
</g>
</svg>
