<?xml version="1.0" encoding="utf-8"?>
<!-- Generator: Adobe Illustrator 12.0.0, SVG Export Plug-In . SVG Version: 6.00 Build 51448)  -->
<!DOCTYPE svg PUBLIC "-//W3C//DTD SVG 1.1 Tiny//EN" "http://www.w3.org/Graphics/SVG/1.1/DTD/svg11-tiny.dtd" [
	<!ENTITY ns_svg "http://www.w3.org/2000/svg">
	<!ENTITY ns_xlink "http://www.w3.org/1999/xlink">
]>
<svg  version="1.1" baseProfile="tiny" id="Layer_1" xmlns="&ns_svg;" xmlns:xlink="&ns_xlink;" width="15.25" height="15.25"
	 viewBox="0 0 15.25 15.25" xml:space="preserve">
<rect fill="none" width="15.25" height="15.25"/>
<path fill="#FFFFFF" stroke="#FFFFFF" stroke-width="1.7" d="M13.604,10.809l-1.173,0.312c-0.454,0.119-0.886-0.215-0.886-0.695
	V9.181L11.21,9.275c-0.216,0.049-0.359,0.238-0.359,0.455c0,0.072,0.023,0.121,0.047,0.169c0.072,0.214,0.119,0.431,0.119,0.669
	c0,0.983-0.814,1.799-1.795,1.799c-0.982,0-1.797-0.815-1.797-1.799c0-0.238,0.049-0.455,0.119-0.669
	C7.568,9.852,7.591,9.803,7.591,9.73c0-0.264-0.214-0.479-0.478-0.479H5.1c-0.263,0-0.479,0.215-0.479,0.479
	c0,0.072,0.024,0.121,0.048,0.169c0.072,0.214,0.122,0.431,0.122,0.669c0,0.983-0.816,1.799-1.799,1.799
	c-0.98,0-1.795-0.815-1.795-1.799c0-0.598,0.286-1.123,0.741-1.461L1.7,8.174c0-0.048-0.024-0.072-0.024-0.119V6.617
	c0-0.647,0.071-1.27,0.24-1.868l0.311-1.125c0.048-0.216,0.24-0.361,0.455-0.361h1.557c0.647,0,1.222-0.239,1.652-0.672
	c0.168-0.165,0.432-0.286,0.696-0.286c0.289,0,0.55,0.144,0.719,0.36c1.197,1.46,2.921,2.467,4.886,2.778
	c0.695,0.097,1.223,0.695,1.223,1.414v1.199v0.623l0.623,1.076c0.071,0.098,0.096,0.24,0.096,0.359
	C14.132,10.449,13.917,10.736,13.604,10.809z"/>
<g>
	<path fill="#0BAFEF" d="M13.604,10.809l-1.173,0.312c-0.454,0.119-0.886-0.215-0.886-0.695V9.181L11.21,9.275
		c-0.216,0.049-0.359,0.238-0.359,0.455c0,0.072,0.023,0.121,0.047,0.169c0.072,0.214,0.119,0.431,0.119,0.669
		c0,0.983-0.814,1.799-1.795,1.799c-0.982,0-1.797-0.815-1.797-1.799c0-0.238,0.049-0.455,0.119-0.669
		C7.568,9.852,7.591,9.803,7.591,9.73c0-0.264-0.214-0.479-0.478-0.479H5.1c-0.263,0-0.479,0.215-0.479,0.479
		c0,0.072,0.024,0.121,0.048,0.169c0.072,0.214,0.122,0.431,0.122,0.669c0,0.983-0.816,1.799-1.799,1.799
		c-0.98,0-1.795-0.815-1.795-1.799c0-0.598,0.286-1.123,0.741-1.461L1.7,8.174c0-0.048-0.024-0.072-0.024-0.119V6.617
		c0-0.647,0.071-1.27,0.24-1.868l0.311-1.125c0.048-0.216,0.24-0.361,0.455-0.361h1.557c0.647,0,1.222-0.239,1.652-0.672
		c0.168-0.165,0.432-0.286,0.696-0.286c0.289,0,0.55,0.144,0.719,0.36c1.197,1.46,2.921,2.467,4.886,2.778
		c0.695,0.097,1.223,0.695,1.223,1.414v1.199v0.623l0.623,1.076c0.071,0.098,0.096,0.24,0.096,0.359
		C14.132,10.449,13.917,10.736,13.604,10.809z M2.992,9.252c-0.718,0-1.316,0.6-1.316,1.316c0,0.719,0.598,1.317,1.316,1.317
		c0.719,0,1.318-0.599,1.318-1.317C4.31,9.852,3.71,9.252,2.992,9.252z M12.935,6.856c0-0.479-0.359-0.886-0.815-0.959
		c-2.083-0.312-3.903-1.39-5.174-2.947C6.85,2.854,6.729,2.784,6.585,2.784c-0.143,0-0.264,0.048-0.359,0.143
		C5.723,3.455,5.029,3.741,4.238,3.741H2.681L2.395,4.868C2.25,5.418,2.153,6.018,2.153,6.617v0.479h10.781V6.856z M12.935,7.575
		H2.153v0.479h10.781V7.575z M2.992,11.169c-0.335,0-0.597-0.263-0.597-0.601c0-0.335,0.262-0.598,0.597-0.598
		c0.337,0,0.601,0.263,0.601,0.598C3.592,10.906,3.329,11.169,2.992,11.169z M6.897,4.507c-0.191,0-0.359-0.166-0.359-0.358
		s0.168-0.36,0.359-0.36s0.36,0.168,0.36,0.36S7.088,4.507,6.897,4.507z M7.999,5.442c-0.192,0-0.359-0.168-0.359-0.358
		c0-0.192,0.167-0.36,0.359-0.36c0.192,0,0.361,0.168,0.361,0.36C8.36,5.274,8.191,5.442,7.999,5.442z M9.222,9.252
		c-0.721,0-1.318,0.6-1.318,1.316c0,0.719,0.598,1.317,1.318,1.317c0.717,0,1.316-0.599,1.316-1.317
		C10.538,9.852,9.938,9.252,9.222,9.252z M9.222,11.169c-0.336,0-0.6-0.263-0.6-0.601c0-0.335,0.264-0.598,0.6-0.598
		s0.598,0.263,0.598,0.598C9.819,10.906,9.558,11.169,9.222,11.169z M9.222,6.208c-0.192,0-0.359-0.167-0.359-0.359
		c0-0.191,0.167-0.358,0.359-0.358c0.191,0,0.359,0.167,0.359,0.358C9.581,6.042,9.413,6.208,9.222,6.208z M12.935,8.797
		l-0.91,0.264v1.365c0,0.168,0.119,0.262,0.287,0.217l1.176-0.287c0.143-0.025,0.214-0.266,0.143-0.361L12.935,8.797z"/>
</g>
</svg>
