<?xml version="1.0" encoding="utf-8"?>
<!-- Generator: Adobe Illustrator 12.0.0, SVG Export Plug-In . SVG Version: 6.00 Build 51448)  -->
<!DOCTYPE svg PUBLIC "-//W3C//DTD SVG 1.1 Tiny//EN" "http://www.w3.org/Graphics/SVG/1.1/DTD/svg11-tiny.dtd" [
	<!ENTITY ns_svg "http://www.w3.org/2000/svg">
	<!ENTITY ns_xlink "http://www.w3.org/1999/xlink">
]>
<svg  version="1.1" baseProfile="tiny" id="Layer_1" xmlns="&ns_svg;" xmlns:xlink="&ns_xlink;" width="15.25" height="15.25"
	 viewBox="0 0 15.25 15.25" xml:space="preserve">
<rect fill="none" width="15.25" height="15.25"/>
<g>
	<path fill="#FFFFFF" stroke="#FFFFFF" stroke-width="1.7" d="M11.374,3.009L10.78,3.567l-0.111,0.13
		C10.37,3.995,9.96,4.18,9.497,4.18c-0.279,0-0.559-0.073-0.783-0.186c-0.187-0.093-0.37-0.148-0.595-0.148
		c-0.726,0-1.301,0.577-1.301,1.302V5.52h0.371c0.204,0,0.372,0.167,0.372,0.371v0.653c0,0.13,0.074,0.242,0.186,0.279
		c1.451,0.464,2.512,1.822,2.512,3.44c0,2.009-1.62,3.627-3.628,3.627s-3.625-1.618-3.625-3.627c0-1.618,1.059-2.976,2.508-3.44
		c0.113-0.037,0.188-0.149,0.188-0.279V5.89c0-0.204,0.167-0.371,0.371-0.371h0.375V5.148c0-0.93,0.742-1.674,1.671-1.674
		c0.279,0,0.541,0.075,0.763,0.187c0.188,0.093,0.391,0.148,0.615,0.148c0.352,0,0.668-0.148,0.909-0.39l0.392-0.372l0.297-0.316
		c0.037-0.037,0.095-0.057,0.149-0.057c0.112,0,0.187,0.075,0.187,0.187C11.431,2.915,11.411,2.972,11.374,3.009z M10.165,3.046
		H9.606c-0.109,0-0.184-0.074-0.184-0.187c0-0.111,0.074-0.187,0.184-0.187h0.559c0.112,0,0.188,0.075,0.188,0.187
		C10.353,2.972,10.277,3.046,10.165,3.046z M10.353,2.247L9.96,1.856c-0.074-0.075-0.074-0.187,0-0.26
		c0.075-0.093,0.188-0.075,0.263,0l0.389,0.39c0.074,0.075,0.095,0.186,0,0.261C10.536,2.319,10.427,2.319,10.353,2.247z
		 M11.06,1.243c0-0.113,0.072-0.187,0.185-0.187s0.187,0.074,0.187,0.187V1.8c0,0.111-0.074,0.186-0.187,0.186
		S11.06,1.911,11.06,1.8V1.243z M11.244,3.753c0.112,0,0.187,0.074,0.187,0.185v0.559c0,0.11-0.074,0.186-0.187,0.186
		S11.06,4.608,11.06,4.498V3.938C11.06,3.827,11.132,3.753,11.244,3.753z M12.118,3.493l0.392,0.39c0.075,0.074,0.075,0.186,0,0.261
		c-0.075,0.092-0.187,0.074-0.262,0l-0.392-0.391c-0.073-0.075-0.092-0.187,0-0.26C11.931,3.418,12.044,3.418,12.118,3.493z
		 M11.856,1.986l0.392-0.39c0.075-0.075,0.187-0.093,0.262,0c0.075,0.073,0.075,0.185,0,0.26l-0.392,0.391
		c-0.074,0.072-0.188,0.072-0.262,0C11.765,2.172,11.783,2.061,11.856,1.986z M12.86,3.046h-0.555c-0.112,0-0.188-0.074-0.188-0.187
		c0-0.111,0.075-0.187,0.188-0.187h0.555c0.113,0,0.188,0.075,0.188,0.187C13.048,2.972,12.974,3.046,12.86,3.046z"/>
</g>
<g>
	<path fill="#0BAFEF" d="M11.374,3.009L10.78,3.567l-0.111,0.13C10.37,3.995,9.96,4.18,9.497,4.18c-0.279,0-0.559-0.073-0.783-0.186
		c-0.187-0.093-0.37-0.148-0.595-0.148c-0.726,0-1.301,0.577-1.301,1.302V5.52h0.371c0.204,0,0.372,0.167,0.372,0.371v0.653
		c0,0.13,0.074,0.242,0.186,0.279c1.451,0.464,2.512,1.822,2.512,3.44c0,2.009-1.62,3.627-3.628,3.627s-3.625-1.618-3.625-3.627
		c0-1.618,1.059-2.976,2.508-3.44c0.113-0.037,0.188-0.149,0.188-0.279V5.89c0-0.204,0.167-0.371,0.371-0.371h0.375V5.148
		c0-0.93,0.742-1.674,1.671-1.674c0.279,0,0.541,0.075,0.763,0.187c0.188,0.093,0.391,0.148,0.615,0.148
		c0.352,0,0.668-0.148,0.909-0.39l0.392-0.372l0.297-0.316c0.037-0.037,0.095-0.057,0.149-0.057c0.112,0,0.187,0.075,0.187,0.187
		C11.431,2.915,11.411,2.972,11.374,3.009z M8.027,8.309c-0.317,0-0.559,0.243-0.559,0.559c0,0.316,0.242,0.559,0.559,0.559
		c0.316,0,0.558-0.242,0.558-0.559C8.585,8.552,8.344,8.309,8.027,8.309z M10.165,3.046H9.606c-0.109,0-0.184-0.074-0.184-0.187
		c0-0.111,0.074-0.187,0.184-0.187h0.559c0.112,0,0.188,0.075,0.188,0.187C10.353,2.972,10.277,3.046,10.165,3.046z M10.353,2.247
		L9.96,1.856c-0.074-0.075-0.074-0.187,0-0.26c0.075-0.093,0.188-0.075,0.263,0l0.389,0.39c0.074,0.075,0.095,0.186,0,0.261
		C10.536,2.319,10.427,2.319,10.353,2.247z M11.06,1.243c0-0.113,0.072-0.187,0.185-0.187s0.187,0.074,0.187,0.187V1.8
		c0,0.111-0.074,0.186-0.187,0.186S11.06,1.911,11.06,1.8V1.243z M11.244,3.753c0.112,0,0.187,0.074,0.187,0.185v0.559
		c0,0.11-0.074,0.186-0.187,0.186S11.06,4.608,11.06,4.498V3.938C11.06,3.827,11.132,3.753,11.244,3.753z M12.118,3.493l0.392,0.39
		c0.075,0.074,0.075,0.186,0,0.261c-0.075,0.092-0.187,0.074-0.262,0l-0.392-0.391c-0.073-0.075-0.092-0.187,0-0.26
		C11.931,3.418,12.044,3.418,12.118,3.493z M11.856,1.986l0.392-0.39c0.075-0.075,0.187-0.093,0.262,0
		c0.075,0.073,0.075,0.185,0,0.26l-0.392,0.391c-0.074,0.072-0.188,0.072-0.262,0C11.765,2.172,11.783,2.061,11.856,1.986z
		 M12.86,3.046h-0.555c-0.112,0-0.188-0.074-0.188-0.187c0-0.111,0.075-0.187,0.188-0.187h0.555c0.113,0,0.188,0.075,0.188,0.187
		C13.048,2.972,12.974,3.046,12.86,3.046z"/>
</g>
</svg>
