<?xml version="1.0" encoding="utf-8"?>
<!-- Generator: Adobe Illustrator 12.0.0, SVG Export Plug-In . SVG Version: 6.00 Build 51448)  -->
<!DOCTYPE svg PUBLIC "-//W3C//DTD SVG 1.1 Tiny//EN" "http://www.w3.org/Graphics/SVG/1.1/DTD/svg11-tiny.dtd" [
	<!ENTITY ns_svg "http://www.w3.org/2000/svg">
	<!ENTITY ns_xlink "http://www.w3.org/1999/xlink">
]>
<svg  version="1.1" baseProfile="tiny" id="Layer_1" xmlns="&ns_svg;" xmlns:xlink="&ns_xlink;" width="15.25" height="15.25"
	 viewBox="0 0 15.25 15.25" xml:space="preserve">
<rect fill="none" width="15.25" height="15.25"/>
<path fill="#FFFFFF" stroke="#FFFFFF" stroke-width="1.7" d="M13.587,2.282c-0.052-0.04-0.121-0.052-0.188-0.033l-0.068,0.021V2.153
	c0-0.07-0.032-0.131-0.086-0.17c-0.055-0.039-0.123-0.052-0.187-0.031L7.658,3.6L2.257,1.952C2.194,1.931,2.125,1.944,2.07,1.983
	c-0.054,0.04-0.085,0.101-0.085,0.17v0.138L1.847,2.25C1.783,2.23,1.714,2.242,1.66,2.282c-0.054,0.039-0.085,0.103-0.085,0.17
	v8.313c0,0.093,0.062,0.174,0.149,0.201l5.81,1.772c0.03,0.009,0.151,0.009,0.183,0l5.808-1.772c0.09-0.027,0.149-0.108,0.149-0.201
	V2.452C13.673,2.385,13.641,2.321,13.587,2.282z"/>
<path fill="#0BAFEF" d="M13.587,2.282c-0.052-0.04-0.121-0.052-0.188-0.033l-0.068,0.021V2.153c0-0.07-0.032-0.131-0.086-0.17
	c-0.055-0.039-0.123-0.052-0.187-0.031L7.658,3.6L2.257,1.952C2.194,1.931,2.125,1.944,2.07,1.983
	c-0.054,0.04-0.085,0.101-0.085,0.17v0.138L1.847,2.25C1.783,2.23,1.714,2.242,1.66,2.282c-0.054,0.039-0.085,0.103-0.085,0.17
	v8.313c0,0.093,0.062,0.174,0.149,0.201l5.81,1.772c0.03,0.009,0.151,0.009,0.183,0l5.808-1.772c0.09-0.027,0.149-0.108,0.149-0.201
	V2.452C13.673,2.385,13.641,2.321,13.587,2.282z M7.897,3.968c0.268-0.082,4.533-1.384,5.011-1.53v7.681
	c-0.269,0.081-4.534,1.384-5.011,1.529V3.968z M2.408,2.438c0.477,0.146,4.742,1.449,5.01,1.53v7.681
	c-0.477-0.146-4.743-1.449-5.01-1.53V2.438z M2.943,3.726l3.921,1.212 M2.974,3.625l3.922,1.212
	c0.055,0.019,0.087,0.077,0.069,0.132C6.949,5.026,6.89,5.058,6.833,5.038L2.91,3.825C2.855,3.81,2.824,3.75,2.842,3.693
	C2.858,3.638,2.917,3.608,2.974,3.625z M6.864,5.673L2.943,4.459 M2.974,4.359L6.896,5.57c0.055,0.019,0.087,0.077,0.069,0.134
	C6.949,5.759,6.89,5.791,6.833,5.774L2.91,4.561C2.855,4.542,2.824,4.483,2.842,4.429C2.858,4.372,2.917,4.34,2.974,4.359z
	 M6.864,6.406L2.943,5.193 M2.974,5.092l3.922,1.213C6.951,6.322,6.983,6.38,6.965,6.438C6.949,6.492,6.89,6.524,6.833,6.507
	L2.91,5.294C2.855,5.275,2.824,5.217,2.842,5.162C2.858,5.105,2.917,5.074,2.974,5.092z M2.943,5.926L6.864,7.14 M2.974,5.826
	L6.896,7.04c0.055,0.018,0.087,0.076,0.069,0.131C6.949,7.226,6.89,7.257,6.833,7.24L2.91,6.027C2.855,6.01,2.824,5.949,2.842,5.895
	C2.858,5.84,2.917,5.806,2.974,5.826z M6.864,7.873L2.943,6.66 M2.974,6.559l3.922,1.212c0.055,0.02,0.087,0.078,0.069,0.132
	C6.949,7.957,6.89,7.992,6.833,7.973L2.91,6.76C2.855,6.743,2.824,6.685,2.842,6.629C2.858,6.573,2.917,6.542,2.974,6.559z
	 M6.864,8.605L2.943,7.392 M2.974,7.291l3.922,1.215c0.055,0.018,0.087,0.076,0.069,0.131C6.949,8.693,6.89,8.725,6.833,8.707
	L2.91,7.492C2.855,7.477,2.824,7.418,2.842,7.363C2.858,7.307,2.917,7.275,2.974,7.291z M6.864,9.34L2.943,8.127 M2.974,8.027
	l3.922,1.21c0.055,0.02,0.087,0.079,0.069,0.132C6.949,9.428,6.89,9.458,6.833,9.441L2.91,8.229C2.855,8.21,2.824,8.152,2.842,8.097
	C2.858,8.04,2.917,8.009,2.974,8.027z M6.864,10.074L2.943,8.861 M2.974,8.76l3.922,1.214c0.055,0.017,0.087,0.075,0.069,0.132
	c-0.016,0.055-0.075,0.086-0.132,0.069L2.91,8.961C2.855,8.943,2.824,8.885,2.842,8.83C2.858,8.771,2.917,8.741,2.974,8.76z
	 M12.304,3.726l-3.92,1.212 M12.405,3.693c0.018,0.057-0.014,0.117-0.07,0.132L8.414,5.038C8.356,5.058,8.298,5.026,8.28,4.969
	C8.264,4.915,8.295,4.856,8.352,4.837l3.921-1.212C12.329,3.608,12.388,3.638,12.405,3.693z M8.384,5.673l3.92-1.213 M12.405,4.429
	c0.018,0.055-0.014,0.113-0.07,0.132L8.414,5.774C8.356,5.791,8.298,5.759,8.28,5.704C8.264,5.647,8.295,5.589,8.352,5.57
	l3.921-1.211C12.329,4.34,12.388,4.372,12.405,4.429z M8.384,6.406l3.92-1.213 M12.405,5.162c0.018,0.055-0.014,0.113-0.07,0.132
	L8.414,6.507C8.356,6.524,8.298,6.492,8.28,6.438C8.264,6.38,8.295,6.322,8.352,6.305l3.921-1.213
	C12.329,5.074,12.388,5.105,12.405,5.162z M12.304,5.926L8.384,7.14 M12.405,5.895c0.018,0.054-0.014,0.115-0.07,0.132L8.414,7.24
	C8.356,7.257,8.298,7.226,8.28,7.171C8.264,7.116,8.295,7.057,8.352,7.04l3.921-1.214C12.329,5.806,12.388,5.84,12.405,5.895z
	 M12.304,6.66l-3.92,1.213 M12.405,6.629c0.018,0.056-0.014,0.114-0.07,0.131L8.414,7.973C8.356,7.992,8.298,7.957,8.28,7.903
	C8.264,7.85,8.295,7.791,8.352,7.771l3.921-1.212C12.329,6.542,12.388,6.573,12.405,6.629z M12.304,7.392l-3.92,1.214 M12.405,7.363
	c0.018,0.055-0.014,0.113-0.07,0.129L8.414,8.707C8.356,8.725,8.298,8.693,8.28,8.637C8.264,8.582,8.295,8.523,8.352,8.506
	l3.921-1.215C12.329,7.275,12.388,7.307,12.405,7.363z M12.304,8.127L8.384,9.34 M12.405,8.097c0.018,0.056-0.014,0.113-0.07,0.132
	L8.414,9.441C8.356,9.458,8.298,9.428,8.28,9.369C8.264,9.316,8.295,9.257,8.352,9.237l3.921-1.21
	C12.329,8.009,12.388,8.04,12.405,8.097z M12.304,8.861l-3.92,1.213 M12.405,8.83c0.018,0.055-0.014,0.113-0.07,0.131l-3.921,1.214
	c-0.058,0.017-0.116-0.015-0.134-0.069C8.264,10.049,8.295,9.99,8.352,9.974l3.921-1.214C12.329,8.741,12.388,8.771,12.405,8.83z"/>
</svg>
