<?xml version="1.0" encoding="utf-8"?>
<!-- Generator: Adobe Illustrator 12.0.0, SVG Export Plug-In . SVG Version: 6.00 Build 51448)  -->
<!DOCTYPE svg PUBLIC "-//W3C//DTD SVG 1.1 Tiny//EN" "http://www.w3.org/Graphics/SVG/1.1/DTD/svg11-tiny.dtd" [
	<!ENTITY ns_svg "http://www.w3.org/2000/svg">
	<!ENTITY ns_xlink "http://www.w3.org/1999/xlink">
]>
<svg  version="1.1" baseProfile="tiny" id="Layer_1" xmlns="&ns_svg;" xmlns:xlink="&ns_xlink;" width="15.25" height="15.25"
	 viewBox="0 0 15.25 15.25" xml:space="preserve">
<rect fill="none" width="15.25" height="15.25"/>
<path fill="#FFFFFF" stroke="#FFFFFF" stroke-width="1.7" d="M7.537,1.215c1.196,0,2.852,0.336,3.534,0.617
	c0.688,0.28,1.141,0.561,1.285,1.263l0.511,3.891v5.361h-0.882v0.842c0,1.025-1.525,1.025-1.525,0v-0.842H7.537h-0.01H4.714v0.842
	c0,1.025-1.523,1.025-1.523,0v-0.842H2.308V6.986L2.82,3.095c0.142-0.703,0.6-0.983,1.284-1.263C4.792,1.551,6.44,1.215,7.641,1.215
	"/>
<path fill="#0BAFEF" d="M7.537,1.215c1.196,0,2.852,0.336,3.534,0.617c0.688,0.28,1.141,0.561,1.285,1.263l0.511,3.891v5.361h-0.882
	v0.842c0,1.025-1.525,1.025-1.525,0v-0.842H7.537h-0.01H4.714v0.842c0,1.025-1.523,1.025-1.523,0v-0.842H2.308V6.986L2.82,3.095
	c0.142-0.703,0.6-0.983,1.284-1.263C4.792,1.551,6.44,1.215,7.641,1.215 M11.219,10.667c0.404,0,0.73-0.322,0.73-0.721
	s-0.326-0.719-0.73-0.719c-0.402,0-0.728,0.32-0.728,0.719S10.816,10.667,11.219,10.667z M11.219,9.947 M4.688,9.947
	c0-0.398-0.333-0.719-0.735-0.719c-0.4,0-0.729,0.32-0.729,0.719s0.329,0.721,0.729,0.721C4.355,10.667,4.688,10.345,4.688,9.947z
	 M3.953,9.947 M9.761,2.826c0.427,0,0.427-0.628,0-0.628H7.537H5.415c-0.428,0-0.428,0.628,0,0.628h2.114H9.761z M7.529,3.464H4.262
	c-0.452,0-0.568,0.229-0.625,0.569L3.239,6.858c-0.037,0.271,0.042,0.538,0.42,0.538h3.877h3.977c0.381,0,0.459-0.268,0.425-0.538
	l-0.401-2.825c-0.051-0.34-0.175-0.569-0.625-0.569H7.529z"/>
</svg>
