<?xml version="1.0" encoding="utf-8"?>
<!-- Generator: Adobe Illustrator 12.0.0, SVG Export Plug-In . SVG Version: 6.00 Build 51448)  -->
<!DOCTYPE svg PUBLIC "-//W3C//DTD SVG 1.1 Tiny//EN" "http://www.w3.org/Graphics/SVG/1.1/DTD/svg11-tiny.dtd" [
	<!ENTITY ns_svg "http://www.w3.org/2000/svg">
	<!ENTITY ns_xlink "http://www.w3.org/1999/xlink">
]>
<svg  version="1.1" baseProfile="tiny" id="Layer_1" xmlns="&ns_svg;" xmlns:xlink="&ns_xlink;" width="15.25" height="15.25"
	 viewBox="0 0 15.25 15.25" xml:space="preserve">
<rect fill="none" width="15.25" height="15.25"/>
<path fill="#FFFFFF" stroke="#FFFFFF" stroke-width="1.7" d="M8.832,2.33h1.453c0.799,0,1.217,0.435,1.409,0.942l1.036,2.665
	c0.41,0.053,1.135,0.53,1.135,1.44v3.387h-1.008v1.086c0,1.333-1.885,1.316-1.885,0v-1.086H7.578h0h0h0h-3.39v1.086
	c0,1.316-1.89,1.333-1.89,0v-1.086H1.294V7.376c0-0.91,0.726-1.388,1.134-1.44l1.033-2.665C3.653,2.764,4.074,2.33,4.869,2.33h1.476
	H8.832z"/>
<path fill="#0BAFEF" d="M8.832,2.33h1.453c0.799,0,1.217,0.435,1.409,0.942l1.036,2.665c0.41,0.053,1.135,0.53,1.135,1.44v3.387
	h-1.008v1.086c0,1.333-1.885,1.316-1.885,0v-1.086H7.578h0h0h0h-3.39v1.086c0,1.316-1.89,1.333-1.89,0v-1.086H1.294V7.376
	c0-0.91,0.726-1.388,1.134-1.44l1.033-2.665C3.653,2.764,4.074,2.33,4.869,2.33h1.476H8.832z M7.578,5.909h4.084L10.886,3.81
	c-0.099-0.292-0.245-0.507-0.587-0.508H7.578h0H7.575H4.856C4.515,3.303,4.372,3.518,4.277,3.81l-0.78,2.099h4.078H7.578
	L7.578,5.909z M4.144,7.826c0-0.498-0.391-0.898-0.871-0.898c-0.481,0-0.875,0.4-0.875,0.898c0,0.496,0.394,0.896,0.875,0.896
	C3.752,8.722,4.144,8.322,4.144,7.826z M3.273,7.826 M11.886,8.722c0.48,0,0.871-0.4,0.871-0.896c0-0.498-0.391-0.898-0.871-0.898
	c-0.479,0-0.874,0.4-0.874,0.898C11.012,8.322,11.406,8.722,11.886,8.722z M11.886,7.826"/>
</svg>
