<?xml version="1.0" encoding="utf-8"?>
<!-- Generator: Adobe Illustrator 12.0.0, SVG Export Plug-In . SVG Version: 6.00 Build 51448)  -->
<!DOCTYPE svg PUBLIC "-//W3C//DTD SVG 1.1 Tiny//EN" "http://www.w3.org/Graphics/SVG/1.1/DTD/svg11-tiny.dtd" [
	<!ENTITY ns_svg "http://www.w3.org/2000/svg">
	<!ENTITY ns_xlink "http://www.w3.org/1999/xlink">
]>
<svg  version="1.1" baseProfile="tiny" id="Layer_1" xmlns="&ns_svg;" xmlns:xlink="&ns_xlink;" width="15.25" height="15.25"
	 viewBox="0 0 15.25 15.25" xml:space="preserve">
<rect fill="none" width="15.25" height="15.25"/>
<path fill="#FFFFFF" stroke="#FFFFFF" stroke-width="1.7" d="M13.427,10.418l-3.182,0.264c-0.025,0.383-0.335,0.694-0.719,0.694
	H5.699c-0.382,0-0.694-0.312-0.717-0.694l-3.184-0.264c-0.358-0.022-0.645-0.335-0.645-0.718V9.223c0-0.265,0.216-0.479,0.479-0.479
	h3.469C4.12,7.453,3.545,5.874,3.545,4.199c0-0.407,0.312-0.717,0.719-0.717h6.698c0.312,0,0.576,0.191,0.67,0.477h0.168
	c0.98,0,1.797,0.815,1.797,1.796c0,1.388-1.127,2.511-2.515,2.511h-0.622c-0.094,0.168-0.214,0.312-0.336,0.479h3.473
	c0.26,0,0.476,0.215,0.476,0.479v0.478C14.072,10.083,13.785,10.396,13.427,10.418z"/>
<g>
	<path fill="#0BAFEF" d="M13.427,10.418l-3.182,0.264c-0.025,0.383-0.335,0.694-0.719,0.694H5.699c-0.382,0-0.694-0.312-0.717-0.694
		l-3.184-0.264c-0.358-0.022-0.645-0.335-0.645-0.718V9.223c0-0.265,0.216-0.479,0.479-0.479h3.469
		C4.12,7.453,3.545,5.874,3.545,4.199c0-0.407,0.312-0.717,0.719-0.717h6.698c0.312,0,0.576,0.191,0.67,0.477h0.168
		c0.98,0,1.797,0.815,1.797,1.796c0,1.388-1.127,2.511-2.515,2.511h-0.622c-0.094,0.168-0.214,0.312-0.336,0.479h3.473
		c0.26,0,0.476,0.215,0.476,0.479v0.478C14.072,10.083,13.785,10.396,13.427,10.418z M13.596,9.223H1.632v0.478
		c0,0.121,0.094,0.24,0.215,0.24l3.612,0.311v0.407c0,0.145,0.096,0.239,0.24,0.239h3.828c0.143,0,0.239-0.095,0.239-0.239v-0.407
		l3.612-0.311c0.12,0,0.218-0.119,0.218-0.24V9.223z M11.799,4.439h-0.598c0-0.073,0-0.168,0-0.24c0-0.143-0.096-0.24-0.24-0.24
		H4.264c-0.144,0-0.239,0.097-0.239,0.24c0,1.7,0.622,3.277,1.674,4.545h3.828c0.263-0.311,0.479-0.621,0.671-0.956h0.884
		c1.125,0,2.032-0.909,2.032-2.033C13.114,5.036,12.518,4.439,11.799,4.439z M11.082,7.309h-0.622
		c0.383-0.741,0.599-1.555,0.695-2.393h0.645c0.455,0,0.838,0.383,0.838,0.838C12.637,6.615,11.942,7.309,11.082,7.309z
		 M11.799,5.395h-0.215c-0.071,0.504-0.215,0.982-0.383,1.436c0.549-0.071,0.957-0.526,0.957-1.076
		C12.159,5.563,11.991,5.395,11.799,5.395z"/>
</g>
</svg>
