<?xml version="1.0" encoding="utf-8"?>
<!-- Generator: Adobe Illustrator 12.0.0, SVG Export Plug-In . SVG Version: 6.00 Build 51448)  -->
<!DOCTYPE svg PUBLIC "-//W3C//DTD SVG 1.1 Tiny//EN" "http://www.w3.org/Graphics/SVG/1.1/DTD/svg11-tiny.dtd" [
	<!ENTITY ns_svg "http://www.w3.org/2000/svg">
	<!ENTITY ns_xlink "http://www.w3.org/1999/xlink">
]>
<svg  version="1.1" baseProfile="tiny" id="Layer_1" xmlns="&ns_svg;" xmlns:xlink="&ns_xlink;" width="15.25" height="15.25"
	 viewBox="0 0 15.25 15.25" xml:space="preserve">
<rect fill="none" width="15.25" height="15.25"/>
<path fill="#FFFFFF" stroke="#FFFFFF" stroke-width="1.7" d="M13.606,13.308h-12c-0.264,0-0.48-0.217-0.48-0.48v-0.24
	c0-0.096,0.024-0.168,0.072-0.24l1.584-2.76c0.072-0.144,0.264-0.24,0.408-0.24h0.575c0.145,0,0.24-0.096,0.24-0.239
	c0-0.145-0.095-0.241-0.24-0.241H3.191c-0.265,0-0.481-0.215-0.481-0.479V2.267c0-0.263,0.216-0.479,0.481-0.479h8.832
	c0.264,0,0.479,0.216,0.479,0.479v6.121c0,0.264-0.216,0.479-0.479,0.479h-0.576c-0.145,0-0.24,0.097-0.24,0.241
	c0,0.144,0.096,0.239,0.24,0.239h0.576c0.168,0,0.312,0.097,0.408,0.24l1.584,2.76c0.049,0.072,0.071,0.145,0.071,0.24v0.24
	C14.086,13.091,13.87,13.308,13.606,13.308z"/>
<g>
	<path fill="#0BAFEF" d="M13.606,13.308h-12c-0.264,0-0.48-0.217-0.48-0.48v-0.24c0-0.096,0.024-0.168,0.072-0.24l1.584-2.76
		c0.072-0.144,0.264-0.24,0.408-0.24h0.575c0.145,0,0.24-0.096,0.24-0.239c0-0.145-0.095-0.241-0.24-0.241H3.191
		c-0.265,0-0.481-0.215-0.481-0.479V2.267c0-0.263,0.216-0.479,0.481-0.479h8.832c0.264,0,0.479,0.216,0.479,0.479v6.121
		c0,0.264-0.216,0.479-0.479,0.479h-0.576c-0.145,0-0.24,0.097-0.24,0.241c0,0.144,0.096,0.239,0.24,0.239h0.576
		c0.168,0,0.312,0.097,0.408,0.24l1.584,2.76c0.049,0.072,0.071,0.145,0.071,0.24v0.24C14.086,13.091,13.87,13.308,13.606,13.308z
		 M2.806,11.148c-0.191,0-0.359,0.168-0.359,0.359c0,0.192,0.168,0.359,0.359,0.359c0.192,0,0.361-0.167,0.361-0.359
		C3.167,11.316,2.998,11.148,2.806,11.148z M3.406,10.115c-0.192,0-0.359,0.169-0.359,0.361c0,0.191,0.167,0.359,0.359,0.359
		c0.192,0,0.36-0.168,0.36-0.359C3.766,10.284,3.598,10.115,3.406,10.115z M4.006,11.148c-0.191,0-0.359,0.168-0.359,0.359
		c0,0.192,0.167,0.359,0.359,0.359c0.192,0,0.361-0.167,0.361-0.359C4.367,11.316,4.198,11.148,4.006,11.148z M11.542,2.988
		c0-0.144-0.096-0.24-0.24-0.24H3.911c-0.145,0-0.241,0.096-0.241,0.24v4.68c0,0.145,0.096,0.24,0.241,0.24h7.391
		c0.145,0,0.24-0.096,0.24-0.24V2.988z M4.606,10.115c-0.192,0-0.36,0.169-0.36,0.361c0,0.191,0.167,0.359,0.36,0.359
		c0.191,0,0.359-0.168,0.359-0.359C4.966,10.284,4.798,10.115,4.606,10.115z M5.207,11.148c-0.193,0-0.36,0.168-0.36,0.359
		c0,0.192,0.167,0.359,0.36,0.359c0.192,0,0.361-0.167,0.361-0.359C5.567,11.316,5.398,11.148,5.207,11.148z M9.886,8.867h-4.56
		c-0.145,0-0.24,0.097-0.24,0.241c0,0.144,0.096,0.239,0.24,0.239h4.56c0.145,0,0.24-0.096,0.24-0.239
		C10.126,8.963,10.03,8.867,9.886,8.867z M5.806,10.115c-0.191,0-0.359,0.169-0.359,0.361c0,0.191,0.168,0.359,0.359,0.359
		c0.192,0,0.361-0.168,0.361-0.359C6.167,10.284,5.998,10.115,5.806,10.115z M6.406,11.148c-0.192,0-0.359,0.168-0.359,0.359
		c0,0.192,0.167,0.359,0.359,0.359c0.192,0,0.361-0.167,0.361-0.359C6.768,11.316,6.598,11.148,6.406,11.148z M7.006,10.115
		c-0.191,0-0.359,0.169-0.359,0.361c0,0.191,0.167,0.359,0.359,0.359c0.192,0,0.361-0.168,0.361-0.359
		C7.367,10.284,7.198,10.115,7.006,10.115z M7.606,11.148c-0.192,0-0.36,0.168-0.36,0.359c0,0.192,0.167,0.359,0.36,0.359
		c0.191,0,0.359-0.167,0.359-0.359C7.966,11.316,7.798,11.148,7.606,11.148z M8.206,10.115c-0.192,0-0.359,0.169-0.359,0.361
		c0,0.191,0.167,0.359,0.359,0.359s0.361-0.168,0.361-0.359C8.567,10.284,8.398,10.115,8.206,10.115z M8.806,11.148
		c-0.191,0-0.359,0.168-0.359,0.359c0,0.192,0.168,0.359,0.359,0.359c0.192,0,0.361-0.167,0.361-0.359
		C9.167,11.316,8.998,11.148,8.806,11.148z M9.406,10.115c-0.192,0-0.359,0.169-0.359,0.361c0,0.191,0.167,0.359,0.359,0.359
		s0.361-0.168,0.361-0.359C9.768,10.284,9.599,10.115,9.406,10.115z M10.006,11.148c-0.191,0-0.358,0.168-0.358,0.359
		c0,0.192,0.167,0.359,0.358,0.359c0.192,0,0.361-0.167,0.361-0.359C10.367,11.316,10.198,11.148,10.006,11.148z M10.606,10.115
		c-0.192,0-0.359,0.169-0.359,0.361c0,0.191,0.167,0.359,0.359,0.359c0.191,0,0.359-0.168,0.359-0.359
		C10.966,10.284,10.798,10.115,10.606,10.115z M11.206,11.148c-0.191,0-0.359,0.168-0.359,0.359c0,0.192,0.168,0.359,0.359,0.359
		c0.192,0,0.361-0.167,0.361-0.359C11.567,11.316,11.398,11.148,11.206,11.148z M11.807,10.115c-0.192,0-0.36,0.169-0.36,0.361
		c0,0.191,0.168,0.359,0.36,0.359c0.191,0,0.36-0.168,0.36-0.359C12.167,10.284,11.998,10.115,11.807,10.115z M12.406,11.148
		c-0.192,0-0.359,0.168-0.359,0.359c0,0.192,0.167,0.359,0.359,0.359s0.361-0.167,0.361-0.359
		C12.768,11.316,12.599,11.148,12.406,11.148z"/>
</g>
</svg>
