<?xml version="1.0" encoding="utf-8"?>
<!-- Generator: Adobe Illustrator 12.0.0, SVG Export Plug-In . SVG Version: 6.00 Build 51448)  -->
<!DOCTYPE svg PUBLIC "-//W3C//DTD SVG 1.1 Tiny//EN" "http://www.w3.org/Graphics/SVG/1.1/DTD/svg11-tiny.dtd" [
	<!ENTITY ns_svg "http://www.w3.org/2000/svg">
	<!ENTITY ns_xlink "http://www.w3.org/1999/xlink">
]>
<svg  version="1.1" baseProfile="tiny" id="Layer_1" xmlns="&ns_svg;" xmlns:xlink="&ns_xlink;" width="15.25" height="15.25"
	 viewBox="0 0 15.25 15.25" xml:space="preserve">
<rect fill="none" width="15.25" height="15.25"/>
<path fill="#FFFFFF" stroke="#FFFFFF" stroke-width="1.7" d="M13.885,4.63h-1.203c0,0.267-0.218,0.483-0.482,0.483h-1.227L9.285,6.1
	c-0.118,0.047-0.239,0.097-0.36,0.097H8.106l-0.674,1.83c-0.07,0.192-0.242,0.337-0.458,0.337H6.806L6.47,9.277
	C6.42,9.445,6.494,9.543,6.612,9.59l0.557,0.194c0.431,0.169,0.72,0.553,0.72,1.035c0,0.119-0.023,0.241-0.072,0.36l-0.698,1.901
	c-0.098,0.241-0.336,0.411-0.603,0.314l-3.635-1.323c-0.241-0.098-0.386-0.338-0.289-0.627L4.398,6.51
	c0.049-0.168-0.071-0.313-0.239-0.313H2.929c-0.986,0-1.806-0.82-1.806-1.807c0-0.987,0.82-1.805,1.806-1.805h5.972
	c0.145,0,0.266,0.048,0.384,0.096l1.688,0.987H12.2c0.265,0,0.482,0.217,0.482,0.481h1.203c0.145,0,0.239,0.096,0.239,0.241
	S14.03,4.63,13.885,4.63z"/>
<g>
	<path fill="#0BAFEF" d="M13.885,4.63h-1.203c0,0.267-0.218,0.483-0.482,0.483h-1.227L9.285,6.1
		c-0.118,0.047-0.239,0.097-0.36,0.097H8.106l-0.674,1.83c-0.07,0.192-0.242,0.337-0.458,0.337H6.806L6.47,9.277
		C6.42,9.445,6.494,9.543,6.612,9.59l0.557,0.194c0.431,0.169,0.72,0.553,0.72,1.035c0,0.119-0.023,0.241-0.072,0.36l-0.698,1.901
		c-0.098,0.241-0.336,0.411-0.603,0.314l-3.635-1.323c-0.241-0.098-0.386-0.338-0.289-0.627L4.398,6.51
		c0.049-0.168-0.071-0.313-0.239-0.313H2.929c-0.986,0-1.806-0.82-1.806-1.807c0-0.987,0.82-1.805,1.806-1.805h5.972
		c0.145,0,0.266,0.048,0.384,0.096l1.688,0.987H12.2c0.265,0,0.482,0.217,0.482,0.481h1.203c0.145,0,0.239,0.096,0.239,0.241
		S14.03,4.63,13.885,4.63z M8.276,3.066H2.929c-0.723,0-1.325,0.602-1.325,1.324c0,0.723,0.602,1.325,1.325,1.325h1.229
		c0.552,0,0.841,0.553,0.697,0.964l-1.348,3.708l1.012,0.36c0.122-0.312,0.434-0.556,0.793-0.556c0.458,0,0.844,0.387,0.844,0.844
		c0,0.098-0.024,0.193-0.05,0.29l1.013,0.36l0.242-0.674c0.12-0.339-0.051-0.649-0.363-0.771l-0.553-0.194
		C6.157,9.926,5.964,9.664,5.964,9.351c0-0.073,0.025-0.168,0.048-0.241l1.132-3.081c0.045-0.192,0.241-0.313,0.433-0.313h0.699
		V3.066z M4.735,4.149H2.929c-0.145,0-0.239-0.098-0.239-0.24c0-0.145,0.094-0.241,0.239-0.241h1.806
		c0.145,0,0.242,0.096,0.242,0.241C4.977,4.052,4.879,4.149,4.735,4.149z M4.735,5.113H2.929c-0.145,0-0.239-0.096-0.239-0.241
		c0-0.145,0.094-0.242,0.239-0.242h1.806c0.145,0,0.242,0.098,0.242,0.242C4.977,5.017,4.879,5.113,4.735,5.113z M5.312,10.673
		c-0.191,0-0.359,0.171-0.359,0.362c0,0.193,0.168,0.361,0.359,0.361c0.192,0,0.364-0.168,0.364-0.361
		C5.676,10.844,5.504,10.673,5.312,10.673z"/>
</g>
</svg>
