<?xml version="1.0" encoding="utf-8"?>
<!-- Generator: Adobe Illustrator 12.0.0, SVG Export Plug-In . SVG Version: 6.00 Build 51448)  -->
<!DOCTYPE svg PUBLIC "-//W3C//DTD SVG 1.1 Tiny//EN" "http://www.w3.org/Graphics/SVG/1.1/DTD/svg11-tiny.dtd" [
	<!ENTITY ns_svg "http://www.w3.org/2000/svg">
	<!ENTITY ns_xlink "http://www.w3.org/1999/xlink">
]>
<svg  version="1.1" baseProfile="tiny" id="Layer_1" xmlns="&ns_svg;" xmlns:xlink="&ns_xlink;" width="15.25" height="15.25"
	 viewBox="0 0 15.25 15.25" xml:space="preserve">
<rect fill="none" width="15.25" height="15.25"/>
<g>
	<path fill="#FFFFFF" stroke="#FFFFFF" stroke-width="1.7" d="M5.892,6.174l0.377,7.139c0.026,0.429-0.329,0.757-0.757,0.757
		s-0.781-0.328-0.754-0.757l0.377-7.139C4.631,5.946,4.25,5.267,4.25,4.483V1.634c0-0.152,0.102-0.253,0.254-0.253
		c0.151,0,0.254,0.102,0.254,0.253v2.219c0,0.151,0.1,0.252,0.25,0.252c0.153,0,0.254-0.101,0.254-0.252V1.457
		c0-0.126,0.127-0.252,0.251-0.252c0.152,0,0.253,0.101,0.253,0.252v2.396c0,0.151,0.101,0.252,0.251,0.252
		c0.152,0,0.253-0.101,0.253-0.252V1.634c0-0.127,0.127-0.253,0.253-0.253c0.149,0,0.252,0.102,0.252,0.253v2.849
		C6.773,5.267,6.396,5.946,5.892,6.174z"/>
	<path fill="#FFFFFF" stroke="#FFFFFF" stroke-width="1.7" d="M10.429,14.07c-0.429,0-0.78-0.328-0.754-0.757l0.276-5.425H9.797
		c-0.275,0-0.502-0.225-0.502-0.504V5.24c0-2.221,0.453-4.036,1.008-4.036c0.279,0,0.506,0.227,0.506,0.505v4.363l0.377,7.24
		C11.213,13.742,10.858,14.07,10.429,14.07z"/>
</g>
<g>
	<path fill="#0BAFEF" d="M5.892,6.174l0.377,7.139c0.026,0.429-0.329,0.757-0.757,0.757s-0.781-0.328-0.754-0.757l0.377-7.139
		C4.631,5.946,4.25,5.267,4.25,4.483V1.634c0-0.152,0.102-0.253,0.254-0.253c0.151,0,0.254,0.102,0.254,0.253v2.219
		c0,0.151,0.1,0.252,0.25,0.252c0.153,0,0.254-0.101,0.254-0.252V1.457c0-0.126,0.127-0.252,0.251-0.252
		c0.152,0,0.253,0.101,0.253,0.252v2.396c0,0.151,0.101,0.252,0.251,0.252c0.152,0,0.253-0.101,0.253-0.252V1.634
		c0-0.127,0.127-0.253,0.253-0.253c0.149,0,0.252,0.102,0.252,0.253v2.849C6.773,5.267,6.396,5.946,5.892,6.174z"/>
	<path fill="#0BAFEF" d="M10.429,14.07c-0.429,0-0.78-0.328-0.754-0.757l0.276-5.425H9.797c-0.275,0-0.502-0.225-0.502-0.504V5.24
		c0-2.221,0.453-4.036,1.008-4.036c0.279,0,0.506,0.227,0.506,0.505v4.363l0.377,7.24C11.213,13.742,10.858,14.07,10.429,14.07z"/>
</g>
</svg>
