<?xml version="1.0" encoding="utf-8"?>
<!-- Generator: Adobe Illustrator 12.0.0, SVG Export Plug-In . SVG Version: 6.00 Build 51448)  -->
<!DOCTYPE svg PUBLIC "-//W3C//DTD SVG 1.1 Tiny//EN" "http://www.w3.org/Graphics/SVG/1.1/DTD/svg11-tiny.dtd" [
	<!ENTITY ns_svg "http://www.w3.org/2000/svg">
	<!ENTITY ns_xlink "http://www.w3.org/1999/xlink">
]>
<svg  version="1.1" baseProfile="tiny" id="Layer_1" xmlns="&ns_svg;" xmlns:xlink="&ns_xlink;" width="15.25" height="15.25"
	 viewBox="0 0 15.25 15.25" xml:space="preserve">
<rect fill="none" width="15.25" height="15.25"/>
<path fill="#FFFFFF" stroke="#FFFFFF" stroke-width="1.7" d="M13.573,4.411c-0.097-0.029-0.199,0.026-0.229,0.125l-2.237,7.526
	c-0.046-0.021-0.097-0.033-0.15-0.033c0,0-6.905,0-7.576,0v-0.391h7.142c0.104,0,0.186-0.082,0.186-0.185s-0.082-0.186-0.186-0.186
	H3.38v-0.464c0.669,0,7.38,0,7.38,0c0.162,0,0.306-0.107,0.352-0.265l2.067-6.926c0.011-0.034,0.017-0.07,0.017-0.104
	c0-0.079-0.025-0.157-0.075-0.221c-0.069-0.094-0.18-0.149-0.296-0.149H5.642c-0.024,0-0.042,0.014-0.063,0.019
	C5.365,2.505,5.023,1.455,5.023,1.455c-0.037-0.114-0.143-0.19-0.263-0.19c-0.121,0-0.228,0.077-0.266,0.19
	c0,0-0.595,1.84-0.699,2.164c-0.341,0-2.274,0-2.274,0c-0.119,0-0.226,0.077-0.265,0.191C1.25,3.838,1.241,3.866,1.241,3.896
	c0,0.087,0.042,0.172,0.118,0.225c0,0,1.562,1.136,1.837,1.336C3.093,5.779,2.498,7.619,2.498,7.619
	c-0.01,0.027-0.016,0.057-0.016,0.086c0,0.086,0.044,0.17,0.117,0.223c0.098,0.071,0.229,0.07,0.324,0c0,0,0.436-0.317,0.889-0.646
	l-1.149,3.021c-0.018,0.044-0.024,0.088-0.024,0.132l0.001,1.965c0,0.204,0.167,0.37,0.37,0.37h7.946
	c0.047,0,0.09-0.011,0.131-0.025c0.004,0,0.005,0.004,0.009,0.006c0.1,0.029,0.201-0.026,0.231-0.125l2.372-7.984
	C13.729,4.543,13.673,4.44,13.573,4.411z"/>
<path fill="#7E0081" d="M13.573,4.411c-0.097-0.029-0.199,0.026-0.229,0.125l-2.237,7.526c-0.046-0.021-0.097-0.033-0.15-0.033
	c0,0-6.905,0-7.576,0v-0.391h7.142c0.104,0,0.186-0.082,0.186-0.185s-0.082-0.186-0.186-0.186H3.38v-0.464c0.669,0,7.38,0,7.38,0
	c0.162,0,0.306-0.107,0.352-0.265l2.067-6.926c0.011-0.034,0.017-0.07,0.017-0.104c0-0.079-0.025-0.157-0.075-0.221
	c-0.069-0.094-0.18-0.149-0.296-0.149H5.642c-0.024,0-0.042,0.014-0.063,0.019C5.365,2.505,5.023,1.455,5.023,1.455
	c-0.037-0.114-0.143-0.19-0.263-0.19c-0.121,0-0.228,0.077-0.266,0.19c0,0-0.595,1.84-0.699,2.164c-0.341,0-2.274,0-2.274,0
	c-0.119,0-0.226,0.077-0.265,0.191C1.25,3.838,1.241,3.866,1.241,3.896c0,0.087,0.042,0.172,0.118,0.225
	c0,0,1.562,1.136,1.837,1.336C3.093,5.779,2.498,7.619,2.498,7.619c-0.01,0.027-0.016,0.057-0.016,0.086
	c0,0.086,0.044,0.17,0.117,0.223c0.098,0.071,0.229,0.07,0.324,0c0,0,0.436-0.317,0.889-0.646l-1.149,3.021
	c-0.018,0.044-0.024,0.088-0.024,0.132l0.001,1.965c0,0.204,0.167,0.37,0.37,0.37h7.946c0.047,0,0.09-0.011,0.131-0.025
	c0.004,0,0.005,0.004,0.009,0.006c0.1,0.029,0.201-0.026,0.231-0.125l2.372-7.984C13.729,4.543,13.673,4.44,13.573,4.411z
	 M3.686,5.125c0,0-0.717-0.521-1.311-0.951c0.732,0,1.62,0,1.62,0c0.122,0,0.228-0.078,0.267-0.193c0,0,0.271-0.845,0.499-1.542
	c0.228,0.697,0.501,1.542,0.501,1.542c0.039,0.115,0.145,0.193,0.265,0.193c0,0,0.89,0,1.623,0c-0.593,0.43-1.312,0.951-1.312,0.951
	C5.764,5.178,5.722,5.263,5.722,5.35c0,0.029,0.008,0.058,0.016,0.085c0,0,0.273,0.847,0.499,1.544
	c-0.591-0.43-1.313-0.955-1.313-0.955c-0.099-0.07-0.23-0.07-0.327,0c0,0-0.717,0.522-1.308,0.953
	c0.225-0.696,0.498-1.542,0.498-1.542C3.796,5.407,3.8,5.378,3.8,5.35C3.8,5.263,3.759,5.179,3.686,5.125z"/>
</svg>
