<?xml version="1.0" encoding="utf-8"?>
<!-- Generator: Adobe Illustrator 12.0.0, SVG Export Plug-In . SVG Version: 6.00 Build 51448)  -->
<!DOCTYPE svg PUBLIC "-//W3C//DTD SVG 1.1 Tiny//EN" "http://www.w3.org/Graphics/SVG/1.1/DTD/svg11-tiny.dtd" [
	<!ENTITY ns_svg "http://www.w3.org/2000/svg">
	<!ENTITY ns_xlink "http://www.w3.org/1999/xlink">
]>
<svg  version="1.1" baseProfile="tiny" id="Layer_1" xmlns="&ns_svg;" xmlns:xlink="&ns_xlink;" width="15.25" height="15.25"
	 viewBox="0 0 15.25 15.25" xml:space="preserve">
<rect fill="none" width="15.25" height="15.25"/>
<path id="stroke_1_" fill="#FFFFFF" stroke="#FFFFFF" stroke-width="1.7" d="M12.309,10.184c0,1.107-0.896,2.006-2.002,2.006H4.914
	c-1.108,0-2.008-0.898-2.008-2.006V4.791c0-1.107,0.899-2.004,2.008-2.004h5.393c1.106,0,2.002,0.896,2.002,2.004V10.184z"/>
<path fill="#7E0081" d="M12.309,10.184c0,1.107-0.896,2.006-2.002,2.006H4.914c-1.108,0-2.008-0.898-2.008-2.006V4.791
	c0-1.107,0.899-2.004,2.008-2.004h5.393c1.106,0,2.002,0.896,2.002,2.004V10.184z M5.268,8.971c-0.465,0-0.841,0.375-0.841,0.839
	s0.376,0.841,0.841,0.841c0.462,0,0.838-0.377,0.838-0.841S5.729,8.971,5.268,8.971z M4.428,7.693c0.786,0,1.527,0.309,2.081,0.867
	c0.559,0.559,0.864,1.303,0.864,2.095h1.211c0-2.302-1.864-4.174-4.156-4.174V7.693z M4.429,5.545c2.805,0,5.085,2.293,5.085,5.112
	h1.213c0-3.487-2.825-6.324-6.298-6.324V5.545z"/>
</svg>
