<?xml version="1.0" encoding="utf-8"?>
<!-- Generator: Adobe Illustrator 12.0.0, SVG Export Plug-In . SVG Version: 6.00 Build 51448)  -->
<!DOCTYPE svg PUBLIC "-//W3C//DTD SVG 1.1 Tiny//EN" "http://www.w3.org/Graphics/SVG/1.1/DTD/svg11-tiny.dtd" [
	<!ENTITY ns_svg "http://www.w3.org/2000/svg">
	<!ENTITY ns_xlink "http://www.w3.org/1999/xlink">
]>
<svg  version="1.1" baseProfile="tiny" id="Layer_1" xmlns="&ns_svg;" xmlns:xlink="&ns_xlink;" width="15.25" height="15.25"
	 viewBox="0 0 15.25 15.25" xml:space="preserve">
<rect fill="none" width="15.25" height="15.25"/>
<path fill="#FFFFFF" stroke="#FFFFFF" stroke-width="1.7" d="M11.968,5.626c0,2.345-1.898,4.248-4.246,4.248
	c-2.347,0-4.249-1.902-4.249-4.248c0-2.346,1.902-4.247,4.249-4.247C10.069,1.379,11.968,3.28,11.968,5.626z M7.203,10.391
	l0.367,3.122c0.008,0.083,0.075,0.145,0.158,0.144c0.085,0,0.152-0.062,0.161-0.144l0.349-3.122
	c-0.17,0.023-0.342,0.041-0.517,0.041C7.544,10.432,7.372,10.417,7.203,10.391z"/>
<path fill="#7E0081" d="M11.968,5.626c0,2.345-1.898,4.248-4.246,4.248c-2.347,0-4.249-1.902-4.249-4.248
	c0-2.346,1.902-4.247,4.249-4.247C10.069,1.379,11.968,3.28,11.968,5.626z M7.203,10.391l0.367,3.122
	c0.008,0.083,0.075,0.145,0.158,0.144c0.085,0,0.152-0.062,0.161-0.144l0.349-3.122c-0.17,0.023-0.342,0.041-0.517,0.041
	C7.544,10.432,7.372,10.417,7.203,10.391z M9.397,4.593C8.621,3.398,7.531,4.014,7.052,4.798C6.372,4.033,5.141,4.319,5.149,5.41
	C5.529,5.439,5.995,5.729,6.157,6C6.044,6.227,5.678,6.584,5.149,6.562C4.902,7.571,6.41,7.676,6.981,7.074
	C7.477,7.973,9.193,8.5,9.506,7.321c-0.642-0.314-1.335-0.715-1.48-1.299C8.375,5.336,9.062,4.798,9.397,4.593z"/>
</svg>
