<?xml version="1.0" encoding="utf-8"?>
<!-- Generator: Adobe Illustrator 12.0.0, SVG Export Plug-In . SVG Version: 6.00 Build 51448)  -->
<!DOCTYPE svg PUBLIC "-//W3C//DTD SVG 1.1 Tiny//EN" "http://www.w3.org/Graphics/SVG/1.1/DTD/svg11-tiny.dtd" [
	<!ENTITY ns_svg "http://www.w3.org/2000/svg">
	<!ENTITY ns_xlink "http://www.w3.org/1999/xlink">
]>
<svg  version="1.1" baseProfile="tiny" id="Layer_1" xmlns="&ns_svg;" xmlns:xlink="&ns_xlink;" width="15.25" height="15.25"
	 viewBox="0 0 15.25 15.25" xml:space="preserve">
<rect fill="none" width="15.25" height="15.25"/>
<path fill="#FFFFFF" stroke="#FFFFFF" stroke-width="1.7" stroke-linejoin="round" d="M13.717,9.485
	c-0.028,0.006-0.061,0.002-0.085-0.015c-0.025-0.016-0.043-0.041-0.051-0.068l-0.104-0.441C13.463,8.9,13.501,8.84,13.56,8.825
	l0.277-0.067l-0.108-0.441l-1.467,0.343c-0.06,0.015-0.12-0.022-0.135-0.083L11.054,4.16c-0.015-0.06,0.021-0.121,0.084-0.136
	l1.459-0.363l-0.102-0.417l-0.276,0.067c-0.03,0.007-0.061,0.003-0.087-0.013c-0.024-0.016-0.043-0.041-0.05-0.07l-0.107-0.441
	c-0.015-0.06,0.023-0.121,0.083-0.135l0.277-0.068l-0.091-0.377L1.141,4.904l0.092,0.378l0.499-0.122
	c0.061-0.015,0.122,0.022,0.137,0.082l0.109,0.441c0.009,0.028,0.003,0.06-0.012,0.085C1.949,5.794,1.925,5.812,1.896,5.819
	L1.394,5.941l0.099,0.411l1.301-0.301c0.062-0.013,0.121,0.023,0.136,0.083l1.073,4.417c0.008,0.029,0.001,0.061-0.014,0.086
	c-0.014,0.025-0.041,0.044-0.069,0.05l-1.301,0.302l0.113,0.469l0.502-0.122c0.029-0.007,0.061-0.003,0.085,0.013
	c0.025,0.016,0.043,0.04,0.052,0.069l0.106,0.44c0.015,0.061-0.023,0.121-0.083,0.136l-0.503,0.122l0.094,0.383l11.104-2.699
	l-0.093-0.382L13.717,9.485z"/>
<path fill="#7E0081" d="M13.717,9.485c-0.028,0.006-0.061,0.002-0.085-0.015c-0.025-0.016-0.043-0.041-0.051-0.068l-0.104-0.441
	C13.463,8.9,13.501,8.84,13.56,8.825l0.277-0.067l-0.108-0.441l-1.467,0.343c-0.06,0.015-0.12-0.022-0.135-0.083L11.054,4.16
	c-0.015-0.06,0.021-0.121,0.084-0.136l1.459-0.363l-0.102-0.417l-0.276,0.067c-0.03,0.007-0.061,0.003-0.087-0.013
	c-0.024-0.016-0.043-0.041-0.05-0.07l-0.107-0.441c-0.015-0.06,0.023-0.121,0.083-0.135l0.277-0.068l-0.091-0.377L1.141,4.904
	l0.092,0.378l0.499-0.122c0.061-0.015,0.122,0.022,0.137,0.082l0.109,0.441c0.009,0.028,0.003,0.06-0.012,0.085
	C1.949,5.794,1.925,5.812,1.896,5.819L1.394,5.941l0.099,0.411l1.301-0.301c0.062-0.013,0.121,0.023,0.136,0.083l1.073,4.417
	c0.008,0.029,0.001,0.061-0.014,0.086c-0.014,0.025-0.041,0.044-0.069,0.05l-1.301,0.302l0.113,0.469l0.502-0.122
	c0.029-0.007,0.061-0.003,0.085,0.013c0.025,0.016,0.043,0.04,0.052,0.069l0.106,0.44c0.015,0.061-0.023,0.121-0.083,0.136
	l-0.503,0.122l0.094,0.383l11.104-2.699l-0.093-0.382L13.717,9.485z M10.477,3.035l0.734-0.179c0.028-0.007,0.06-0.002,0.085,0.014
	c0.024,0.015,0.044,0.041,0.05,0.069l0.108,0.441c0.015,0.061-0.022,0.121-0.082,0.136l-0.735,0.18
	c-0.028,0.006-0.059,0.002-0.085-0.014c-0.025-0.015-0.043-0.041-0.051-0.069l-0.107-0.441C10.379,3.11,10.418,3.05,10.477,3.035z
	 M8.896,3.419L9.63,3.241c0.062-0.015,0.121,0.022,0.138,0.083l0.106,0.441c0.009,0.029,0.003,0.06-0.012,0.085
	C9.846,3.875,9.82,3.892,9.792,3.9L9.058,4.079c-0.03,0.007-0.061,0.002-0.086-0.013s-0.044-0.041-0.05-0.069L8.814,3.555
	C8.8,3.495,8.837,3.434,8.896,3.419z M7.317,3.804l0.734-0.179c0.029-0.007,0.06-0.002,0.085,0.013
	c0.025,0.016,0.043,0.041,0.05,0.069l0.108,0.441C8.31,4.208,8.271,4.27,8.212,4.284L7.478,4.462
	c-0.029,0.007-0.06,0.003-0.085-0.013C7.367,4.433,7.35,4.409,7.341,4.38L7.234,3.939C7.219,3.879,7.258,3.818,7.317,3.804z
	 M5.736,4.188l0.736-0.179C6.5,4.001,6.533,4.006,6.558,4.021c0.025,0.016,0.044,0.041,0.051,0.069l0.106,0.442
	c0.014,0.06-0.023,0.121-0.083,0.135L5.896,4.846C5.869,4.854,5.838,4.849,5.812,4.833c-0.024-0.016-0.042-0.04-0.05-0.069
	L5.654,4.323C5.64,4.263,5.678,4.202,5.736,4.188z M4.158,4.571l0.734-0.179c0.028-0.007,0.06-0.002,0.086,0.013
	c0.025,0.016,0.043,0.04,0.051,0.069l0.106,0.441c0.016,0.061-0.022,0.121-0.083,0.136L4.318,5.229
	C4.289,5.237,4.26,5.233,4.232,5.217c-0.025-0.015-0.043-0.04-0.051-0.069L4.074,4.706C4.061,4.646,4.098,4.585,4.158,4.571z
	 M3.545,5.385c-0.016,0.024-0.04,0.043-0.068,0.05L2.739,5.614C2.678,5.629,2.617,5.591,2.603,5.531l-0.106-0.44
	C2.48,5.031,2.518,4.97,2.577,4.955l0.734-0.179c0.061-0.014,0.122,0.022,0.136,0.082l0.111,0.441
	C3.565,5.329,3.561,5.359,3.545,5.385z M4.973,11.609l-0.733,0.179c-0.029,0.007-0.06,0.002-0.086-0.013
	c-0.025-0.016-0.043-0.041-0.051-0.07l-0.104-0.441c-0.015-0.06,0.023-0.12,0.083-0.135l0.731-0.178
	c0.03-0.008,0.06-0.003,0.086,0.012c0.025,0.016,0.043,0.041,0.05,0.07l0.108,0.441C5.071,11.535,5.033,11.596,4.973,11.609z
	 M5.019,10.305L3.944,5.887c-0.007-0.03-0.001-0.06,0.013-0.086c0.018-0.025,0.041-0.043,0.07-0.05L9.9,4.324
	c0.03-0.006,0.06-0.001,0.085,0.014s0.046,0.04,0.052,0.069l1.072,4.417c0.015,0.06-0.021,0.121-0.082,0.134l-5.872,1.429
	C5.094,10.402,5.033,10.364,5.019,10.305z M6.554,11.227l-0.734,0.178c-0.029,0.006-0.06,0.002-0.085-0.014
	s-0.045-0.041-0.052-0.068l-0.104-0.441c-0.015-0.061,0.021-0.121,0.082-0.136l0.73-0.179c0.028-0.006,0.061-0.002,0.085,0.014
	c0.026,0.015,0.044,0.041,0.052,0.069l0.105,0.441C6.649,11.15,6.612,11.212,6.554,11.227z M8.133,10.842l-0.733,0.179
	c-0.03,0.007-0.062,0.003-0.085-0.013c-0.027-0.016-0.045-0.041-0.052-0.07l-0.104-0.441c-0.015-0.061,0.022-0.121,0.083-0.135
	l0.731-0.18c0.029-0.006,0.06-0.002,0.085,0.014c0.026,0.016,0.045,0.041,0.052,0.069l0.106,0.441
	C8.231,10.767,8.193,10.827,8.133,10.842z M9.712,10.457l-0.735,0.18c-0.028,0.007-0.059,0.002-0.084-0.014
	c-0.026-0.016-0.044-0.041-0.051-0.07l-0.106-0.44c-0.013-0.06,0.023-0.12,0.083-0.135l0.732-0.179
	C9.58,9.792,9.612,9.797,9.637,9.812c0.025,0.016,0.045,0.039,0.052,0.068l0.106,0.441C9.811,10.383,9.772,10.443,9.712,10.457z
	 M11.292,10.074l-0.734,0.178c-0.028,0.008-0.06,0.002-0.085-0.012c-0.026-0.017-0.045-0.041-0.053-0.07l-0.104-0.441
	c-0.015-0.061,0.023-0.121,0.083-0.135l0.732-0.179c0.028-0.007,0.06-0.002,0.085,0.013c0.025,0.016,0.044,0.041,0.05,0.07
	l0.109,0.44C11.39,9.999,11.352,10.06,11.292,10.074z M12.942,9.639c-0.017,0.027-0.041,0.044-0.069,0.051l-0.735,0.18
	c-0.028,0.007-0.059,0.002-0.084-0.014c-0.026-0.016-0.045-0.041-0.052-0.069l-0.104-0.442c-0.015-0.059,0.023-0.119,0.083-0.135
	l0.731-0.178c0.059-0.016,0.12,0.021,0.134,0.082l0.107,0.441C12.961,9.584,12.956,9.613,12.942,9.639z"/>
</svg>
