<?xml version="1.0" encoding="utf-8"?>
<!-- Generator: Adobe Illustrator 12.0.0, SVG Export Plug-In . SVG Version: 6.00 Build 51448)  -->
<!DOCTYPE svg PUBLIC "-//W3C//DTD SVG 1.1 Tiny//EN" "http://www.w3.org/Graphics/SVG/1.1/DTD/svg11-tiny.dtd" [
	<!ENTITY ns_svg "http://www.w3.org/2000/svg">
	<!ENTITY ns_xlink "http://www.w3.org/1999/xlink">
]>
<svg  version="1.1" baseProfile="tiny" id="Layer_1" xmlns="&ns_svg;" xmlns:xlink="&ns_xlink;" width="15.25" height="15.25"
	 viewBox="0 0 15.25 15.25" xml:space="preserve">
<rect fill="none" width="15.25" height="15.25"/>
<path fill="#FFFFFF" stroke="#FFFFFF" stroke-width="1.7" d="M14.088,5.814l-2.955,2.961v3.892c0,0.165-0.132,0.299-0.297,0.299
	H2.157c-0.164,0-0.297-0.134-0.297-0.299V2.583c0-0.165,0.133-0.298,0.297-0.298h8.679c0.165,0,0.297,0.133,0.297,0.298v3.76
	l1.737-1.741c0.046-0.052,0.096-0.086,0.169-0.105c0.13-0.035,0.28,0.003,0.364,0.099l0.674,0.667
	c0.052,0.045,0.086,0.095,0.104,0.169C14.217,5.562,14.183,5.73,14.088,5.814z"/>
<path fill="#7E0081" d="M9.343,5.612c0.109,0,0.199,0.089,0.199,0.199c0,0.11-0.09,0.199-0.199,0.199H3.62
	c-0.109,0-0.198-0.089-0.198-0.199c0-0.11,0.089-0.199,0.198-0.199H9.343z M3.62,6.623c-0.109,0-0.198,0.089-0.198,0.199
	c0,0.109,0.089,0.199,0.198,0.199h5.723c0.109,0,0.199-0.089,0.199-0.199c0-0.11-0.09-0.199-0.199-0.199H3.62z M3.62,7.635
	c-0.109,0-0.198,0.089-0.198,0.199c0,0.109,0.089,0.198,0.198,0.198h5.723c0.109,0,0.199-0.089,0.199-0.198
	c0-0.11-0.09-0.199-0.199-0.199H3.62z M3.62,4.643c-0.109,0-0.198,0.088-0.198,0.199c0,0.109,0.089,0.199,0.198,0.199h5.723
	c0.109,0,0.199-0.089,0.199-0.199c0-0.11-0.09-0.199-0.199-0.199H3.62z M14.088,5.814l-2.955,2.961v3.892
	c0,0.165-0.132,0.299-0.297,0.299H2.157c-0.164,0-0.297-0.134-0.297-0.299V2.583c0-0.165,0.133-0.298,0.297-0.298h8.679
	c0.165,0,0.297,0.133,0.297,0.298v3.76l1.737-1.741c0.046-0.052,0.096-0.086,0.169-0.105c0.13-0.035,0.28,0.003,0.364,0.099
	l0.674,0.667c0.052,0.045,0.086,0.095,0.104,0.169C14.217,5.562,14.183,5.73,14.088,5.814z M10.537,9.373l-1.583,1.584
	c-0.033,0.028-0.077,0.08-0.113,0.09l-1.492,0.699c-0.174,0.088-0.361-0.021-0.406-0.187c-0.021-0.073,0.002-0.139,0.026-0.204
	l0.577-1.26H3.62c-0.109,0-0.198-0.09-0.198-0.199S3.511,9.698,3.62,9.698h4.163l0.654-0.655H3.62c-0.109,0-0.198-0.09-0.198-0.199
	S3.511,8.646,3.62,8.646h5.213l1.704-1.706V2.881H2.455v9.488h8.082V9.373z M8.081,10.096H7.978l-0.318,0.678l0.275,0.281
	l0.752-0.361L8.081,10.096z M13.146,6.208L12.473,5.54l-0.265,0.269l0.675,0.668L13.146,6.208z"/>
</svg>
