<?xml version="1.0" encoding="utf-8"?>
<!-- Generator: Adobe Illustrator 12.0.0, SVG Export Plug-In . SVG Version: 6.00 Build 51448)  -->
<!DOCTYPE svg PUBLIC "-//W3C//DTD SVG 1.1 Tiny//EN" "http://www.w3.org/Graphics/SVG/1.1/DTD/svg11-tiny.dtd" [
	<!ENTITY ns_svg "http://www.w3.org/2000/svg">
	<!ENTITY ns_xlink "http://www.w3.org/1999/xlink">
]>
<svg  version="1.1" baseProfile="tiny" id="Layer_1" xmlns="&ns_svg;" xmlns:xlink="&ns_xlink;" width="15.25" height="15.25"
	 viewBox="0 0 15.25 15.25" xml:space="preserve">
<rect fill="none" width="15.25" height="15.25"/>
<path fill="#FFFFFF" stroke="#FFFFFF" stroke-width="1.7" d="M12.374,1.94H2.826c-0.226,0-0.409,0.182-0.409,0.408v10.262
	c0,0.226,0.184,0.408,0.409,0.408h4.12v0.001c0.003,0,0.006-0.001,0.009-0.001h5.419c0.224,0,0.406-0.183,0.406-0.408V2.348
	C12.78,2.122,12.598,1.94,12.374,1.94z"/>
<path fill="#7E0081" d="M12.374,1.94H2.826c-0.226,0-0.409,0.182-0.409,0.408v10.262c0,0.226,0.184,0.408,0.409,0.408h4.12v0.001
	c0.003,0,0.006-0.001,0.009-0.001h5.419c0.224,0,0.406-0.183,0.406-0.408V2.348C12.78,2.122,12.598,1.94,12.374,1.94z M3.233,2.755
	h8.732v1.728H3.233V2.755z M6.948,12.203H3.233V5.094h8.732v2.003c-0.001,0.263-0.086,0.456-0.267,0.606
	c-0.672,0.552-2.36,0.375-2.955,0.258c-0.12-0.022-0.247,0.01-0.339,0.088C8.312,8.127,8.258,8.243,8.259,8.365
	c0.008,0.765-0.131,2.905-0.845,3.625C7.271,12.135,7.124,12.202,6.948,12.203z M8.119,12.291l3.938-3.938v3.938H8.119z M6.14,3.604
	c0,0.18-0.145,0.326-0.324,0.326S5.49,3.785,5.49,3.604c0-0.18,0.146-0.325,0.325-0.325S6.14,3.425,6.14,3.604z M9.553,3.604
	c0,0.18-0.15,0.326-0.33,0.326c-0.179,0-0.325-0.146-0.325-0.326c0-0.18,0.146-0.325,0.325-0.325
	C9.402,3.279,9.553,3.425,9.553,3.604z"/>
</svg>
