<?xml version="1.0" encoding="utf-8"?>
<!-- Generator: Adobe Illustrator 12.0.0, SVG Export Plug-In . SVG Version: 6.00 Build 51448)  -->
<!DOCTYPE svg PUBLIC "-//W3C//DTD SVG 1.1 Tiny//EN" "http://www.w3.org/Graphics/SVG/1.1/DTD/svg11-tiny.dtd" [
	<!ENTITY ns_svg "http://www.w3.org/2000/svg">
	<!ENTITY ns_xlink "http://www.w3.org/1999/xlink">
]>
<svg  version="1.1" baseProfile="tiny" id="Layer_1" xmlns="&ns_svg;" xmlns:xlink="&ns_xlink;" width="15.25" height="15.25"
	 viewBox="0 0 15.25 15.25" xml:space="preserve">
<rect fill="none" width="15.25" height="15.25"/>
<path fill="#FFFFFF" stroke="#FFFFFF" stroke-width="1.7" d="M12.102,3.772l-2.032-2.034c-0.1-0.102-0.204-0.152-0.352-0.152h-1.79
	V1.542c0-0.103-0.083-0.187-0.187-0.187h-2.71c-0.103,0-0.185,0.083-0.185,0.187v0.044H3.611c-0.28,0-0.511,0.229-0.511,0.508
	v10.828c0,0.278,0.23,0.508,0.511,0.508h8.135c0.28,0,0.508-0.229,0.508-0.508V4.128C12.254,3.977,12.205,3.875,12.102,3.772z"/>
<path fill="#7E0081" d="M12.102,3.772l-2.032-2.034c-0.1-0.102-0.204-0.152-0.352-0.152h-1.79V1.542
	c0-0.103-0.083-0.187-0.187-0.187h-2.71c-0.103,0-0.185,0.083-0.185,0.187v0.044H3.611c-0.28,0-0.511,0.229-0.511,0.508v10.828
	c0,0.278,0.23,0.508,0.511,0.508h8.135c0.28,0,0.508-0.229,0.508-0.508V4.128C12.254,3.977,12.205,3.875,12.102,3.772z
	 M11.746,12.922H3.611V2.095h1.235v7.132c0,0.082,0.051,0.153,0.13,0.178c0.075,0.024,0.163-0.004,0.207-0.07
	c0,0,0.956-1.363,1.196-1.703c0.242,0.34,1.211,1.703,1.211,1.703c0.046,0.067,0.13,0.095,0.207,0.07
	c0.078-0.024,0.13-0.096,0.13-0.178V2.095h1.276v2.034c0,0.28,0.229,0.509,0.514,0.509h2.028V12.922z M9.718,4.128V2.095
	l2.028,2.034H9.718z"/>
</svg>
