<?xml version="1.0" encoding="utf-8"?>
<!-- Generator: Adobe Illustrator 12.0.0, SVG Export Plug-In . SVG Version: 6.00 Build 51448)  -->
<!DOCTYPE svg PUBLIC "-//W3C//DTD SVG 1.1 Tiny//EN" "http://www.w3.org/Graphics/SVG/1.1/DTD/svg11-tiny.dtd" [
	<!ENTITY ns_svg "http://www.w3.org/2000/svg">
	<!ENTITY ns_xlink "http://www.w3.org/1999/xlink">
]>
<svg  version="1.1" baseProfile="tiny" id="Layer_1" xmlns="&ns_svg;" xmlns:xlink="&ns_xlink;" width="15.25" height="15.25"
	 viewBox="0 0 15.25 15.25" xml:space="preserve">
<rect fill="none" width="15.25" height="15.25"/>
<path fill="#FFFFFF" stroke="#FFFFFF" stroke-width="1.7" d="M13.492,4.003L7.235,1.768C6.882,1.641,6.514,1.816,6.388,2.17
	l-0.86,2.405H1.979c-0.376,0-0.666,0.288-0.666,0.665v6.639c0,0.377,0.29,0.665,0.666,0.665h6.64c0.378,0,0.665-0.288,0.665-0.665
	v-0.918l1.526,0.545c0.354,0.129,0.722-0.047,0.849-0.4l2.234-6.253C14.02,4.496,13.846,4.129,13.492,4.003z"/>
<path fill="#7E0081" d="M5.926,7.411l5.001,1.788l1.194-3.335L7.117,4.077L5.926,7.411z M13.492,4.003L7.235,1.768
	C6.882,1.641,6.514,1.816,6.388,2.17l-0.86,2.405H1.979c-0.376,0-0.666,0.288-0.666,0.665v6.639c0,0.377,0.29,0.665,0.666,0.665
	h6.64c0.378,0,0.665-0.288,0.665-0.665v-0.918l1.526,0.545c0.354,0.129,0.722-0.047,0.849-0.4l2.234-6.253
	C14.02,4.496,13.846,4.129,13.492,4.003z M8.839,11.879c0,0.135-0.09,0.223-0.22,0.223h-6.64c-0.137,0-0.223-0.088-0.223-0.223V5.24
	c0-0.133,0.086-0.222,0.223-0.222H5.37L4.737,6.789H2.642v3.54h4.874l1.323,0.474V11.879z M11.24,10.956
	c-0.047,0.126-0.158,0.178-0.284,0.135L4.703,8.855C4.577,8.811,4.527,8.696,4.571,8.57l2.233-6.25
	c0.043-0.126,0.158-0.18,0.287-0.134l6.25,2.234c0.125,0.045,0.178,0.158,0.135,0.284L11.24,10.956z"/>
</svg>
