<?xml version="1.0" encoding="utf-8"?>
<!-- Generator: Adobe Illustrator 12.0.0, SVG Export Plug-In . SVG Version: 6.00 Build 51448)  -->
<!DOCTYPE svg PUBLIC "-//W3C//DTD SVG 1.1 Tiny//EN" "http://www.w3.org/Graphics/SVG/1.1/DTD/svg11-tiny.dtd" [
	<!ENTITY ns_svg "http://www.w3.org/2000/svg">
	<!ENTITY ns_xlink "http://www.w3.org/1999/xlink">
]>
<svg  version="1.1" baseProfile="tiny" id="Layer_1" xmlns="&ns_svg;" xmlns:xlink="&ns_xlink;" width="15.25" height="15.25"
	 viewBox="0 0 15.25 15.25" xml:space="preserve">
<rect fill="none" width="15.25" height="15.25"/>
<path fill="#FFFFFF" stroke="#FFFFFF" stroke-width="1.7" stroke-linejoin="round" d="M6.952,4.169H6.807
	C6.692,3.816,5.99,1.66,5.99,1.66C5.951,1.537,5.835,1.454,5.705,1.454c-0.129,0-0.245,0.083-0.285,0.207
	c0,0-0.697,2.156-0.813,2.509c-0.373,0-2.636,0-2.636,0c-0.132,0-0.247,0.084-0.287,0.207c-0.01,0.031-0.017,0.062-0.017,0.094
	c0,0.094,0.046,0.185,0.126,0.242c0,0,1.833,1.332,2.133,1.549C3.811,6.614,3.113,8.77,3.113,8.77
	C3.103,8.799,3.098,8.832,3.098,8.861c0,0.095,0.043,0.186,0.122,0.243c0.106,0.075,0.248,0.075,0.353,0c0,0,1.832-1.332,2.133-1.55
	c0.061,0.043,0.188,0.137,0.341,0.247v3.883c-0.236-0.137-0.529-0.22-0.848-0.22c-0.78,0-1.409,0.476-1.409,1.062
	c0,0.588,0.629,1.064,1.409,1.064c0.775,0,1.406-0.477,1.406-1.064c0-0.004-0.002-0.008-0.002-0.012
	c0-0.005,0.006-0.008,0.006-0.012V8.21C7.196,8.637,7.84,9.104,7.84,9.104c0.104,0.075,0.246,0.076,0.352,0
	c0.079-0.058,0.124-0.148,0.124-0.243c0-0.029-0.005-0.062-0.015-0.092c0,0-0.575-1.775-0.765-2.36l4.778-1.555v5.077
	c-0.236-0.137-0.527-0.22-0.848-0.22c-0.774,0-1.408,0.476-1.408,1.063s0.634,1.064,1.408,1.064c0.777,0,1.41-0.477,1.41-1.064
	c0-0.004-0.002-0.008-0.002-0.012c0.001-0.005,0.006-0.008,0.006-0.012V4.671l0.001,0v-2.43L6.952,4.169z"/>
<path fill="#7E0081" d="M6.952,4.169H6.807C6.692,3.816,5.99,1.66,5.99,1.66C5.951,1.537,5.835,1.454,5.705,1.454
	c-0.129,0-0.245,0.083-0.285,0.207c0,0-0.697,2.156-0.813,2.509c-0.373,0-2.636,0-2.636,0c-0.132,0-0.247,0.084-0.287,0.207
	c-0.01,0.031-0.017,0.062-0.017,0.094c0,0.094,0.046,0.185,0.126,0.242c0,0,1.833,1.332,2.133,1.549
	C3.811,6.614,3.113,8.77,3.113,8.77C3.103,8.799,3.098,8.832,3.098,8.861c0,0.095,0.043,0.186,0.122,0.243
	c0.106,0.075,0.248,0.075,0.353,0c0,0,1.832-1.332,2.133-1.55c0.061,0.043,0.188,0.137,0.341,0.247v3.883
	c-0.236-0.137-0.529-0.22-0.848-0.22c-0.78,0-1.409,0.476-1.409,1.062c0,0.588,0.629,1.064,1.409,1.064
	c0.775,0,1.406-0.477,1.406-1.064c0-0.004-0.002-0.008-0.002-0.012c0-0.005,0.006-0.008,0.006-0.012V8.21
	C7.196,8.637,7.84,9.104,7.84,9.104c0.104,0.075,0.246,0.076,0.352,0c0.079-0.058,0.124-0.148,0.124-0.243
	c0-0.029-0.005-0.062-0.015-0.092c0,0-0.575-1.775-0.765-2.36l4.778-1.555v5.077c-0.236-0.137-0.527-0.22-0.848-0.22
	c-0.774,0-1.408,0.476-1.408,1.063s0.634,1.064,1.408,1.064c0.777,0,1.41-0.477,1.41-1.064c0-0.004-0.002-0.008-0.002-0.012
	c0.001-0.005,0.006-0.008,0.006-0.012V4.671l0.001,0v-2.43L6.952,4.169z M5.881,6.941c-0.104-0.076-0.247-0.076-0.351,0
	c0,0-0.882,0.639-1.563,1.137c0.261-0.804,0.594-1.839,0.594-1.839c0.012-0.03,0.018-0.062,0.018-0.092
	c0-0.094-0.044-0.185-0.124-0.242c0,0-0.879-0.639-1.562-1.137c0.846,0,1.932,0,1.932,0c0.131,0,0.246-0.083,0.285-0.206
	c0,0,0.337-1.036,0.597-1.84c0.262,0.805,0.599,1.84,0.599,1.84c0.04,0.123,0.154,0.206,0.285,0.206c0,0,1.089,0,1.933,0
	C7.84,5.265,6.961,5.905,6.961,5.905c-0.08,0.057-0.125,0.147-0.125,0.242c0,0.031,0.006,0.062,0.016,0.092
	c0,0,0.336,1.036,0.596,1.84C6.765,7.582,5.881,6.941,5.881,6.941z"/>
</svg>
