<?xml version="1.0" encoding="utf-8"?>
<!-- Generator: Adobe Illustrator 12.0.0, SVG Export Plug-In . SVG Version: 6.00 Build 51448)  -->
<!DOCTYPE svg PUBLIC "-//W3C//DTD SVG 1.1 Tiny//EN" "http://www.w3.org/Graphics/SVG/1.1/DTD/svg11-tiny.dtd" [
	<!ENTITY ns_svg "http://www.w3.org/2000/svg">
	<!ENTITY ns_xlink "http://www.w3.org/1999/xlink">
]>
<svg  version="1.1" baseProfile="tiny" id="Layer_1" xmlns="&ns_svg;" xmlns:xlink="&ns_xlink;" width="15.25" height="15.25"
	 viewBox="0 0 15.25 15.25" xml:space="preserve">
<rect fill="none" width="15.25" height="15.25"/>
<path fill="#FFFFFF" stroke="#FFFFFF" stroke-width="1.7" d="M13.525,9.75c-0.092,0.096-0.23,0.164-0.372,0.164h-0.511
	c-0.188,0-0.35,0.162-0.35,0.35c0,0.326-0.256,0.582-0.582,0.582s-0.582-0.256-0.582-0.582c0-0.188-0.164-0.35-0.35-0.35H9.615
	c-0.186,0-0.348,0.162-0.348,0.35c0,0.326-0.256,0.582-0.583,0.582c-0.325,0-0.582-0.256-0.582-0.582c0-0.188-0.162-0.35-0.348-0.35
	H4.263c-0.185,0-0.349,0.162-0.349,0.35c0,0.326-0.256,0.582-0.582,0.582c-0.325,0-0.582-0.256-0.582-0.582
	c0-0.188-0.162-0.35-0.349-0.35H2.168c-0.185,0-0.373-0.115-0.441-0.278C1.47,9.031,1.354,8.378,1.354,7.682
	c0-0.722,0.187-1.397,0.512-2.002c0.07-0.116,0.163-0.188,0.302-0.188c0.047,0,0.116,0.023,0.164,0.047
	c0.558,0.28,1.187,0.42,1.839,0.42c0.418,0,0.837-0.071,1.233-0.187c0.14-0.047,0.257-0.164,0.257-0.326
	c0-0.069-0.024-0.139-0.047-0.186L5.24,4.608C5.217,4.56,5.194,4.515,5.194,4.446c0-0.14,0.046-0.234,0.163-0.304L5.753,3.91
	c0.045-0.022,0.116-0.045,0.185-0.045c0.092,0,0.14,0.023,0.209,0.069C7.126,4.7,8.219,5.354,9.407,5.772l3.351,1.209
	c0.676,0.256,1.164,0.886,1.164,1.653C13.921,9.054,13.783,9.449,13.525,9.75z"/>
<g>
	<path fill="#0BAFEF" d="M13.525,9.75c-0.092,0.096-0.23,0.164-0.372,0.164h-0.511c-0.188,0-0.35,0.162-0.35,0.35
		c0,0.326-0.256,0.582-0.582,0.582s-0.582-0.256-0.582-0.582c0-0.188-0.164-0.35-0.35-0.35H9.615c-0.186,0-0.348,0.162-0.348,0.35
		c0,0.326-0.256,0.582-0.583,0.582c-0.325,0-0.582-0.256-0.582-0.582c0-0.188-0.162-0.35-0.348-0.35H4.263
		c-0.185,0-0.349,0.162-0.349,0.35c0,0.326-0.256,0.582-0.582,0.582c-0.325,0-0.582-0.256-0.582-0.582
		c0-0.188-0.162-0.35-0.349-0.35H2.168c-0.185,0-0.373-0.115-0.441-0.278C1.47,9.031,1.354,8.378,1.354,7.682
		c0-0.722,0.187-1.397,0.512-2.002c0.07-0.116,0.163-0.188,0.302-0.188c0.047,0,0.116,0.023,0.164,0.047
		c0.558,0.28,1.187,0.42,1.839,0.42c0.418,0,0.837-0.071,1.233-0.187c0.14-0.047,0.257-0.164,0.257-0.326
		c0-0.069-0.024-0.139-0.047-0.186L5.24,4.608C5.217,4.56,5.194,4.515,5.194,4.446c0-0.14,0.046-0.234,0.163-0.304L5.753,3.91
		c0.045-0.022,0.116-0.045,0.185-0.045c0.092,0,0.14,0.023,0.209,0.069C7.126,4.7,8.219,5.354,9.407,5.772l3.351,1.209
		c0.676,0.256,1.164,0.886,1.164,1.653C13.921,9.054,13.783,9.449,13.525,9.75z M2.006,8.982C2.052,9.146,2.1,9.285,2.168,9.449
		h10.984c0.116-0.141,0.208-0.303,0.257-0.467H2.006z M7.358,5.377c-0.187,0-0.349,0.162-0.349,0.348
		c0,0.187,0.162,0.349,0.349,0.349c0.186,0,0.349-0.162,0.349-0.349C7.708,5.539,7.544,5.377,7.358,5.377z M8.615,5.981
		c-0.187,0-0.35,0.164-0.35,0.349s0.163,0.349,0.35,0.349c0.186,0,0.35-0.164,0.35-0.349S8.8,5.981,8.615,5.981z M9.918,6.471
		c-0.187,0-0.349,0.163-0.349,0.348c0,0.185,0.162,0.349,0.349,0.349s0.349-0.164,0.349-0.349
		C10.267,6.634,10.105,6.471,9.918,6.471z"/>
</g>
</svg>
