<?xml version="1.0" encoding="utf-8"?>
<!-- Generator: Adobe Illustrator 12.0.0, SVG Export Plug-In . SVG Version: 6.00 Build 51448)  -->
<!DOCTYPE svg PUBLIC "-//W3C//DTD SVG 1.1 Tiny//EN" "http://www.w3.org/Graphics/SVG/1.1/DTD/svg11-tiny.dtd" [
	<!ENTITY ns_svg "http://www.w3.org/2000/svg">
	<!ENTITY ns_xlink "http://www.w3.org/1999/xlink">
]>
<svg  version="1.1" baseProfile="tiny" id="Layer_1" xmlns="&ns_svg;" xmlns:xlink="&ns_xlink;" width="15.25" height="15.25"
	 viewBox="0 0 15.25 15.25" xml:space="preserve">
<rect fill="none" width="15.25" height="15.25"/>
<path fill="#FFFFFF" stroke="#FFFFFF" stroke-width="1.7" stroke-linejoin="round" d="M7.693,6.561c0-0.669,0.365-1.257,0.912-1.581
	c0.426-0.243,0.71-0.709,0.71-1.236c0-0.792-0.629-1.42-1.42-1.42H2.926v0.304c0,0.222-0.183,0.404-0.405,0.404H1.507V1.208h1.014
	c0.222,0,0.405,0.183,0.405,0.405v0.305h4.969c1.014,0,1.826,0.812,1.826,1.826C9.721,4.413,9.355,5,8.81,5.324
	C8.382,5.567,8.099,6.035,8.099,6.561v2.334h1.237c0.081-0.062,0.161-0.123,0.241-0.184V8.549c0-0.183,0.144-0.344,0.307-0.385
	c0.182-0.041,0.364-0.082,0.566-0.082c0.203,0,0.366,0.041,0.549,0.082c0.162,0.041,0.304,0.202,0.304,0.385v0.183
	c0.468,0.265,0.791,0.729,0.852,1.296l0.304,2.923c0.062,0.567-0.445,1.034-1.015,1.034c-0.343,0-0.647-0.183-0.831-0.447
	l-0.566-0.851c-0.204,0.121-0.427,0.183-0.567,0.183c-0.569,0-1.015-0.445-1.015-1.014H7.327c0,0.568-0.445,1.014-1.014,1.014
	c-0.141,0-0.365-0.062-0.566-0.183l-0.569,0.851c-0.183,0.265-0.487,0.447-0.832,0.447c-0.568,0-1.075-0.467-1.015-1.034
	l0.306-2.923c0.06-0.566,0.385-1.031,0.852-1.296V8.549c0-0.183,0.142-0.344,0.304-0.385c0.184-0.041,0.345-0.082,0.548-0.082
	c0.202,0,0.385,0.041,0.568,0.082C6.07,8.205,6.213,8.366,6.213,8.549v0.162c0.08,0.061,0.161,0.122,0.242,0.184h1.238V6.561z"/>
<g>
	<path fill="#0BAFEF" d="M7.693,6.561c0-0.669,0.365-1.257,0.912-1.581c0.426-0.243,0.71-0.709,0.71-1.236
		c0-0.792-0.629-1.42-1.42-1.42H2.926v0.304c0,0.222-0.183,0.404-0.405,0.404H1.507V1.208h1.014c0.222,0,0.405,0.183,0.405,0.405
		v0.305h4.969c1.014,0,1.826,0.812,1.826,1.826C9.721,4.413,9.355,5,8.81,5.324C8.382,5.567,8.099,6.035,8.099,6.561v2.334h1.237
		c0.081-0.062,0.161-0.123,0.241-0.184V8.549c0-0.183,0.144-0.344,0.307-0.385c0.182-0.041,0.364-0.082,0.566-0.082
		c0.203,0,0.366,0.041,0.549,0.082c0.162,0.041,0.304,0.202,0.304,0.385v0.183c0.468,0.265,0.791,0.729,0.852,1.296l0.304,2.923
		c0.062,0.567-0.445,1.034-1.015,1.034c-0.343,0-0.647-0.183-0.831-0.447l-0.566-0.851c-0.204,0.121-0.427,0.183-0.567,0.183
		c-0.569,0-1.015-0.445-1.015-1.014H7.327c0,0.568-0.445,1.014-1.014,1.014c-0.141,0-0.365-0.062-0.566-0.183l-0.569,0.851
		c-0.183,0.265-0.487,0.447-0.832,0.447c-0.568,0-1.075-0.467-1.015-1.034l0.306-2.923c0.06-0.566,0.385-1.031,0.852-1.296V8.549
		c0-0.183,0.142-0.344,0.304-0.385c0.184-0.041,0.345-0.082,0.548-0.082c0.202,0,0.385,0.041,0.568,0.082
		C6.07,8.205,6.213,8.366,6.213,8.549v0.162c0.08,0.061,0.161,0.122,0.242,0.184h1.238V6.561z M6.213,10.108
		c0-0.12-0.083-0.2-0.203-0.2H5.645V9.563c0-0.123-0.081-0.204-0.203-0.204H5.239c-0.122,0-0.204,0.081-0.204,0.204v0.345H4.691
		c-0.121,0-0.202,0.08-0.202,0.2v0.205c0,0.122,0.081,0.202,0.202,0.202h0.344v0.365c0,0.123,0.083,0.203,0.204,0.203h0.203
		c0.122,0,0.203-0.08,0.203-0.203v-0.365H6.01c0.12,0,0.203-0.08,0.203-0.202V10.108z M6.313,11.246
		c-0.345,0-0.609,0.264-0.609,0.609c0,0.345,0.265,0.607,0.609,0.607s0.609-0.263,0.609-0.607
		C6.922,11.51,6.658,11.246,6.313,11.246z M7.388,10.07c-0.161,0-0.304,0.141-0.304,0.303c0,0.164,0.143,0.307,0.304,0.307
		c0.163,0,0.306-0.143,0.306-0.307C7.693,10.211,7.551,10.07,7.388,10.07z M8.402,10.07c-0.163,0-0.304,0.141-0.304,0.303
		c0,0.164,0.141,0.307,0.304,0.307s0.306-0.143,0.306-0.307C8.708,10.211,8.565,10.07,8.402,10.07z M9.479,11.246
		c-0.345,0-0.609,0.264-0.609,0.609c0,0.345,0.265,0.607,0.609,0.607s0.608-0.263,0.608-0.607
		C10.087,11.51,9.823,11.246,9.479,11.246z M11.303,10.108c0-0.12-0.081-0.2-0.202-0.2h-0.345V9.563
		c0-0.123-0.081-0.204-0.203-0.204h-0.204c-0.121,0-0.201,0.081-0.201,0.204v0.345H9.782c-0.121,0-0.205,0.08-0.205,0.2v0.205
		c0,0.122,0.084,0.202,0.205,0.202h0.365v0.365c0,0.123,0.08,0.203,0.201,0.203h0.204c0.122,0,0.203-0.08,0.203-0.203v-0.365h0.345
		c0.121,0,0.202-0.08,0.202-0.202V10.108z"/>
</g>
</svg>
