<?xml version="1.0" encoding="utf-8"?>
<!-- Generator: Adobe Illustrator 12.0.0, SVG Export Plug-In . SVG Version: 6.00 Build 51448)  -->
<!DOCTYPE svg PUBLIC "-//W3C//DTD SVG 1.1 Tiny//EN" "http://www.w3.org/Graphics/SVG/1.1/DTD/svg11-tiny.dtd" [
	<!ENTITY ns_svg "http://www.w3.org/2000/svg">
	<!ENTITY ns_xlink "http://www.w3.org/1999/xlink">
]>
<svg  version="1.1" baseProfile="tiny" id="Layer_1" xmlns="&ns_svg;" xmlns:xlink="&ns_xlink;" width="15.25" height="15.25"
	 viewBox="0 0 15.25 15.25" xml:space="preserve">
<rect fill="none" width="15.25" height="15.25"/>
<path fill="#FFFFFF" stroke="#FFFFFF" stroke-width="1.7" d="M12.422,10.771c0,0.777-1.153,1.415-2.591,1.415
	c-0.778,0-1.486-0.188-1.957-0.472c-0.048-0.023-0.096-0.047-0.166-0.047s-0.118,0.023-0.164,0.047
	c-0.471,0.283-1.18,0.472-1.957,0.472c-1.439,0-2.595-0.638-2.595-1.415c-0.918,0-1.648-0.73-1.648-1.65
	c0-1.035,0.376-1.886,0.824-1.886c0-0.329,0.047-0.659,0.166-0.966c0.069-0.188,0.118-0.401,0.118-0.614
	c0-0.542-0.26-1.012-0.638-1.342C1.721,4.219,1.652,4.101,1.652,3.96c0-0.259,0.211-0.472,0.471-0.472
	c0.142,0,0.259,0.048,0.353,0.142c0.072,0.071,0.166,0.118,0.26,0.118c0.118,0,0.188-0.046,0.258-0.142
	c0.261-0.377,0.684-0.613,1.179-0.613c1.322,0,2.5,0.354,3.348,0.895c0.048,0.047,0.119,0.047,0.189,0.047s0.143,0,0.188-0.047
	c0.85-0.541,2.029-0.895,3.348-0.895c0.496,0,0.92,0.235,1.179,0.613c0.071,0.095,0.142,0.142,0.259,0.142
	c0.096,0,0.19-0.046,0.26-0.118c0.096-0.094,0.213-0.142,0.354-0.142c0.261,0,0.473,0.213,0.473,0.472
	c0,0.141-0.072,0.259-0.166,0.354c-0.377,0.33-0.635,0.8-0.635,1.342c0,0.213,0.045,0.426,0.117,0.614
	c0.116,0.307,0.165,0.637,0.165,0.966c0.446,0,0.823,0.851,0.823,1.886C14.072,10.041,13.342,10.771,12.422,10.771z"/>
<g>
	<path fill="#0BAFEF" d="M12.422,10.771c0,0.777-1.153,1.415-2.591,1.415c-0.778,0-1.486-0.188-1.957-0.472
		c-0.048-0.023-0.096-0.047-0.166-0.047s-0.118,0.023-0.164,0.047c-0.471,0.283-1.18,0.472-1.957,0.472
		c-1.439,0-2.595-0.638-2.595-1.415c-0.918,0-1.648-0.73-1.648-1.65c0-1.035,0.376-1.886,0.824-1.886
		c0-0.329,0.047-0.659,0.166-0.966c0.069-0.188,0.118-0.401,0.118-0.614c0-0.542-0.26-1.012-0.638-1.342
		C1.721,4.219,1.652,4.101,1.652,3.96c0-0.259,0.211-0.472,0.471-0.472c0.142,0,0.259,0.048,0.353,0.142
		c0.072,0.071,0.166,0.118,0.26,0.118c0.118,0,0.188-0.046,0.258-0.142c0.261-0.377,0.684-0.613,1.179-0.613
		c1.322,0,2.5,0.354,3.348,0.895c0.048,0.047,0.119,0.047,0.189,0.047s0.143,0,0.188-0.047c0.85-0.541,2.029-0.895,3.348-0.895
		c0.496,0,0.92,0.235,1.179,0.613c0.071,0.095,0.142,0.142,0.259,0.142c0.096,0,0.19-0.046,0.26-0.118
		c0.096-0.094,0.213-0.142,0.354-0.142c0.261,0,0.473,0.213,0.473,0.472c0,0.141-0.072,0.259-0.166,0.354
		c-0.377,0.33-0.635,0.8-0.635,1.342c0,0.213,0.045,0.426,0.117,0.614c0.116,0.307,0.165,0.637,0.165,0.966
		c0.446,0,0.823,0.851,0.823,1.886C14.072,10.041,13.342,10.771,12.422,10.771z M3.701,7.235c0-0.518-0.236-0.942-0.52-0.942
		c-0.281,0-0.54,0.424-0.54,0.942v0.237c0,0.257,0.212,0.471,0.471,0.471H3.23c0.258,0,0.471-0.214,0.471-0.471V7.235z M3.347,8.651
		c0-0.144-0.093-0.237-0.235-0.237H2.876c-0.141,0-0.235,0.094-0.235,0.237v0.235c0,0.307,0.045,0.59,0.139,0.754
		C2.83,9.711,2.9,9.781,2.993,9.781c0.094,0,0.166-0.07,0.213-0.141C3.3,9.477,3.347,9.193,3.347,8.887V8.651z M4.644,8.651
		c0-0.144-0.096-0.237-0.235-0.237H4.053c-0.139,0-0.232,0.094-0.232,0.237v0.235c0,0.447,0.093,0.824,0.211,1.037
		c0.045,0.07,0.095,0.094,0.188,0.094c0.095,0,0.165-0.023,0.213-0.094c0.115-0.213,0.211-0.59,0.211-1.037V8.651z M5.469,7.235
		c0-0.659-0.282-1.179-0.637-1.179c-0.354,0-0.66,0.52-0.66,1.179v0.237c0,0.257,0.213,0.471,0.472,0.471h0.354
		c0.258,0,0.471-0.214,0.471-0.471V7.235z M6.058,8.651c0-0.144-0.094-0.237-0.235-0.237H5.351c-0.14,0-0.236,0.094-0.236,0.237
		v0.235c0,0.518,0.142,0.941,0.33,1.107c0.049,0.023,0.095,0.07,0.144,0.07c0.045,0,0.094-0.047,0.139-0.07
		c0.19-0.166,0.331-0.59,0.331-1.107V8.651z M7.474,7.235c0-0.778-0.331-1.414-0.756-1.414c-0.423,0-0.777,0.636-0.777,1.414v0.237
		c0,0.257,0.213,0.471,0.472,0.471H7c0.262,0,0.474-0.214,0.474-0.471V7.235z M7.474,8.651c0-0.144-0.094-0.237-0.236-0.237H6.767
		c-0.144,0-0.238,0.094-0.238,0.237v0.235c0,0.59,0.119,1.084,0.283,1.295C6.861,10.23,6.931,10.275,7,10.275
		c0.074,0,0.144-0.045,0.19-0.094c0.166-0.211,0.284-0.705,0.284-1.295V8.651z M9.476,7.235c0-0.778-0.329-1.414-0.754-1.414
		c-0.426,0-0.777,0.636-0.777,1.414v0.237c0,0.257,0.213,0.471,0.471,0.471h0.59c0.259,0,0.471-0.214,0.471-0.471V7.235z
		 M8.886,8.651c0-0.144-0.093-0.237-0.234-0.237H8.179c-0.141,0-0.234,0.094-0.234,0.237v0.235c0,0.59,0.117,1.084,0.283,1.295
		c0.047,0.049,0.117,0.094,0.188,0.094s0.142-0.045,0.188-0.094c0.165-0.211,0.282-0.705,0.282-1.295V8.651z M10.302,8.651
		c0-0.144-0.094-0.237-0.238-0.237h-0.47c-0.142,0-0.235,0.094-0.235,0.237v0.235c0,0.518,0.141,0.941,0.329,1.107
		c0.048,0.023,0.095,0.07,0.144,0.07c0.046,0,0.094-0.047,0.139-0.07c0.189-0.166,0.332-0.59,0.332-1.107V8.651z M11.244,7.235
		c0-0.659-0.281-1.179-0.635-1.179c-0.355,0-0.662,0.52-0.662,1.179v0.237c0,0.257,0.213,0.471,0.473,0.471h0.354
		c0.259,0,0.471-0.214,0.471-0.471V7.235z M11.599,8.651c0-0.144-0.096-0.237-0.237-0.237h-0.354c-0.141,0-0.234,0.094-0.234,0.237
		v0.235c0,0.447,0.094,0.824,0.213,1.037c0.046,0.07,0.118,0.094,0.212,0.094c0.095,0,0.14-0.023,0.188-0.094
		c0.117-0.213,0.213-0.59,0.213-1.037V8.651z M12.777,7.235c0-0.518-0.236-0.942-0.519-0.942s-0.542,0.424-0.542,0.942v0.237
		c0,0.257,0.211,0.471,0.471,0.471h0.117c0.26,0,0.473-0.214,0.473-0.471V7.235z M12.777,8.651c0-0.144-0.096-0.237-0.236-0.237
		h-0.236c-0.141,0-0.234,0.094-0.234,0.237v0.235c0,0.307,0.045,0.59,0.141,0.754c0.048,0.07,0.117,0.141,0.212,0.141
		s0.165-0.07,0.212-0.141c0.095-0.164,0.143-0.447,0.143-0.754V8.651z"/>
</g>
</svg>
