<?xml version="1.0" encoding="utf-8"?>
<!-- Generator: Adobe Illustrator 12.0.0, SVG Export Plug-In . SVG Version: 6.00 Build 51448)  -->
<!DOCTYPE svg PUBLIC "-//W3C//DTD SVG 1.1 Tiny//EN" "http://www.w3.org/Graphics/SVG/1.1/DTD/svg11-tiny.dtd" [
	<!ENTITY ns_svg "http://www.w3.org/2000/svg">
	<!ENTITY ns_xlink "http://www.w3.org/1999/xlink">
]>
<svg  version="1.1" baseProfile="tiny" id="Layer_1" xmlns="&ns_svg;" xmlns:xlink="&ns_xlink;" width="15.25" height="15.25"
	 viewBox="0 0 15.25 15.25" xml:space="preserve">
<rect fill="none" width="15.25" height="15.25"/>
<path fill="#FFFFFF" stroke="#FFFFFF" stroke-width="1.7" d="M10.796,7.159c-0.025,0.056-0.055,0.11-0.055,0.166
	c0,0.028,0.055,0.165,0.055,0.222c0.084,0.607,0.113,1.078,0.113,1.715c0,1.411-0.249,2.766-0.721,4.01
	c-0.139,0.36-0.496,0.637-0.912,0.637c-0.496,0-0.884-0.387-0.938-0.887L8.005,9.316C7.976,9.096,7.812,8.93,7.591,8.93
	c-0.223,0-0.387,0.166-0.416,0.387l-0.333,3.705c-0.055,0.5-0.443,0.887-0.94,0.887c-0.414,0-0.772-0.276-0.911-0.637
	c-0.472-1.244-0.721-2.599-0.721-4.01c0-0.637,0.029-1.107,0.112-1.715c0-0.083,0.055-0.193,0.055-0.222
	c0-0.056-0.028-0.11-0.055-0.166C4.05,6.385,3.856,5.554,3.856,4.643c0-1.772,0.801-3.182,1.796-3.182
	c0.555,0,1.079,0.14,1.551,0.361c0.109,0.055,0.248,0.082,0.387,0.082c0.136,0,0.275-0.027,0.385-0.082
	C8.448,1.6,8.972,1.46,9.527,1.46c0.995,0,1.796,1.41,1.796,3.182C11.323,5.554,11.129,6.385,10.796,7.159z"/>
<g>
	<g>
		<path fill="#0BAFEF" d="M10.796,7.159c-0.025,0.056-0.055,0.11-0.055,0.166c0,0.028,0.055,0.165,0.055,0.222
			c0.084,0.607,0.113,1.078,0.113,1.715c0,1.411-0.249,2.766-0.721,4.01c-0.139,0.36-0.496,0.637-0.912,0.637
			c-0.496,0-0.884-0.387-0.938-0.887L8.005,9.316C7.976,9.096,7.812,8.93,7.591,8.93c-0.223,0-0.387,0.166-0.416,0.387l-0.333,3.705
			c-0.055,0.5-0.443,0.887-0.94,0.887c-0.414,0-0.772-0.276-0.911-0.637c-0.472-1.244-0.721-2.599-0.721-4.01
			c0-0.637,0.029-1.107,0.112-1.715c0-0.083,0.055-0.193,0.055-0.222c0-0.056-0.028-0.11-0.055-0.166
			C4.05,6.385,3.856,5.554,3.856,4.643c0-1.772,0.801-3.182,1.796-3.182c0.555,0,1.079,0.14,1.551,0.361
			c0.109,0.055,0.248,0.082,0.387,0.082c0.136,0,0.275-0.027,0.385-0.082C8.448,1.6,8.972,1.46,9.527,1.46
			c0.995,0,1.796,1.41,1.796,3.182C11.323,5.554,11.129,6.385,10.796,7.159z M9.527,2.014c-0.473,0-0.94,0.112-1.329,0.305
			C8.005,2.401,7.812,2.456,7.591,2.456c-0.223,0-0.416-0.055-0.61-0.137C6.593,2.126,6.125,2.014,5.652,2.014
			c-0.692,0-1.244,1.19-1.244,2.628c0,0.829,0.193,1.604,0.497,2.323C4.96,7.077,4.99,7.187,4.99,7.325
			c0,0.055-0.03,0.11-0.03,0.165c-0.08,0.582-0.137,1.163-0.137,1.771c0,1.355,0.222,2.627,0.665,3.815
			c0.055,0.167,0.22,0.278,0.414,0.278c0.224,0,0.388-0.167,0.417-0.389l0.304-3.705C6.677,8.764,7.09,8.375,7.591,8.375
			c0.523,0,0.912,0.389,0.967,0.887l0.304,3.705c0.029,0.222,0.193,0.389,0.415,0.389c0.195,0,0.36-0.111,0.416-0.278
			c0.441-1.188,0.662-2.46,0.662-3.815c0-0.608-0.056-1.189-0.136-1.771c0-0.055-0.03-0.11-0.03-0.165
			c0-0.139,0.03-0.249,0.085-0.359c0.304-0.719,0.497-1.494,0.497-2.323C10.771,3.204,10.219,2.014,9.527,2.014z"/>
	</g>
	<g>
		<path fill="#0BAFEF" d="M5.532,3.806L5.437,3.868C5.334,3.934,5.3,4.072,5.363,4.174c0.066,0.103,0.198,0.135,0.3,0.07l0.11-0.068
			c0.152-0.101,0.325-0.214,0.498-0.214c0.171,0,0.354,0.12,0.501,0.216l0.103,0.063c0.102,0.068,0.234,0.035,0.299-0.066
			c0.065-0.102,0.03-0.241-0.07-0.305L7.012,3.81C6.827,3.689,6.571,3.523,6.271,3.523S5.718,3.688,5.532,3.806z"/>
	</g>
	<g>
		<path fill="#0BAFEF" d="M8.185,3.798L8.075,3.87c-0.1,0.067-0.134,0.206-0.066,0.307C8.074,4.277,8.203,4.31,8.306,4.241
			l0.124-0.08c0.149-0.101,0.317-0.214,0.479-0.214s0.33,0.115,0.482,0.216l0.122,0.078C9.615,4.31,9.743,4.277,9.81,4.176
			c0.068-0.101,0.031-0.24-0.066-0.306L9.637,3.799C9.454,3.675,9.204,3.508,8.908,3.508S8.363,3.675,8.185,3.798z"/>
	</g>
	<g>
		<path fill="#0BAFEF" d="M9.448,5.405C9.065,5.643,8.352,6.087,7.587,6.087c-0.746,0-1.442-0.428-1.859-0.683
			c-0.105-0.065-0.24-0.032-0.302,0.072C5.363,5.581,5.395,5.715,5.499,5.778c0.589,0.363,1.287,0.749,2.088,0.749
			c0.891,0,1.673-0.489,2.094-0.75C9.782,5.714,9.815,5.578,9.75,5.474C9.688,5.372,9.553,5.339,9.448,5.405z"/>
	</g>
</g>
</svg>
