<?xml version="1.0" encoding="utf-8"?>
<!-- Generator: Adobe Illustrator 12.0.0, SVG Export Plug-In . SVG Version: 6.00 Build 51448)  -->
<!DOCTYPE svg PUBLIC "-//W3C//DTD SVG 1.1 Tiny//EN" "http://www.w3.org/Graphics/SVG/1.1/DTD/svg11-tiny.dtd" [
	<!ENTITY ns_svg "http://www.w3.org/2000/svg">
	<!ENTITY ns_xlink "http://www.w3.org/1999/xlink">
]>
<svg  version="1.1" baseProfile="tiny" id="Layer_1" xmlns="&ns_svg;" xmlns:xlink="&ns_xlink;" width="15.25" height="15.25"
	 viewBox="0 0 15.25 15.25" xml:space="preserve">
<rect fill="none" width="15.25" height="15.25"/>
<path fill="#FFFFFF" stroke="#FFFFFF" stroke-width="1.7" d="M12.695,10.357l-0.684,0.387c0,0.047,0,0.117,0,0.162
	c0,1.506-1.234,2.74-2.742,2.74H8.813c-0.251,0-0.458-0.205-0.458-0.457V8.621c0-0.25,0.207-0.457,0.458-0.457h0.456
	c0.96,0,1.828,0.503,2.307,1.256l0.436-0.252c0.066-0.043,0.113-0.113,0.113-0.206V8.277c0-2.466-1.987-4.452-4.455-4.452
	c-2.467,0-4.454,1.986-4.454,4.452v0.685c0,0.093,0.044,0.163,0.114,0.206L3.765,9.42c0.479-0.753,1.348-1.256,2.307-1.256h0.457
	c0.251,0,0.458,0.207,0.458,0.457v4.568c0,0.252-0.207,0.457-0.458,0.457H6.072c-1.509,0-2.741-1.234-2.741-2.74
	c0-0.045,0-0.115,0-0.162l-0.687-0.387c-0.479-0.273-0.798-0.799-0.798-1.396V7.136c0-0.388,0.297-0.684,0.686-0.684
	c0-2.833,2.308-5.14,5.139-5.14c2.833,0,5.14,2.307,5.14,5.14c0.389,0,0.686,0.296,0.686,0.684v1.826
	C13.496,9.559,13.175,10.084,12.695,10.357z"/>
<g>
	<path fill="#0BAFEF" d="M12.695,10.357l-0.684,0.387c0,0.047,0,0.117,0,0.162c0,1.506-1.234,2.74-2.742,2.74H8.813
		c-0.251,0-0.458-0.205-0.458-0.457V8.621c0-0.25,0.207-0.457,0.458-0.457h0.456c0.96,0,1.828,0.503,2.307,1.256l0.436-0.252
		c0.066-0.043,0.113-0.113,0.113-0.206V8.277c0-2.466-1.987-4.452-4.455-4.452c-2.467,0-4.454,1.986-4.454,4.452v0.685
		c0,0.093,0.044,0.163,0.114,0.206L3.765,9.42c0.479-0.753,1.348-1.256,2.307-1.256h0.457c0.251,0,0.458,0.207,0.458,0.457v4.568
		c0,0.252-0.207,0.457-0.458,0.457H6.072c-1.509,0-2.741-1.234-2.741-2.74c0-0.045,0-0.115,0-0.162l-0.687-0.387
		c-0.479-0.273-0.798-0.799-0.798-1.396V7.136c0-0.388,0.297-0.684,0.686-0.684c0-2.833,2.308-5.14,5.139-5.14
		c2.833,0,5.14,2.307,5.14,5.14c0.389,0,0.686,0.296,0.686,0.684v1.826C13.496,9.559,13.175,10.084,12.695,10.357z M11.875,4.942
		C11.257,3.229,9.611,1.998,7.67,1.998c-1.942,0-3.586,1.231-4.179,2.901C3.467,4.967,3.467,5.012,3.467,5.034
		c0,0.139,0.091,0.228,0.229,0.228c0.069,0,0.113-0.045,0.16-0.089C4.746,4.076,6.14,3.368,7.67,3.368
		c1.531,0,2.923,0.708,3.814,1.805c0.046,0.044,0.092,0.089,0.16,0.089c0.139,0,0.23-0.089,0.23-0.228
		C11.875,5.012,11.875,4.967,11.875,4.942z M6.072,8.621c-0.8,0-1.486,0.412-1.896,1.029c0.252,0.137,0.387,0.364,0.387,0.615
		c0,0.39-0.296,0.685-0.685,0.685c-0.021,0-0.068,0-0.09,0c0.021,1.233,1.028,2.239,2.284,2.239V8.621z M11.462,10.95
		c-0.388,0-0.686-0.295-0.686-0.685c0-0.251,0.137-0.502,0.389-0.615c-0.412-0.617-1.096-1.029-1.896-1.029v4.568
		c1.257,0,2.261-1.006,2.284-2.239C11.53,10.95,11.484,10.95,11.462,10.95z"/>
</g>
</svg>
