<?xml version="1.0" encoding="utf-8"?>
<!-- Generator: Adobe Illustrator 12.0.0, SVG Export Plug-In . SVG Version: 6.00 Build 51448)  -->
<!DOCTYPE svg PUBLIC "-//W3C//DTD SVG 1.1 Tiny//EN" "http://www.w3.org/Graphics/SVG/1.1/DTD/svg11-tiny.dtd" [
	<!ENTITY ns_svg "http://www.w3.org/2000/svg">
	<!ENTITY ns_xlink "http://www.w3.org/1999/xlink">
]>
<svg  version="1.1" baseProfile="tiny" id="Layer_1" xmlns="&ns_svg;" xmlns:xlink="&ns_xlink;" width="15.25" height="15.25"
	 viewBox="0 0 15.25 15.25" xml:space="preserve">
<rect fill="none" width="15.25" height="15.25"/>
<path fill="#FFFFFF" stroke="#FFFFFF" stroke-width="1.7" stroke-linejoin="round" d="M13.892,7.869l-2.635-2.635V2.717H9.66v0.92
	l-1.789-1.79C7.804,1.78,7.716,1.749,7.626,1.75C7.539,1.749,7.451,1.78,7.383,1.848L1.361,7.869c-0.131,0.133-0.131,0.348,0,0.48
	c0.134,0.132,0.348,0.131,0.481,0l1.082-1.083v5.28c0,0.188,0.15,0.339,0.339,0.339h8.729c0.188,0,0.34-0.151,0.34-0.339V7.268
	l1.08,1.082c0.134,0.132,0.348,0.131,0.48,0C14.024,8.216,14.025,8.001,13.892,7.869z"/>
<path fill="#0BAFEF" d="M13.892,7.869l-2.635-2.635V2.717H9.66v0.92l-1.789-1.79C7.804,1.78,7.716,1.749,7.626,1.75
	C7.539,1.749,7.451,1.78,7.383,1.848L1.361,7.869c-0.131,0.133-0.131,0.348,0,0.48c0.134,0.132,0.348,0.131,0.481,0l1.082-1.083
	v5.28c0,0.188,0.15,0.339,0.339,0.339h8.729c0.188,0,0.34-0.151,0.34-0.339V7.268l1.08,1.082c0.134,0.132,0.348,0.131,0.48,0
	C14.024,8.216,14.025,8.001,13.892,7.869z M11.653,6.717c0,0,0,4.888,0,5.49H8.924V7.972H6.331v4.234H3.602c0-0.602,0-5.49,0-5.49
	c0-0.038-0.01-0.074-0.021-0.107l4.046-4.046l4.048,4.047C11.663,6.644,11.653,6.679,11.653,6.717z"/>
</svg>
