<?xml version="1.0" encoding="utf-8"?>
<!-- Generator: Adobe Illustrator 12.0.0, SVG Export Plug-In . SVG Version: 6.00 Build 51448)  -->
<!DOCTYPE svg PUBLIC "-//W3C//DTD SVG 1.1 Tiny//EN" "http://www.w3.org/Graphics/SVG/1.1/DTD/svg11-tiny.dtd" [
	<!ENTITY ns_svg "http://www.w3.org/2000/svg">
	<!ENTITY ns_xlink "http://www.w3.org/1999/xlink">
]>
<svg  version="1.1" baseProfile="tiny" id="Layer_1" xmlns="&ns_svg;" xmlns:xlink="&ns_xlink;" width="15.25" height="15.25"
	 viewBox="0 0 15.25 15.25" xml:space="preserve">
<rect fill="none" width="15.25" height="15.25"/>
<path fill="#FFFFFF" stroke="#FFFFFF" stroke-width="1.7" d="M9.826,5.316c1.135,0,2.051-0.918,2.051-2.05
	c0-1.134-0.916-2.05-2.051-2.05c-1.132,0-2.051,0.917-2.051,2.05C7.774,4.397,8.694,5.316,9.826,5.316z M13.31,7.026
	c0,0-2.125,0.302-2.49,0.354c-0.242-0.275-1.658-1.877-1.658-1.877c-0.074-0.084-0.758-0.38-0.789-0.384L5.678,4.746
	C5.581,4.732,5.481,4.755,5.4,4.81L3.289,6.208C3.104,6.331,3.052,6.581,3.175,6.765c0.122,0.186,0.372,0.237,0.558,0.114
	c0,0,1.76-1.166,1.985-1.313c0.21,0.029,1.652,0.228,2.267,0.312L7.202,8.082c-0.354,0.317-1.954,1.752-2.379,2.133
	c-0.39-0.439-1.531-1.735-1.531-1.735C3.213,8.39,3.1,8.34,2.981,8.343S2.751,8.4,2.676,8.491L1.468,9.978
	c-0.142,0.172-0.116,0.426,0.058,0.566c0.171,0.141,0.425,0.113,0.564-0.059c0,0,0.571-0.701,0.912-1.117
	c0.427,0.484,1.486,1.684,1.486,1.684c0.071,0.08,0.171,0.129,0.279,0.136c0.106,0.005,0.211-0.03,0.292-0.104l2.495-2.237
	c0.559,0.48,1.853,1.589,2.196,1.883c-0.303,0.451-1.365,2.047-1.365,2.047C8.341,12.844,8.316,12.922,8.316,13
	c0,0.053,0.011,0.107,0.031,0.154c0.053,0.126,0.162,0.215,0.295,0.24l2.059,0.402c0.219,0.043,0.432-0.101,0.473-0.318
	c0.005-0.025,0.008-0.053,0.008-0.076c0-0.19-0.131-0.358-0.326-0.396c0,0-0.863-0.167-1.465-0.285
	c0.414-0.62,1.229-1.842,1.229-1.842c0.046-0.068,0.068-0.145,0.068-0.223c0-0.113-0.051-0.227-0.143-0.305
	c0,0-2.167-1.858-2.526-2.164c0.103-0.289,0.47-1.322,0.7-1.971l1.643,1.857c0.09,0.104,0.225,0.152,0.357,0.133l2.704-0.383
	c0.22-0.03,0.374-0.234,0.341-0.454C13.733,7.149,13.529,6.995,13.31,7.026z"/>
<path fill="#0BAFEF" d="M9.826,5.316c1.135,0,2.051-0.918,2.051-2.05c0-1.134-0.916-2.05-2.051-2.05
	c-1.132,0-2.051,0.917-2.051,2.05C7.774,4.397,8.694,5.316,9.826,5.316z M13.31,7.026c0,0-2.125,0.302-2.49,0.354
	c-0.242-0.275-1.658-1.877-1.658-1.877c-0.074-0.084-0.758-0.38-0.789-0.384L5.678,4.746C5.581,4.732,5.481,4.755,5.4,4.81
	L3.289,6.208C3.104,6.331,3.052,6.581,3.175,6.765c0.122,0.186,0.372,0.237,0.558,0.114c0,0,1.76-1.166,1.985-1.313
	c0.21,0.029,1.652,0.228,2.267,0.312L7.202,8.082c-0.354,0.317-1.954,1.752-2.379,2.133c-0.39-0.439-1.531-1.735-1.531-1.735
	C3.213,8.39,3.1,8.34,2.981,8.343S2.751,8.4,2.676,8.491L1.468,9.978c-0.142,0.172-0.116,0.426,0.058,0.566
	c0.171,0.141,0.425,0.113,0.564-0.059c0,0,0.571-0.701,0.912-1.117c0.427,0.484,1.486,1.684,1.486,1.684
	c0.071,0.08,0.171,0.129,0.279,0.136c0.106,0.005,0.211-0.03,0.292-0.104l2.495-2.237c0.559,0.48,1.853,1.589,2.196,1.883
	c-0.303,0.451-1.365,2.047-1.365,2.047C8.341,12.844,8.316,12.922,8.316,13c0,0.053,0.011,0.107,0.031,0.154
	c0.053,0.126,0.162,0.215,0.295,0.24l2.059,0.402c0.219,0.043,0.432-0.101,0.473-0.318c0.005-0.025,0.008-0.053,0.008-0.076
	c0-0.19-0.131-0.358-0.326-0.396c0,0-0.863-0.167-1.465-0.285c0.414-0.62,1.229-1.842,1.229-1.842
	c0.046-0.068,0.068-0.145,0.068-0.223c0-0.113-0.051-0.227-0.143-0.305c0,0-2.167-1.858-2.526-2.164
	c0.103-0.289,0.47-1.322,0.7-1.971l1.643,1.857c0.09,0.104,0.225,0.152,0.357,0.133l2.704-0.383c0.22-0.03,0.374-0.234,0.341-0.454
	C13.733,7.149,13.529,6.995,13.31,7.026z"/>
</svg>
