<?xml version="1.0" encoding="utf-8"?>
<!-- Generator: Adobe Illustrator 12.0.0, SVG Export Plug-In . SVG Version: 6.00 Build 51448)  -->
<!DOCTYPE svg PUBLIC "-//W3C//DTD SVG 1.1 Tiny//EN" "http://www.w3.org/Graphics/SVG/1.1/DTD/svg11-tiny.dtd" [
	<!ENTITY ns_svg "http://www.w3.org/2000/svg">
	<!ENTITY ns_xlink "http://www.w3.org/1999/xlink">
]>
<svg  version="1.1" baseProfile="tiny" id="Layer_1" xmlns="&ns_svg;" xmlns:xlink="&ns_xlink;" width="15.25" height="15.25"
	 viewBox="0 0 15.25 15.25" xml:space="preserve">
<rect fill="none" width="15.25" height="15.25"/>
<path fill="#FFFFFF" stroke="#FFFFFF" stroke-width="1.7" d="M10.061,5.092c-0.02,0.019-0.02,0.056-0.02,0.074
	c0,0.04,0.02,0.096,0.037,0.133c0.059,0.075,0.096,0.169,0.096,0.281c0,0.265-0.206,0.471-0.47,0.471l-1.692,7.63
	c-0.055,0.243-0.281,0.451-0.543,0.451c-0.265,0-0.489-0.208-0.546-0.451l-1.691-7.63c-0.263,0-0.471-0.207-0.471-0.471
	c0-0.112,0.039-0.206,0.093-0.281c0.02-0.037,0.04-0.093,0.04-0.133c0-0.018,0-0.055-0.021-0.074
	C4.723,4.753,4.648,4.378,4.648,3.984c0-1.561,1.26-2.819,2.82-2.819c1.559,0,2.817,1.258,2.817,2.819
	C10.286,4.378,10.212,4.753,10.061,5.092z"/>
<g>
	<path fill="#0BAFEF" d="M10.061,5.092c-0.02,0.019-0.02,0.056-0.02,0.074c0,0.04,0.02,0.096,0.037,0.133
		c0.059,0.075,0.096,0.169,0.096,0.281c0,0.265-0.206,0.471-0.47,0.471l-1.692,7.63c-0.055,0.243-0.281,0.451-0.543,0.451
		c-0.265,0-0.489-0.208-0.546-0.451l-1.691-7.63c-0.263,0-0.471-0.207-0.471-0.471c0-0.112,0.039-0.206,0.093-0.281
		c0.02-0.037,0.04-0.093,0.04-0.133c0-0.018,0-0.055-0.021-0.074C4.723,4.753,4.648,4.378,4.648,3.984
		c0-1.561,1.26-2.819,2.82-2.819c1.559,0,2.817,1.258,2.817,2.819C10.286,4.378,10.212,4.753,10.061,5.092z M8.856,6.051
		c-0.356,0-0.655,0.301-0.655,0.657v0.284c0,0.149-0.133,0.281-0.283,0.281S7.637,7.14,7.637,6.991V6.708
		c0-0.356-0.302-0.657-0.657-0.657H5.606l1.674,7.554c0.018,0.076,0.093,0.15,0.188,0.15c0.094,0,0.168-0.074,0.188-0.15
		l1.672-7.554H8.856z M7.918,8.399c-0.207,0-0.375-0.167-0.375-0.375c0-0.206,0.168-0.378,0.375-0.378s0.377,0.172,0.377,0.378
		C8.295,8.232,8.125,8.399,7.918,8.399z"/>
</g>
</svg>
