<?xml version="1.0" encoding="utf-8"?>
<!-- Generator: Adobe Illustrator 12.0.0, SVG Export Plug-In . SVG Version: 6.00 Build 51448)  -->
<!DOCTYPE svg PUBLIC "-//W3C//DTD SVG 1.1 Tiny//EN" "http://www.w3.org/Graphics/SVG/1.1/DTD/svg11-tiny.dtd" [
	<!ENTITY ns_svg "http://www.w3.org/2000/svg">
	<!ENTITY ns_xlink "http://www.w3.org/1999/xlink">
]>
<svg  version="1.1" baseProfile="tiny" id="Layer_1" xmlns="&ns_svg;" xmlns:xlink="&ns_xlink;" width="15.25" height="15.25"
	 viewBox="0 0 15.25 15.25" xml:space="preserve">
<rect fill="none" width="15.25" height="15.25"/>
<path fill="#FFFFFF" stroke="#FFFFFF" stroke-width="1.7" d="M5.07,3.774c-0.787,0-1.43,0.641-1.43,1.428l0.007,2.163
	c-0.007-0.001,0,1.742,0,1.742l0.007,3.069v0.178c0,0.787,0.641,1.428,1.429,1.428h3.072c0.788,0,1.43-0.641,1.43-1.428v-0.178
	l-0.006-1.985l0.006,0.001L9.574,5.379V5.202c0-0.787-0.643-1.428-1.432-1.428H5.07z M9.461,1.032
	c0.14,0.046,0.217,0.198,0.171,0.339L9.195,2.716C9.148,2.856,8.997,2.934,8.857,2.888C8.716,2.842,8.639,2.69,8.684,2.549
	l0.438-1.344C9.167,1.064,9.318,0.987,9.461,1.032z M11.256,1.538c0.111,0.1,0.12,0.27,0.021,0.38l-1.175,1.31
	c-0.101,0.11-0.27,0.12-0.38,0.021c-0.111-0.099-0.12-0.269-0.021-0.38l1.174-1.31C10.976,1.448,11.145,1.439,11.256,1.538z
	 M12.174,3.209c0.058,0.137-0.008,0.294-0.145,0.353l-1.441,0.6c-0.137,0.057-0.293-0.008-0.351-0.145
	c-0.057-0.138,0.008-0.295,0.145-0.352l1.44-0.6C11.959,3.008,12.117,3.072,12.174,3.209z"/>
<g>
	<g>
		<path fill="#8CC63F" d="M5.07,3.774c-0.787,0-1.43,0.641-1.43,1.428l0.007,2.163c-0.007-0.001,0,1.742,0,1.742l0.007,3.069v0.178
			c0,0.787,0.641,1.428,1.429,1.428h3.072c0.788,0,1.43-0.641,1.43-1.428v-0.178l-0.006-1.985l0.006,0.001L9.574,5.379V5.202
			c0-0.787-0.643-1.428-1.432-1.428H5.07z M4.192,12.354v-0.178L4.181,7.364c0.004-0.001,0-1.985,0-1.984V5.202
			c0-0.49,0.399-0.889,0.89-0.889h3.072c0.493,0,0.894,0.399,0.894,0.889l0.011,4.99c0,0-0.005,0.001-0.005,0.002l0.005,1.982v0.178
			c0,0.49-0.399,0.89-0.892,0.89H5.083C4.592,13.244,4.192,12.844,4.192,12.354z"/>
	</g>
	<g>
		<path fill="#8CC63F" d="M4.85,4.904c-0.091,0-0.163,0.073-0.163,0.161v3.782c0,0.089,0.072,0.161,0.163,0.161h3.527
			c0.088,0,0.161-0.072,0.161-0.161V5.065c0-0.088-0.073-0.161-0.161-0.161H4.85z M8.215,5.227c0,0.282,0,3.177,0,3.459
			c-0.279,0-2.926,0-3.205,0c0-0.282,0-3.177,0-3.459C5.289,5.227,7.936,5.227,8.215,5.227z"/>
	</g>
	<g>
		<path fill="#8CC63F" d="M9.121,1.205L8.684,2.549C8.639,2.69,8.716,2.842,8.857,2.888c0.14,0.046,0.291-0.031,0.338-0.172
			l0.437-1.344C9.678,1.23,9.601,1.078,9.461,1.032C9.318,0.987,9.167,1.064,9.121,1.205z"/>
	</g>
	<g>
		<path fill="#8CC63F" d="M10.875,1.559l-1.174,1.31c-0.1,0.111-0.091,0.281,0.021,0.38c0.11,0.099,0.279,0.089,0.38-0.021
			l1.175-1.31c0.1-0.111,0.091-0.281-0.021-0.38C11.145,1.439,10.976,1.448,10.875,1.559z"/>
	</g>
	<g>
		<path fill="#8CC63F" d="M11.822,3.065l-1.44,0.6c-0.137,0.057-0.201,0.214-0.145,0.352c0.058,0.137,0.214,0.201,0.351,0.145
			l1.441-0.6c0.137-0.058,0.202-0.215,0.145-0.353C12.117,3.072,11.959,3.008,11.822,3.065z"/>
	</g>
	<g>
		<path fill="#8CC63F" d="M4.979,9.571c-0.15,0-0.269,0.119-0.269,0.268s0.118,0.27,0.269,0.27h0.54c0.147,0,0.269-0.121,0.269-0.27
			S5.666,9.571,5.519,9.571H4.979z"/>
	</g>
	<g>
		<path fill="#8CC63F" d="M7.666,9.571c-0.148,0-0.27,0.119-0.27,0.268s0.121,0.27,0.27,0.27h0.539c0.147,0,0.269-0.121,0.269-0.27
			S8.353,9.571,8.205,9.571H7.666z"/>
	</g>
	<g>
		<path fill="#8CC63F" d="M6.322,9.571c-0.148,0-0.269,0.119-0.269,0.268s0.12,0.27,0.269,0.27h0.539
			c0.147,0,0.269-0.121,0.269-0.27S7.009,9.571,6.861,9.571H6.322z"/>
	</g>
	<g>
		<path fill="#8CC63F" d="M4.979,10.645c-0.15,0-0.269,0.121-0.269,0.269c0,0.149,0.118,0.269,0.269,0.269h0.54
			c0.147,0,0.269-0.119,0.269-0.269c0-0.147-0.121-0.269-0.269-0.269H4.979z"/>
	</g>
	<g>
		<path fill="#8CC63F" d="M7.666,10.645c-0.148,0-0.27,0.121-0.27,0.269c0,0.149,0.121,0.269,0.27,0.269h0.539
			c0.147,0,0.269-0.119,0.269-0.269c0-0.147-0.121-0.269-0.269-0.269H7.666z"/>
	</g>
	<g>
		<path fill="#8CC63F" d="M6.322,10.645c-0.148,0-0.269,0.121-0.269,0.269c0,0.149,0.12,0.269,0.269,0.269h0.539
			c0.147,0,0.269-0.119,0.269-0.269c0-0.147-0.121-0.269-0.269-0.269H6.322z"/>
	</g>
	<g>
		<path fill="#8CC63F" d="M4.979,11.721c-0.15,0-0.269,0.119-0.269,0.269c0,0.147,0.118,0.269,0.269,0.269h0.54
			c0.147,0,0.269-0.121,0.269-0.269c0-0.149-0.121-0.269-0.269-0.269H4.979z"/>
	</g>
	<g>
		<path fill="#8CC63F" d="M7.666,11.721c-0.148,0-0.27,0.119-0.27,0.269c0,0.147,0.121,0.269,0.27,0.269h0.539
			c0.147,0,0.269-0.121,0.269-0.269c0-0.149-0.121-0.269-0.269-0.269H7.666z"/>
	</g>
	<g>
		<path fill="#8CC63F" d="M6.322,11.721c-0.148,0-0.269,0.119-0.269,0.269c0,0.147,0.12,0.269,0.269,0.269h0.539
			c0.147,0,0.269-0.121,0.269-0.269c0-0.149-0.121-0.269-0.269-0.269H6.322z"/>
	</g>
</g>
</svg>
