<?xml version="1.0" encoding="utf-8"?>
<!-- Generator: Adobe Illustrator 12.0.0, SVG Export Plug-In . SVG Version: 6.00 Build 51448)  -->
<!DOCTYPE svg PUBLIC "-//W3C//DTD SVG 1.1 Tiny//EN" "http://www.w3.org/Graphics/SVG/1.1/DTD/svg11-tiny.dtd" [
	<!ENTITY ns_svg "http://www.w3.org/2000/svg">
	<!ENTITY ns_xlink "http://www.w3.org/1999/xlink">
]>
<svg  version="1.1" baseProfile="tiny" id="Layer_1" xmlns="&ns_svg;" xmlns:xlink="&ns_xlink;" width="18.331" height="18.332"
	 viewBox="0 0 18.331 18.332" xml:space="preserve">
<g>
	<path fill="#FFFFFF" d="M18.33,16.922c0,0.779-0.63,1.411-1.409,1.411H1.409c-0.779,0-1.412-0.632-1.412-1.411V1.409
		C-0.003,0.631,0.63,0,1.409,0h15.512C17.7,0,18.33,0.631,18.33,1.409V16.922z"/>
	<g>
		<g>
			<rect x="4.04" y="3.69" fill="#FFFFFF" width="9.423" height="10.95"/>
			<path fill="#7E0081" d="M4.04,3.367c-0.179,0-0.323,0.145-0.323,0.323v10.95c0,0.179,0.145,0.324,0.323,0.324h9.423
				c0.179,0,0.322-0.146,0.322-0.324V3.69c0-0.179-0.144-0.323-0.322-0.323H4.04z M13.139,4.015c0,0.591,0,9.711,0,10.302
				c-0.582,0-8.192,0-8.775,0c0-0.591,0-9.711,0-10.302C4.947,4.015,12.557,4.015,13.139,4.015z"/>
		</g>
		<g>
			<path fill="#7E0081" d="M5.628,6.979c-0.119,0-0.216,0.097-0.216,0.216s0.097,0.216,0.216,0.216h6.213
				c0.12,0,0.217-0.097,0.217-0.216s-0.097-0.216-0.217-0.216H5.628z"/>
		</g>
		<g>
			<path fill="#7E0081" d="M5.628,8.077c-0.119,0-0.216,0.097-0.216,0.216s0.097,0.216,0.216,0.216h6.213
				c0.12,0,0.217-0.097,0.217-0.216s-0.097-0.216-0.217-0.216H5.628z"/>
		</g>
		<g>
			<path fill="#7E0081" d="M5.628,9.176c-0.119,0-0.216,0.097-0.216,0.216s0.097,0.216,0.216,0.216h6.213
				c0.12,0,0.217-0.097,0.217-0.216s-0.097-0.216-0.217-0.216H5.628z"/>
		</g>
		<g>
			<path fill="#7E0081" d="M5.628,10.273c-0.119,0-0.216,0.097-0.216,0.216s0.097,0.216,0.216,0.216h6.213
				c0.12,0,0.217-0.097,0.217-0.216s-0.097-0.216-0.217-0.216H5.628z"/>
		</g>
		<g>
			<path fill="#7E0081" d="M5.628,11.417c-0.119,0-0.216,0.097-0.216,0.216c0,0.118,0.097,0.216,0.216,0.216h6.213
				c0.12,0,0.217-0.098,0.217-0.216c0-0.119-0.097-0.216-0.217-0.216H5.628z"/>
		</g>
		<g>
			<path fill="#7E0081" d="M5.628,5.928c-0.119,0-0.216,0.097-0.216,0.216s0.097,0.216,0.216,0.216h6.213
				c0.12,0,0.217-0.097,0.217-0.216s-0.097-0.216-0.217-0.216H5.628z"/>
		</g>
		<g>
			<path fill="#7E0081" d="M9.263,13.216l0.743-1.616c0.009-0.047,0.058-0.103,0.093-0.133l5.573-5.583
				c0.049-0.057,0.104-0.094,0.184-0.114c0.141-0.038,0.303,0.004,0.395,0.108l0.732,0.724c0.057,0.05,0.093,0.104,0.113,0.185
				c0.038,0.14,0.002,0.322-0.102,0.413l-5.574,5.585c-0.035,0.03-0.084,0.087-0.124,0.097l-1.618,0.76
				c-0.189,0.095-0.393-0.023-0.441-0.203C9.214,13.358,9.239,13.287,9.263,13.216z M11.129,12.497l-0.732-0.724l-0.383,0.811
				l0.298,0.306L11.129,12.497z M15.972,7.626L15.24,6.901l-0.287,0.292l0.732,0.726L15.972,7.626z"/>
		</g>
	</g>
</g>
</svg>
