<?xml version="1.0" encoding="utf-8"?>
<!-- Generator: Adobe Illustrator 12.0.0, SVG Export Plug-In . SVG Version: 6.00 Build 51448)  -->
<!DOCTYPE svg PUBLIC "-//W3C//DTD SVG 1.1 Tiny//EN" "http://www.w3.org/Graphics/SVG/1.1/DTD/svg11-tiny.dtd" [
	<!ENTITY ns_svg "http://www.w3.org/2000/svg">
	<!ENTITY ns_xlink "http://www.w3.org/1999/xlink">
]>
<svg  version="1.1" baseProfile="tiny" id="Layer_1" xmlns="&ns_svg;" xmlns:xlink="&ns_xlink;" width="15.25" height="15.25"
	 viewBox="0 0 15.25 15.25" xml:space="preserve">
<rect fill="none" width="15.25" height="15.25"/>
<path fill="#FFFFFF" stroke="#FFFFFF" stroke-width="1.7" d="M10.807,6.213L10.14,6.599c0.088,0.63,0.387,1.196,0.826,1.598
	c0.07,0.053,0.123,0.141,0.123,0.229l0.158,4.744c0,0.211-0.158,0.369-0.354,0.369h-6.5c-0.192,0-0.35-0.158-0.35-0.369l0.158-4.744
	c0-0.088,0.053-0.176,0.123-0.229c0.439-0.402,0.738-0.968,0.826-1.598L4.483,6.213c-0.475-0.282-0.79-0.792-0.79-1.371
	c0-1.898,1.774-3.426,3.953-3.426c2.179,0,3.953,1.527,3.953,3.426C11.599,5.421,11.283,5.931,10.807,6.213z"/>
<g>
	<path fill="#0BAFEF" d="M10.807,6.213L10.14,6.599c0.088,0.63,0.387,1.196,0.826,1.598c0.07,0.053,0.123,0.141,0.123,0.229
		l0.158,4.744c0,0.211-0.158,0.369-0.354,0.369h-6.5c-0.192,0-0.35-0.158-0.35-0.369l0.158-4.744c0-0.088,0.053-0.176,0.123-0.229
		c0.439-0.402,0.738-0.968,0.826-1.598L4.483,6.213c-0.475-0.282-0.79-0.792-0.79-1.371c0-1.898,1.774-3.426,3.953-3.426
		c2.179,0,3.953,1.527,3.953,3.426C11.599,5.421,11.283,5.931,10.807,6.213z M7.646,1.767c-1.985,0-3.602,1.371-3.602,3.075
		c0,0.457,0.246,0.861,0.614,1.071l2.373,1.371c0.176,0.106,0.316,0.211,0.438,0.368V7.301c0-1.054-0.561-1.967-1.405-2.478
		C6.011,4.79,5.977,4.736,5.977,4.667c0-0.071,0.034-0.105,0.087-0.142c0.457-0.298,1.001-0.474,1.582-0.474
		c0.58,0,1.125,0.176,1.581,0.474C9.28,4.561,9.315,4.596,9.315,4.667c0,0.07-0.035,0.124-0.088,0.157
		c-0.843,0.51-1.405,1.423-1.405,2.478v0.352c0.122-0.157,0.263-0.262,0.438-0.368l2.375-1.371c0.368-0.21,0.613-0.615,0.613-1.071
		C11.248,3.138,9.63,1.767,7.646,1.767z M7.469,11.959c-0.193,0-0.352-0.16-0.352-0.353H6.064v0.175c0,0.106-0.07,0.178-0.176,0.178
		H5.713c-0.105,0-0.176-0.071-0.176-0.178v-0.175H4.448l-0.053,1.581h3.075V11.959z M7.469,9.321H7.118
		c-0.104,0-0.174-0.069-0.174-0.175V8.971c0-0.105,0.069-0.176,0.174-0.176h0.352V8.653c0-0.456-0.246-0.858-0.615-1.071
		L5.467,6.791C5.344,7.441,5.028,8.005,4.554,8.444l-0.071,2.46h1.054v-0.176c0-0.107,0.07-0.176,0.176-0.176h0.175
		c0.106,0,0.176,0.068,0.176,0.176v0.176h1.053c0-0.193,0.159-0.352,0.352-0.352V9.321z M7.822,10.904H7.469v0.702h0.353V10.904z
		 M10.738,8.444c-0.474-0.439-0.791-1.003-0.913-1.654L8.437,7.582C8.068,7.795,7.822,8.197,7.822,8.653v0.142h0.351
		c0.104,0,0.176,0.07,0.176,0.176v0.176c0,0.105-0.071,0.175-0.176,0.175H7.822v1.231c0.193,0,0.351,0.158,0.351,0.352h1.055v-0.176
		c0-0.107,0.069-0.176,0.175-0.176h0.177c0.105,0,0.176,0.068,0.176,0.176v0.176h1.053L10.738,8.444z M10.843,11.606H9.754v0.175
		c0,0.106-0.07,0.178-0.176,0.178H9.402c-0.105,0-0.175-0.071-0.175-0.178v-0.175H8.172c0,0.192-0.157,0.353-0.351,0.353v1.229
		h3.072L10.843,11.606z"/>
</g>
</svg>
