<?xml version="1.0" encoding="utf-8"?>
<!-- Generator: Adobe Illustrator 12.0.0, SVG Export Plug-In . SVG Version: 6.00 Build 51448)  -->
<!DOCTYPE svg PUBLIC "-//W3C//DTD SVG 1.1 Tiny//EN" "http://www.w3.org/Graphics/SVG/1.1/DTD/svg11-tiny.dtd" [
	<!ENTITY ns_svg "http://www.w3.org/2000/svg">
	<!ENTITY ns_xlink "http://www.w3.org/1999/xlink">
]>
<svg  version="1.1" baseProfile="tiny" id="Layer_1" xmlns="&ns_svg;" xmlns:xlink="&ns_xlink;" width="15.25" height="15.25"
	 viewBox="0 0 15.25 15.25" xml:space="preserve">
<rect fill="none" width="15.25" height="15.25"/>
<path fill="#FFFFFF" stroke="#FFFFFF" stroke-width="1.7" d="M10.562,13.59H4.52c-0.38,0-0.671-0.291-0.671-0.672V2.176
	c0-0.38,0.291-0.673,0.671-0.673h6.042c0.38,0,0.672,0.292,0.672,0.673v10.742C11.234,13.299,10.942,13.59,10.562,13.59z"/>
<g>
	<path fill="#0BAFEF" d="M10.562,13.59H4.52c-0.38,0-0.671-0.291-0.671-0.672V2.176c0-0.38,0.291-0.673,0.671-0.673h6.042
		c0.38,0,0.672,0.292,0.672,0.673v10.742C11.234,13.299,10.942,13.59,10.562,13.59z M10.787,2.176c0-0.135-0.092-0.225-0.225-0.225
		H4.52c-0.135,0-0.224,0.089-0.224,0.225v10.742c0,0.135,0.089,0.223,0.224,0.223h6.042c0.133,0,0.225-0.088,0.225-0.223V2.176z
		 M5.08,3.071c-0.179,0-0.338-0.157-0.338-0.335c0-0.181,0.159-0.338,0.338-0.338c0.178,0,0.334,0.157,0.334,0.338
		C5.415,2.915,5.258,3.071,5.08,3.071z M7.54,11.798c-1.543,0-2.798-1.251-2.798-2.796c0-1.544,1.255-2.798,2.798-2.798
		c1.545,0,2.796,1.253,2.796,2.798C10.336,10.547,9.085,11.798,7.54,11.798z M5.08,12.694c-0.179,0-0.338-0.157-0.338-0.336
		c0-0.18,0.159-0.335,0.338-0.335c0.178,0,0.334,0.155,0.334,0.335C5.415,12.537,5.258,12.694,5.08,12.694z M7.54,6.65
		c-1.298,0-2.348,1.052-2.348,2.352c0,1.297,1.05,2.348,2.348,2.348s2.351-1.051,2.351-2.348C9.891,7.702,8.838,6.65,7.54,6.65z
		 M7.54,10.902c-1.05,0-1.901-0.852-1.901-1.9C5.639,7.949,6.49,7.1,7.54,7.1c1.054,0,1.903,0.85,1.903,1.902
		C9.443,10.051,8.594,10.902,7.54,10.902z M7.54,5.532c-0.804,0-1.453-0.649-1.453-1.454c0-0.806,0.649-1.455,1.453-1.455
		c0.808,0,1.457,0.649,1.457,1.455C8.997,4.883,8.348,5.532,7.54,5.532z M7.54,3.071c-0.559,0-1.006,0.448-1.006,1.007
		c0,0.56,0.448,1.007,1.006,1.007c0.561,0,1.008-0.447,1.008-1.007C8.548,3.519,8.101,3.071,7.54,3.071z M7.54,7.994
		c-0.559,0-1.006,0.445-1.006,1.008c0,0.56,0.448,1.007,1.006,1.007c0.561,0,1.008-0.447,1.008-1.007
		C8.548,8.439,8.101,7.994,7.54,7.994z M7.54,4.638c-0.312,0-0.559-0.247-0.559-0.56c0-0.312,0.246-0.559,0.559-0.559
		c0.315,0,0.561,0.247,0.561,0.559C8.101,4.392,7.855,4.638,7.54,4.638z M7.54,9.562c-0.312,0-0.559-0.247-0.559-0.56
		c0-0.314,0.246-0.562,0.559-0.562c0.315,0,0.561,0.248,0.561,0.562C8.101,9.314,7.855,9.562,7.54,9.562z M10.004,3.071
		c-0.18,0-0.338-0.157-0.338-0.335c0-0.181,0.158-0.338,0.338-0.338c0.178,0,0.332,0.157,0.332,0.338
		C10.336,2.915,10.182,3.071,10.004,3.071z M10.004,12.694c-0.18,0-0.338-0.157-0.338-0.336c0-0.18,0.158-0.335,0.338-0.335
		c0.178,0,0.332,0.155,0.332,0.335C10.336,12.537,10.182,12.694,10.004,12.694z"/>
</g>
</svg>
