<?xml version="1.0" encoding="utf-8"?>
<!-- Generator: Adobe Illustrator 12.0.0, SVG Export Plug-In . SVG Version: 6.00 Build 51448)  -->
<!DOCTYPE svg PUBLIC "-//W3C//DTD SVG 1.1 Tiny//EN" "http://www.w3.org/Graphics/SVG/1.1/DTD/svg11-tiny.dtd" [
	<!ENTITY ns_svg "http://www.w3.org/2000/svg">
	<!ENTITY ns_xlink "http://www.w3.org/1999/xlink">
]>
<svg  version="1.1" baseProfile="tiny" id="Layer_1" xmlns="&ns_svg;" xmlns:xlink="&ns_xlink;" width="15.25" height="15.25"
	 viewBox="0 0 15.25 15.25" xml:space="preserve">
<rect fill="none" width="15.25" height="15.25"/>
<path fill="#FFFFFF" stroke="#FFFFFF" stroke-width="1.7" stroke-linejoin="round" d="M12.985,8.438
	c-1.174,1.876-5.3,4.509-5.3,4.509c-0.019-0.012-4.22-2.633-5.395-4.509c-1.52-2.432-0.453-4.696,0.641-5.364
	c1.256-0.766,3.623-0.539,4.71,0.985c1.237-1.558,3.446-1.751,4.702-0.985C13.438,3.742,14.506,6.007,12.985,8.438z"/>
<path fill="#0BAFEF" d="M12.985,8.438c-1.174,1.876-5.3,4.509-5.3,4.509c-0.019-0.012-4.22-2.633-5.395-4.509
	c-1.52-2.432-0.453-4.696,0.641-5.364c1.256-0.766,3.623-0.539,4.71,0.985c1.237-1.558,3.446-1.751,4.702-0.985
	C13.438,3.742,14.506,6.007,12.985,8.438z M3.614,3.721C3.139,3.895,2.437,4.771,2.373,5.802c-0.032,0.537,0.002,1.11,0.479,1.659
	C2.976,7.603,3.19,7.617,3.332,7.494c0.142-0.123,0.158-0.336,0.035-0.479C3.1,6.708,3.017,6.403,3.051,5.844
	C3.103,5,3.699,4.413,3.848,4.359c0.175-0.063,0.267-0.258,0.203-0.435C3.986,3.748,3.792,3.657,3.614,3.721z"/>
</svg>
