<?xml version="1.0" encoding="utf-8"?>
<!-- Generator: Adobe Illustrator 12.0.0, SVG Export Plug-In . SVG Version: 6.00 Build 51448)  -->
<!DOCTYPE svg PUBLIC "-//W3C//DTD SVG 1.1 Tiny//EN" "http://www.w3.org/Graphics/SVG/1.1/DTD/svg11-tiny.dtd" [
	<!ENTITY ns_svg "http://www.w3.org/2000/svg">
	<!ENTITY ns_xlink "http://www.w3.org/1999/xlink">
]>
<svg  version="1.1" baseProfile="tiny" id="Layer_1" xmlns="&ns_svg;" xmlns:xlink="&ns_xlink;" width="15.25" height="15.25"
	 viewBox="0 0 15.25 15.25" xml:space="preserve">
<rect fill="none" width="15.25" height="15.25"/>
<path fill="#FFFFFF" stroke="#FFFFFF" stroke-width="1.7" d="M12.735,4.053h-2.058l-0.001,0.015H9.432V2.834
	c0-0.447-0.396-0.732-0.876-0.732c0,0-1.835,0-1.832,0c-0.476,0-0.879,0.285-0.879,0.732v1.234H4.41V4.053H2.54
	c-0.667,0-1.282,0.56-1.282,1.301c0,0.016,0,5.974,0,5.974c0,0.834,0.631,1.312,1.282,1.312h1.587v0.017h7.034v-0.017h1.574
	c0.652,0,1.282-0.478,1.282-1.312c0,0,0-5.958,0-5.974C14.018,4.612,13.399,4.053,12.735,4.053z"/>
<path fill="#0BAFEF" d="M4.127,4.068h1.718V2.834c0-0.447,0.403-0.732,0.879-0.732c-0.003,0,1.832,0,1.832,0
	c0.48,0,0.876,0.285,0.876,0.732v1.234h1.729v8.588H4.127V4.068z M3.484,4.053H2.54c-0.667,0-1.282,0.56-1.282,1.301
	c0,0.016,0,5.974,0,5.974c0,0.834,0.631,1.312,1.282,1.312h0.944V4.053z M8.776,4.068V2.797h-2.3v1.271H8.776z M11.794,12.639h0.941
	c0.652,0,1.282-0.478,1.282-1.312c0,0,0-5.958,0-5.974c0-0.741-0.618-1.301-1.282-1.301h-0.941V12.639z"/>
</svg>
