<?xml version="1.0" encoding="utf-8"?>
<!-- Generator: Adobe Illustrator 12.0.0, SVG Export Plug-In . SVG Version: 6.00 Build 51448)  -->
<!DOCTYPE svg PUBLIC "-//W3C//DTD SVG 1.1 Tiny//EN" "http://www.w3.org/Graphics/SVG/1.1/DTD/svg11-tiny.dtd" [
	<!ENTITY ns_svg "http://www.w3.org/2000/svg">
	<!ENTITY ns_xlink "http://www.w3.org/1999/xlink">
]>
<svg  version="1.1" baseProfile="tiny" id="Layer_1" xmlns="&ns_svg;" xmlns:xlink="&ns_xlink;" width="15.25" height="15.25"
	 viewBox="0 0 15.25 15.25" xml:space="preserve">
<rect fill="none" width="15.25" height="15.25"/>
<path fill="#FFFFFF" stroke="#FFFFFF" stroke-width="1.7" d="M8.931,13.874H6.362c-0.203,0-0.368-0.167-0.368-0.368V8.367
	C5.994,8.165,6.159,8,6.362,8V4.696c0-0.204,0.164-0.368,0.366-0.368V2.677c0-0.111,0.038-0.184,0.111-0.257l1.1-1.102
	c0.075-0.072,0.149-0.11,0.258-0.11c0.203,0,0.367,0.166,0.367,0.368v2.753c0.201,0,0.367,0.164,0.367,0.368V8
	c0.201,0,0.367,0.165,0.367,0.367v5.139C9.298,13.707,9.132,13.874,8.931,13.874z"/>
<g>
	<path fill="#0BAFEF" d="M8.931,13.874H6.362c-0.203,0-0.368-0.167-0.368-0.368V8.367C5.994,8.165,6.159,8,6.362,8V4.696
		c0-0.204,0.164-0.368,0.366-0.368V2.677c0-0.111,0.038-0.184,0.111-0.257l1.1-1.102c0.075-0.072,0.149-0.11,0.258-0.11
		c0.203,0,0.367,0.166,0.367,0.368v2.753c0.201,0,0.367,0.164,0.367,0.368V8c0.201,0,0.367,0.165,0.367,0.367v5.139
		C9.298,13.707,9.132,13.874,8.931,13.874z M8.931,8.367H6.362v1.1h2.569V8.367z M8.564,4.696H6.728V8h1.836V4.696z"/>
</g>
</svg>
