<?xml version="1.0" encoding="utf-8"?>
<!-- Generator: Adobe Illustrator 12.0.0, SVG Export Plug-In . SVG Version: 6.00 Build 51448)  -->
<!DOCTYPE svg PUBLIC "-//W3C//DTD SVG 1.1 Tiny//EN" "http://www.w3.org/Graphics/SVG/1.1/DTD/svg11-tiny.dtd" [
	<!ENTITY ns_svg "http://www.w3.org/2000/svg">
	<!ENTITY ns_xlink "http://www.w3.org/1999/xlink">
]>
<svg  version="1.1" baseProfile="tiny" id="Layer_1" xmlns="&ns_svg;" xmlns:xlink="&ns_xlink;" width="15.25" height="15.25"
	 viewBox="0 0 15.25 15.25" xml:space="preserve">
<rect fill="none" width="15.25" height="15.25"/>
<path fill="#FFFFFF" stroke="#FFFFFF" stroke-width="1.7" d="M13.401,10.018c-0.065,0-0.112-0.021-0.157-0.067
	c-1.213-1.28-2.92-2.067-4.809-2.067c0,0.248-0.203,0.449-0.447,0.449H7.761c-0.157,0-0.271,0.135-0.225,0.293l0.629,2.357
	c0.021,0.092,0.113,0.158,0.227,0.158c0.156,0,0.269,0.113,0.312,0.248l0.18,0.675c0.067,0.246-0.111,0.427-0.313,0.427H6.053
	c-0.159,0-0.29-0.112-0.337-0.247L4.75,8.625C4.705,8.467,4.57,8.332,4.39,8.311c-0.584-0.09-1.057-0.428-1.371-0.877H2.165
	c-0.38,0-0.674-0.292-0.674-0.675V5.637c0-0.383,0.294-0.675,0.674-0.675h0.854c0.384-0.539,1.01-0.899,1.731-0.899h3.238
	c0.244,0,0.447,0.203,0.447,0.45c1.889,0,3.596-0.786,4.809-2.067c0.045-0.045,0.092-0.067,0.157-0.067
	c0.138,0,0.227,0.089,0.227,0.224v7.191C13.627,9.928,13.539,10.018,13.401,10.018z"/>
<g>
	<path fill="#0BAFEF" d="M13.401,10.018c-0.065,0-0.112-0.021-0.157-0.067c-1.213-1.28-2.92-2.067-4.809-2.067
		c0,0.248-0.203,0.449-0.447,0.449H7.761c-0.157,0-0.271,0.135-0.225,0.293l0.629,2.357c0.021,0.092,0.113,0.158,0.227,0.158
		c0.156,0,0.269,0.113,0.312,0.248l0.18,0.675c0.067,0.246-0.111,0.427-0.313,0.427H6.053c-0.159,0-0.29-0.112-0.337-0.247
		L4.75,8.625C4.705,8.467,4.57,8.332,4.39,8.311c-0.584-0.09-1.057-0.428-1.371-0.877H2.165c-0.38,0-0.674-0.292-0.674-0.675V5.637
		c0-0.383,0.294-0.675,0.674-0.675h0.854c0.384-0.539,1.01-0.899,1.731-0.899h3.238c0.244,0,0.447,0.203,0.447,0.45
		c1.889,0,3.596-0.786,4.809-2.067c0.045-0.045,0.092-0.067,0.157-0.067c0.138,0,0.227,0.089,0.227,0.224v7.191
		C13.627,9.928,13.539,10.018,13.401,10.018z M2.615,6.197c0-0.27,0.068-0.539,0.158-0.786H2.165c-0.133,0-0.223,0.089-0.223,0.225
		v1.122c0,0.137,0.09,0.226,0.223,0.226h0.609C2.684,6.737,2.615,6.467,2.615,6.197z M6.774,4.961H4.525
		C4.39,4.961,4.3,5.051,4.3,5.187c0,0.135,0.09,0.225,0.225,0.225h2.249c0.133,0,0.223-0.09,0.223-0.225
		C6.997,5.051,6.907,4.961,6.774,4.961z M6.774,5.972H4.525C4.39,5.972,4.3,6.061,4.3,6.197c0,0.136,0.09,0.225,0.225,0.225h2.249
		c0.133,0,0.223-0.089,0.223-0.225C6.997,6.061,6.907,5.972,6.774,5.972z M6.774,6.984H4.525C4.39,6.984,4.3,7.074,4.3,7.209
		c0,0.134,0.09,0.224,0.225,0.224h2.249c0.133,0,0.223-0.09,0.223-0.224C6.997,7.074,6.907,6.984,6.774,6.984z M6.726,9.119
		c-0.179,0-0.336,0.156-0.336,0.338c0,0.18,0.157,0.336,0.336,0.336c0.182,0,0.339-0.156,0.339-0.336
		C7.064,9.275,6.907,9.119,6.726,9.119z M11.83,4.085c-1.014,0.562-2.158,0.876-3.395,0.876v2.472c1.236,0,2.381,0.313,3.395,0.877
		V4.085z M12.728,3.501c-0.135,0.112-0.295,0.225-0.451,0.315V8.58c0.156,0.09,0.316,0.202,0.451,0.314V3.501z"/>
</g>
</svg>
