<?xml version="1.0" encoding="utf-8"?>
<!-- Generator: Adobe Illustrator 12.0.0, SVG Export Plug-In . SVG Version: 6.00 Build 51448)  -->
<!DOCTYPE svg PUBLIC "-//W3C//DTD SVG 1.1 Tiny//EN" "http://www.w3.org/Graphics/SVG/1.1/DTD/svg11-tiny.dtd" [
	<!ENTITY ns_svg "http://www.w3.org/2000/svg">
	<!ENTITY ns_xlink "http://www.w3.org/1999/xlink">
]>
<svg  version="1.1" baseProfile="tiny" id="Layer_1" xmlns="&ns_svg;" xmlns:xlink="&ns_xlink;" width="15.25" height="15.25"
	 viewBox="0 0 15.25 15.25" xml:space="preserve">
<rect fill="none" width="15.25" height="15.25"/>
<path fill="#FFFFFF" stroke="#FFFFFF" stroke-width="1.7" d="M7.54,1.293c1.182,0,2.973,0.168,3.799,0.436
	c0.693,0.223,1.408,0.465,1.549,1.16l0.201,3.838v4.327c0,0,0.029,0.514-0.212,0.758c-0.242,0.242-0.658,0.207-0.658,0.207h-1.504
	H7.54H7.531H4.423H2.918c0,0-0.415,0.023-0.625-0.188c-0.293-0.289-0.246-0.732-0.246-0.732V6.727l0.179-3.838
	c0.14-0.695,0.77-0.986,1.46-1.206c0.786-0.249,2.774-0.391,3.954-0.391 M11.466,9.648 M3.672,9.648 M5.577,12.809
	c-0.297,0-0.536,0.239-0.536,0.534c0,0.297,0.238,0.537,0.536,0.537H9.56c0.295,0,0.534-0.24,0.534-0.537
	c0-0.295-0.239-0.534-0.534-0.534H5.577z"/>
<path fill="#0BAFEF" d="M7.54,1.293c1.182,0,2.973,0.168,3.799,0.436c0.693,0.223,1.408,0.465,1.549,1.16l0.201,3.838v4.327
	c0,0,0.029,0.514-0.212,0.758c-0.242,0.242-0.658,0.207-0.658,0.207h-1.504H7.54H7.531H4.423H2.918c0,0-0.415,0.023-0.625-0.188
	c-0.293-0.289-0.246-0.732-0.246-0.732V6.727l0.179-3.838c0.14-0.695,0.77-0.986,1.46-1.206c0.786-0.249,2.774-0.391,3.954-0.391
	 M11.466,10.361c0.402,0,0.721-0.318,0.721-0.713c0-0.39-0.318-0.707-0.721-0.707c-0.396,0-0.723,0.317-0.723,0.707
	C10.744,10.042,11.071,10.361,11.466,10.361z M11.466,9.648 M4.393,9.648c0-0.39-0.324-0.707-0.72-0.707
	c-0.398,0-0.722,0.317-0.722,0.707c0,0.395,0.323,0.713,0.722,0.713C4.068,10.361,4.393,10.042,4.393,9.648z M3.672,9.648
	 M7.534,2.966c-2.394,0-3.957,0.288-3.957,0.288C3.162,3.331,3.015,3.478,2.962,3.816l0.003,3.469
	C2.93,7.553,3.007,7.817,3.381,7.817H7.54h4.215c0.375,0,0.452-0.264,0.416-0.531l-0.02-3.469c-0.051-0.338-0.133-0.466-0.615-0.562
	C11.537,3.254,9.932,2.966,7.534,2.966z M5.577,12.809c-0.297,0-0.536,0.239-0.536,0.534c0,0.297,0.238,0.537,0.536,0.537H9.56
	c0.295,0,0.534-0.24,0.534-0.537c0-0.295-0.239-0.534-0.534-0.534H5.577z"/>
</svg>
