<?xml version="1.0" encoding="utf-8"?>
<!-- Generator: Adobe Illustrator 12.0.0, SVG Export Plug-In . SVG Version: 6.00 Build 51448)  -->
<!DOCTYPE svg PUBLIC "-//W3C//DTD SVG 1.1 Tiny//EN" "http://www.w3.org/Graphics/SVG/1.1/DTD/svg11-tiny.dtd" [
	<!ENTITY ns_svg "http://www.w3.org/2000/svg">
	<!ENTITY ns_xlink "http://www.w3.org/1999/xlink">
]>
<svg  version="1.1" baseProfile="tiny" id="Layer_1" xmlns="&ns_svg;" xmlns:xlink="&ns_xlink;" width="15.25" height="15.25"
	 viewBox="0 0 15.25 15.25" xml:space="preserve">
<rect fill="none" width="15.25" height="15.25"/>
<path fill="#FFFFFF" stroke="#FFFFFF" stroke-width="1.7" d="M11.099,8.379c0.041,0.195,0.236,0.319,0.432,0.277l1.711-0.364
	c0.197-0.043,0.32-0.235,0.277-0.432c-0.041-0.195-0.234-0.321-0.429-0.279l-1.712,0.367C11.183,7.99,11.058,8.183,11.099,8.379z
	 M10.553,6.361l1.239-1.238c0.141-0.141,0.141-0.372-0.002-0.513c-0.141-0.141-0.371-0.141-0.513,0l-1.236,1.238
	c-0.142,0.142-0.141,0.37,0,0.513C10.182,6.503,10.414,6.503,10.553,6.361z M7.55,5.329c0.201,0,0.361-0.162,0.361-0.363V3.219
	c0-0.2-0.16-0.362-0.361-0.362c-0.201,0-0.363,0.163-0.363,0.362v1.747C7.187,5.167,7.35,5.329,7.55,5.329z M1.968,8.167l1.707,0.39
	c0.193,0.045,0.388-0.078,0.434-0.273c0.044-0.195-0.078-0.39-0.273-0.436L2.129,7.459C1.933,7.416,1.739,7.538,1.695,7.732
	C1.649,7.927,1.772,8.123,1.968,8.167z M4.546,6.362c0.14,0.141,0.371,0.141,0.513,0c0.142-0.143,0.142-0.372,0-0.513L3.822,4.611
	c-0.141-0.141-0.373-0.141-0.513,0c-0.143,0.141-0.143,0.372,0,0.513L4.546,6.362z M13.775,9.736
	c-1.048-0.391-2.126-0.67-3.223-0.854c0-0.01,0-0.015,0-0.025c0-1.668-1.359-3.025-3.027-3.025c-1.669,0-3.027,1.357-3.027,3.025
	c0,0.02,0.005,0.029,0.006,0.047C3.461,9.087,2.437,9.365,1.439,9.736c-0.188,0.069-0.283,0.278-0.213,0.466
	s0.277,0.283,0.466,0.214c1.894-0.704,3.884-1.061,5.916-1.061c2.032,0,4.024,0.356,5.916,1.061
	c0.189,0.069,0.396-0.027,0.467-0.214C14.059,10.014,13.962,9.805,13.775,9.736z"/>
<path fill="#0BAFEF" d="M11.099,8.379c0.041,0.195,0.236,0.319,0.432,0.277l1.711-0.364c0.197-0.043,0.32-0.235,0.277-0.432
	c-0.041-0.195-0.234-0.321-0.429-0.279l-1.712,0.367C11.183,7.99,11.058,8.183,11.099,8.379z M10.553,6.361l1.239-1.238
	c0.141-0.141,0.141-0.372-0.002-0.513c-0.141-0.141-0.371-0.141-0.513,0l-1.236,1.238c-0.142,0.142-0.141,0.37,0,0.513
	C10.182,6.503,10.414,6.503,10.553,6.361z M7.55,5.329c0.201,0,0.361-0.162,0.361-0.363V3.219c0-0.2-0.16-0.362-0.361-0.362
	c-0.201,0-0.363,0.163-0.363,0.362v1.747C7.187,5.167,7.35,5.329,7.55,5.329z M1.968,8.167l1.707,0.39
	c0.193,0.045,0.388-0.078,0.434-0.273c0.044-0.195-0.078-0.39-0.273-0.436L2.129,7.459C1.933,7.416,1.739,7.538,1.695,7.732
	C1.649,7.927,1.772,8.123,1.968,8.167z M4.546,6.362c0.14,0.141,0.371,0.141,0.513,0c0.142-0.143,0.142-0.372,0-0.513L3.822,4.611
	c-0.141-0.141-0.373-0.141-0.513,0c-0.143,0.141-0.143,0.372,0,0.513L4.546,6.362z M13.775,9.736
	c-1.048-0.391-2.126-0.67-3.223-0.854c0-0.01,0-0.015,0-0.025c0-1.668-1.359-3.025-3.027-3.025c-1.669,0-3.027,1.357-3.027,3.025
	c0,0.02,0.005,0.029,0.006,0.047C3.461,9.087,2.437,9.365,1.439,9.736c-0.188,0.069-0.283,0.278-0.213,0.466
	s0.277,0.283,0.466,0.214c1.894-0.704,3.884-1.061,5.916-1.061c2.032,0,4.024,0.356,5.916,1.061
	c0.189,0.069,0.396-0.027,0.467-0.214C14.059,10.014,13.962,9.805,13.775,9.736z"/>
</svg>
