<?xml version="1.0" encoding="utf-8"?>
<!-- Generator: Adobe Illustrator 12.0.0, SVG Export Plug-In . SVG Version: 6.00 Build 51448)  -->
<!DOCTYPE svg PUBLIC "-//W3C//DTD SVG 1.1 Tiny//EN" "http://www.w3.org/Graphics/SVG/1.1/DTD/svg11-tiny.dtd" [
	<!ENTITY ns_svg "http://www.w3.org/2000/svg">
	<!ENTITY ns_xlink "http://www.w3.org/1999/xlink">
]>
<svg  version="1.1" baseProfile="tiny" id="Layer_1" xmlns="&ns_svg;" xmlns:xlink="&ns_xlink;" width="15.25" height="15.25"
	 viewBox="0 0 15.25 15.25" xml:space="preserve">
<rect fill="none" width="15.25" height="15.25"/>
<path fill="#FFFFFF" stroke="#FFFFFF" stroke-width="1.7" d="M6.551,1.951c0.654,0.626,0.627,1.69,0,2.318L4.232,6.588
	c-0.629,0.628-1.693,0.628-2.322,0c-0.625-0.627-0.625-1.691,0-2.319l2.322-2.318C4.857,1.322,5.894,1.322,6.551,1.951z
	 M6.36,13.766c-0.899,0-1.637-0.739-1.637-1.639V8.854c0-0.9,0.738-1.637,1.637-1.637c0.9,0,1.638,0.737,1.638,1.637v3.273
	C7.998,13.026,7.26,13.766,6.36,13.766z M13.507,7.598c0.465,0.791,0.164,1.773-0.599,2.238c-0.792,0.463-1.774,0.191-2.236-0.601
	L9.035,6.397C8.597,5.633,8.84,4.624,9.632,4.16c0.764-0.464,1.774-0.19,2.237,0.601L13.507,7.598z"/>
<g>
	<path fill="#0BAFEF" d="M6.551,1.951c0.654,0.626,0.627,1.69,0,2.318L4.232,6.588c-0.629,0.628-1.693,0.628-2.322,0
		c-0.625-0.627-0.625-1.691,0-2.319l2.322-2.318C4.857,1.322,5.894,1.322,6.551,1.951z M3.439,3.505l1.556,1.556l1.174-1.175
		c0.437-0.41,0.407-1.118,0-1.555c-0.41-0.436-1.145-0.436-1.555,0L3.439,3.505z M6.36,13.766c-0.899,0-1.637-0.739-1.637-1.639
		V8.854c0-0.9,0.738-1.637,1.637-1.637c0.9,0,1.638,0.737,1.638,1.637v3.273C7.998,13.026,7.26,13.766,6.36,13.766z M7.449,10.49
		H5.267v1.637c0,0.601,0.492,1.092,1.093,1.092s1.089-0.491,1.089-1.092V10.49z M13.507,7.598c0.465,0.791,0.164,1.773-0.599,2.238
		c-0.792,0.463-1.774,0.191-2.236-0.601L9.035,6.397C8.597,5.633,8.84,4.624,9.632,4.16c0.764-0.464,1.774-0.19,2.237,0.601
		L13.507,7.598z M9.908,4.651c-0.52,0.3-0.709,0.955-0.41,1.474l0.816,1.418l1.914-1.091l-0.821-1.418
		C11.106,4.514,10.425,4.351,9.908,4.651z"/>
</g>
</svg>
