<?xml version="1.0" encoding="utf-8"?>
<!-- Generator: Adobe Illustrator 12.0.0, SVG Export Plug-In . SVG Version: 6.00 Build 51448)  -->
<!DOCTYPE svg PUBLIC "-//W3C//DTD SVG 1.1 Tiny//EN" "http://www.w3.org/Graphics/SVG/1.1/DTD/svg11-tiny.dtd" [
	<!ENTITY ns_svg "http://www.w3.org/2000/svg">
	<!ENTITY ns_xlink "http://www.w3.org/1999/xlink">
]>
<svg  version="1.1" baseProfile="tiny" id="Layer_1" xmlns="&ns_svg;" xmlns:xlink="&ns_xlink;" width="15.25" height="15.25"
	 viewBox="0 0 15.25 15.25" xml:space="preserve">
<rect fill="none" width="15.25" height="15.25"/>
<path fill="#FFFFFF" stroke="#FFFFFF" stroke-width="1.7" d="M11.321,9.893v0.715c0.561,0.212,0.961,0.771,0.961,1.4
	c0,0.82-0.663,1.486-1.484,1.486s-1.485-0.666-1.485-1.486c0-0.629,0.401-1.188,0.96-1.4v-0.365
	c-0.053,0.018-0.105,0.018-0.176,0.018c-0.523,0-0.977-0.332-1.152-0.805L8.858,9.212H6.29l-1.138,0.962
	c-0.068,0.068-0.12,0.156-0.12,0.262v0.172c0.558,0.212,0.959,0.771,0.959,1.4c0,0.82-0.663,1.486-1.485,1.486
	c-0.821,0-1.484-0.666-1.484-1.486c0-0.629,0.401-1.188,0.961-1.4v-0.172c0-0.438,0.21-0.805,0.506-1.066l3.388-2.849l-1.1-2.986
	H3.895c-0.191,0-0.348-0.158-0.348-0.349V2.66c0-0.682,0.542-1.223,1.223-1.223H6.29c0.523,0,0.961,0.332,1.134,0.803l0.351,0.944
	h1.554c0.716,0,1.311,0.592,1.311,1.31c0,0.402-0.191,0.752-0.473,0.996L8.978,6.503l0.946,2.587
	c0.017,0.087,0.121,0.138,0.226,0.104l1.714-0.613c0.228-0.086,0.384,0.037,0.453,0.21l0.123,0.315
	c0.069,0.156-0.019,0.384-0.21,0.453L11.321,9.893z"/>
<g>
	<path fill="#0BAFEF" d="M11.321,9.893v0.715c0.561,0.212,0.961,0.771,0.961,1.4c0,0.82-0.663,1.486-1.484,1.486
		s-1.485-0.666-1.485-1.486c0-0.629,0.401-1.188,0.96-1.4v-0.365c-0.053,0.018-0.105,0.018-0.176,0.018
		c-0.523,0-0.977-0.332-1.152-0.805L8.858,9.212H6.29l-1.138,0.962c-0.068,0.068-0.12,0.156-0.12,0.262v0.172
		c0.558,0.212,0.959,0.771,0.959,1.4c0,0.82-0.663,1.486-1.485,1.486c-0.821,0-1.484-0.666-1.484-1.486
		c0-0.629,0.401-1.188,0.961-1.4v-0.172c0-0.438,0.21-0.805,0.506-1.066l3.388-2.849l-1.1-2.986H3.895
		c-0.191,0-0.348-0.158-0.348-0.349V2.66c0-0.682,0.542-1.223,1.223-1.223H6.29c0.523,0,0.961,0.332,1.134,0.803l0.351,0.944h1.554
		c0.716,0,1.311,0.592,1.311,1.31c0,0.402-0.191,0.752-0.473,0.996L8.978,6.503l0.946,2.587c0.017,0.087,0.121,0.138,0.226,0.104
		l1.714-0.613c0.228-0.086,0.384,0.037,0.453,0.21l0.123,0.315c0.069,0.156-0.019,0.384-0.21,0.453L11.321,9.893z M5.032,11.309
		v0.699c0,0.295-0.228,0.524-0.526,0.524c-0.297,0-0.523-0.229-0.523-0.524v-0.699c-0.211,0.156-0.351,0.418-0.351,0.699
		c0,0.489,0.385,0.873,0.874,0.873c0.491,0,0.875-0.384,0.875-0.873C5.381,11.727,5.242,11.465,5.032,11.309z M11.986,8.897
		l-1.714,0.628c-0.053,0.02-0.105,0.035-0.176,0.035c-0.225,0-0.435-0.139-0.506-0.349L7.862,4.46L7.529,4.563l0.752,2.062
		L4.699,9.631c-0.228,0.191-0.366,0.489-0.366,0.805v1.572c0,0.104,0.07,0.172,0.173,0.172c0.105,0,0.174-0.067,0.174-0.172v-1.572
		c0-0.21,0.089-0.42,0.244-0.543l3.479-2.917l0.874,2.358C9.399,9.666,9.714,9.91,10.097,9.91c0.105,0,0.21-0.018,0.299-0.051
		l0.228-0.088v2.236c0,0.104,0.069,0.172,0.175,0.172c0.104,0,0.175-0.067,0.175-0.172v-2.36l1.134-0.419L11.986,8.897z
		 M6.447,2.607C6.429,2.539,6.36,2.485,6.29,2.485H4.77c-0.107,0-0.175,0.07-0.175,0.175v0.525h2.062L6.447,2.607z M8.247,7.568
		L6.709,8.862h2.01L8.247,7.568z M9.329,3.534H7.896l0.963,2.62l1.1-0.925c0.209-0.176,0.332-0.438,0.332-0.734
		C10.29,3.97,9.854,3.534,9.329,3.534z M11.321,11.309v0.699c0,0.295-0.229,0.524-0.523,0.524c-0.298,0-0.525-0.229-0.525-0.524
		v-0.699c-0.209,0.156-0.349,0.418-0.349,0.699c0,0.489,0.383,0.873,0.874,0.873c0.488,0,0.874-0.384,0.874-0.873
		C11.672,11.727,11.53,11.465,11.321,11.309z"/>
</g>
</svg>
