<?xml version="1.0" encoding="utf-8"?>
<!-- Generator: Adobe Illustrator 12.0.0, SVG Export Plug-In . SVG Version: 6.00 Build 51448)  -->
<!DOCTYPE svg PUBLIC "-//W3C//DTD SVG 1.1 Tiny//EN" "http://www.w3.org/Graphics/SVG/1.1/DTD/svg11-tiny.dtd" [
	<!ENTITY ns_svg "http://www.w3.org/2000/svg">
	<!ENTITY ns_xlink "http://www.w3.org/1999/xlink">
]>
<svg  version="1.1" baseProfile="tiny" id="Layer_1" xmlns="&ns_svg;" xmlns:xlink="&ns_xlink;" width="15.25" height="15.25"
	 viewBox="0 0 15.25 15.25" xml:space="preserve">
<rect fill="none" width="15.25" height="15.25"/>
<path fill="#FFFFFF" stroke="#FFFFFF" stroke-width="1.7" d="M13.474,11.816H1.702c-0.136,0-0.226-0.09-0.226-0.227V3.214
	c0-0.136,0.09-0.226,0.226-0.226h11.772c0.135,0,0.226,0.09,0.226,0.226v8.376C13.7,11.727,13.609,11.816,13.474,11.816z"/>
<g>
	<path fill="#0BAFEF" d="M13.474,11.816H1.702c-0.136,0-0.226-0.09-0.226-0.227V3.214c0-0.136,0.09-0.226,0.226-0.226h11.772
		c0.135,0,0.226,0.09,0.226,0.226v8.376C13.7,11.727,13.609,11.816,13.474,11.816z M4.758,7.221c0-0.09,0-0.181,0.023-0.272
		L3.422,6.451l0.068-0.158C3.513,6.246,3.513,6.18,3.513,6.112c0-0.272-0.227-0.5-0.498-0.5c-0.272,0-0.521,0.227-0.521,0.5
		c0,0.068,0.023,0.133,0.046,0.204c0.021,0.022,0.021,0.067,0.021,0.09c0,0.091-0.068,0.158-0.135,0.204
		c-0.16,0.091-0.271,0.271-0.271,0.476c0,0.27,0.225,0.495,0.496,0.495c0.228,0,0.432-0.133,0.499-0.336l0.045-0.159l1.652,0.61
		C4.803,7.539,4.758,7.38,4.758,7.221z M5.777,8.533l-2.128,0.77L3.603,9.146C3.536,8.941,3.331,8.804,3.106,8.804
		c-0.271,0-0.499,0.252-0.499,0.522c0,0.205,0.114,0.362,0.272,0.452c0.068,0.046,0.135,0.114,0.135,0.204
		c0,0.023,0,0.068-0.021,0.092c-0.024,0.066-0.046,0.135-0.046,0.203c0,0.272,0.249,0.498,0.521,0.498
		c0.271,0,0.498-0.226,0.498-0.498c0-0.068,0-0.137-0.023-0.182L3.875,9.938L5.777,9.26V8.533z M9.761,4.573
		C9.218,4.005,8.425,3.668,7.588,3.668S5.957,4.005,5.415,4.573c-0.272,0.271-0.43,0.655-0.43,1.085
		c0,0.315,0.091,0.587,0.248,0.838C5.28,6.564,5.301,6.654,5.301,6.745c0,0.069-0.021,0.113-0.044,0.159
		C5.21,6.995,5.21,7.108,5.21,7.221c0,0.43,0.295,0.77,0.68,0.859c0.204,0.047,0.341,0.248,0.341,0.453
		c0,0.137,0.067,0.227,0.18,0.295C6.773,9.01,7.159,9.123,7.588,9.123c0.43,0,0.814-0.113,1.178-0.295
		c0.112-0.068,0.18-0.158,0.18-0.295c0-0.205,0.136-0.406,0.34-0.453c0.385-0.09,0.68-0.43,0.68-0.859c0-0.113,0-0.226-0.046-0.316
		c-0.022-0.046-0.045-0.09-0.045-0.159c0-0.091,0.022-0.181,0.068-0.248c0.158-0.251,0.248-0.523,0.248-0.838
		C10.191,5.228,10.033,4.845,9.761,4.573z M6.569,7.516c-0.385,0-0.679-0.295-0.679-0.681c0-0.384,0.294-0.677,0.679-0.677
		c0.385,0,0.678,0.293,0.678,0.677C7.248,7.221,6.955,7.516,6.569,7.516z M8.946,9.26C8.539,9.463,8.086,9.574,7.588,9.574
		S6.636,9.463,6.231,9.26v0.203c0,0.201,0.112,0.385,0.271,0.475c0.315,0.182,0.7,0.295,1.085,0.295c0.384,0,0.77-0.113,1.086-0.295
		c0.159-0.09,0.271-0.273,0.271-0.475V9.26z M7.588,8.646c-0.25,0-0.453-0.203-0.453-0.453c0-0.088,0.023-0.157,0.067-0.227
		l0.181-0.338C7.43,7.561,7.497,7.516,7.588,7.516c0.09,0,0.161,0.045,0.204,0.113l0.18,0.338c0.046,0.069,0.068,0.139,0.068,0.227
		C8.041,8.443,7.838,8.646,7.588,8.646z M8.607,7.516c-0.385,0-0.68-0.295-0.68-0.681c0-0.384,0.295-0.677,0.68-0.677
		c0.384,0,0.679,0.293,0.679,0.677C9.286,7.221,8.991,7.516,8.607,7.516z M12.07,8.804c-0.227,0-0.43,0.138-0.497,0.342
		l-0.046,0.157L9.4,8.533V9.26l1.9,0.678l-0.068,0.158c-0.021,0.045-0.021,0.113-0.021,0.182c0,0.272,0.226,0.498,0.498,0.498
		c0.271,0,0.521-0.226,0.521-0.498c0-0.068-0.025-0.137-0.045-0.203c-0.023-0.023-0.023-0.068-0.023-0.092
		c0-0.09,0.068-0.158,0.136-0.204c0.159-0.09,0.271-0.247,0.271-0.452C12.568,9.056,12.343,8.804,12.07,8.804z M12.75,6.61
		c-0.068-0.046-0.135-0.113-0.135-0.204c0-0.023,0-0.068,0.021-0.09c0.022-0.07,0.045-0.136,0.045-0.204c0-0.272-0.248-0.5-0.52-0.5
		s-0.498,0.227-0.498,0.5c0,0.068,0,0.133,0.021,0.181l0.068,0.158l-1.359,0.498c0.023,0.091,0.023,0.182,0.023,0.272
		c0,0.159-0.045,0.318-0.09,0.475l1.652-0.61l0.045,0.159c0.067,0.203,0.272,0.336,0.498,0.336c0.272,0,0.498-0.225,0.498-0.495
		C13.021,6.881,12.908,6.701,12.75,6.61z"/>
</g>
</svg>
