<?xml version="1.0" encoding="utf-8"?>
<!-- Generator: Adobe Illustrator 12.0.0, SVG Export Plug-In . SVG Version: 6.00 Build 51448)  -->
<!DOCTYPE svg PUBLIC "-//W3C//DTD SVG 1.1 Tiny//EN" "http://www.w3.org/Graphics/SVG/1.1/DTD/svg11-tiny.dtd" [
	<!ENTITY ns_svg "http://www.w3.org/2000/svg">
	<!ENTITY ns_xlink "http://www.w3.org/1999/xlink">
]>
<svg  version="1.1" baseProfile="tiny" id="Layer_1" xmlns="&ns_svg;" xmlns:xlink="&ns_xlink;" width="15.25" height="15.25"
	 viewBox="0 0 15.25 15.25" xml:space="preserve">
<rect fill="none" width="15.25" height="15.25"/>
<path fill="#FFFFFF" stroke="#FFFFFF" stroke-width="1.7" d="M5.003,10.303h7.825c0.181,0,0.333-0.127,0.364-0.307l0.852-4.874
	c0.017-0.104-0.008-0.209-0.072-0.289C13.91,4.751,13.815,4.7,13.713,4.689L3.554,3.753L3.253,2.738
	C3.209,2.592,3.082,2.489,2.929,2.474L1.434,2.352C1.23,2.336,1.051,2.488,1.035,2.691c0,0.011,0,0.021,0,0.03
	c0,0.191,0.146,0.353,0.338,0.369c0,0,0.895,0.073,1.243,0.102c0.074,0.25,0.224,0.755,0.291,0.977
	c0.002,0.012-0.002,0.023,0.001,0.035l1.74,5.835C4.694,10.195,4.838,10.303,5.003,10.303z M5.539,10.967
	c-0.532,0-0.961,0.431-0.961,0.959c0,0.531,0.429,0.962,0.961,0.962c0.532,0,0.96-0.431,0.96-0.962
	C6.499,11.397,6.071,10.967,5.539,10.967z M12.44,10.967c-0.533,0-0.963,0.431-0.963,0.959c0,0.531,0.43,0.962,0.963,0.962
	c0.529,0,0.959-0.431,0.959-0.962C13.399,11.397,12.97,10.967,12.44,10.967z"/>
<path fill="#0BAFEF" d="M5.003,10.303h7.825c0.181,0,0.333-0.127,0.364-0.307l0.852-4.874c0.017-0.104-0.008-0.209-0.072-0.289
	C13.91,4.751,13.815,4.7,13.713,4.689L3.554,3.753L3.253,2.738C3.209,2.592,3.082,2.489,2.929,2.474L1.434,2.352
	C1.23,2.336,1.051,2.488,1.035,2.691c0,0.011,0,0.021,0,0.03c0,0.191,0.146,0.353,0.338,0.369c0,0,0.895,0.073,1.243,0.102
	c0.074,0.25,0.224,0.755,0.291,0.977c0.002,0.012-0.002,0.023,0.001,0.035l1.74,5.835C4.694,10.195,4.838,10.303,5.003,10.303z
	 M11.561,5.234c0.872,0.08,1.513,0.139,1.685,0.156c-0.107,0.619-0.643,3.682-0.727,4.174h-0.958V5.234z M9.587,5.051
	c0.521,0.049,1.021,0.095,1.479,0.137v4.376H9.587V5.051z M7.614,4.87c0.489,0.045,0.987,0.09,1.479,0.136v4.558H7.614V4.87z
	 M5.642,4.688C6.092,4.73,6.593,4.776,7.121,4.825v4.74H5.642V4.688z M5.148,4.643v4.485C4.813,8.004,3.98,5.211,3.773,4.517
	C3.959,4.533,4.47,4.58,5.148,4.643z M5.539,10.967c-0.532,0-0.961,0.431-0.961,0.959c0,0.531,0.429,0.962,0.961,0.962
	c0.532,0,0.96-0.431,0.96-0.962C6.499,11.397,6.071,10.967,5.539,10.967z M12.44,10.967c-0.533,0-0.963,0.431-0.963,0.959
	c0,0.531,0.43,0.962,0.963,0.962c0.529,0,0.959-0.431,0.959-0.962C13.399,11.397,12.97,10.967,12.44,10.967z"/>
</svg>
