<?xml version="1.0" encoding="utf-8"?>
<!-- Generator: Adobe Illustrator 12.0.0, SVG Export Plug-In . SVG Version: 6.00 Build 51448)  -->
<!DOCTYPE svg PUBLIC "-//W3C//DTD SVG 1.1 Tiny//EN" "http://www.w3.org/Graphics/SVG/1.1/DTD/svg11-tiny.dtd" [
	<!ENTITY ns_svg "http://www.w3.org/2000/svg">
	<!ENTITY ns_xlink "http://www.w3.org/1999/xlink">
]>
<svg  version="1.1" baseProfile="tiny" id="Layer_1" xmlns="&ns_svg;" xmlns:xlink="&ns_xlink;" width="15.25" height="15.25"
	 viewBox="0 0 15.25 15.25" xml:space="preserve">
<rect fill="none" width="15.25" height="15.25"/>
<g>
	<g>
		<path fill="#FFFFFF" stroke="#FFFFFF" stroke-width="1.7" stroke-linejoin="round" d="M1.555,2.71h2.399v0.583L2.466,5.8
			C2.381,5.944,2.498,6.06,2.658,6.06h1.349L3.797,6.717H1.296V6.151l1.478-2.438C2.879,3.528,2.852,3.378,2.61,3.378H1.378
			L1.555,2.71z"/>
	</g>
	<g>
		<path fill="#FFFFFF" stroke="#FFFFFF" stroke-width="1.7" stroke-linejoin="round" d="M4.849,4.563h2.399v0.583L5.763,7.653
			C5.675,7.797,5.787,7.913,5.951,7.913h1.347L7.091,8.57H4.59V8.005l1.478-2.439c0.109-0.185,0.079-0.335-0.165-0.335H4.671
			L4.849,4.563z"/>
	</g>
	<g>
		<path fill="#FFFFFF" stroke="#FFFFFF" stroke-width="1.7" stroke-linejoin="round" d="M7.999,6.379h2.399v0.582L8.91,9.47
			C8.822,9.613,8.939,9.729,9.099,9.729h1.35l-0.205,0.657H7.739V9.821l1.479-2.438c0.107-0.186,0.077-0.334-0.165-0.334H7.819
			L7.999,6.379z"/>
	</g>
	<g>
		<path fill="#FFFFFF" stroke="#FFFFFF" stroke-width="1.7" stroke-linejoin="round" d="M11.296,8.232h2.395v0.583l-1.484,2.508
			c-0.088,0.144,0.03,0.259,0.188,0.259h1.352l-0.208,0.658h-2.499v-0.565l1.475-2.438C12.62,9.05,12.595,8.9,12.347,8.9h-1.232
			L11.296,8.232z"/>
	</g>
</g>
<g>
	<g>
		<path fill="#0BAFEF" d="M1.555,2.71h2.399v0.583L2.466,5.8C2.381,5.944,2.257,6.082,2.257,6.082S2.498,6.06,2.658,6.06h1.349
			L3.797,6.717H1.296V6.151l1.478-2.438C2.879,3.528,3.017,3.35,3.017,3.35S2.852,3.378,2.61,3.378H1.378L1.555,2.71z"/>
	</g>
	<g>
		<path fill="#0BAFEF" d="M4.849,4.563h2.399v0.583L5.763,7.653c-0.088,0.144-0.21,0.282-0.21,0.282s0.235-0.022,0.399-0.022h1.347
			L7.091,8.57H4.59V8.005l1.478-2.439c0.109-0.185,0.246-0.363,0.246-0.363s-0.167,0.028-0.41,0.028H4.671L4.849,4.563z"/>
	</g>
	<g>
		<path fill="#0BAFEF" d="M7.999,6.379h2.399v0.582L8.91,9.47C8.822,9.613,8.705,9.751,8.705,9.751s0.234-0.022,0.395-0.022h1.35
			l-0.205,0.657H7.739V9.821l1.479-2.438C9.326,7.197,9.466,7.02,9.466,7.02S9.295,7.048,9.053,7.048H7.819L7.999,6.379z"/>
	</g>
	<g>
		<path fill="#0BAFEF" d="M11.296,8.232h2.395v0.583l-1.484,2.508c-0.088,0.144-0.209,0.282-0.209,0.282s0.239-0.023,0.396-0.023
			h1.352l-0.208,0.658h-2.499v-0.565l1.475-2.438c0.106-0.186,0.246-0.363,0.246-0.363S12.595,8.9,12.347,8.9h-1.232L11.296,8.232z"
			/>
	</g>
</g>
</svg>
