<?xml version="1.0" encoding="utf-8"?>
<!-- Generator: Adobe Illustrator 12.0.0, SVG Export Plug-In . SVG Version: 6.00 Build 51448)  -->
<!DOCTYPE svg PUBLIC "-//W3C//DTD SVG 1.1 Tiny//EN" "http://www.w3.org/Graphics/SVG/1.1/DTD/svg11-tiny.dtd" [
	<!ENTITY ns_svg "http://www.w3.org/2000/svg">
	<!ENTITY ns_xlink "http://www.w3.org/1999/xlink">
]>
<svg  version="1.1" baseProfile="tiny" id="Layer_1" xmlns="&ns_svg;" xmlns:xlink="&ns_xlink;" width="15.25" height="15.25"
	 viewBox="0 0 15.25 15.25" xml:space="preserve">
<rect fill="none" width="15.25" height="15.25"/>
<path fill="#FFFFFF" stroke="#FFFFFF" stroke-width="1.7" d="M12.2,6.181h-0.462c-0.2-0.301-0.509-0.526-0.864-0.644
	c-0.01-0.475-0.133-0.933-0.364-1.321L8.851,1.359C8.796,1.248,8.667,1.175,8.538,1.175c-0.203,0-0.368,0.165-0.368,0.367
	c0,0.074,0.017,0.129,0.055,0.185l1.641,2.857c0.137,0.242,0.219,0.526,0.249,0.823c-0.137-0.031-0.27-0.078-0.385-0.148
	c-0.166-0.11-0.367-0.184-0.59-0.184H6.044c-0.221,0-0.425,0.074-0.588,0.184C5.27,5.37,5.048,5.443,4.827,5.443
	c-0.57,0-1.086,0.295-1.381,0.737H2.983c-0.201,0-0.368,0.167-0.368,0.369v0.922c0,0.202,0.167,0.368,0.368,0.368h0.184
	c0,0.922,0.739,1.659,1.659,1.659c0.462,0,0.904-0.093,1.292-0.276c0.035-0.02,0.09-0.037,0.127-0.037
	c0.075,0,0.13,0.037,0.184,0.092l0.518,0.498c0.166,0.165,0.388,0.277,0.644,0.277c0.257,0,0.479-0.112,0.646-0.277l0.515-0.498
	C8.81,9.223,8.864,9.186,8.937,9.186c0.037,0,0.094,0.018,0.129,0.037c0.326,0.154,0.695,0.229,1.076,0.254v1.098
	c0,1.124-0.902,2.027-2.026,2.027H7.931v-0.498c0-0.075,0.055-0.129,0.11-0.166c0.367-0.184,0.626-0.553,0.626-0.994
	c0-0.113-0.074-0.186-0.184-0.186c-0.113,0-0.184,0.072-0.184,0.186c0,0.257-0.334,0.459-0.739,0.459
	c-0.406,0-0.736-0.202-0.736-0.459c0-0.113-0.075-0.186-0.184-0.186c-0.112,0-0.185,0.072-0.185,0.186
	c0,0.441,0.257,0.811,0.627,0.994c0.055,0.037,0.11,0.091,0.11,0.166v1.418c0,0.203,0.167,0.37,0.368,0.37
	c0.204,0,0.37-0.167,0.37-0.37v-0.184h0.185c1.53,0,2.763-1.234,2.763-2.764V9.408c0.662-0.218,1.137-0.831,1.137-1.568H12.2
	c0.202,0,0.368-0.166,0.368-0.368V6.55C12.568,6.347,12.402,6.181,12.2,6.181z"/>
<path fill="#0BAFEF" d="M12.2,6.181h-0.462c-0.2-0.301-0.509-0.526-0.864-0.644c-0.01-0.475-0.133-0.933-0.364-1.321L8.851,1.359
	C8.796,1.248,8.667,1.175,8.538,1.175c-0.203,0-0.368,0.165-0.368,0.367c0,0.074,0.017,0.129,0.055,0.185l1.641,2.857
	c0.137,0.242,0.219,0.526,0.249,0.823c-0.137-0.031-0.27-0.078-0.385-0.148c-0.166-0.11-0.367-0.184-0.59-0.184H6.044
	c-0.221,0-0.425,0.074-0.588,0.184C5.27,5.37,5.048,5.443,4.827,5.443c-0.57,0-1.086,0.295-1.381,0.737H2.983
	c-0.201,0-0.368,0.167-0.368,0.369v0.922c0,0.202,0.167,0.368,0.368,0.368h0.184c0,0.922,0.739,1.659,1.659,1.659
	c0.462,0,0.904-0.093,1.292-0.276c0.035-0.02,0.09-0.037,0.127-0.037c0.075,0,0.13,0.037,0.184,0.092l0.518,0.498
	c0.166,0.165,0.388,0.277,0.644,0.277c0.257,0,0.479-0.112,0.646-0.277l0.515-0.498C8.81,9.223,8.864,9.186,8.937,9.186
	c0.037,0,0.094,0.018,0.129,0.037c0.326,0.154,0.695,0.229,1.076,0.254v1.098c0,1.124-0.902,2.027-2.026,2.027H7.931v-0.498
	c0-0.075,0.055-0.129,0.11-0.166c0.367-0.184,0.626-0.553,0.626-0.994c0-0.113-0.074-0.186-0.184-0.186
	c-0.113,0-0.184,0.072-0.184,0.186c0,0.257-0.334,0.459-0.739,0.459c-0.406,0-0.736-0.202-0.736-0.459
	c0-0.113-0.075-0.186-0.184-0.186c-0.112,0-0.185,0.072-0.185,0.186c0,0.441,0.257,0.811,0.627,0.994
	c0.055,0.037,0.11,0.091,0.11,0.166v1.418c0,0.203,0.167,0.37,0.368,0.37c0.204,0,0.37-0.167,0.37-0.37v-0.184h0.185
	c1.53,0,2.763-1.234,2.763-2.764V9.408c0.662-0.218,1.137-0.831,1.137-1.568H12.2c0.202,0,0.368-0.166,0.368-0.368V6.55
	C12.568,6.347,12.402,6.181,12.2,6.181z M8.054,7.895C7.961,7.747,7.795,7.655,7.592,7.655c-0.202,0-0.369,0.092-0.46,0.239
	C6.634,8.633,5.787,9.13,4.827,9.13c-0.717,0-1.289-0.571-1.289-1.29V7.102c0-0.718,0.572-1.29,1.289-1.29h5.315v3.303
	C9.273,9.049,8.513,8.577,8.054,7.895z M11.647,7.84c0,0.532-0.314,0.981-0.77,1.18V5.922c0.455,0.199,0.77,0.648,0.77,1.18V7.84z"
	/>
</svg>
