<?xml version="1.0" encoding="utf-8"?>
<!-- Generator: Adobe Illustrator 12.0.0, SVG Export Plug-In . SVG Version: 6.00 Build 51448)  -->
<!DOCTYPE svg PUBLIC "-//W3C//DTD SVG 1.1 Tiny//EN" "http://www.w3.org/Graphics/SVG/1.1/DTD/svg11-tiny.dtd" [
	<!ENTITY ns_svg "http://www.w3.org/2000/svg">
	<!ENTITY ns_xlink "http://www.w3.org/1999/xlink">
]>
<svg  version="1.1" baseProfile="tiny" id="Layer_1" xmlns="&ns_svg;" xmlns:xlink="&ns_xlink;" width="15.25" height="15.25"
	 viewBox="0 0 15.25 15.25" xml:space="preserve">
<rect fill="none" width="15.25" height="15.25"/>
<path fill="#FFFFFF" stroke="#FFFFFF" stroke-width="1.7" stroke-linejoin="round" d="M12.183,1.229L4.502,3.727v8.11
	c-0.266-0.151-0.592-0.245-0.952-0.245c-0.874,0-1.582,0.535-1.582,1.194c0,0.661,0.708,1.196,1.582,1.196
	c0.875,0,1.584-0.535,1.584-1.196c0-0.004-0.001-0.007-0.001-0.011c0-0.006,0.003-0.01,0.003-0.016V6.252l6.41-2.087v5.704
	c-0.265-0.152-0.592-0.246-0.95-0.246c-0.875,0-1.586,0.535-1.586,1.195s0.711,1.194,1.586,1.194c0.871,0,1.58-0.534,1.58-1.194
	c0-0.004-0.001-0.008-0.001-0.011c0-0.007,0.003-0.011,0.003-0.017V3.959l0.004-0.001V1.229z"/>
<path fill="#0BAFEF" d="M12.183,1.229L4.502,3.727v8.11c-0.266-0.151-0.592-0.245-0.952-0.245c-0.874,0-1.582,0.535-1.582,1.194
	c0,0.661,0.708,1.196,1.582,1.196c0.875,0,1.584-0.535,1.584-1.196c0-0.004-0.001-0.007-0.001-0.011c0-0.006,0.003-0.01,0.003-0.016
	V6.252l6.41-2.087v5.704c-0.265-0.152-0.592-0.246-0.95-0.246c-0.875,0-1.586,0.535-1.586,1.195s0.711,1.194,1.586,1.194
	c0.871,0,1.58-0.534,1.58-1.194c0-0.004-0.001-0.008-0.001-0.011c0-0.007,0.003-0.011,0.003-0.017V3.959l0.004-0.001V1.229z"/>
</svg>
