<?xml version="1.0" encoding="utf-8"?>
<!-- Generator: Adobe Illustrator 12.0.0, SVG Export Plug-In . SVG Version: 6.00 Build 51448)  -->
<!DOCTYPE svg PUBLIC "-//W3C//DTD SVG 1.1 Tiny//EN" "http://www.w3.org/Graphics/SVG/1.1/DTD/svg11-tiny.dtd" [
	<!ENTITY ns_svg "http://www.w3.org/2000/svg">
	<!ENTITY ns_xlink "http://www.w3.org/1999/xlink">
]>
<svg  version="1.1" baseProfile="tiny" id="Layer_1" xmlns="&ns_svg;" xmlns:xlink="&ns_xlink;" width="15.25" height="15.25"
	 viewBox="0 0 15.25 15.25" xml:space="preserve">
<rect fill="none" width="15.25" height="15.25"/>
<g>
	<path fill="#FFFFFF" stroke="#FFFFFF" stroke-width="1.7" d="M8.456,13.828H4.248c-0.203,0-0.367-0.164-0.367-0.364v-0.551
		c0-0.199,0.165-0.364,0.367-0.364V6.876c-0.203,0-0.367-0.165-0.367-0.366V5.961c0-0.203,0.165-0.367,0.367-0.367V5.412
		c0-0.403,0.329-0.734,0.73-0.734h0.366V4.313c0-0.202,0.165-0.367,0.368-0.367V3.214c0-0.2,0.164-0.365,0.364-0.365h0.551
		c0.2,0,0.364,0.165,0.364,0.365v0.732c0.204,0,0.368,0.165,0.368,0.367v0.365h0.366c0.402,0,0.731,0.331,0.731,0.734v0.182
		c0.201,0,0.367,0.165,0.367,0.367V6.51c0,0.201-0.166,0.366-0.367,0.366v5.673c0.201,0,0.367,0.165,0.367,0.364v0.551
		C8.823,13.664,8.657,13.828,8.456,13.828z M8.127,3.581c-0.147,0-0.276-0.128-0.276-0.274c0-0.146,0.129-0.274,0.276-0.274
		c0.146,0,0.272,0.128,0.272,0.274C8.399,3.453,8.273,3.581,8.127,3.581z M8.914,3.123c-0.147,0-0.276-0.127-0.276-0.274
		c0-0.146,0.129-0.275,0.276-0.275c0.146,0,0.274,0.13,0.274,0.275C9.188,2.996,9.06,3.123,8.914,3.123z M8.914,4.039
		c-0.147,0-0.276-0.129-0.276-0.273c0-0.147,0.129-0.275,0.276-0.275c0.146,0,0.274,0.128,0.274,0.275
		C9.188,3.909,9.06,4.039,8.914,4.039z M9.7,2.666c-0.146,0-0.273-0.128-0.273-0.274c0-0.147,0.127-0.276,0.273-0.276
		s0.275,0.129,0.275,0.276C9.976,2.538,9.847,2.666,9.7,2.666z M9.7,3.581c-0.146,0-0.273-0.128-0.273-0.274
		c0-0.146,0.127-0.274,0.273-0.274S9.976,3.16,9.976,3.307C9.976,3.453,9.847,3.581,9.7,3.581z M9.7,4.496
		c-0.146,0-0.273-0.128-0.273-0.274c0-0.146,0.127-0.275,0.273-0.275s0.275,0.129,0.275,0.275C9.976,4.367,9.847,4.496,9.7,4.496z
		 M10.505,2.208c-0.145,0-0.273-0.128-0.273-0.274c0-0.146,0.129-0.274,0.273-0.274c0.146,0,0.275,0.127,0.275,0.274
		C10.78,2.08,10.65,2.208,10.505,2.208z M10.505,3.123c-0.145,0-0.273-0.127-0.273-0.274c0-0.146,0.129-0.275,0.273-0.275
		c0.146,0,0.275,0.13,0.275,0.275C10.78,2.996,10.65,3.123,10.505,3.123z M10.505,4.039c-0.145,0-0.273-0.129-0.273-0.273
		c0-0.147,0.129-0.275,0.273-0.275c0.146,0,0.275,0.128,0.275,0.275C10.78,3.909,10.65,4.039,10.505,4.039z M10.505,4.954
		c-0.145,0-0.273-0.129-0.273-0.276c0-0.145,0.129-0.273,0.273-0.273c0.146,0,0.275,0.128,0.275,0.273
		C10.78,4.825,10.65,4.954,10.505,4.954z M11.292,1.751c-0.145,0-0.274-0.128-0.274-0.275c0-0.147,0.13-0.275,0.274-0.275
		c0.146,0,0.274,0.128,0.274,0.275C11.566,1.623,11.438,1.751,11.292,1.751z M11.292,2.666c-0.145,0-0.274-0.128-0.274-0.274
		c0-0.147,0.13-0.276,0.274-0.276c0.146,0,0.274,0.129,0.274,0.276C11.566,2.538,11.438,2.666,11.292,2.666z M11.292,3.581
		c-0.145,0-0.274-0.128-0.274-0.274c0-0.146,0.13-0.274,0.274-0.274c0.146,0,0.274,0.128,0.274,0.274
		C11.566,3.453,11.438,3.581,11.292,3.581z M11.292,4.496c-0.145,0-0.274-0.128-0.274-0.274c0-0.146,0.13-0.275,0.274-0.275
		c0.146,0,0.274,0.129,0.274,0.275C11.566,4.367,11.438,4.496,11.292,4.496z M11.292,5.412c-0.145,0-0.274-0.129-0.274-0.276
		c0-0.145,0.13-0.273,0.274-0.273c0.146,0,0.274,0.128,0.274,0.273C11.566,5.282,11.438,5.412,11.292,5.412z"/>
</g>
<g>
	<path fill="#0BAFEF" d="M8.456,13.828H4.248c-0.203,0-0.367-0.164-0.367-0.364v-0.551c0-0.199,0.165-0.364,0.367-0.364V6.876
		c-0.203,0-0.367-0.165-0.367-0.366V5.961c0-0.203,0.165-0.367,0.367-0.367V5.412c0-0.403,0.329-0.734,0.73-0.734h0.366V4.313
		c0-0.202,0.165-0.367,0.368-0.367V3.214c0-0.2,0.164-0.365,0.364-0.365h0.551c0.2,0,0.364,0.165,0.364,0.365v0.732
		c0.204,0,0.368,0.165,0.368,0.367v0.365h0.366c0.402,0,0.731,0.331,0.731,0.734v0.182c0.201,0,0.367,0.165,0.367,0.367V6.51
		c0,0.201-0.166,0.366-0.367,0.366v5.673c0.201,0,0.367,0.165,0.367,0.364v0.551C8.823,13.664,8.657,13.828,8.456,13.828z
		 M8.456,5.961H4.248V6.51h4.208V5.961z M8.456,12.913H4.248v0.551h4.208V12.913z M8.089,5.412c0-0.202-0.164-0.367-0.364-0.367
		H4.978c-0.201,0-0.365,0.165-0.365,0.367v0.182h3.476V5.412z M6.991,4.313H5.712v0.365h1.279V4.313z M8.127,3.581
		c-0.147,0-0.276-0.128-0.276-0.274c0-0.146,0.129-0.274,0.276-0.274c0.146,0,0.272,0.128,0.272,0.274
		C8.399,3.453,8.273,3.581,8.127,3.581z M8.914,3.123c-0.147,0-0.276-0.127-0.276-0.274c0-0.146,0.129-0.275,0.276-0.275
		c0.146,0,0.274,0.13,0.274,0.275C9.188,2.996,9.06,3.123,8.914,3.123z M8.914,4.039c-0.147,0-0.276-0.129-0.276-0.273
		c0-0.147,0.129-0.275,0.276-0.275c0.146,0,0.274,0.128,0.274,0.275C9.188,3.909,9.06,4.039,8.914,4.039z M9.7,2.666
		c-0.146,0-0.273-0.128-0.273-0.274c0-0.147,0.127-0.276,0.273-0.276s0.275,0.129,0.275,0.276C9.976,2.538,9.847,2.666,9.7,2.666z
		 M9.7,3.581c-0.146,0-0.273-0.128-0.273-0.274c0-0.146,0.127-0.274,0.273-0.274S9.976,3.16,9.976,3.307
		C9.976,3.453,9.847,3.581,9.7,3.581z M9.7,4.496c-0.146,0-0.273-0.128-0.273-0.274c0-0.146,0.127-0.275,0.273-0.275
		s0.275,0.129,0.275,0.275C9.976,4.367,9.847,4.496,9.7,4.496z M10.505,2.208c-0.145,0-0.273-0.128-0.273-0.274
		c0-0.146,0.129-0.274,0.273-0.274c0.146,0,0.275,0.127,0.275,0.274C10.78,2.08,10.65,2.208,10.505,2.208z M10.505,3.123
		c-0.145,0-0.273-0.127-0.273-0.274c0-0.146,0.129-0.275,0.273-0.275c0.146,0,0.275,0.13,0.275,0.275
		C10.78,2.996,10.65,3.123,10.505,3.123z M10.505,4.039c-0.145,0-0.273-0.129-0.273-0.273c0-0.147,0.129-0.275,0.273-0.275
		c0.146,0,0.275,0.128,0.275,0.275C10.78,3.909,10.65,4.039,10.505,4.039z M10.505,4.954c-0.145,0-0.273-0.129-0.273-0.276
		c0-0.145,0.129-0.273,0.273-0.273c0.146,0,0.275,0.128,0.275,0.273C10.78,4.825,10.65,4.954,10.505,4.954z M11.292,1.751
		c-0.145,0-0.274-0.128-0.274-0.275c0-0.147,0.13-0.275,0.274-0.275c0.146,0,0.274,0.128,0.274,0.275
		C11.566,1.623,11.438,1.751,11.292,1.751z M11.292,2.666c-0.145,0-0.274-0.128-0.274-0.274c0-0.147,0.13-0.276,0.274-0.276
		c0.146,0,0.274,0.129,0.274,0.276C11.566,2.538,11.438,2.666,11.292,2.666z M11.292,3.581c-0.145,0-0.274-0.128-0.274-0.274
		c0-0.146,0.13-0.274,0.274-0.274c0.146,0,0.274,0.128,0.274,0.274C11.566,3.453,11.438,3.581,11.292,3.581z M11.292,4.496
		c-0.145,0-0.274-0.128-0.274-0.274c0-0.146,0.13-0.275,0.274-0.275c0.146,0,0.274,0.129,0.274,0.275
		C11.566,4.367,11.438,4.496,11.292,4.496z M11.292,5.412c-0.145,0-0.274-0.129-0.274-0.276c0-0.145,0.13-0.273,0.274-0.273
		c0.146,0,0.274,0.128,0.274,0.273C11.566,5.282,11.438,5.412,11.292,5.412z"/>
</g>
</svg>
