<?xml version="1.0" encoding="utf-8"?>
<!-- Generator: Adobe Illustrator 12.0.0, SVG Export Plug-In . SVG Version: 6.00 Build 51448)  -->
<!DOCTYPE svg PUBLIC "-//W3C//DTD SVG 1.1 Tiny//EN" "http://www.w3.org/Graphics/SVG/1.1/DTD/svg11-tiny.dtd" [
	<!ENTITY ns_svg "http://www.w3.org/2000/svg">
	<!ENTITY ns_xlink "http://www.w3.org/1999/xlink">
]>
<svg  version="1.1" baseProfile="tiny" id="Layer_1" xmlns="&ns_svg;" xmlns:xlink="&ns_xlink;" width="15.25" height="15.25"
	 viewBox="0 0 15.25 15.25" xml:space="preserve">
<rect fill="none" width="15.25" height="15.25"/>
<path fill="#FFFFFF" stroke="#FFFFFF" stroke-width="1.7" stroke-linejoin="round" d="M5.285,2.784
	C4.961,2.648,4.637,2.502,4.291,2.502c-1.48,0-2.684,1.202-2.684,2.685c0,1.479,1.203,2.686,2.684,2.686h6.459
	c1.48,0,2.686-1.206,2.686-2.686c0-1.482-1.205-2.685-2.686-2.685c0,0-0.432,0.092-0.755,0.162C9.528,1.805,8.658,1.249,7.666,1.249
	C6.633,1.249,5.732,1.864,5.285,2.784z M8.449,8.258L7.775,9.931h2.229l-3.757,4.151l1.077-3.1H5.308L6.21,8.264L8.449,8.258z"/>
<g>
	<g>
		<path fill="#0BAFEF" d="M5.285,2.784C4.961,2.648,4.637,2.502,4.291,2.502c-1.48,0-2.684,1.202-2.684,2.685
			c0,1.479,1.203,2.686,2.684,2.686h6.459c1.48,0,2.686-1.206,2.686-2.686c0-1.482-1.205-2.685-2.686-2.685
			c0,0-0.432,0.092-0.755,0.162C9.528,1.805,8.658,1.249,7.666,1.249C6.633,1.249,5.732,1.864,5.285,2.784z M5.829,3.328
			c0.268-0.799,1.007-1.337,1.837-1.337c0.795,0,1.502,0.48,1.801,1.224l0.116,0.291l0.38-0.092l0.787-0.169
			c1.072,0,1.943,0.871,1.943,1.942c0,1.07-0.871,1.942-1.943,1.942H4.312c-1.093,0-1.962-0.872-1.962-1.942
			c0-1.071,0.869-1.942,1.94-1.942c0.345,0,0.689,0.097,0.995,0.283l0.398,0.241L5.829,3.328z"/>
	</g>
	<polygon fill="#0BAFEF" points="6.21,8.264 5.308,10.982 7.323,10.982 6.246,14.082 10.003,9.931 7.775,9.931 8.449,8.258 	"/>
</g>
</svg>
