<?xml version="1.0" encoding="utf-8"?>
<!-- Generator: Adobe Illustrator 12.0.0, SVG Export Plug-In . SVG Version: 6.00 Build 51448)  -->
<!DOCTYPE svg PUBLIC "-//W3C//DTD SVG 1.1 Tiny//EN" "http://www.w3.org/Graphics/SVG/1.1/DTD/svg11-tiny.dtd" [
	<!ENTITY ns_svg "http://www.w3.org/2000/svg">
	<!ENTITY ns_xlink "http://www.w3.org/1999/xlink">
]>
<svg  version="1.1" baseProfile="tiny" id="Layer_1" xmlns="&ns_svg;" xmlns:xlink="&ns_xlink;" width="15.25" height="15.25"
	 viewBox="0 0 15.25 15.25" xml:space="preserve">
<rect fill="none" width="15.25" height="15.25"/>
<path fill="#FFFFFF" stroke="#FFFFFF" stroke-width="1.7" d="M11.733,8.043l-0.82,0.143l0.083,2.095c0,0.247-0.186,0.431-0.41,0.431
	h-1.85v1.951c0,0.615-0.514,1.128-1.127,1.128c-0.617,0-1.129-0.513-1.129-1.128v-1.951H4.63c-0.225,0-0.41-0.184-0.41-0.431
	l0.042-1.026C4.056,9.172,3.892,9.008,3.832,8.781L3.542,7.715C3.173,7.55,2.906,7.221,2.805,6.832L2.414,5.415
	c-0.04-0.246-0.062-0.554,0.042-0.8l0.595-1.622c0.143-0.41,0.471-0.718,0.902-0.841l2.445-0.658c0.061-0.02,0.122-0.02,0.183-0.02
	h2.055c0.062,0,0.122,0,0.185,0.02l2.463,0.678c0.492,0.144,0.881,0.533,0.963,1.047l0.576,3.285c0.02,0.082,0.02,0.143,0.02,0.225
	C12.841,7.386,12.371,7.939,11.733,8.043z"/>
<g>
	<path fill="#0BAFEF" d="M11.733,8.043l-0.82,0.143l0.083,2.095c0,0.247-0.186,0.431-0.41,0.431h-1.85v1.951
		c0,0.615-0.514,1.128-1.127,1.128c-0.617,0-1.129-0.513-1.129-1.128v-1.951H4.63c-0.225,0-0.41-0.184-0.41-0.431l0.042-1.026
		C4.056,9.172,3.892,9.008,3.832,8.781L3.542,7.715C3.173,7.55,2.906,7.221,2.805,6.832L2.414,5.415
		c-0.04-0.246-0.062-0.554,0.042-0.8l0.595-1.622c0.143-0.41,0.471-0.718,0.902-0.841l2.445-0.658c0.061-0.02,0.122-0.02,0.183-0.02
		h2.055c0.062,0,0.122,0,0.185,0.02l2.463,0.678c0.492,0.144,0.881,0.533,0.963,1.047l0.576,3.285c0.02,0.082,0.02,0.143,0.02,0.225
		C12.841,7.386,12.371,7.939,11.733,8.043z M12.412,6.585l-0.576-3.285c-0.061-0.349-0.328-0.637-0.677-0.739L9.045,1.987
		C8.985,2.726,8.368,3.32,7.609,3.32c-0.761,0-1.376-0.595-1.438-1.333L4.056,2.562C3.769,2.644,3.521,2.849,3.421,3.136
		L2.844,4.737c-0.082,0.186-0.061,0.39-0.019,0.574l0.368,1.417c0.104,0.391,0.473,0.678,0.906,0.678c0.1,0,0.203-0.021,0.306-0.062
		l3.386-1.231L4.732,5.477C4.548,5.434,4.405,5.27,4.405,5.066l0.021-0.514c0-0.124,0.103-0.205,0.204-0.205
		c0.124,0,0.206,0.082,0.206,0.205L4.815,5.066l3.696,0.779L10.4,5.168l-0.021-0.616c0-0.124,0.082-0.205,0.207-0.205
		c0.1,0,0.203,0.082,0.203,0.205l0.021,0.616c0,0.186-0.104,0.329-0.268,0.39L4.548,7.734C4.385,7.795,4.241,7.816,4.015,7.816
		L4.241,8.68C4.282,8.822,4.427,8.926,4.59,8.904l7.081-1.252c0.432-0.082,0.76-0.472,0.76-0.924
		C12.431,6.667,12.412,6.646,12.412,6.585z M10.523,8.268L4.672,9.294L4.63,10.301h1.849c0.224,0,0.41,0.186,0.41,0.41v1.951
		c0,0.39,0.328,0.718,0.72,0.718c0.389,0,0.717-0.328,0.717-0.718v-1.951c0-0.225,0.186-0.41,0.41-0.41h1.85L10.523,8.268z
		 M6.581,1.884c0,0.575,0.452,1.026,1.028,1.026c0.574,0,1.026-0.452,1.026-1.026H6.581z M7.609,12.968
		c-0.166,0-0.31-0.143-0.31-0.306c0-0.165,0.144-0.309,0.31-0.309c0.164,0,0.307,0.144,0.307,0.309
		C7.916,12.825,7.773,12.968,7.609,12.968z"/>
</g>
</svg>
