<?xml version="1.0" encoding="utf-8"?>
<!-- Generator: Adobe Illustrator 12.0.0, SVG Export Plug-In . SVG Version: 6.00 Build 51448)  -->
<!DOCTYPE svg PUBLIC "-//W3C//DTD SVG 1.1 Tiny//EN" "http://www.w3.org/Graphics/SVG/1.1/DTD/svg11-tiny.dtd" [
	<!ENTITY ns_svg "http://www.w3.org/2000/svg">
	<!ENTITY ns_xlink "http://www.w3.org/1999/xlink">
]>
<svg  version="1.1" baseProfile="tiny" id="Layer_1" xmlns="&ns_svg;" xmlns:xlink="&ns_xlink;" width="15.25" height="15.25"
	 viewBox="0 0 15.25 15.25" xml:space="preserve">
<rect fill="none" width="15.25" height="15.25"/>
<path fill="#FFFFFF" stroke="#FFFFFF" stroke-width="1.7" stroke-linejoin="round" d="M14.007,10.333c-1.071,0-10.543,0-12.792,0
	V6.355c0-0.979,0.792-1.771,1.772-1.771h9.246c0.978,0,1.773,0.793,1.773,1.771V10.333z"/>
<path fill="#0BAFEF" d="M14.007,10.333c-1.071,0-10.543,0-12.792,0V6.355c0-0.979,0.792-1.771,1.772-1.771h9.246
	c0.978,0,1.773,0.793,1.773,1.771V10.333z M3.933,6.646h0.64v2.184h0.535V6.646h0.625l0.09-0.438H3.933V6.646z M9.312,7.388
	l0.682-1.187H9.365L9.009,6.909L8.652,6.201H8.009l0.709,1.222L7.963,8.718L7.172,6.201h-0.57L5.743,8.831h0.549l0.185-0.622h0.771
	l0.186,0.622h1.118l0.467-0.923L9.49,8.831h0.636L9.312,7.388z M6.605,7.771c0.057-0.174,0.09-0.297,0.139-0.485
	C6.797,7.089,6.871,6.78,6.871,6.78s0.078,0.343,0.104,0.461c0.057,0.254,0.142,0.529,0.142,0.529H6.605z M10.364,8.831h0.554V6.209
	h-0.554V8.831z"/>
</svg>
