<?xml version="1.0" encoding="utf-8"?>
<!-- Generator: Adobe Illustrator 12.0.0, SVG Export Plug-In . SVG Version: 6.00 Build 51448)  -->
<!DOCTYPE svg PUBLIC "-//W3C//DTD SVG 1.1 Tiny//EN" "http://www.w3.org/Graphics/SVG/1.1/DTD/svg11-tiny.dtd" [
	<!ENTITY ns_svg "http://www.w3.org/2000/svg">
	<!ENTITY ns_xlink "http://www.w3.org/1999/xlink">
]>
<svg  version="1.1" baseProfile="tiny" id="Layer_1" xmlns="&ns_svg;" xmlns:xlink="&ns_xlink;" width="15.25" height="15.25"
	 viewBox="0 0 15.25 15.25" xml:space="preserve">
<rect fill="none" width="15.25" height="15.25"/>
<path fill="#FFFFFF" stroke="#FFFFFF" stroke-width="1.7" d="M13.582,3.76c-0.077-0.048-0.175-0.052-0.258-0.011
	c-0.012,0.005-1.104,0.526-3.514,0.56V2.715c0-0.092-0.049-0.177-0.127-0.225c-0.08-0.048-0.177-0.053-0.26-0.011
	c-0.012,0.004-1.168,0.564-3.75,0.564c-2.025,0-3.875-0.575-3.893-0.581C1.7,2.438,1.612,2.451,1.544,2.501
	c-0.07,0.05-0.11,0.129-0.11,0.214v4.324c0,1.812,1.118,4.51,4.192,4.51c0.299,0,0.574-0.033,0.836-0.08
	c0.667,0.784,1.657,1.35,3.06,1.35c3.07,0,4.188-2.696,4.188-4.508V3.986C13.711,3.895,13.663,3.809,13.582,3.76z"/>
<path fill="#0BAFEF" d="M13.582,3.76c-0.077-0.048-0.175-0.052-0.258-0.011c-0.012,0.005-1.104,0.526-3.514,0.56V2.715
	c0-0.092-0.049-0.177-0.127-0.225c-0.08-0.048-0.177-0.053-0.26-0.011c-0.012,0.004-1.168,0.564-3.75,0.564
	c-2.025,0-3.875-0.575-3.893-0.581C1.7,2.438,1.612,2.451,1.544,2.501c-0.07,0.05-0.11,0.129-0.11,0.214v4.324
	c0,1.812,1.118,4.51,4.192,4.51c0.299,0,0.574-0.033,0.836-0.08c0.667,0.784,1.657,1.35,3.06,1.35c3.07,0,4.188-2.696,4.188-4.508
	V3.986C13.711,3.895,13.663,3.809,13.582,3.76z M1.966,7.039c0,0,0-3.378,0-3.971c0.637,0.17,2.092,0.507,3.708,0.507
	c1.93,0,3.067-0.294,3.605-0.478c0,0.633,0,3.942,0,3.942c0,1.376-0.764,3.979-3.653,3.979C2.732,11.018,1.966,8.415,1.966,7.039z
	 M10.514,6.703l0.204,0.144c0.183,0.135,0.388,0.286,0.577,0.286c0.196,0,0.402-0.153,0.583-0.289l0.201-0.141
	c0.101-0.07,0.228-0.039,0.297,0.061s0.036,0.246-0.063,0.316l-0.168,0.119c-0.215,0.158-0.506,0.376-0.85,0.376
	c-0.336,0-0.615-0.206-0.842-0.373L10.279,7.08c-0.1-0.07-0.135-0.215-0.063-0.316C10.286,6.664,10.413,6.633,10.514,6.703z
	 M9.682,8.456c1.041,0,1.971,0.569,2.584,0.95c0.104,0.062,0.125,0.281,0.016,0.453c-0.094,0.172-0.303,0.217-0.407,0.151
	c-0.604-0.372-1.437-0.884-2.353-0.884C9.641,8.812,9.641,8.688,9.682,8.456z M3.855,5.236c0.361,0,0.672,0.206,0.9,0.354
	l0.111,0.072C4.97,5.728,5.002,5.868,4.936,5.97C4.87,6.073,4.737,6.104,4.634,6.039l-0.122-0.08
	c-0.191-0.125-0.428-0.28-0.657-0.28c-0.232,0-0.469,0.155-0.66,0.28L3.07,6.039C2.966,6.104,2.833,6.073,2.767,5.97
	c-0.066-0.103-0.031-0.243,0.07-0.308l0.114-0.074C3.18,5.439,3.493,5.236,3.855,5.236z M7.397,5.217
	c0.352,0,0.657,0.207,0.878,0.357l0.134,0.088c0.103,0.067,0.137,0.208,0.069,0.31C8.409,6.074,8.277,6.106,8.176,6.039L8.029,5.94
	C7.845,5.816,7.612,5.66,7.397,5.66c-0.218,0-0.439,0.147-0.635,0.28l-0.15,0.099C6.51,6.106,6.379,6.074,6.312,5.97
	C6.245,5.869,6.279,5.728,6.38,5.662l0.136-0.088C6.737,5.423,7.043,5.217,7.397,5.217z M8.372,7.59
	c0.097,0.157,0.049,0.361-0.106,0.457c-0.533,0.332-1.521,0.945-2.64,0.945c-1.021,0-1.903-0.488-2.643-0.945
	c-0.158-0.095-0.206-0.298-0.11-0.455c0.097-0.156,0.3-0.205,0.458-0.109c0.514,0.316,1.376,0.846,2.296,0.846
	c0.856,0,1.63-0.436,2.288-0.845C8.072,7.387,8.275,7.436,8.372,7.59z"/>
</svg>
