<?xml version="1.0" encoding="utf-8"?>
<!-- Generator: Adobe Illustrator 12.0.0, SVG Export Plug-In . SVG Version: 6.00 Build 51448)  -->
<!DOCTYPE svg PUBLIC "-//W3C//DTD SVG 1.1 Tiny//EN" "http://www.w3.org/Graphics/SVG/1.1/DTD/svg11-tiny.dtd" [
	<!ENTITY ns_svg "http://www.w3.org/2000/svg">
	<!ENTITY ns_xlink "http://www.w3.org/1999/xlink">
]>
<svg  version="1.1" baseProfile="tiny" id="Layer_1" xmlns="&ns_svg;" xmlns:xlink="&ns_xlink;" width="15.25" height="15.25"
	 viewBox="0 0 15.25 15.25" xml:space="preserve">
<rect fill="none" width="15.25" height="15.25"/>
<path fill="#FFFFFF" stroke="#FFFFFF" stroke-width="1.7" d="M9.96,4.254L9.342,6.587C9.263,6.904,8.924,7.085,8.606,7.006
	L6.292,6.387c-0.319-0.08-0.498-0.419-0.417-0.738l0.617-2.313c-0.219-0.24-0.339-0.538-0.339-0.877
	c0-0.719,0.578-1.296,1.298-1.296c0.457,0,0.896,0.239,1.115,0.618c0.061,0.08,0.142,0.139,0.239,0.139
	c0.141,0,0.338-0.198,0.758-0.198c0.717,0,1.297,0.578,1.297,1.296C10.859,3.596,10.48,4.094,9.96,4.254z M12.214,13.328
	c0,0.219-0.18,0.398-0.398,0.398H4.04c-0.221,0-0.399-0.18-0.399-0.398v-0.2c-0.458,0-0.839-0.398-0.799-0.857l0.281-3.229H2.544
	c-0.179,0-0.3-0.141-0.3-0.3c0-0.16,0.121-0.3,0.3-0.3h0.638l0.02-0.258c0.04-0.399,0.378-0.738,0.797-0.738h7.858
	c0.419,0,0.759,0.339,0.798,0.738l0.358,4.087c0.04,0.459-0.339,0.857-0.798,0.857V13.328z"/>
<g>
	<path fill="#0BAFEF" d="M12.214,13.328c0,0.219-0.18,0.398-0.398,0.398H4.04c-0.221,0-0.399-0.18-0.399-0.398v-0.2
		c-0.458,0-0.839-0.398-0.799-0.857l0.281-3.229H2.544c-0.179,0-0.3-0.141-0.3-0.3c0-0.16,0.121-0.3,0.3-0.3h0.638l0.02-0.258
		c0.04-0.399,0.378-0.738,0.797-0.738h7.858c0.419,0,0.759,0.339,0.798,0.738l0.358,4.087c0.04,0.459-0.339,0.857-0.798,0.857
		V13.328z M12.254,8.202c-0.021-0.199-0.2-0.358-0.398-0.358H3.998c-0.2,0-0.378,0.159-0.398,0.358l-0.359,4.089
		C3.22,12.529,3.4,12.729,3.64,12.729h8.574c0.238,0,0.418-0.2,0.4-0.438L12.254,8.202z M9.96,4.254L9.342,6.587
		C9.263,6.904,8.924,7.085,8.606,7.006L6.292,6.387c-0.319-0.08-0.498-0.419-0.417-0.738l0.617-2.313
		c-0.219-0.24-0.339-0.538-0.339-0.877c0-0.719,0.578-1.296,1.298-1.296c0.457,0,0.896,0.239,1.115,0.618
		c0.061,0.08,0.142,0.139,0.239,0.139c0.141,0,0.338-0.198,0.758-0.198c0.717,0,1.297,0.578,1.297,1.296
		C10.859,3.596,10.48,4.094,9.96,4.254z M9.562,2.12c-0.34,0-0.399,0.2-0.758,0.2c-0.26,0-0.459-0.14-0.578-0.339
		C8.066,1.722,7.768,1.562,7.45,1.562c-0.499,0-0.899,0.399-0.899,0.898c0,0.239,0.1,0.438,0.24,0.598
		c0.081,0.12,0.119,0.299,0.099,0.379L6.272,5.689c-0.06,0.199,0.02,0.259,0.139,0.299l2.295,0.619c0.117,0.04,0.218,0,0.256-0.14
		l0.619-2.314c0.039-0.139,0.14-0.238,0.261-0.278c0.358-0.12,0.618-0.459,0.618-0.857C10.46,2.519,10.061,2.12,9.562,2.12z
		 M9.003,11.233c-0.158,0-0.297-0.14-0.297-0.299s0.139-0.3,0.297-0.3c0.159,0,0.299,0.141,0.299,0.3S9.163,11.233,9.003,11.233z
		 M9.523,10.037c-0.16,0-0.301-0.141-0.301-0.3s0.141-0.299,0.301-0.299c0.159,0,0.298,0.14,0.298,0.299S9.682,10.037,9.523,10.037z
		 M10.718,11.931c-0.559,0-0.997-0.438-0.997-0.997c0-0.558,0.438-0.997,0.997-0.997s0.996,0.439,0.996,0.997
		C11.714,11.493,11.277,11.931,10.718,11.931z M10.718,10.335c-0.34,0-0.597,0.26-0.597,0.599s0.257,0.599,0.597,0.599
		s0.598-0.26,0.598-0.599S11.058,10.335,10.718,10.335z M10.718,9.539c-0.16,0-0.299-0.141-0.299-0.299c0-0.16,0.139-0.3,0.299-0.3
		s0.301,0.14,0.301,0.3C11.019,9.398,10.878,9.539,10.718,9.539z"/>
</g>
</svg>
