<?xml version="1.0" encoding="utf-8"?>
<!-- Generator: Adobe Illustrator 12.0.0, SVG Export Plug-In . SVG Version: 6.00 Build 51448)  -->
<!DOCTYPE svg PUBLIC "-//W3C//DTD SVG 1.1 Tiny//EN" "http://www.w3.org/Graphics/SVG/1.1/DTD/svg11-tiny.dtd" [
	<!ENTITY ns_svg "http://www.w3.org/2000/svg">
	<!ENTITY ns_xlink "http://www.w3.org/1999/xlink">
]>
<svg  version="1.1" baseProfile="tiny" id="Layer_1" xmlns="&ns_svg;" xmlns:xlink="&ns_xlink;" width="15.25" height="15.25"
	 viewBox="0 0 15.25 15.25" xml:space="preserve">
<rect fill="none" width="15.25" height="15.25"/>
<path fill="#FFFFFF" stroke="#FFFFFF" stroke-width="1.7" d="M11.03,13.223c-0.091,0.249-0.316,0.431-0.611,0.431h-3.12
	c-0.384,0-0.679-0.294-0.679-0.68c0-0.228,0.138-0.453,0.138-1.039c0-0.7-0.204-1.334-0.566-1.742
	C5.738,9.674,5.377,8.926,5.377,8.045c0-0.43,0.068-0.814,0.202-1.175H5.175c-1.132,0-2.037-1.221-2.037-2.714
	c0-1.493,0.905-2.714,2.037-2.714h4.068c1.129,0,2.037,1.221,2.037,2.714c0,0.881-0.319,1.651-0.793,2.148
	c-0.385,0.385-0.588,1.041-0.588,1.741c0,0.7,0.227,1.333,0.588,1.74c0.452,0.521,0.793,1.268,0.793,2.149
	C11.28,12.387,11.188,12.838,11.03,13.223z"/>
<g>
	<path fill="#0BAFEF" d="M11.03,13.223c-0.091,0.249-0.316,0.431-0.611,0.431h-3.12c-0.384,0-0.679-0.294-0.679-0.68
		c0-0.228,0.138-0.453,0.138-1.039c0-0.7-0.204-1.334-0.566-1.742C5.738,9.674,5.377,8.926,5.377,8.045
		c0-0.43,0.068-0.814,0.202-1.175H5.175c-1.132,0-2.037-1.221-2.037-2.714c0-1.493,0.905-2.714,2.037-2.714h4.068
		c1.129,0,2.037,1.221,2.037,2.714c0,0.881-0.319,1.651-0.793,2.148c-0.385,0.385-0.588,1.041-0.588,1.741
		c0,0.7,0.227,1.333,0.588,1.74c0.452,0.521,0.793,1.268,0.793,2.149C11.28,12.387,11.188,12.838,11.03,13.223z M7.208,4.156
		c0-0.95,0.361-1.786,0.905-2.261H5.175c-0.882,0-1.583,1.017-1.583,2.261c0,1.244,0.701,2.26,1.583,2.26h2.938
		C7.569,5.919,7.208,5.106,7.208,4.156z M10.263,10.192C9.81,9.674,9.447,8.926,9.447,8.045c0-0.451,0.091-0.882,0.228-1.243
		C9.538,6.846,9.403,6.87,9.243,6.87H6.079C5.92,7.208,5.831,7.615,5.831,8.045c0,0.7,0.225,1.333,0.586,1.74
		c0.452,0.521,0.792,1.268,0.792,2.149c0,0.632-0.136,0.882-0.136,1.039c0,0.137,0.092,0.226,0.227,0.226h3.12
		c0.091,0,0.183-0.044,0.205-0.134c0.135-0.341,0.203-0.724,0.203-1.131C10.827,11.234,10.624,10.601,10.263,10.192z M7.595,10.262
		c-0.182,0-0.34-0.158-0.34-0.342c0-0.179,0.159-0.338,0.34-0.338c0.18,0,0.337,0.159,0.337,0.338
		C7.932,10.104,7.774,10.262,7.595,10.262z M9.243,1.895c-0.881,0-1.582,1.017-1.582,2.261c0,1.244,0.701,2.26,1.582,2.26
		c0.883,0,1.584-1.016,1.584-2.26C10.827,2.912,10.126,1.895,9.243,1.895z M9.243,5.06c-0.385,0-0.678-0.407-0.678-0.904
		s0.293-0.905,0.678-0.905s0.679,0.407,0.679,0.905S9.628,5.06,9.243,5.06z M8.948,10.262c-0.18,0-0.338-0.158-0.338-0.342
		c0-0.179,0.158-0.338,0.338-0.338c0.184,0,0.341,0.159,0.341,0.338C9.289,10.104,9.132,10.262,8.948,10.262z"/>
</g>
</svg>
