<?xml version="1.0" encoding="utf-8"?>
<!-- Generator: Adobe Illustrator 12.0.0, SVG Export Plug-In . SVG Version: 6.00 Build 51448)  -->
<!DOCTYPE svg PUBLIC "-//W3C//DTD SVG 1.1 Tiny//EN" "http://www.w3.org/Graphics/SVG/1.1/DTD/svg11-tiny.dtd" [
	<!ENTITY ns_svg "http://www.w3.org/2000/svg">
	<!ENTITY ns_xlink "http://www.w3.org/1999/xlink">
]>
<svg  version="1.1" baseProfile="tiny" id="Layer_1" xmlns="&ns_svg;" xmlns:xlink="&ns_xlink;" width="15.25" height="15.25"
	 viewBox="0 0 15.25 15.25" xml:space="preserve">
<rect fill="none" width="15.25" height="15.25"/>
<path fill="#FFFFFF" stroke="#FFFFFF" stroke-width="1.7" stroke-linejoin="round" d="M10.691,10.777
	c0.659-0.109,1.318-0.797,1.318-1.637V2.991c0-0.866-0.729-1.662-1.721-1.662L7.2,1.326L5.073,1.33
	c-0.991,0-1.722,0.795-1.722,1.662V9.14c0,0.84,0.658,1.527,1.32,1.637L2.685,13.75h1.144l0.502-0.734h6.701l0.502,0.734h1.141
	L10.691,10.777z"/>
<path fill="#0BAFEF" d="M10.691,10.777c0.659-0.109,1.318-0.797,1.318-1.637V2.991c0-0.866-0.729-1.662-1.721-1.662L7.2,1.326
	L5.073,1.33c-0.991,0-1.722,0.795-1.722,1.662V9.14c0,0.84,0.658,1.527,1.32,1.637L2.685,13.75h1.144l0.502-0.734h6.701l0.502,0.734
	h1.141L10.691,10.777z M10.306,9.88c-0.416,0-0.752-0.338-0.752-0.756c0-0.416,0.336-0.756,0.752-0.756
	c0.418,0,0.756,0.34,0.756,0.756C11.062,9.542,10.724,9.88,10.306,9.88z M6.077,2.235c0-0.15,0.129-0.277,0.28-0.277h2.648
	c0.15,0,0.278,0.126,0.278,0.277v0.487c0,0.151-0.123,0.28-0.278,0.28H6.356c-0.153,0-0.28-0.129-0.28-0.28V2.235z M4.271,4.485
	c0-0.459,0.299-0.86,0.857-0.86h5.106c0.558,0,0.854,0.401,0.854,0.86v1.106c0.004,0.531-0.383,0.856-0.854,0.856H5.128
	c-0.475,0-0.862-0.325-0.857-0.856V4.485z M4.282,9.125c0-0.416,0.336-0.756,0.755-0.756S5.79,8.708,5.79,9.125
	c0,0.418-0.334,0.756-0.753,0.756S4.282,9.542,4.282,9.125z M4.665,12.527l0.584-0.855h4.866l0.584,0.855H4.665z"/>
</svg>
