<?xml version="1.0" encoding="utf-8"?>
<!-- Generator: Adobe Illustrator 12.0.0, SVG Export Plug-In . SVG Version: 6.00 Build 51448)  -->
<!DOCTYPE svg PUBLIC "-//W3C//DTD SVG 1.1 Tiny//EN" "http://www.w3.org/Graphics/SVG/1.1/DTD/svg11-tiny.dtd" [
	<!ENTITY ns_svg "http://www.w3.org/2000/svg">
	<!ENTITY ns_xlink "http://www.w3.org/1999/xlink">
]>
<svg  version="1.1" baseProfile="tiny" id="Layer_1" xmlns="&ns_svg;" xmlns:xlink="&ns_xlink;" width="15.25" height="15.25"
	 viewBox="0 0 15.25 15.25" xml:space="preserve">
<rect fill="none" width="15.25" height="15.25"/>
<path fill="#FFFFFF" stroke="#FFFFFF" stroke-width="1.7" d="M11.056,4.783v6.251c0,0.81-0.602,1.476-1.236,1.636v0.811
	c0,0.234-0.191,0.425-0.426,0.425s-0.425-0.19-0.425-0.425v-0.841H6.334v0.842c0,0.235-0.19,0.425-0.425,0.425
	c-0.233,0-0.425-0.189-0.425-0.425v-0.8c-0.647-0.141-1.277-0.82-1.277-1.647V4.783c0-0.884,0.743-1.691,1.75-1.691l1.46-0.002
	V1.847H6.303c-0.175,0-0.319-0.142-0.319-0.318c0-0.177,0.144-0.319,0.319-0.319h2.655c0.177,0,0.319,0.142,0.319,0.319
	c0,0.176-0.143,0.318-0.319,0.318H7.843v1.241l0.283,0l1.178,0.003C10.313,3.091,11.056,3.899,11.056,4.783z"/>
<path fill="#0BAFEF" d="M9.329,11.568c0.302,0,0.545-0.246,0.545-0.549c0-0.305-0.243-0.548-0.545-0.548
	c-0.308,0-0.552,0.243-0.552,0.548C8.777,11.322,9.021,11.568,9.329,11.568z M8.118,9.416H8.12h1.129
	c0.481,0,0.877-0.318,0.871-0.846V5.836c0-0.454-0.301-0.85-0.871-0.85H8.12H8.116H6.02c-0.571,0-0.869,0.396-0.869,0.85V8.57
	C5.141,9.097,5.539,9.416,6.02,9.416h2.097H8.118z M8.392,4.468h0.004H8.204c0.252,0,0.447-0.134,0.447-0.287V3.965
	c0-0.155-0.207-0.283-0.447-0.283h0.191H8.392H8.386H7.067c-0.244,0-0.45,0.127-0.45,0.283v0.216c0,0.153,0.198,0.287,0.45,0.287
	h1.318H8.392z M6.472,11.019c0-0.305-0.247-0.548-0.548-0.548c-0.301,0-0.548,0.243-0.548,0.548c0,0.303,0.247,0.549,0.548,0.549
	C6.226,11.568,6.472,11.322,6.472,11.019z M11.056,4.783v6.251c0,0.81-0.602,1.476-1.236,1.636v0.811
	c0,0.234-0.191,0.425-0.426,0.425s-0.425-0.19-0.425-0.425v-0.841H6.334v0.842c0,0.235-0.19,0.425-0.425,0.425
	c-0.233,0-0.425-0.189-0.425-0.425v-0.8c-0.647-0.141-1.277-0.82-1.277-1.647V4.783c0-0.884,0.743-1.691,1.75-1.691l1.46-0.002
	V1.847H6.303c-0.175,0-0.319-0.142-0.319-0.318c0-0.177,0.144-0.319,0.319-0.319h2.655c0.177,0,0.319,0.142,0.319,0.319
	c0,0.176-0.143,0.318-0.319,0.318H7.843v1.241l0.283,0l1.178,0.003C10.313,3.091,11.056,3.899,11.056,4.783z"/>
</svg>
