<?xml version="1.0" encoding="utf-8"?>
<!-- Generator: Adobe Illustrator 12.0.0, SVG Export Plug-In . SVG Version: 6.00 Build 51448)  -->
<!DOCTYPE svg PUBLIC "-//W3C//DTD SVG 1.1 Tiny//EN" "http://www.w3.org/Graphics/SVG/1.1/DTD/svg11-tiny.dtd" [
	<!ENTITY ns_svg "http://www.w3.org/2000/svg">
	<!ENTITY ns_xlink "http://www.w3.org/1999/xlink">
]>
<svg  version="1.1" baseProfile="tiny" id="Layer_1" xmlns="&ns_svg;" xmlns:xlink="&ns_xlink;" width="15.25" height="15.25"
	 viewBox="0 0 15.25 15.25" xml:space="preserve">
<rect fill="none" width="15.25" height="15.25"/>
<path fill="#FFFFFF" stroke="#FFFFFF" stroke-width="1.7" d="M7.052,5.347L5.508,2.698c-0.229,0-0.417-0.188-0.417-0.419
	c0-0.229,0.188-0.417,0.417-0.417c0.229,0,0.418,0.188,0.418,0.417c0,0.083,0,0.148-0.043,0.209L7.45,5.224
	c0,0,0.104-0.021,0.208-0.021c0.104,0,0.209,0.021,0.209,0.021l2.066-3.569C9.891,1.59,9.871,1.527,9.871,1.444
	c0-0.229,0.188-0.417,0.418-0.417c0.229,0,0.417,0.188,0.417,0.417c0,0.229-0.188,0.417-0.417,0.417L8.263,5.347
	c0.271,0.148,0.438,0.419,0.438,0.691h3.132c0.46,0,0.836,0.375,0.836,0.835v5.218c0,0.457-0.376,0.834-0.836,0.834h-0.208v0.209
	c0,0.229-0.188,0.418-0.419,0.418H4.109c-0.229,0-0.417-0.188-0.417-0.418v-0.209h-0.21c-0.459,0-0.834-0.377-0.834-0.834V6.874
	c0-0.459,0.375-0.835,0.834-0.835h3.132C6.614,5.767,6.78,5.496,7.052,5.347z"/>
<g>
	<path fill="#0BAFEF" d="M7.052,5.347L5.508,2.698c-0.229,0-0.417-0.188-0.417-0.419c0-0.229,0.188-0.417,0.417-0.417
		c0.229,0,0.418,0.188,0.418,0.417c0,0.083,0,0.148-0.043,0.209L7.45,5.224c0,0,0.104-0.021,0.208-0.021
		c0.104,0,0.209,0.021,0.209,0.021l2.066-3.569C9.891,1.59,9.871,1.527,9.871,1.444c0-0.229,0.188-0.417,0.418-0.417
		c0.229,0,0.417,0.188,0.417,0.417c0,0.229-0.188,0.417-0.417,0.417L8.263,5.347c0.271,0.148,0.438,0.419,0.438,0.691h3.132
		c0.46,0,0.836,0.375,0.836,0.835v5.218c0,0.457-0.376,0.834-0.836,0.834h-0.208v0.209c0,0.229-0.188,0.418-0.419,0.418H4.109
		c-0.229,0-0.417-0.188-0.417-0.418v-0.209h-0.21c-0.459,0-0.834-0.377-0.834-0.834V6.874c0-0.459,0.375-0.835,0.834-0.835h3.132
		C6.614,5.767,6.78,5.496,7.052,5.347z M12.25,6.874c0-0.231-0.189-0.418-0.418-0.418H3.482c-0.229,0-0.416,0.187-0.416,0.418v5.218
		c0,0.229,0.188,0.417,0.416,0.417h8.351c0.229,0,0.418-0.188,0.418-0.417V6.874z M9.119,11.882H4.316
		c-0.355,0-0.625-0.272-0.625-0.624V7.707c0-0.354,0.27-0.626,0.625-0.626h4.802c0.355,0,0.626,0.272,0.626,0.626v3.551
		C9.745,11.609,9.474,11.882,9.119,11.882z M11.625,7.916h-1.253c-0.126,0-0.208-0.082-0.208-0.209c0-0.126,0.082-0.209,0.208-0.209
		h1.253c0.125,0,0.208,0.083,0.208,0.209C11.833,7.834,11.75,7.916,11.625,7.916z M11.625,8.752h-1.253
		c-0.126,0-0.208-0.084-0.208-0.209s0.082-0.209,0.208-0.209h1.253c0.125,0,0.208,0.084,0.208,0.209S11.75,8.752,11.625,8.752z
		 M11.625,9.588h-1.253c-0.126,0-0.208-0.087-0.208-0.21c0-0.126,0.082-0.21,0.208-0.21h1.253c0.125,0,0.208,0.084,0.208,0.21
		C11.833,9.501,11.75,9.588,11.625,9.588z M10.476,11.465c-0.166,0-0.312-0.146-0.312-0.312s0.146-0.314,0.312-0.314
		c0.168,0,0.312,0.147,0.312,0.314S10.644,11.465,10.476,11.465z M11.52,11.465c-0.167,0-0.314-0.146-0.314-0.312
		s0.147-0.314,0.314-0.314c0.169,0,0.312,0.147,0.312,0.314S11.689,11.465,11.52,11.465z"/>
</g>
</svg>
