<?xml version="1.0" encoding="utf-8"?>
<!-- Generator: Adobe Illustrator 12.0.0, SVG Export Plug-In . SVG Version: 6.00 Build 51448)  -->
<!DOCTYPE svg PUBLIC "-//W3C//DTD SVG 1.1 Tiny//EN" "http://www.w3.org/Graphics/SVG/1.1/DTD/svg11-tiny.dtd" [
	<!ENTITY ns_svg "http://www.w3.org/2000/svg">
	<!ENTITY ns_xlink "http://www.w3.org/1999/xlink">
]>
<svg  version="1.1" baseProfile="tiny" id="Layer_1" xmlns="&ns_svg;" xmlns:xlink="&ns_xlink;" width="15.25" height="15.25"
	 viewBox="0 0 15.25 15.25" xml:space="preserve">
<rect fill="none" width="15.25" height="15.25"/>
<path fill="#FFFFFF" stroke="#FFFFFF" stroke-width="1.7" d="M5.431,11.758V9.605H5.251c-0.304,0-0.539-0.232-0.539-0.539V8.709
	c0-0.305,0.091-0.592,0.235-0.844c0.054-0.07,0.09-0.179,0.09-0.286c0-0.144-0.055-0.269-0.144-0.36
	C4.786,7.113,4.712,6.987,4.712,6.825V6.646H3.997c-0.197,0-0.359-0.162-0.359-0.359S3.476,5.929,3.279,5.929H1.754
	c-0.197,0-0.358-0.162-0.358-0.359V4.583c0-0.305,0.232-0.539,0.537-0.539c0.306,0,0.539,0.234,0.539,0.539v0.089h7.893V4.405
	c0-0.199,0.16-0.36,0.358-0.36c0.197,0,0.358,0.161,0.358,0.36v0.268h0.18c0.196,0,0.358,0.161,0.358,0.36h0.537
	c0.199,0,0.359,0.161,0.359,0.357h1.077c0.107,0,0.179,0.073,0.179,0.18v0.18c0,0.107-0.071,0.18-0.179,0.18h-1.077
	c0,0.197-0.16,0.358-0.359,0.358h-0.537c0,0.197-0.162,0.359-0.358,0.359H9.108v0.539c0,0.395-0.323,0.718-0.717,0.718H7.853
	c-0.054,0-0.125-0.02-0.143-0.02L7.278,7.758C7.152,7.722,7.045,7.812,7.045,7.936v1.312c0,0.196-0.161,0.358-0.358,0.358H6.508
	v2.152c0,0.197-0.162,0.359-0.358,0.359H5.791C5.592,12.117,5.431,11.955,5.431,11.758z"/>
<g>
	<path fill="#0BAFEF" d="M5.431,11.758V9.605H5.251c-0.304,0-0.539-0.232-0.539-0.539V8.709c0-0.305,0.091-0.592,0.235-0.844
		c0.054-0.07,0.09-0.179,0.09-0.286c0-0.144-0.055-0.269-0.144-0.36C4.786,7.113,4.712,6.987,4.712,6.825V6.646H3.997
		c-0.197,0-0.359-0.162-0.359-0.359S3.476,5.929,3.279,5.929H1.754c-0.197,0-0.358-0.162-0.358-0.359V4.583
		c0-0.305,0.232-0.539,0.537-0.539c0.306,0,0.539,0.234,0.539,0.539v0.089h7.893V4.405c0-0.199,0.16-0.36,0.358-0.36
		c0.197,0,0.358,0.161,0.358,0.36v0.268h0.18c0.196,0,0.358,0.161,0.358,0.36h0.537c0.199,0,0.359,0.161,0.359,0.357h1.077
		c0.107,0,0.179,0.073,0.179,0.18v0.18c0,0.107-0.071,0.18-0.179,0.18h-1.077c0,0.197-0.16,0.358-0.359,0.358h-0.537
		c0,0.197-0.162,0.359-0.358,0.359H9.108v0.539c0,0.395-0.323,0.718-0.717,0.718H7.853c-0.054,0-0.125-0.02-0.143-0.02L7.278,7.758
		C7.152,7.722,7.045,7.812,7.045,7.936v1.312c0,0.196-0.161,0.358-0.358,0.358H6.508v2.152c0,0.197-0.162,0.359-0.358,0.359H5.791
		C5.592,12.117,5.431,11.955,5.431,11.758z M8.392,7.543c0.197,0,0.357-0.162,0.357-0.358V6.646H8.031
		c0,0.107,0.037,0.179,0.073,0.288c0.018,0.036,0.018,0.054,0.018,0.071c0,0.109-0.072,0.18-0.18,0.18
		c-0.214,0-0.251-0.287-0.27-0.539H7.225c-0.108,0-0.18,0.072-0.18,0.179v0.377c0,0.09,0.053,0.144,0.126,0.161l0.646,0.18H8.392z"
		/>
</g>
</svg>
