<?xml version="1.0" encoding="utf-8"?>
<!-- Generator: Adobe Illustrator 12.0.0, SVG Export Plug-In . SVG Version: 6.00 Build 51448)  -->
<!DOCTYPE svg PUBLIC "-//W3C//DTD SVG 1.1 Tiny//EN" "http://www.w3.org/Graphics/SVG/1.1/DTD/svg11-tiny.dtd" [
	<!ENTITY ns_svg "http://www.w3.org/2000/svg">
	<!ENTITY ns_xlink "http://www.w3.org/1999/xlink">
]>
<svg  version="1.1" baseProfile="tiny" id="Layer_1" xmlns="&ns_svg;" xmlns:xlink="&ns_xlink;" width="15.25" height="15.25"
	 viewBox="0 0 15.25 15.25" xml:space="preserve">
<rect fill="none" width="15.25" height="15.25"/>
<path fill="#FFFFFF" stroke="#FFFFFF" stroke-width="1.7" d="M13.076,11.431h-3.1L1.517,7.882C1.273,7.779,1.156,7.496,1.259,7.255
	l0.797-1.903C2.34,4.669,2.782,4.101,3.333,3.657c0.115-0.083,0.226-0.112,0.36-0.057c0.046,0.018,0.101,0.066,0.136,0.108
	c0.42,0.487,0.959,0.869,1.579,1.127c0.4,0.167,0.823,0.267,1.248,0.313C6.803,5.158,6.961,5.095,7.025,4.94
	c0.028-0.065,0.035-0.142,0.03-0.195L6.961,3.979C6.955,3.925,6.955,3.872,6.979,3.806c0.056-0.133,0.139-0.203,0.278-0.223
	L7.725,3.52c0.055-0.006,0.127,0.002,0.193,0.029c0.087,0.038,0.122,0.077,0.17,0.149c0.627,1.117,1.413,2.148,1.648,2.351
	l1.511,1.384l2.093,0.864c0.688,0.343,0.705,0.841,0.595,1.466l-0.237,0.842C13.559,11.056,13.496,11.414,13.076,11.431z"/>
<path fill="#0BAFEF" d="M13.076,11.431h-3.1L1.517,7.882C1.273,7.779,1.156,7.496,1.259,7.255l0.797-1.903
	C2.34,4.669,2.782,4.101,3.333,3.657c0.115-0.083,0.226-0.112,0.36-0.057c0.046,0.018,0.101,0.066,0.136,0.108
	c0.42,0.487,0.959,0.869,1.579,1.127c0.4,0.167,0.823,0.267,1.248,0.313C6.803,5.158,6.961,5.095,7.025,4.94
	c0.028-0.065,0.035-0.142,0.03-0.195L6.961,3.979C6.955,3.925,6.955,3.872,6.979,3.806c0.056-0.133,0.139-0.203,0.278-0.223
	L7.725,3.52c0.055-0.006,0.127,0.002,0.193,0.029c0.087,0.038,0.122,0.077,0.17,0.149c0.627,1.117,1.413,2.148,1.648,2.351
	l1.511,1.384l2.093,0.864c0.688,0.343,0.705,0.841,0.595,1.466l-0.237,0.842C13.559,11.056,13.496,11.414,13.076,11.431z
	 M13.284,10.222l-2.991,0.027L1.979,6.776L1.701,7.439l8.332,3.479l2.977-0.031L13.284,10.222z M8.666,5.548
	c-0.177-0.075-0.393,0.016-0.47,0.194c-0.075,0.175,0.017,0.394,0.19,0.467c0.178,0.075,0.397-0.013,0.475-0.191
	C8.934,5.841,8.844,5.621,8.666,5.548z M9.618,6.62C9.441,6.546,9.222,6.637,9.149,6.812C9.074,6.991,9.164,7.21,9.344,7.283
	c0.175,0.074,0.394-0.018,0.47-0.194C9.885,6.915,9.796,6.694,9.618,6.62z M10.662,7.602c-0.178-0.074-0.396,0.016-0.467,0.192
	c-0.08,0.177,0.015,0.396,0.191,0.471c0.178,0.072,0.395-0.018,0.47-0.195C10.928,7.893,10.84,7.675,10.662,7.602z M13.438,9.419
	c0-0.312-0.111-0.578-0.533-0.706l-1.7-0.624l-0.431,1.199C10.75,9.335,10.75,9.408,10.75,9.457v0.238l2.635-0.002L13.438,9.419z"/>
</svg>
