<?xml version="1.0" encoding="utf-8"?>
<!-- Generator: Adobe Illustrator 12.0.0, SVG Export Plug-In . SVG Version: 6.00 Build 51448)  -->
<!DOCTYPE svg PUBLIC "-//W3C//DTD SVG 1.1 Tiny//EN" "http://www.w3.org/Graphics/SVG/1.1/DTD/svg11-tiny.dtd" [
	<!ENTITY ns_svg "http://www.w3.org/2000/svg">
	<!ENTITY ns_xlink "http://www.w3.org/1999/xlink">
]>
<svg  version="1.1" baseProfile="tiny" id="Layer_1" xmlns="&ns_svg;" xmlns:xlink="&ns_xlink;" width="15.25" height="15.25"
	 viewBox="0 0 15.25 15.25" xml:space="preserve">
<rect fill="none" width="15.25" height="15.25"/>
<path fill="#FFFFFF" stroke="#FFFFFF" stroke-width="1.7" d="M7.596,13.732c-3.391,0-6.15-2.761-6.15-6.152
	c0-3.387,2.759-6.147,6.15-6.147c3.389,0,6.149,2.76,6.149,6.147C13.746,10.972,10.985,13.732,7.596,13.732z"/>
<g>
	<path fill="#0BAFEF" d="M7.596,13.732c-3.391,0-6.15-2.761-6.15-6.152c0-3.387,2.759-6.147,6.15-6.147
		c3.389,0,6.149,2.76,6.149,6.147C13.746,10.972,10.985,13.732,7.596,13.732z M7.321,7.556l0.355-2.707
		c0.028-0.136,0.136-0.246,0.274-0.246c0.164,0,0.301,0.136,0.273,0.3L7.897,7.31h5.027c-0.054-0.766-0.244-1.504-0.572-2.161
		l-0.356,0.22c-0.137,0.081-0.301,0.028-0.383-0.11c-0.082-0.136-0.025-0.301,0.109-0.382l0.355-0.192
		c-0.408-0.656-0.957-1.176-1.585-1.584l-0.19,0.355c-0.084,0.135-0.248,0.19-0.385,0.108C9.783,3.482,9.728,3.318,9.81,3.182
		l0.219-0.354C9.372,2.499,8.634,2.28,7.871,2.253v1.366c0,0.164-0.11,0.274-0.274,0.274c-0.165,0-0.275-0.111-0.275-0.274V2.253
		C6.557,2.306,5.819,2.499,5.162,2.827L5.38,3.182c0.083,0.136,0.028,0.3-0.109,0.382C5.135,3.646,4.97,3.59,4.891,3.456
		L4.699,3.101c-0.63,0.408-1.176,0.956-1.585,1.584l0.354,0.192c0.136,0.081,0.192,0.246,0.11,0.382
		C3.495,5.396,3.331,5.45,3.194,5.369l-0.356-0.22C2.51,5.806,2.293,6.544,2.265,7.31h1.367c0.165,0,0.273,0.109,0.273,0.271
		c0,0.166-0.108,0.276-0.273,0.276H2.265C2.32,8.621,2.51,9.357,2.838,10.016l0.356-0.219C3.331,9.714,3.495,9.77,3.578,9.906
		c0.083,0.136,0.026,0.301-0.11,0.382L3.113,10.48c0.409,0.654,0.955,1.175,1.585,1.585l0.192-0.356
		c0.079-0.136,0.244-0.191,0.38-0.107c0.137,0.081,0.192,0.245,0.109,0.383l-0.218,0.354c0.657,0.329,1.395,0.548,2.159,0.574
		v-1.365c0-0.164,0.11-0.274,0.275-0.274c0.164,0,0.274,0.11,0.274,0.274v1.365c0.764-0.055,1.501-0.245,2.158-0.574L9.81,11.984
		c-0.082-0.138-0.027-0.302,0.107-0.383c0.137-0.084,0.301-0.028,0.385,0.107l0.19,0.356c0.628-0.41,1.177-0.957,1.585-1.585
		l-0.355-0.192c-0.135-0.081-0.191-0.246-0.109-0.382c0.082-0.137,0.246-0.192,0.383-0.109l0.356,0.219
		c0.328-0.658,0.546-1.395,0.572-2.159H7.596C7.431,7.856,7.294,7.719,7.321,7.556z"/>
</g>
</svg>
