<?xml version="1.0" encoding="utf-8"?>
<!-- Generator: Adobe Illustrator 12.0.0, SVG Export Plug-In . SVG Version: 6.00 Build 51448)  -->
<!DOCTYPE svg PUBLIC "-//W3C//DTD SVG 1.1 Tiny//EN" "http://www.w3.org/Graphics/SVG/1.1/DTD/svg11-tiny.dtd" [
	<!ENTITY ns_svg "http://www.w3.org/2000/svg">
	<!ENTITY ns_xlink "http://www.w3.org/1999/xlink">
]>
<svg  version="1.1" baseProfile="tiny" id="Layer_1" xmlns="&ns_svg;" xmlns:xlink="&ns_xlink;" width="18.331" height="18.332"
	 viewBox="0 0 18.331 18.332" xml:space="preserve">
<path fill="#FFFFFF" d="M18.331,16.922c0,0.777-0.631,1.41-1.408,1.41H1.41C0.632,18.332,0,17.699,0,16.922V1.41
	C0,0.631,0.632,0,1.41,0h15.511c0.777,0,1.408,0.631,1.408,1.41L18.331,16.922L18.331,16.922z"/>
<g>
	<path fill="#0BAFEF" d="M15.508,12.475l-3.559,0.295c-0.027,0.428-0.375,0.775-0.803,0.775H6.865c-0.428,0-0.776-0.348-0.802-0.775
		l-3.56-0.295c-0.401-0.026-0.722-0.374-0.722-0.803v-0.535c0-0.294,0.241-0.535,0.536-0.535h3.88
		c-1.098-1.444-1.74-3.211-1.74-5.084c0-0.455,0.348-0.803,0.803-0.803h7.492c0.349,0,0.644,0.214,0.749,0.535h0.188
		c1.097,0,2.008,0.91,2.008,2.007c0,1.553-1.258,2.81-2.811,2.81h-0.695c-0.106,0.187-0.24,0.349-0.375,0.535h3.881
		c0.293,0,0.534,0.241,0.534,0.535v0.535C16.229,12.101,15.908,12.448,15.508,12.475z M15.695,11.137H2.316v0.535
		c0,0.134,0.106,0.268,0.24,0.268l4.041,0.349v0.454c0,0.161,0.107,0.268,0.268,0.268h4.282c0.159,0,0.267-0.106,0.267-0.268v-0.454
		l4.041-0.349c0.134,0,0.241-0.134,0.241-0.268V11.137z M13.687,5.785h-0.669c0-0.08,0-0.188,0-0.268
		c0-0.16-0.106-0.268-0.268-0.268H5.259c-0.161,0-0.267,0.107-0.267,0.268c0,1.9,0.695,3.666,1.873,5.084h4.282
		c0.293-0.349,0.534-0.695,0.749-1.07h0.989c1.258,0,2.274-1.017,2.274-2.274C15.159,6.454,14.491,5.785,13.687,5.785z
		 M12.885,8.996h-0.695c0.428-0.829,0.669-1.739,0.776-2.676h0.722c0.509,0,0.938,0.429,0.938,0.937
		C14.625,8.221,13.847,8.996,12.885,8.996z M13.687,6.855h-0.241c-0.079,0.562-0.24,1.098-0.428,1.605
		c0.615-0.08,1.07-0.588,1.07-1.204C14.089,7.043,13.901,6.855,13.687,6.855z"/>
</g>
</svg>
