<?xml version="1.0" encoding="UTF-8"?>
<!DOCTYPE svg PUBLIC "-//W3C//DTD SVG 1.1 Tiny//EN" "http://www.w3.org/Graphics/SVG/1.1/DTD/svg11-tiny.dtd">
<svg xmlns="http://www.w3.org/2000/svg" xmlns:xlink="http://www.w3.org/1999/xlink" baseProfile="tiny" height="57.24" version="1.1" viewBox="0 0 59.727 57.24" width="59.727">
<g>
<path d="M31.108,55.628c-15.092,0-27.59-11.354-29.286-27.677c2.822,0.452,5.108-0.76,5.847-3.512   c0.202-0.876,0.46-1.783,0.54-2.514C9.417,10.95,19.459,1.613,31.664,1.613c14.917,0,26.451,12.094,26.451,27.008   C58.115,43.536,46.023,55.628,31.108,55.628z" fill="#DDDD22"/>
<path d="M31.108,54.015c-14.46,0-26.103-11.031-27.683-26.229l-1.859,1.759c3.729,0.598,6.735-1.243,7.66-4.686   c0.015-0.057,0.178-0.738,0.178-0.738c0.165-0.677,0.337-1.377,0.407-2.019C10.977,11.516,20.576,3.226,31.664,3.226   c13.928,0,24.838,11.155,24.838,25.395C56.501,42.624,45.11,54.015,31.108,54.015z M59.726,28.621C59.726,12.573,47.401,0,31.664,0   C18.955,0,7.948,9.553,6.605,21.749c-0.047,0.43-0.188,1-0.334,1.604l-0.174,0.725c-0.654,2.433-2.801,2.477-4.021,2.282L0,26.026   l0.218,2.092C1.971,44.992,14.962,57.24,31.108,57.24C46.889,57.24,59.726,44.403,59.726,28.621z" fill="#666622"/>
</g>
<g>
<rect fill="#666622" height="3.226" width="24.858" x="19.686" y="27.645"/>
</g>
<g>
<rect fill="#666622" height="3.226" width="24.858" x="19.686" y="20.056"/>
</g>
<g>
<rect fill="#666622" height="3.227" width="24.858" x="19.686" y="35.267"/>
</g>
</svg>
