<?xml version="1.0" encoding="UTF-8"?>
<!DOCTYPE svg PUBLIC "-//W3C//DTD SVG 1.1 Tiny//EN" "http://www.w3.org/Graphics/SVG/1.1/DTD/svg11-tiny.dtd">
<svg baseProfile="tiny" xmlns="http://www.w3.org/2000/svg" xmlns:xlink="http://www.w3.org/1999/xlink" width="100%" height="100%" viewBox="0 0 42 22" style="overflow:visible;enable-background:new 0 0 42 22">
<g>
<g>
<g>
<path d="M0,0v22h42V0H0z M40,2c0,1.71,0,16.29,0,18c-1.854,0-36.147,0-38,0C2,18.29,2,3.71,2,2C3.853,2,38.146,2,40,2z"/>
</g>
<rect x="21" y="7" width="16" height="2"/>
<rect x="21" y="11" width="16" height="2"/>
<rect x="21" y="15" width="16" height="2"/>
<g>
<path d="M6,8c0,2.757,2.243,5,5,5s5-2.243,5-5s-2.243-5-5-5S6,5.243,6,8z M8,8c0-1.654,1.346-3,3-3c1.654,0,3,1.346,3,3       s-1.346,3-3,3C9.346,11,8,9.654,8,8z"/>
</g>
<g>
<g>
<path d="M8.013,14c-1.085,0-2.325,1.859-3.688,5.527C4.325,19.529,4,21.007,4,21.007l2-0.015l0.199-0.768        c0.826-2.223,1.723-3.814,2.111-4.226c0.508,0,4.872,0,5.379,0c0.389,0.411,1.285,2.003,2.109,4.224        c0.001,0.002,0.2,0.77,0.2,0.77l2,0.015l-0.326-1.479C16.312,15.859,15.072,14,13.986,14H8.013z"/>
</g>
</g>
</g>
</g>
</svg>
