<?xml version="1.0" encoding="UTF-8"?>
<!DOCTYPE svg PUBLIC "-//W3C//DTD SVG 1.1 Tiny//EN" "http://www.w3.org/Graphics/SVG/1.1/DTD/svg11-tiny.dtd">
<svg baseProfile="tiny" xmlns="http://www.w3.org/2000/svg" xmlns:xlink="http://www.w3.org/1999/xlink" width="100%" height="100%" viewBox="0 0 21.781 21.762" style="overflow:visible;enable-background:new 0 0 21.781 21.762">
<g>
<g>
<path d="M4.944,4.911c-6.897,6.909-4.841,13.05-3.963,14.203c0.46,0.602,1.076,1.407,2.115,2.1      c0.514,0.343,1.29,0.492,1.516,0.529l0.113,0.02l0.114-0.008c1.115-0.07,2.29-0.867,3.807-2.586      c0.655-0.741,2.13-2.568,2.13-3.978c0-0.062-0.003-0.118-0.009-0.178l-0.011-0.114l-0.037-0.107      c-0.051-0.154-0.279-0.707-1.08-1.342c-0.667-0.529-1.583-0.757-2.244-0.865c0.004-0.594,0.272-1.754,1.849-3.381L9.222,9.211      c1.627-1.575,2.789-1.84,3.382-1.841c0.107,0.662,0.334,1.582,0.865,2.251c0.636,0.799,1.188,1.029,1.342,1.081l0.107,0.035      l0.113,0.012c1.43,0.135,3.383-1.438,4.155-2.122c1.717-1.517,2.515-2.695,2.586-3.82l0.008-0.116l-0.019-0.113      c-0.037-0.226-0.188-1.001-0.529-1.515c-0.693-1.041-1.5-1.657-2.035-2.065C17.584-0.234,11.344-1.491,4.944,4.911z       M4.206,19.548c-0.762-0.507-1.217-1.104-1.583-1.582c-0.23-0.302-0.613-1.293-0.613-2.749c0-2.176,0.854-5.385,4.349-8.879      c5.834-5.847,10.876-4.324,11.562-3.8c0.545,0.416,1.142,0.872,1.649,1.634c0.056,0.084,0.133,0.347,0.187,0.594      c-0.056,0.334-0.383,1.03-1.892,2.362c-1.177,1.04-2.112,1.504-2.501,1.592c-0.083-0.07-0.193-0.174-0.326-0.344      c-0.351-0.438-0.512-1.463-0.535-1.891l-0.033-0.554l-0.485-0.269c-0.26-0.143-2.638-1.292-6.152,2.113L7.82,7.786L7.807,7.811      c-1.974,2.04-2.421,3.695-2.421,4.775c0,0.783,0.233,1.264,0.293,1.373l0.266,0.49l0.561,0.03      c0.427,0.022,1.451,0.187,1.891,0.535c0.169,0.134,0.273,0.244,0.343,0.326c-0.087,0.389-0.552,1.325-1.592,2.502      c-1.331,1.508-2.02,1.836-2.349,1.893C4.552,19.681,4.29,19.604,4.206,19.548z"/>
</g>
</g>
</svg>
