<?xml version="1.0" encoding="UTF-8"?>
<!DOCTYPE svg PUBLIC "-//W3C//DTD SVG 1.1 Tiny//EN" "http://www.w3.org/Graphics/SVG/1.1/DTD/svg11-tiny.dtd">
<svg baseProfile="tiny" xmlns="http://www.w3.org/2000/svg" xmlns:xlink="http://www.w3.org/1999/xlink" width="100%" height="100%" viewBox="0 0 36.045 20.024" style="overflow:visible;enable-background:new 0 0 36.045 20.024">
<g>
<g>
<path d="M5,14.243c-2.285,0-5,4.952-5,5.768l2.411-0.094c0-0.911,1.947-3.406,2.833-3.917c0.483,0,4.918,0,5.425,0      c0.958,0.572,2.908,3.265,2.908,3.917L16,20.011c0-0.627-2.693-5.768-5-5.768H5z"/>
</g>
<g>
<path d="M24.411,15.584c-0.99-1.947-2.097-3.557-3.364-3.557h-6c-1.347,0-2.468,1.926-3.47,3.973l1.184,1.445      c0.779-1.599,1.981-3.182,2.557-3.611c0.483,0,4.918,0,5.426,0c0.553,0.429,1.575,1.763,2.332,3.24      C23.571,16.664,24.411,15.584,24.411,15.584z"/>
</g>
<g>
<path d="M31.045,14.256h-6c-2.285,0-5,4.953-5,5.769l2.366-0.107c0-0.911,2.189-3.405,3.075-3.917c0.483,0,4.919,0,5.425,0      c0.959,0.572,2.833,3.265,2.833,3.917l2.301,0.107C36.045,19.396,33.352,14.256,31.045,14.256z"/>
</g>
<g>
<path d="M3,8.243c0,2.757,2.243,5,5,5s5-2.243,5-5s-2.243-5-5-5S3,5.486,3,8.243z M5,8.243c0-1.654,1.346-3,3-3      c1.654,0,3,1.346,3,3s-1.346,3-3,3C6.346,11.243,5,9.897,5,8.243z"/>
</g>
<g>
<path d="M23.045,8.267c0,2.756,2.242,5,5,5c2.756,0,5-2.244,5-5c0-2.757-2.244-5-5-5C25.287,3.267,23.045,5.51,23.045,8.267z       M25.045,8.267c0-1.654,1.346-3,3-3s3,1.346,3,3s-1.346,3-3,3S25.045,9.921,25.045,8.267z"/>
</g>
<g>
<path d="M13.076,5c0,2.757,2.243,5,5,5s5-2.243,5-5s-2.243-5-5-5S13.076,2.243,13.076,5z M15.076,5c0-1.654,1.346-3,3-3      c1.654,0,3,1.346,3,3s-1.346,3-3,3C16.422,8,15.076,6.654,15.076,5z"/>
</g>
</g>
</svg>
