<?xml version="1.0" encoding="UTF-8"?>
<!DOCTYPE svg PUBLIC "-//W3C//DTD SVG 1.1 Tiny//EN" "http://www.w3.org/Graphics/SVG/1.1/DTD/svg11-tiny.dtd">
<svg baseProfile="tiny" xmlns="http://www.w3.org/2000/svg" xmlns:xlink="http://www.w3.org/1999/xlink" width="100%" height="100%" viewBox="0 0 29.991 20.95" style="overflow:visible;enable-background:new 0 0 29.991 20.95">
<g>
<g>
<g>
<path d="M15.19,0C5.362,0,0,6.279,0,11.231c0,4.078,6.341,9.719,15.529,9.719c9.062,0,14.462-5.545,14.462-9.719       C29.991,6.079,25.279,0,15.19,0z M15.529,18.746c-7.454,0-13.584-3.201-13.584-7.223c0-4.021,5.072-8.444,13.083-8.444       c7.989,0,13.483,4.422,13.483,8.444C28.512,15.545,22.695,18.746,15.529,18.746z"/>
</g>
</g>
<g>
<g>
<path d="M15.08,5.62c-2.849,0-5.159,2.311-5.159,5.159c0,2.847,2.31,5.159,5.159,5.159c2.847,0,5.16-2.312,5.16-5.159       C20.239,7.931,17.927,5.62,15.08,5.62z M15.08,13.974c-1.764,0-3.193-1.43-3.193-3.194c0-1.764,1.429-3.193,3.193-3.193       c1.764,0,3.194,1.429,3.194,3.193C18.273,12.544,16.845,13.974,15.08,13.974z"/>
</g>
</g>
</g>
</svg>
