<?xml version="1.0" encoding="UTF-8"?>
<!DOCTYPE svg PUBLIC "-//W3C//DTD SVG 1.1 Tiny//EN" "http://www.w3.org/Graphics/SVG/1.1/DTD/svg11-tiny.dtd">
<svg baseProfile="tiny" xmlns="http://www.w3.org/2000/svg" xmlns:xlink="http://www.w3.org/1999/xlink" width="100%" height="100%" viewBox="0 0 32.679 22" style="overflow:visible;enable-background:new 0 0 32.679 22">
<g>
<g>
<g>
<path d="M3,6c0,2.757,2.244,5,5,5c2.758,0,5-2.243,5-5s-2.242-5-5-5C5.244,1,3,3.243,3,6z M5,6c0-1.654,1.347-3,3-3       c1.654,0,3,1.346,3,3S9.654,9,8,9C6.347,9,5,7.654,5,6z"/>
</g>
<g>
<path d="M5,12c-2.285,0-5,8.586-5,10h2c0-1.58,2.396-7.113,3.281-8c0.483,0,4.918,0,5.426,0C11.664,14.992,14,20.869,14,22h2       c0-1.086-2.693-10-5-10H5z"/>
</g>
</g>
<g>
<g>
<path d="M27.241,0h-6.497C16.977,0,14.7,3.216,14.7,5.44v2.059c0,3.065,2.521,5.615,5.109,5.615l-0.748,3.338l5.639-3.338       h1.839c3.506,0,6.14-2.598,6.14-5.776V5.795C32.679,2.991,30.915,0,27.241,0z M30.56,7.712c0,2.029-2.288,3.617-4.301,3.617       h-1.451l-3.503,1.945l0.421-1.916c-2.618,0-4.868-1.421-4.868-3.692V5.943c0.007-2.477,2.122-4.137,4.915-4.137h4.159       c2.725,0,4.628,1.361,4.628,3.802V7.712z"/>
</g>
</g>
</g>
</svg>
