<?xml version="1.0" encoding="UTF-8"?>
<!DOCTYPE svg PUBLIC "-//W3C//DTD SVG 1.1 Tiny//EN" "http://www.w3.org/Graphics/SVG/1.1/DTD/svg11-tiny.dtd">
<svg baseProfile="tiny" xmlns="http://www.w3.org/2000/svg" xmlns:xlink="http://www.w3.org/1999/xlink" width="100%" height="100%" viewBox="0 0 24.042 22" style="overflow:visible;enable-background:new 0 0 24.042 22">
<g>
<g>
<g>
<path d="M16.77,0H8.083C3.044,0,0,4.301,0,7.274v2.753c0,4.098,3.372,7.509,6.833,7.509l-1,4.463l7.54-4.463h2.46       c4.688,0,8.209-3.475,8.209-7.725V7.75C24.042,4,21.683,0,16.77,0z M21.208,10.312c0,2.714-3.061,4.836-5.75,4.836h-1.94       L8.833,17.75l0.562-2.562c-3.5,0-6.51-1.9-6.51-4.938V7.947c0.01-3.312,2.838-5.53,6.572-5.53h5.562       c3.642,0,6.188,1.82,6.188,5.083V10.312z"/>
</g>
</g>
</g>
</svg>
