<?xml version="1.0" encoding="utf-8"?>
<!-- Generator: Adobe Illustrator 12.0.1, SVG Export Plug-In . SVG Version: 6.00 Build 51448)  -->
<!DOCTYPE svg PUBLIC "-//W3C//DTD SVG 1.1 Tiny//EN" "http://www.w3.org/Graphics/SVG/1.1/DTD/svg11-tiny.dtd" [
	<!ENTITY ns_svg "http://www.w3.org/2000/svg">
	<!ENTITY ns_xlink "http://www.w3.org/1999/xlink">
]>
<svg  version="1.1" baseProfile="tiny" id="Layer_1" xmlns="&ns_svg;" xmlns:xlink="&ns_xlink;" width="141.496" height="13.438"
	 viewBox="0 0 141.496 13.438" xml:space="preserve">
<g>
	<path fill="#3F3F3F" d="M11.109,13.438h-0.547l-3.07-8.875l-2.883,8.875H4.062L0,0.391h1.828l2.586,8.984L7.25,0.391h0.609
		l2.805,8.969l2.633-8.969h1.828L11.109,13.438z"/>
	<path fill="#3F3F3F" d="M23.535,8.719h-6.79c0,1.102,0.302,1.947,0.906,2.539c0.534,0.516,1.22,0.773,2.059,0.773
		c0.956,0,1.753-0.275,2.393-0.828l0.704,1.203c-0.258,0.256-0.654,0.479-1.188,0.664c-0.67,0.244-1.415,0.367-2.237,0.367
		c-1.186,0-2.193-0.401-3.02-1.204c-0.922-0.885-1.383-2.075-1.383-3.569c0-1.553,0.472-2.797,1.417-3.735
		c0.845-0.838,1.846-1.257,3.001-1.257c1.344,0,2.397,0.378,3.16,1.134c0.739,0.727,1.109,1.691,1.109,2.893
		C23.667,8.068,23.623,8.408,23.535,8.719z M19.478,5.078c-0.748,0-1.374,0.24-1.88,0.719c-0.482,0.457-0.756,1.024-0.821,1.703
		h5.234c0-0.672-0.212-1.234-0.636-1.685C20.91,5.324,20.277,5.078,19.478,5.078z"/>
	<path fill="#3F3F3F" d="M25.531,10.601V0h1.672v10.314c0,0.502,0.146,0.898,0.437,1.189c0.291,0.289,0.671,0.434,1.142,0.434v1.5
		C26.614,13.438,25.531,12.492,25.531,10.601z"/>
	<path fill="#3F3F3F" d="M37.887,4.609l-0.834,1.172c-0.172-0.167-0.475-0.327-0.909-0.477c-0.435-0.15-0.862-0.226-1.282-0.226
		c-0.917,0-1.645,0.318-2.183,0.954c-0.539,0.636-0.808,1.507-0.808,2.615c0,1.102,0.272,1.941,0.818,2.52
		c0.545,0.576,1.301,0.865,2.269,0.865c0.75,0,1.507-0.291,2.269-0.875l0.66,1.406c-0.898,0.584-2.01,0.875-3.336,0.875
		c-1.285,0-2.348-0.431-3.187-1.292c-0.839-0.861-1.259-2.028-1.259-3.499c0-1.5,0.438-2.704,1.316-3.612s2.079-1.363,3.603-1.363
		c0.49,0,1.021,0.102,1.595,0.307S37.615,4.393,37.887,4.609z"/>
	<path fill="#3F3F3F" d="M39.018,8.533c0-1.453,0.392-2.627,1.175-3.521s1.815-1.34,3.095-1.34c1.35,0,2.397,0.429,3.143,1.288
		c0.745,0.858,1.118,2.05,1.118,3.574c0,1.518-0.382,2.715-1.145,3.59c-0.763,0.877-1.802,1.314-3.117,1.314
		c-1.344,0-2.392-0.442-3.143-1.327C39.393,11.226,39.018,10.033,39.018,8.533z M40.783,8.533c0,2.363,0.835,3.545,2.504,3.545
		c0.779,0,1.39-0.316,1.832-0.95s0.664-1.499,0.664-2.595c0-2.334-0.832-3.502-2.496-3.502c-0.762,0-1.37,0.311-1.824,0.933
		S40.783,7.441,40.783,8.533z"/>
	<path fill="#3F3F3F" d="M60.192,13.266V7.303c0-1.483-0.642-2.225-1.926-2.225c-0.404,0-0.783,0.125-1.135,0.374
		C56.78,5.701,56.54,5.984,56.411,6.3v6.965h-1.672V6.573c0-0.463-0.175-0.828-0.523-1.095c-0.349-0.267-0.811-0.4-1.385-0.4
		c-0.334,0-0.69,0.128-1.068,0.385s-0.646,0.54-0.805,0.849v6.953h-1.672V3.859h1.091l0.554,1.078
		c0.646-0.844,1.451-1.266,2.419-1.266c1.349,0,2.293,0.417,2.833,1.25c0.188-0.355,0.537-0.653,1.046-0.892
		c0.511-0.239,1.035-0.358,1.575-0.358c0.973,0,1.727,0.289,2.26,0.866c0.534,0.578,0.801,1.388,0.801,2.431v6.296H60.192z"/>
	<path fill="#3F3F3F" d="M72.174,8.719h-6.79c0,1.102,0.302,1.947,0.906,2.539c0.534,0.516,1.22,0.773,2.059,0.773
		c0.956,0,1.753-0.275,2.393-0.828l0.704,1.203c-0.258,0.256-0.654,0.479-1.188,0.664c-0.67,0.244-1.415,0.367-2.237,0.367
		c-1.186,0-2.193-0.401-3.02-1.204c-0.922-0.885-1.383-2.075-1.383-3.569c0-1.553,0.472-2.797,1.417-3.735
		c0.845-0.838,1.846-1.257,3.001-1.257c1.344,0,2.397,0.378,3.16,1.134c0.739,0.727,1.109,1.691,1.109,2.893
		C72.306,8.068,72.262,8.408,72.174,8.719z M68.116,5.078c-0.748,0-1.374,0.24-1.88,0.719c-0.482,0.457-0.756,1.024-0.821,1.703
		h5.234c0-0.672-0.212-1.234-0.636-1.685C69.549,5.324,68.916,5.078,68.116,5.078z"/>
	<path fill="#3F3F3F" d="M80.062,5.172h-1.094V3.859h1.094V1.891l1.672-0.641v2.609h2.578v1.312h-2.578v4.672
		c0,0.791,0.133,1.354,0.398,1.688s0.693,0.5,1.283,0.5c0.427,0,0.867-0.109,1.323-0.328l0.245,1.471
		c-0.69,0.176-1.447,0.264-2.272,0.264c-0.742,0-1.37-0.277-1.882-0.83s-0.768-1.252-0.768-2.096V5.172z"/>
	<path fill="#3F3F3F" d="M85.995,8.533c0-1.453,0.392-2.627,1.175-3.521c0.784-0.894,1.815-1.34,3.096-1.34
		c1.35,0,2.396,0.429,3.143,1.288c0.745,0.858,1.118,2.05,1.118,3.574c0,1.518-0.382,2.715-1.145,3.59
		c-0.763,0.877-1.802,1.314-3.116,1.314c-1.345,0-2.393-0.442-3.144-1.327S85.995,10.033,85.995,8.533z M87.761,8.533
		c0,2.363,0.835,3.545,2.505,3.545c0.778,0,1.389-0.316,1.832-0.95c0.441-0.634,0.663-1.499,0.663-2.595
		c0-2.334-0.832-3.502-2.495-3.502c-0.762,0-1.37,0.311-1.824,0.933S87.761,7.441,87.761,8.533z"/>
	<path fill="#3F3F3F" d="M100.937,10.688h1.531c0.141,0.781,0.606,1.172,1.396,1.172c0.785,0,1.337-0.168,1.656-0.506
		c0.319-0.336,0.479-1.277,0.479-2.824V0.391h1.766v8.065c0,1.757-0.284,3.026-0.853,3.809s-1.579,1.173-3.031,1.173
		c-0.838,0-1.525-0.248-2.062-0.746S100.989,11.525,100.937,10.688z"/>
	<path fill="#3F3F3F" d="M115.579,12.188c-0.668,0.834-1.689,1.25-3.066,1.25c-0.738,0-1.378-0.268-1.92-0.803
		s-0.812-1.201-0.812-1.996c0-0.953,0.417-1.76,1.252-2.418c0.835-0.657,1.899-0.986,3.194-0.986c0.351,0,0.749,0.078,1.194,0.234
		c0-1.531-0.679-2.297-2.035-2.297c-1.041,0-1.843,0.276-2.403,0.828l-0.702-1.391c0.315-0.257,0.753-0.477,1.312-0.662
		c0.559-0.184,1.093-0.276,1.603-0.276c1.363,0,2.354,0.311,2.971,0.933c0.618,0.623,0.927,1.612,0.927,2.967v3.381
		c0,0.828,0.245,1.381,0.734,1.656v0.828c-0.679,0-1.187-0.098-1.523-0.291S115.726,12.633,115.579,12.188z M115.421,8.656
		c-0.526-0.125-0.896-0.188-1.106-0.188c-0.843,0-1.53,0.217-2.063,0.65c-0.532,0.434-0.799,0.946-0.799,1.538
		c0,0.979,0.576,1.468,1.729,1.468c0.843,0,1.59-0.4,2.239-1.203V8.656z"/>
	<path fill="#3F3F3F" d="M120.534,13.266v-8h-1.297V3.859h2.969v9.406H120.534z M121.451,0.297c0.287,0,0.531,0.101,0.733,0.303
		s0.303,0.443,0.303,0.724c0,0.287-0.101,0.531-0.303,0.733s-0.446,0.303-0.733,0.303c-0.28,0-0.521-0.101-0.724-0.303
		s-0.303-0.446-0.303-0.733c0-0.287,0.1-0.529,0.298-0.729C120.922,0.396,121.165,0.297,121.451,0.297z"/>
	<path fill="#3F3F3F" d="M130.933,13.266l-2.949-4.707l-1.457,1.502v3.205h-1.672V0h1.672v8.232l3.594-4.373h1.953l-3.011,3.574
		l3.683,5.832H130.933z"/>
	<path fill="#3F3F3F" d="M135.512,3.859v5.995c0,1.451,0.631,2.177,1.893,2.177c0.551,0,1.056-0.158,1.514-0.475
		c0.457-0.314,0.76-0.682,0.906-1.097V3.859h1.672v9.406h-1.672v-1.301c-0.188,0.369-0.564,0.707-1.131,1.014
		c-0.566,0.306-1.119,0.459-1.659,0.459c-1.032,0-1.823-0.295-2.372-0.887c-0.548-0.592-0.822-1.432-0.822-2.52V3.859H135.512z"/>
</g>
</svg>
