<?xml version="1.0" encoding="utf-8"?>
<!-- Generator: Adobe Illustrator 12.0.0, SVG Export Plug-In . SVG Version: 6.00 Build 51448)  -->
<!DOCTYPE svg PUBLIC "-//W3C//DTD SVG 1.1//EN" "http://www.w3.org/Graphics/SVG/1.1/DTD/svg11.dtd" [
	<!ENTITY ns_svg "http://www.w3.org/2000/svg">
	<!ENTITY ns_xlink "http://www.w3.org/1999/xlink">
]>
<svg  version="1.1" id="Layer_1" xmlns="&ns_svg;" xmlns:xlink="&ns_xlink;" width="120.772" height="28.5"
	 viewBox="0 0 120.772 28.5" overflow="visible" enable-background="new 0 0 120.772 28.5" xml:space="preserve">
<rect x="0" fill="none" width="120.773" height="28.5"/>
<g>
	<path fill="#FFFFFF" d="M0,20.046V7.171h2.281v12.875H0z"/>
	<path fill="#FFFFFF" d="M10.9,20.046v-5.438c0-0.803-0.154-1.389-0.462-1.758c-0.308-0.369-0.81-0.554-1.507-0.554
		c-0.323,0-0.667,0.091-1.033,0.272c-0.366,0.181-0.652,0.407-0.857,0.677v6.801H4.838V10.64h1.584l0.405,0.879
		c0.599-0.711,1.481-1.066,2.649-1.066c1.121,0,2.006,0.336,2.654,1.007c0.648,0.672,0.973,1.608,0.973,2.81v5.777L10.9,20.046
		L10.9,20.046z"/>
	<path fill="#FFFFFF" d="M15.792,12.405h-1.094V10.64h1.094V8.728l2.203-0.807v2.719h2.578v1.766h-2.578v4.112
		c0,0.672,0.105,1.146,0.315,1.425c0.21,0.277,0.578,0.416,1.104,0.416c0.525,0,1.016-0.146,1.472-0.438v2.031
		c-0.51,0.178-1.236,0.266-2.178,0.266c-0.937,0-1.657-0.266-2.161-0.794c-0.503-0.53-0.755-1.283-0.755-2.262V12.405z"/>
	<path fill="#FFFFFF" d="M31.01,15.999h-6.722c0.041,0.751,0.299,1.334,0.773,1.751c0.475,0.416,1.113,0.624,1.917,0.624
		c1.002,0,1.764-0.256,2.285-0.767l0.853,1.672c-0.774,0.625-1.929,0.938-3.465,0.938c-1.436,0-2.572-0.42-3.407-1.261
		c-0.835-0.842-1.253-2.016-1.253-3.521c0-1.482,0.458-2.685,1.375-3.604c0.917-0.919,2.017-1.38,3.301-1.38
		c1.365,0,2.461,0.407,3.287,1.22c0.826,0.813,1.24,1.85,1.24,3.106C31.194,15.049,31.133,15.454,31.01,15.999z M24.366,14.343
		h4.625c-0.152-1.364-0.915-2.047-2.286-2.047C25.451,12.296,24.671,12.979,24.366,14.343z"/>
	<path fill="#FFFFFF" d="M38.389,12.671c-0.393-0.25-0.823-0.375-1.291-0.375c-0.509,0-0.962,0.231-1.357,0.694
		c-0.396,0.463-0.593,1.028-0.593,1.696v5.359h-2.203V10.64h2.203v0.844c0.615-0.688,1.431-1.031,2.45-1.031
		c0.75,0,1.323,0.114,1.722,0.342L38.389,12.671z"/>
	<path fill="#FFFFFF" d="M46.698,20.046v-5.438c0-0.803-0.154-1.389-0.462-1.758c-0.308-0.369-0.81-0.554-1.507-0.554
		c-0.323,0-0.667,0.091-1.033,0.272c-0.366,0.181-0.652,0.407-0.857,0.677v6.801h-2.203V10.64h1.584l0.405,0.879
		c0.599-0.711,1.481-1.066,2.649-1.066c1.121,0,2.006,0.336,2.654,1.007c0.648,0.672,0.973,1.608,0.973,2.81v5.777L46.698,20.046
		L46.698,20.046z"/>
	<path fill="#FFFFFF" d="M59.669,15.999h-6.72c0.041,0.751,0.299,1.334,0.773,1.751c0.474,0.416,1.113,0.624,1.917,0.624
		c1.002,0,1.764-0.256,2.285-0.767l0.853,1.672c-0.773,0.625-1.929,0.938-3.465,0.938c-1.436,0-2.571-0.42-3.407-1.261
		c-0.836-0.842-1.253-2.016-1.253-3.521c0-1.482,0.458-2.685,1.375-3.604c0.917-0.919,2.017-1.38,3.301-1.38
		c1.365,0,2.461,0.407,3.287,1.22c0.826,0.813,1.239,1.85,1.239,3.106C59.855,15.049,59.792,15.454,59.669,15.999z M53.027,14.343
		h4.625c-0.152-1.364-0.914-2.047-2.286-2.047C54.112,12.296,53.332,12.979,53.027,14.343z"/>
	<path fill="#FFFFFF" d="M61.934,12.405h-1.095V10.64h1.095V8.728l2.203-0.807v2.719h2.577v1.766h-2.577v4.112
		c0,0.672,0.104,1.146,0.314,1.425c0.21,0.277,0.578,0.416,1.104,0.416c0.525,0,1.017-0.146,1.472-0.438v2.031
		c-0.51,0.178-1.235,0.266-2.178,0.266c-0.938,0-1.657-0.266-2.161-0.794c-0.503-0.53-0.755-1.283-0.755-2.262V12.405L61.934,12.405
		z"/>
</g>
</svg>
