<?xml version="1.0" encoding="utf-8"?>
<!-- Generator: Adobe Illustrator 12.0.1, SVG Export Plug-In . SVG Version: 6.00 Build 51448)  -->
<!DOCTYPE svg PUBLIC "-//W3C//DTD SVG 1.1 Tiny//EN" "http://www.w3.org/Graphics/SVG/1.1/DTD/svg11-tiny.dtd" [
	<!ENTITY ns_svg "http://www.w3.org/2000/svg">
	<!ENTITY ns_xlink "http://www.w3.org/1999/xlink">
]>
<svg  version="1.1" baseProfile="tiny" id="Layer_1" xmlns="&ns_svg;" xmlns:xlink="&ns_xlink;" width="101.526" height="13.195"
	 viewBox="0 0 101.526 13.195" xml:space="preserve">
<g>
	<path fill="#3F3F3F" d="M6.867,0.672L6.41,1.841C5.973,1.525,5.285,1.367,4.348,1.367c-0.879,0-1.584,0.378-2.114,1.134
		c-0.53,0.756-0.796,1.73-0.796,2.924c0,1.139,0.272,2.062,0.817,2.77c0.544,0.709,1.247,1.062,2.108,1.062
		c0.938,0,1.66-0.33,2.166-0.991l0.752,1.046c-0.793,0.787-1.813,1.18-3.062,1.18c-1.309,0-2.338-0.472-3.09-1.416
		C0.377,8.133,0,6.889,0,5.343c0-1.495,0.401-2.737,1.203-3.727s1.838-1.484,3.109-1.484C5.4,0.133,6.253,0.312,6.867,0.672z"/>
	<path fill="#3F3F3F" d="M8.273,6.643c0-1.131,0.304-2.045,0.912-2.74s1.41-1.043,2.403-1.043c1.048,0,1.862,0.334,2.44,1.002
		c0.579,0.668,0.869,1.595,0.869,2.781c0,1.181-0.297,2.113-0.889,2.794c-0.594,0.683-1.4,1.023-2.421,1.023
		c-1.044,0-1.857-0.344-2.44-1.033C8.564,8.739,8.273,7.811,8.273,6.643z M9.641,6.643c0,1.837,0.648,2.755,1.948,2.755
		c0.606,0,1.081-0.246,1.426-0.738c0.344-0.492,0.517-1.165,0.517-2.017c0-1.814-0.648-2.721-1.942-2.721
		c-0.593,0-1.065,0.242-1.419,0.725C9.816,5.13,9.641,5.795,9.641,6.643z"/>
	<path fill="#3F3F3F" d="M20.77,10.32V6.06c0-0.78-0.117-1.326-0.352-1.638c-0.236-0.312-0.629-0.468-1.182-0.468
		c-0.297,0-0.607,0.089-0.932,0.267c-0.323,0.178-0.572,0.397-0.746,0.657v5.444h-1.297V3h0.889l0.411,0.943
		c0.429-0.723,1.128-1.084,2.099-1.084c1.604,0,2.406,0.976,2.406,2.927v4.534H20.77z"/>
	<path fill="#3F3F3F" d="M23.646,12.328l0.705-1.039c0.757,0.506,1.455,0.758,2.094,0.758c0.59,0,1.054-0.102,1.394-0.305
		c0.341-0.203,0.511-0.456,0.511-0.758c0-0.594-0.43-0.891-1.287-0.891c-0.146,0-0.411,0.037-0.795,0.109
		c-0.383,0.072-0.682,0.109-0.896,0.109c-1.041,0-1.561-0.393-1.561-1.178c0-0.242,0.121-0.461,0.365-0.658
		c0.244-0.195,0.547-0.338,0.908-0.424c-1.031-0.483-1.547-1.321-1.547-2.515c0-0.765,0.267-1.403,0.801-1.914
		c0.533-0.51,1.193-0.765,1.978-0.765c0.722,0,1.284,0.148,1.69,0.444l0.65-0.78l0.85,0.8l-0.781,0.588
		c0.333,0.433,0.5,0.998,0.5,1.695c0,0.738-0.23,1.358-0.691,1.859c-0.461,0.502-1.066,0.789-1.814,0.861l-1.074,0.107
		c-0.127,0.014-0.299,0.063-0.513,0.148c-0.215,0.084-0.321,0.194-0.321,0.331c0,0.187,0.223,0.28,0.67,0.28
		c0.196,0,0.502-0.035,0.918-0.105c0.414-0.07,0.723-0.105,0.924-0.105c0.721,0,1.283,0.172,1.687,0.518
		c0.404,0.344,0.606,0.822,0.606,1.434c0,0.676-0.303,1.221-0.907,1.637s-1.37,0.623-2.297,0.623c-0.475,0-0.974-0.084-1.499-0.253
		C24.388,12.773,23.965,12.568,23.646,12.328z M26.407,3.906c-0.452,0-0.821,0.159-1.106,0.478c-0.285,0.318-0.428,0.705-0.428,1.16
		c0,0.51,0.138,0.932,0.414,1.267c0.276,0.334,0.649,0.501,1.12,0.501c0.462,0,0.822-0.163,1.083-0.488
		c0.26-0.326,0.391-0.752,0.391-1.28c0-0.455-0.141-0.842-0.422-1.16C27.178,4.065,26.828,3.906,26.407,3.906z"/>
	<path fill="#3F3F3F" d="M34.914,4.247c-0.282-0.196-0.566-0.294-0.854-0.294c-0.461,0-0.863,0.212-1.207,0.635
		c-0.344,0.424-0.516,0.934-0.516,1.531v4.201h-1.297V3h1.297v1.164c0.474-0.87,1.178-1.305,2.111-1.305
		c0.232,0,0.568,0.041,1.006,0.123L34.914,4.247z"/>
	<path fill="#3F3F3F" d="M40.519,9.484c-0.52,0.65-1.315,0.977-2.386,0.977c-0.575,0-1.073-0.209-1.495-0.626
		c-0.421-0.417-0.632-0.937-0.632-1.556c0-0.744,0.324-1.372,0.975-1.885c0.648-0.513,1.478-0.77,2.485-0.77
		c0.273,0,0.583,0.06,0.931,0.18c0-1.188-0.529-1.781-1.587-1.781c-0.812,0-1.437,0.219-1.874,0.656l-0.547-1.086
		c0.246-0.201,0.586-0.374,1.021-0.518s0.852-0.216,1.248-0.216c1.062,0,1.832,0.242,2.313,0.725
		c0.48,0.484,0.722,1.252,0.722,2.306v2.627c0,0.645,0.192,1.072,0.578,1.287v0.648c-0.529,0-0.926-0.075-1.188-0.225
		C40.821,10.078,40.633,9.83,40.519,9.484z M40.396,6.727c-0.411-0.094-0.699-0.141-0.863-0.141c-0.656,0-1.193,0.169-1.608,0.507
		s-0.622,0.739-0.622,1.2c0,0.764,0.449,1.145,1.348,1.145c0.657,0,1.239-0.312,1.746-0.938V6.727z"/>
	<path fill="#3F3F3F" d="M44.205,4.023h-0.852V3h0.852V1.468l1.297-0.5V3h2.008v1.023h-2.008v3.64c0,0.616,0.104,1.053,0.311,1.313
		c0.206,0.261,0.539,0.391,0.999,0.391c0.332,0,0.675-0.084,1.03-0.25l0.191,1.139c-0.537,0.137-1.127,0.205-1.768,0.205
		c-0.578,0-1.066-0.215-1.464-0.646c-0.398-0.432-0.597-0.975-0.597-1.631V4.023z"/>
	<path fill="#3F3F3F" d="M50.514,3v4.671c0,1.13,0.49,1.696,1.471,1.696c0.428,0,0.82-0.123,1.176-0.369s0.591-0.531,0.705-0.855V3
		h1.297v7.32h-1.297V9.309c-0.146,0.287-0.439,0.551-0.879,0.791s-0.869,0.361-1.289,0.361c-0.802,0-1.416-0.23-1.842-0.691
		c-0.426-0.459-0.639-1.113-0.639-1.962V3H50.514z"/>
	<path fill="#3F3F3F" d="M57.037,8.252V0h1.297v8.032c0,0.392,0.113,0.7,0.339,0.927c0.227,0.225,0.522,0.338,0.888,0.338v1.164
		C57.878,10.461,57.037,9.725,57.037,8.252z"/>
	<path fill="#3F3F3F" d="M65.203,9.484c-0.52,0.65-1.315,0.977-2.387,0.977c-0.574,0-1.072-0.209-1.494-0.626
		s-0.633-0.937-0.633-1.556c0-0.744,0.325-1.372,0.975-1.885s1.479-0.77,2.486-0.77c0.273,0,0.583,0.06,0.93,0.18
		c0-1.188-0.529-1.781-1.587-1.781c-0.812,0-1.437,0.219-1.874,0.656l-0.547-1.086c0.246-0.201,0.587-0.374,1.021-0.518
		c0.436-0.144,0.852-0.216,1.248-0.216c1.062,0,1.833,0.242,2.314,0.725c0.48,0.484,0.721,1.252,0.721,2.306v2.627
		c0,0.645,0.192,1.072,0.578,1.287v0.648c-0.529,0-0.925-0.075-1.188-0.225C65.505,10.078,65.316,9.83,65.203,9.484z M65.08,6.727
		c-0.41-0.094-0.698-0.141-0.862-0.141c-0.657,0-1.193,0.169-1.608,0.507c-0.416,0.338-0.623,0.739-0.623,1.2
		c0,0.764,0.449,1.145,1.349,1.145c0.657,0,1.238-0.312,1.745-0.938V6.727z"/>
	<path fill="#3F3F3F" d="M68.889,4.023h-0.852V3h0.852V1.468l1.297-0.5V3h2.008v1.023h-2.008v3.64c0,0.616,0.104,1.053,0.311,1.313
		c0.207,0.261,0.54,0.391,0.999,0.391c0.332,0,0.676-0.084,1.03-0.25l0.191,1.139c-0.537,0.137-1.126,0.205-1.768,0.205
		c-0.577,0-1.065-0.215-1.464-0.646c-0.397-0.432-0.597-0.975-0.597-1.631V4.023z"/>
	<path fill="#3F3F3F" d="M74.604,10.32V4.094h-1.008V3H75.9v7.32H74.604z M75.311,0.227c0.225,0,0.415,0.079,0.572,0.236
		s0.236,0.346,0.236,0.565c0,0.224-0.079,0.415-0.236,0.572c-0.157,0.158-0.348,0.236-0.572,0.236c-0.219,0-0.407-0.079-0.564-0.236
		c-0.157-0.157-0.236-0.348-0.236-0.572s0.077-0.413,0.232-0.568S75.087,0.227,75.311,0.227z"/>
	<path fill="#3F3F3F" d="M77.486,6.643c0-1.131,0.305-2.045,0.913-2.74s1.409-1.043,2.403-1.043c1.048,0,1.861,0.334,2.44,1.002
		s0.868,1.595,0.868,2.781c0,1.181-0.296,2.113-0.889,2.794c-0.593,0.683-1.399,1.023-2.42,1.023c-1.044,0-1.857-0.344-2.441-1.033
		C77.778,8.739,77.486,7.811,77.486,6.643z M78.854,6.643c0,1.837,0.649,2.755,1.949,2.755c0.605,0,1.081-0.246,1.425-0.738
		c0.345-0.492,0.517-1.165,0.517-2.017c0-1.814-0.647-2.721-1.941-2.721c-0.593,0-1.066,0.242-1.419,0.725
		C79.03,5.13,78.854,5.795,78.854,6.643z"/>
	<path fill="#3F3F3F" d="M89.983,10.32V6.06c0-0.78-0.117-1.326-0.353-1.638c-0.235-0.312-0.629-0.468-1.181-0.468
		c-0.297,0-0.607,0.089-0.932,0.267c-0.324,0.178-0.573,0.397-0.746,0.657v5.444h-1.297V3h0.889l0.41,0.943
		c0.429-0.723,1.128-1.084,2.1-1.084c1.604,0,2.406,0.976,2.406,2.927v4.534H89.983z"/>
	<path fill="#3F3F3F" d="M92.648,9.887l0.458-1.23c0.726,0.475,1.31,0.711,1.752,0.711c0.803,0,1.204-0.338,1.204-1.014
		c0-0.482-0.388-0.898-1.163-1.245c-0.599-0.273-1.001-0.481-1.208-0.623c-0.208-0.141-0.389-0.302-0.541-0.482
		s-0.267-0.372-0.342-0.575c-0.076-0.203-0.113-0.421-0.113-0.653c0-0.602,0.219-1.072,0.656-1.41
		c0.438-0.337,1.01-0.506,1.717-0.506c0.533,0,1.206,0.169,2.018,0.506L96.717,4.57c-0.516-0.412-1.033-0.617-1.553-0.617
		c-0.311,0-0.571,0.073-0.783,0.219c-0.213,0.146-0.318,0.331-0.318,0.554c0,0.47,0.267,0.826,0.801,1.068l0.931,0.424
		c0.57,0.26,0.985,0.556,1.245,0.889C97.3,7.441,97.43,7.859,97.43,8.36c0,0.657-0.23,1.171-0.691,1.543
		c-0.46,0.372-1.099,0.558-1.915,0.558C94.053,10.461,93.328,10.27,92.648,9.887z"/>
	<path fill="#3F3F3F" d="M100.499,8.406c0.283,0,0.525,0.1,0.726,0.301c0.201,0.199,0.302,0.441,0.302,0.723
		c0,0.283-0.101,0.525-0.302,0.728c-0.2,0.202-0.442,0.304-0.726,0.304s-0.525-0.102-0.726-0.304
		c-0.201-0.202-0.302-0.444-0.302-0.728c0-0.281,0.101-0.523,0.302-0.723C99.974,8.506,100.216,8.406,100.499,8.406z M100.698,7.719
		h-0.492c-0.349-2.296-0.523-3.892-0.523-4.787V0.125h1.547v2.8C101.229,3.797,101.053,5.395,100.698,7.719z"/>
</g>
</svg>
