<?xml version="1.0" encoding="utf-8"?>
<!-- Generator: Adobe Illustrator 12.0.0, SVG Export Plug-In . SVG Version: 6.00 Build 51448)  -->
<!DOCTYPE svg PUBLIC "-//W3C//DTD SVG 1.1//EN" "http://www.w3.org/Graphics/SVG/1.1/DTD/svg11.dtd" [
	<!ENTITY ns_svg "http://www.w3.org/2000/svg">
	<!ENTITY ns_xlink "http://www.w3.org/1999/xlink">
]>
<svg  version="1.1" id="Layer_1" xmlns="&ns_svg;" xmlns:xlink="&ns_xlink;" width="120.772" height="28.5"
	 viewBox="0 0 120.772 28.5" overflow="visible" enable-background="new 0 0 120.772 28.5" xml:space="preserve">
<rect x="0" fill="none" width="120.772" height="28.5"/>
<g>
	<path fill="#FFFFFF" d="M6.625,15.778v5.281H4.344v-5.281L0,8.186h2.422l3.05,5.492l3.06-5.492h2.422L6.625,15.778z"/>
	<path fill="#FFFFFF" d="M9.918,16.327c0-1.436,0.415-2.604,1.244-3.506s1.924-1.354,3.284-1.354c1.43,0,2.54,0.434,3.332,1.301
		c0.791,0.867,1.187,2.054,1.187,3.56c0,1.5-0.403,2.691-1.209,3.576c-0.806,0.885-1.909,1.328-3.31,1.328
		c-1.431,0-2.543-0.447-3.337-1.34C10.316,18.998,9.918,17.811,9.918,16.327z M12.199,16.327c0,2.072,0.749,3.107,2.247,3.107
		c0.687,0,1.231-0.27,1.634-0.809c0.402-0.537,0.604-1.306,0.604-2.3c0-2.042-0.746-3.063-2.237-3.063
		c-0.688,0-1.234,0.269-1.639,0.808C12.402,14.61,12.199,15.36,12.199,16.327z"/>
	<path fill="#FFFFFF" d="M26.777,21.075v-0.791c-0.311,0.265-0.738,0.488-1.283,0.673c-0.545,0.184-1.045,0.274-1.502,0.274
		c-2.186,0-3.277-1.158-3.277-3.477v-6.101h2.203v5.926c0,1.205,0.541,1.808,1.623,1.808c0.496,0,0.959-0.129,1.386-0.387
		c0.427-0.257,0.71-0.556,0.851-0.896v-6.453h2.203v9.42h-2.204V21.075z"/>
	<path fill="#FFFFFF" d="M36.793,13.686c-0.393-0.25-0.823-0.375-1.292-0.375c-0.509,0-0.961,0.23-1.356,0.693
		s-0.593,1.028-0.593,1.696v5.359h-2.203v-9.406h2.203v0.844c0.615-0.688,1.432-1.031,2.45-1.031c0.75,0,1.323,0.113,1.722,0.342
		L36.793,13.686z"/>
	<path fill="#FFFFFF" d="M53.039,21.231l-6.25-8.14v7.983h-2.203V8.186h1.094l6.094,7.764V8.186h2.202v13.045H53.039z"/>
	<path fill="#FFFFFF" d="M62.538,21.075v-0.791c-0.312,0.265-0.738,0.488-1.282,0.673c-0.544,0.184-1.045,0.274-1.502,0.274
		c-2.185,0-3.277-1.158-3.277-3.477v-6.101h2.203v5.926c0,1.205,0.541,1.808,1.623,1.808c0.497,0,0.958-0.129,1.386-0.387
		c0.427-0.257,0.71-0.556,0.851-0.896v-6.453h2.203v9.42h-2.204V21.075z"/>
	<path fill="#FFFFFF" d="M78.016,21.061v-5.896c0-1.236-0.554-1.853-1.659-1.853c-0.328,0-0.646,0.096-0.949,0.289
		c-0.304,0.193-0.519,0.416-0.642,0.668v6.792h-2.202v-6.238c0-0.462-0.145-0.831-0.432-1.103s-0.69-0.408-1.212-0.408
		c-0.275,0-0.575,0.101-0.9,0.303c-0.324,0.201-0.561,0.424-0.706,0.666v6.781h-2.203v-9.406h1.513l0.449,0.812
		c0.608-0.667,1.397-1,2.367-1c1.249,0,2.189,0.338,2.823,1.016c0.275-0.31,0.659-0.557,1.152-0.74
		c0.492-0.184,0.985-0.275,1.478-0.275c1.052,0,1.867,0.3,2.451,0.9c0.583,0.602,0.875,1.427,0.875,2.476v6.217L78.016,21.061
		L78.016,21.061z"/>
	<path fill="#FFFFFF" d="M84.14,20.536l-0.492,0.695h-1.24V8.135l2.203-0.527v4.395c0.586-0.357,1.225-0.535,1.917-0.535
		c1.378,0,2.487,0.435,3.332,1.305c0.845,0.87,1.267,1.986,1.267,3.344c0,1.576-0.426,2.822-1.275,3.74
		c-0.852,0.916-2.004,1.375-3.458,1.375C85.518,21.231,84.767,21,84.14,20.536z M84.611,13.88v4.92
		c0.321,0.381,0.76,0.571,1.312,0.571c1.062,0,1.815-0.252,2.258-0.758c0.443-0.504,0.665-1.311,0.665-2.42
		c0-1.913-0.916-2.869-2.746-2.869C85.447,13.327,84.95,13.511,84.611,13.88z"/>
	<path fill="#FFFFFF" d="M101.456,17.014h-6.722c0.041,0.75,0.299,1.334,0.772,1.75c0.475,0.416,1.113,0.625,1.917,0.625
		c1.002,0,1.765-0.256,2.285-0.766l0.854,1.672c-0.774,0.625-1.93,0.938-3.466,0.938c-1.437,0-2.57-0.42-3.406-1.262
		c-0.837-0.84-1.254-2.014-1.254-3.521c0-1.481,0.458-2.684,1.377-3.604c0.915-0.92,2.017-1.38,3.301-1.38
		c1.364,0,2.461,0.406,3.287,1.22c0.825,0.814,1.238,1.849,1.238,3.106C101.64,16.062,101.579,16.469,101.456,17.014z
		 M94.813,15.356h4.625c-0.152-1.365-0.915-2.045-2.286-2.045C95.898,13.311,95.117,13.993,94.813,15.356z"/>
	<path fill="#FFFFFF" d="M108.836,13.686c-0.393-0.25-0.823-0.375-1.292-0.375c-0.509,0-0.961,0.23-1.355,0.693
		c-0.396,0.463-0.594,1.028-0.594,1.696v5.359h-2.203v-9.406h2.203v0.844c0.615-0.688,1.433-1.031,2.45-1.031
		c0.75,0,1.323,0.113,1.722,0.342L108.836,13.686z"/>
</g>
</svg>
