<?xml version="1.0" encoding="utf-8"?>
<!-- Generator: Adobe Illustrator 12.0.0, SVG Export Plug-In . SVG Version: 6.00 Build 51448)  -->
<!DOCTYPE svg PUBLIC "-//W3C//DTD SVG 1.1//EN" "http://www.w3.org/Graphics/SVG/1.1/DTD/svg11.dtd" [
	<!ENTITY ns_svg "http://www.w3.org/2000/svg">
	<!ENTITY ns_xlink "http://www.w3.org/1999/xlink">
]>
<svg  version="1.1" id="Layer_1" xmlns="&ns_svg;" xmlns:xlink="&ns_xlink;" width="120.772" height="28.5"
	 viewBox="0 0 120.772 28.5" overflow="visible" enable-background="new 0 0 120.772 28.5" xml:space="preserve">
<g>
	<path fill="#FFFFFF" d="M8.797,20.046l-0.94-2.609H3.444l-0.896,2.609H0L5.14,6.999h1l5.172,13.047H8.797z M5.64,10.937
		l-1.547,4.75h3.095L5.64,10.937z"/>
	<path fill="#FFFFFF" d="M18.617,20.062v-0.791c-0.311,0.264-0.738,0.487-1.282,0.672c-0.545,0.185-1.046,0.275-1.503,0.275
		c-2.185,0-3.277-1.158-3.277-3.478V10.64h2.203v5.928c0,1.205,0.541,1.808,1.623,1.808c0.497,0,0.959-0.129,1.386-0.387
		c0.427-0.257,0.71-0.556,0.851-0.895V10.64h2.203v9.422H18.617z"/>
	<path fill="#FFFFFF" d="M23.519,12.405h-1.094V10.64h1.094V8.728l2.203-0.807v2.719H28.3v1.766h-2.578v4.112
		c0,0.672,0.105,1.146,0.315,1.425c0.21,0.277,0.578,0.416,1.104,0.416c0.526,0,1.017-0.146,1.472-0.438v2.031
		c-0.51,0.178-1.235,0.266-2.178,0.266c-0.938,0-1.657-0.266-2.161-0.794c-0.503-0.53-0.755-1.283-0.755-2.262V12.405L23.519,12.405
		z"/>
	<path fill="#FFFFFF" d="M29.718,15.312c0-1.436,0.415-2.604,1.244-3.508c0.829-0.903,1.924-1.354,3.284-1.354
		c1.43,0,2.54,0.434,3.332,1.301c0.791,0.867,1.187,2.055,1.187,3.561c0,1.5-0.403,2.692-1.209,3.577
		c-0.806,0.885-1.909,1.327-3.31,1.327c-1.431,0-2.543-0.446-3.337-1.34C30.115,17.982,29.718,16.796,29.718,15.312z M31.999,15.312
		c0,2.071,0.749,3.107,2.247,3.107c0.687,0,1.231-0.27,1.634-0.809c0.402-0.538,0.604-1.305,0.604-2.3
		c0-2.042-0.746-3.063-2.237-3.063c-0.688,0-1.233,0.27-1.639,0.808C32.201,13.596,31.999,14.348,31.999,15.312z"/>
	<path fill="#FFFFFF" d="M40.279,15.857v-2.062h4.656v2.062H40.279z"/>
	<path fill="#FFFFFF" d="M46.638,19.332l0.844-2.053c0.901,0.637,1.788,0.953,2.661,0.953c1.34,0,2.01-0.469,2.01-1.406
		c0-0.438-0.157-0.857-0.474-1.257c-0.316-0.397-0.967-0.846-1.952-1.34c-0.986-0.495-1.65-0.902-1.992-1.221
		c-0.343-0.319-0.605-0.698-0.79-1.138s-0.276-0.926-0.276-1.458c0-0.995,0.364-1.821,1.093-2.477
		c0.729-0.656,1.664-0.984,2.805-0.984c1.486,0,2.578,0.278,3.274,0.833l-0.693,1.964c-0.802-0.572-1.647-0.859-2.538-0.859
		c-0.525,0-0.935,0.14-1.225,0.418c-0.29,0.278-0.435,0.64-0.435,1.085c0,0.738,0.817,1.507,2.452,2.304
		c0.861,0.422,1.482,0.81,1.863,1.164s0.671,0.769,0.87,1.24s0.299,0.997,0.299,1.577c0,1.044-0.412,1.901-1.235,2.576
		c-0.822,0.674-1.926,1.011-3.309,1.011C48.69,20.265,47.606,19.953,46.638,19.332z"/>
	<path fill="#FFFFFF" d="M56.652,12.405h-1.094V10.64h1.094V8.728l2.203-0.807v2.719h2.578v1.766h-2.578v4.112
		c0,0.672,0.105,1.146,0.315,1.425c0.21,0.277,0.578,0.416,1.104,0.416c0.526,0,1.017-0.146,1.472-0.438v2.031
		c-0.511,0.178-1.235,0.266-2.178,0.266c-0.938,0-1.657-0.266-2.161-0.794c-0.503-0.53-0.755-1.283-0.755-2.262V12.405
		L56.652,12.405z"/>
	<path fill="#FFFFFF" d="M68.711,19.111c-0.199,0.325-0.547,0.591-1.042,0.797c-0.496,0.206-1.015,0.31-1.555,0.31
		c-1.015,0-1.812-0.253-2.393-0.759c-0.581-0.508-0.871-1.226-0.871-2.155c0-1.089,0.409-1.94,1.227-2.555
		c0.818-0.615,1.979-0.922,3.484-0.922c0.258,0,0.562,0.042,0.914,0.125c0-1.104-0.701-1.656-2.104-1.656
		c-0.827,0-1.521,0.136-2.077,0.406l-0.477-1.703c0.757-0.364,1.656-0.547,2.7-0.547c1.437,0,2.488,0.327,3.156,0.981
		c0.669,0.653,1.003,1.893,1.003,3.716v2.015c0,1.256,0.252,2.045,0.756,2.366c-0.182,0.313-0.384,0.507-0.606,0.579
		c-0.222,0.072-0.477,0.108-0.762,0.108c-0.314,0-0.598-0.116-0.849-0.349C68.968,19.638,68.799,19.386,68.711,19.111z
		 M68.491,15.607c-0.374-0.072-0.653-0.108-0.842-0.108c-1.729,0-2.596,0.567-2.596,1.703c0,0.844,0.488,1.266,1.465,1.266
		c1.315,0,1.973-0.659,1.973-1.979V15.607z"/>
	<path fill="#FFFFFF" d="M78.492,12.671c-0.393-0.25-0.821-0.375-1.291-0.375c-0.509,0-0.962,0.231-1.355,0.694
		c-0.396,0.463-0.593,1.028-0.593,1.696v5.359H73.05V10.64h2.203v0.844c0.613-0.688,1.431-1.031,2.449-1.031
		c0.749,0,1.323,0.114,1.723,0.342L78.492,12.671z"/>
	<path fill="#FFFFFF" d="M81.068,12.405h-1.094V10.64h1.094V8.728l2.203-0.807v2.719h2.578v1.766h-2.577v4.112
		c0,0.672,0.104,1.146,0.314,1.425c0.211,0.277,0.578,0.416,1.104,0.416s1.017-0.146,1.473-0.438v2.031
		c-0.511,0.178-1.236,0.266-2.18,0.266c-0.937,0-1.657-0.266-2.16-0.794c-0.504-0.53-0.755-1.283-0.755-2.262V12.405L81.068,12.405z
		"/>
</g>
<rect x="0" fill="none" width="120.773" height="28.5"/>
</svg>
