<?xml version="1.0" encoding="utf-8"?>
<!-- Generator: Adobe Illustrator 12.0.0, SVG Export Plug-In . SVG Version: 6.00 Build 51448)  -->
<!DOCTYPE svg PUBLIC "-//W3C//DTD SVG 1.1//EN" "http://www.w3.org/Graphics/SVG/1.1/DTD/svg11.dtd" [
	<!ENTITY ns_svg "http://www.w3.org/2000/svg">
	<!ENTITY ns_xlink "http://www.w3.org/1999/xlink">
]>
<svg  version="1.1" id="Layer_1" xmlns="&ns_svg;" xmlns:xlink="&ns_xlink;" width="120.772" height="28.5"
	 viewBox="0 0 120.772 28.5" overflow="visible" enable-background="new 0 0 120.772 28.5" xml:space="preserve">
<rect x="0" fill="none" width="120.772" height="28.5"/>
<g>
	<path fill="#FFFFFF" d="M8.797,20.874l-0.94-2.608H3.444l-0.896,2.608H0L5.141,7.827h1l5.172,13.047H8.797z M5.641,11.765
		l-1.547,4.75h3.095L5.641,11.765z"/>
	<path fill="#FFFFFF" d="M19.931,12.202l-0.938,1.641c-0.517-0.479-1.205-0.719-2.071-0.719c-0.83,0-1.487,0.275-1.97,0.828
		c-0.483,0.553-0.725,1.317-0.725,2.293c0,1.972,0.94,2.956,2.82,2.956c0.812,0,1.531-0.271,2.151-0.812l0.81,1.733
		c-0.638,0.4-1.196,0.654-1.673,0.762c-0.479,0.105-1.041,0.16-1.691,0.16c-1.451,0-2.598-0.425-3.438-1.271
		c-0.842-0.848-1.262-2.022-1.262-3.529c0-1.481,0.459-2.68,1.378-3.594c0.918-0.914,2.171-1.371,3.756-1.371
		C18.173,11.28,19.123,11.587,19.931,12.202z"/>
	<path fill="#FFFFFF" d="M29.142,12.202l-0.938,1.641c-0.517-0.479-1.205-0.719-2.071-0.719c-0.83,0-1.487,0.275-1.97,0.828
		c-0.483,0.553-0.725,1.317-0.725,2.293c0,1.972,0.94,2.956,2.82,2.956c0.812,0,1.531-0.271,2.152-0.812l0.809,1.733
		c-0.638,0.4-1.196,0.654-1.673,0.762c-0.479,0.105-1.041,0.16-1.691,0.16c-1.451,0-2.598-0.425-3.438-1.271
		c-0.841-0.848-1.262-2.022-1.262-3.529c0-1.481,0.459-2.68,1.379-3.594c0.918-0.914,2.17-1.371,3.755-1.371
		C27.384,11.28,28.334,11.587,29.142,12.202z"/>
	<path fill="#FFFFFF" d="M39.387,16.826h-6.722c0.041,0.75,0.299,1.334,0.772,1.75c0.475,0.416,1.113,0.625,1.917,0.625
		c1.002,0,1.765-0.257,2.285-0.767l0.854,1.672c-0.774,0.625-1.93,0.938-3.466,0.938c-1.437,0-2.57-0.421-3.406-1.263
		c-0.836-0.841-1.253-2.015-1.253-3.521c0-1.482,0.458-2.685,1.376-3.604c0.916-0.92,2.017-1.38,3.301-1.38
		c1.365,0,2.461,0.406,3.287,1.22c0.825,0.814,1.238,1.849,1.238,3.105C39.572,15.876,39.51,16.281,39.387,16.826z M32.743,15.171
		h4.625c-0.152-1.365-0.915-2.047-2.286-2.047C33.828,13.124,33.048,13.806,32.743,15.171z"/>
	<path fill="#FFFFFF" d="M40.744,20.264l0.782-1.748c0.658,0.521,1.4,0.78,2.229,0.78c0.855,0,1.285-0.306,1.285-0.914
		c0-0.356-0.129-0.649-0.388-0.879c-0.259-0.23-0.76-0.498-1.505-0.811c-1.624-0.674-2.437-1.616-2.437-2.829
		c0-0.814,0.311-1.449,0.933-1.903c0.621-0.454,1.416-0.681,2.384-0.681c0.979,0,1.899,0.219,2.763,0.657l-0.636,1.702
		c-0.48-0.406-1.149-0.609-2.008-0.609c-0.77,0-1.153,0.305-1.153,0.914c0,0.24,0.126,0.456,0.378,0.649
		c0.253,0.192,0.792,0.453,1.618,0.777c0.827,0.324,1.423,0.72,1.786,1.183c0.363,0.463,0.545,1.021,0.545,1.68
		c0,0.873-0.323,1.562-0.972,2.062c-0.647,0.501-1.529,0.752-2.643,0.752c-0.628,0-1.13-0.053-1.51-0.153
		C41.822,20.788,41.336,20.578,40.744,20.264z"/>
	<path fill="#FFFFFF" d="M48.496,20.264l0.782-1.748c0.658,0.521,1.4,0.78,2.229,0.78c0.855,0,1.285-0.306,1.285-0.914
		c0-0.356-0.129-0.649-0.388-0.879c-0.259-0.23-0.76-0.498-1.505-0.811c-1.624-0.674-2.437-1.616-2.437-2.829
		c0-0.814,0.311-1.449,0.933-1.903c0.621-0.454,1.416-0.681,2.384-0.681c0.979,0,1.899,0.219,2.763,0.657l-0.636,1.702
		c-0.48-0.406-1.149-0.609-2.008-0.609c-0.77,0-1.153,0.305-1.153,0.914c0,0.24,0.126,0.456,0.378,0.649
		c0.253,0.192,0.792,0.453,1.619,0.777c0.826,0.324,1.422,0.72,1.785,1.183c0.363,0.463,0.545,1.021,0.545,1.68
		c0,0.873-0.323,1.562-0.972,2.062c-0.647,0.501-1.529,0.752-2.643,0.752c-0.628,0-1.13-0.053-1.51-0.153
		C49.574,20.788,49.088,20.578,48.496,20.264z"/>
	<path fill="#FFFFFF" d="M64.656,16.141v4.733h-2.28V8.001c1.523-0.064,2.415-0.096,2.673-0.096c2.034,0,3.521,0.312,4.463,0.937
		c0.94,0.625,1.411,1.6,1.411,2.926c0,2.956-1.742,4.435-5.229,4.435C65.435,16.201,65.09,16.182,64.656,16.141z M64.656,9.979
		v4.129c0.388,0.041,0.69,0.062,0.915,0.062c1.043,0,1.806-0.175,2.284-0.524c0.481-0.349,0.724-0.917,0.724-1.703
		c0-1.338-1.076-2.007-3.229-2.007C65.11,9.937,64.878,9.95,64.656,9.979z"/>
	<path fill="#FFFFFF" d="M71.361,16.141c0-1.436,0.415-2.604,1.243-3.507c0.829-0.903,1.925-1.354,3.284-1.354
		c1.431,0,2.54,0.434,3.332,1.301c0.791,0.867,1.188,2.054,1.188,3.56c0,1.5-0.402,2.692-1.209,3.577
		c-0.807,0.886-1.908,1.328-3.311,1.328c-1.431,0-2.543-0.446-3.337-1.342C71.758,18.81,71.361,17.623,71.361,16.141z
		 M73.641,16.141c0,2.072,0.749,3.108,2.247,3.108c0.688,0,1.231-0.271,1.634-0.811c0.402-0.537,0.604-1.305,0.604-2.299
		c0-2.042-0.746-3.063-2.237-3.063c-0.688,0-1.233,0.269-1.639,0.808C73.844,14.423,73.641,15.175,73.641,16.141z"/>
	<path fill="#FFFFFF" d="M82.75,20.874v-7.609h-1.203v-1.797h3.422v9.406H82.75z M83.883,7.827c0.353,0,0.651,0.124,0.899,0.373
		s0.373,0.549,0.373,0.9c0,0.351-0.125,0.65-0.373,0.899s-0.549,0.374-0.899,0.374c-0.352,0-0.651-0.125-0.899-0.374
		C82.734,9.75,82.61,9.45,82.61,9.1c0-0.352,0.124-0.651,0.373-0.9C83.231,7.951,83.532,7.827,83.883,7.827z"/>
	<path fill="#FFFFFF" d="M93.589,20.874v-5.438c0-0.804-0.154-1.39-0.462-1.759c-0.309-0.369-0.812-0.553-1.508-0.553
		c-0.322,0-0.666,0.09-1.033,0.271c-0.365,0.182-0.651,0.407-0.856,0.677v6.802h-2.202v-9.406h1.585l0.403,0.879
		c0.6-0.711,1.481-1.066,2.649-1.066c1.121,0,2.006,0.335,2.653,1.006c0.647,0.672,0.974,1.608,0.974,2.811v5.777L93.589,20.874
		L93.589,20.874z"/>
	<path fill="#FFFFFF" d="M98.48,13.233h-1.094v-1.766h1.094V9.556l2.203-0.807v2.719h2.578v1.766h-2.578v4.111
		c0,0.673,0.105,1.146,0.315,1.425s0.578,0.418,1.104,0.418c0.526,0,1.019-0.146,1.473-0.438v2.03
		c-0.511,0.178-1.234,0.267-2.179,0.267c-0.938,0-1.656-0.267-2.16-0.795s-0.756-1.283-0.756-2.261V13.233L98.48,13.233z"/>
</g>
</svg>
