<?xml version="1.0" encoding="utf-8"?>
<!-- Generator: Adobe Illustrator 12.0.0, SVG Export Plug-In . SVG Version: 6.00 Build 51448)  -->
<!DOCTYPE svg PUBLIC "-//W3C//DTD SVG 1.1//EN" "http://www.w3.org/Graphics/SVG/1.1/DTD/svg11.dtd" [
	<!ENTITY ns_svg "http://www.w3.org/2000/svg">
	<!ENTITY ns_xlink "http://www.w3.org/1999/xlink">
]>
<svg  version="1.1" id="Layer_1" xmlns="&ns_svg;" xmlns:xlink="&ns_xlink;" width="32.012" height="88.682"
	 viewBox="0 0 32.012 88.682" overflow="visible" enable-background="new 0 0 32.012 88.682" xml:space="preserve">
<g>
	<defs>
		<rect id="XMLID_1_" x="-0.027" y="0.079" width="31.941" height="44.286"/>
	</defs>
	<clipPath id="XMLID_4_">
		<use xlink:href="#XMLID_1_" />
	</clipPath>
	<linearGradient id="XMLID_5_" gradientUnits="userSpaceOnUse" x1="15.9436" y1="44.3655" x2="15.9436" y2="0.0803">
		<stop  offset="0.2416" style="stop-color:#00ABD7"/>
		<stop  offset="0.4408" style="stop-color:#2CBADE"/>
		<stop  offset="0.7032" style="stop-color:#61CBE6"/>
		<stop  offset="0.8315" style="stop-color:#76D2E9"/>
	</linearGradient>
	<path clip-path="url(#XMLID_4_)" fill="url(#XMLID_5_)" d="M6.58,16.25c0.958-2.004,3.275-2.807,5.145-1.955
		c-0.361-1.689-0.895-4.735-1.037-8.45c-0.113-2.994,0.71-5.523,3.578-5.753c2.796-0.223,4.374,2.536,4.787,4.928
		c0.304,1.749,0.892,6.323,1.189,10.189c1.072-3.714,2.596-7.858,3.409-9.756c1.13-2.636,3.545-4.57,6.195-3.467
		c2.44,1.018,2.2,3.803,1.844,5.899c-0.834,4.891-4.372,12.853-6.69,17.641c2.892,3.73,0.26,9.316-3.151,11.942
		c0.735,0.353,1.44,1.015,1.425,2.198c-0.06,4.538-6.721,4.633-9.791,4.696c-2.49,0.049-12.519-0.246-10.098-5.491
		c0.177-0.386,0.396-0.704,0.574-0.928c-1.884-2.522-2.62-5.724-2.771-8.827c-0.152-0.3-0.274-0.624-0.36-0.97
		C0.217,25.648-0.38,19.86,0.226,17.694C1.041,14.771,4.703,14.351,6.58,16.25 M13.204,15.48c0.104,0.131,0.202,0.274,0.296,0.426
		c0.773,1.257,1.342,4.428,1.618,6.365c3.514-0.037,7.223,0.896,8.778,2.144c0.084,0.065,0.164,0.133,0.243,0.2
		c1.241-2.62,5.553-11.948,6.399-16.925c0.391-2.303,0.338-4.011-1.141-4.626c-1.748-0.729-3.64,0.434-4.674,2.847
		c-1.116,2.604-3.578,9.485-4.319,13.493c-0.144,0.791-1.167,0.69-1.155-0.112c0.048-3.761-0.929-11.656-1.348-14.073
		c-0.397-2.292-1.743-4.107-3.543-3.964c-1.811,0.147-2.616,1.622-2.506,4.545c0.213,5.587,1.337,9.623,1.337,9.623L13.204,15.48z
		 M13.946,22.32c-0.288-1.977-0.824-4.803-1.439-5.803c-1.467-2.382-4.655-1.48-5.121,0.958c0.03,0.077,0.06,0.156,0.088,0.238
		c0.585,1.756,0.903,4.303,1.166,6.439C9.869,23.041,11.821,22.483,13.946,22.32 M6.312,17.939c-0.053-0.066-0.092-0.146-0.108-0.24
		c-1.014-1.949-4.209-2.003-4.854,0.308c-0.519,1.857,0.009,7.394,0.614,9.86c0.693,2.831,4.87,3.632,5.458,0.504l-0.034-0.195
		c-0.175-1.036-0.07-1.912,0.248-2.645c-0.051-0.39-0.23-1.703-0.451-3.147c-0.268-1.755-0.588-3.613-0.818-4.303L6.312,17.939z
		 M8.113,29.813c-1.181,2.106-3.827,2.181-5.62,0.841c0.306,2.452,1.084,5.087,2.666,6.926c0.689,0.8-1.902,1.901-0.578,3.697
		c1.826,2.48,11.932,2.176,14.95,1.185c3.151-1.032,3.396-4.035,0.926-4.184c-0.709-0.042-0.876-0.705-0.272-1.078
		c3.581-2.22,7.259-8.456,2.986-11.875c-2.695-2.155-15.694-3.707-14.632,2.659c0.234,1.416,1.761,2.391,3.437,2.528
		c1.682,0.138,3.455-0.427,5.102-0.737c1.832-0.344,1.804,0.531,0.587,1.139c-0.846,0.423-2.034,1.97-2.579,2.781
		c-0.432,0.646-1.402-0.001-0.97-0.649c0,0,0.409-0.614,0.979-1.305c0.115-0.143,0.24-0.292,0.375-0.441
		c-1.152,0.225-2.594,0.46-3.591,0.377C10.509,31.562,9,30.943,8.113,29.813"/>
</g>
</svg>
