<?xml version="1.0" encoding="utf-8"?>
<!-- Generator: Adobe Illustrator 12.0.0, SVG Export Plug-In . SVG Version: 6.00 Build 51448)  -->
<!DOCTYPE svg PUBLIC "-//W3C//DTD SVG 1.1//EN" "http://www.w3.org/Graphics/SVG/1.1/DTD/svg11.dtd" [
	<!ENTITY ns_svg "http://www.w3.org/2000/svg">
	<!ENTITY ns_xlink "http://www.w3.org/1999/xlink">
]>
<svg  version="1.1" id="Layer_1" xmlns="&ns_svg;" xmlns:xlink="&ns_xlink;" width="120.772" height="28.5"
	 viewBox="0 0 120.772 28.5" overflow="visible" enable-background="new 0 0 120.772 28.5" xml:space="preserve">
<rect x="0" fill="none" width="120.772" height="28.5"/>
<g>
	<path fill="#FFFFFF" d="M9.437,7.886l-0.939,1.89c-0.51-0.51-1.33-0.766-2.46-0.766c-1.071,0-1.95,0.45-2.636,1.349
		c-0.685,0.899-1.027,2.037-1.027,3.413c0,1.375,0.317,2.468,0.953,3.276c0.636,0.809,1.483,1.212,2.543,1.212
		c1.213,0,2.162-0.434,2.848-1.299l1.062,1.846c-0.932,0.99-2.297,1.484-4.096,1.484s-3.195-0.592-4.191-1.774S0,15.719,0,13.675
		C0,11.772,0.552,10.18,1.656,8.9c1.104-1.28,2.518-1.921,4.24-1.921C7.372,6.979,8.552,7.282,9.437,7.886z"/>
	<path fill="#FFFFFF" d="M16.747,19.14c-0.199,0.326-0.547,0.591-1.042,0.797c-0.496,0.206-1.014,0.309-1.554,0.309
		c-1.015,0-1.812-0.252-2.393-0.759c-0.581-0.506-0.871-1.225-0.871-2.154c0-1.089,0.409-1.939,1.226-2.556
		c0.818-0.614,1.979-0.921,3.485-0.921c0.258,0,0.562,0.042,0.914,0.125c0-1.104-0.701-1.656-2.104-1.656
		c-0.827,0-1.521,0.136-2.077,0.406l-0.476-1.703c0.757-0.364,1.656-0.547,2.7-0.547c1.436,0,2.488,0.328,3.156,0.981
		c0.669,0.653,1.003,1.893,1.003,3.717v2.015c0,1.254,0.252,2.043,0.756,2.365c-0.182,0.313-0.384,0.507-0.606,0.579
		c-0.222,0.072-0.477,0.107-0.762,0.107c-0.315,0-0.598-0.114-0.849-0.348S16.833,19.412,16.747,19.14z M16.528,15.636
		c-0.374-0.072-0.655-0.109-0.842-0.109c-1.73,0-2.596,0.568-2.596,1.704c0,0.844,0.488,1.265,1.464,1.265
		c1.316,0,1.974-0.658,1.974-1.979V15.636z"/>
	<path fill="#FFFFFF" d="M21.46,7.147l2.203-0.527v10.586c0,1.159,0.344,1.852,1.031,2.073c-0.34,0.645-0.92,0.965-1.74,0.965
		c-0.996,0-1.494-0.69-1.494-2.073V7.147z"/>
	<path fill="#FFFFFF" d="M34.803,16.025h-6.722c0.041,0.751,0.299,1.335,0.773,1.751c0.475,0.417,1.113,0.624,1.916,0.624
		c1.002,0,1.765-0.255,2.286-0.766l0.853,1.672c-0.773,0.625-1.929,0.938-3.465,0.938c-1.436,0-2.572-0.42-3.407-1.261
		s-1.253-2.015-1.253-3.521c0-1.482,0.459-2.684,1.375-3.604c0.918-0.92,2.018-1.381,3.301-1.381c1.365,0,2.462,0.407,3.288,1.221
		s1.239,1.849,1.239,3.106C34.988,15.075,34.926,15.482,34.803,16.025z M28.16,14.37h4.625c-0.152-1.364-0.914-2.047-2.286-2.047
		C29.244,12.323,28.464,13.006,28.16,14.37z"/>
	<path fill="#FFFFFF" d="M42.801,20.072v-5.438c0-0.803-0.154-1.388-0.462-1.757c-0.308-0.369-0.811-0.555-1.508-0.555
		c-0.322,0-0.666,0.092-1.033,0.273c-0.365,0.182-0.651,0.406-0.856,0.676v6.8h-2.203v-9.405h1.585l0.404,0.879
		c0.599-0.711,1.481-1.066,2.649-1.066c1.121,0,2.006,0.336,2.654,1.008c0.648,0.671,0.973,1.607,0.973,2.809v5.776L42.801,20.072
		L42.801,20.072z"/>
	<path fill="#FFFFFF" d="M53.411,20.072v-0.569c-0.182,0.198-0.488,0.373-0.922,0.521c-0.432,0.147-0.879,0.222-1.342,0.222
		c-1.311,0-2.342-0.416-3.094-1.247c-0.75-0.832-1.126-1.992-1.126-3.48c0-1.488,0.431-2.7,1.294-3.635
		c0.863-0.935,1.943-1.402,3.242-1.402c0.713,0,1.363,0.146,1.947,0.439V7.147l2.203-0.527v13.453H53.411L53.411,20.072z
		 M53.411,12.901c-0.467-0.375-0.957-0.562-1.465-0.562c-0.877,0-1.553,0.269-2.027,0.805c-0.474,0.536-0.711,1.305-0.711,2.306
		c0,1.957,0.941,2.937,2.826,2.937c0.211,0,0.469-0.062,0.775-0.188c0.309-0.126,0.508-0.253,0.602-0.382V12.901L53.411,12.901z"/>
	<path fill="#FFFFFF" d="M63.064,19.14c-0.198,0.326-0.547,0.591-1.043,0.797s-1.014,0.309-1.553,0.309
		c-1.015,0-1.812-0.252-2.392-0.759c-0.582-0.506-0.871-1.225-0.871-2.154c0-1.089,0.408-1.939,1.225-2.556
		c0.818-0.614,1.98-0.921,3.486-0.921c0.258,0,0.562,0.042,0.914,0.125c0-1.104-0.701-1.656-2.104-1.656
		c-0.828,0-1.521,0.136-2.078,0.406l-0.475-1.703c0.756-0.364,1.656-0.547,2.699-0.547c1.436,0,2.487,0.328,3.155,0.981
		c0.671,0.653,1.005,1.893,1.005,3.717v2.015c0,1.254,0.252,2.043,0.756,2.365c-0.183,0.313-0.386,0.507-0.607,0.579
		s-0.477,0.107-0.762,0.107c-0.314,0-0.599-0.114-0.849-0.348C63.32,19.665,63.15,19.412,63.064,19.14z M62.845,15.636
		c-0.375-0.072-0.656-0.109-0.842-0.109c-1.73,0-2.595,0.568-2.595,1.704c0,0.844,0.488,1.265,1.462,1.265
		c1.315,0,1.975-0.658,1.975-1.979V15.636z"/>
	<path fill="#FFFFFF" d="M72.847,12.698c-0.393-0.25-0.824-0.375-1.293-0.375c-0.508,0-0.961,0.232-1.354,0.695
		c-0.396,0.463-0.595,1.027-0.595,1.695v5.358h-2.203v-9.405h2.203v0.844c0.615-0.688,1.433-1.031,2.451-1.031
		c0.75,0,1.322,0.114,1.721,0.343L72.847,12.698z"/>
</g>
</svg>
