<?xml version="1.0" encoding="utf-8"?>
<!-- Generator: Adobe Illustrator 12.0.0, SVG Export Plug-In . SVG Version: 6.00 Build 51448)  -->
<!DOCTYPE svg PUBLIC "-//W3C//DTD SVG 1.1 Tiny//EN" "http://www.w3.org/Graphics/SVG/1.1/DTD/svg11-tiny.dtd" [
	<!ENTITY ns_svg "http://www.w3.org/2000/svg">
	<!ENTITY ns_xlink "http://www.w3.org/1999/xlink">
]>
<svg  version="1.1" baseProfile="tiny" id="Layer_1" xmlns="&ns_svg;" xmlns:xlink="&ns_xlink;" width="120.772" height="28.5"
	 viewBox="0 0 120.772 28.5" xml:space="preserve">
<rect x="0" fill="none" width="120.773" height="28.5"/>
<g>
	<path fill="#FFFFFF" d="M2.281,15.313v4.733H0V7.175C1.524,7.11,2.415,7.078,2.673,7.078c2.034,0,3.521,0.312,4.462,0.938
		c0.941,0.624,1.412,1.6,1.412,2.925c0,2.957-1.743,4.435-5.228,4.435C3.061,15.375,2.715,15.354,2.281,15.313z M2.281,9.153v4.129
		c0.387,0.041,0.691,0.062,0.915,0.062c1.043,0,1.805-0.175,2.286-0.523c0.48-0.35,0.721-0.917,0.721-1.704
		c0-1.338-1.076-2.007-3.228-2.007C2.735,9.109,2.504,9.124,2.281,9.153z"/>
	<path fill="#FFFFFF" d="M18.005,16h-6.722c0.041,0.751,0.299,1.334,0.773,1.751c0.475,0.416,1.113,0.624,1.917,0.624
		c1.002,0,1.764-0.255,2.285-0.766l0.853,1.672c-0.774,0.625-1.929,0.938-3.465,0.938c-1.436,0-2.572-0.42-3.407-1.261
		s-1.253-2.015-1.253-3.521c0-1.482,0.458-2.685,1.375-3.604s2.017-1.38,3.301-1.38c1.365,0,2.461,0.407,3.287,1.22
		c0.826,0.813,1.24,1.85,1.24,3.107C18.189,15.05,18.128,15.456,18.005,16z M11.361,14.344h4.625
		c-0.152-1.364-0.915-2.047-2.286-2.047C12.446,12.297,11.666,12.979,11.361,14.344z"/>
	<path fill="#FFFFFF" d="M19.331,15.314c0-1.436,0.415-2.605,1.244-3.508c0.83-0.902,1.924-1.354,3.284-1.354
		c1.43,0,2.541,0.434,3.332,1.301c0.791,0.867,1.187,2.055,1.187,3.561c0,1.5-0.403,2.692-1.209,3.577
		c-0.806,0.885-1.909,1.327-3.31,1.327c-1.43,0-2.542-0.446-3.337-1.34C19.728,17.985,19.331,16.797,19.331,15.314z M21.612,15.314
		c0,2.071,0.749,3.107,2.247,3.107c0.687,0,1.232-0.269,1.634-0.808c0.402-0.538,0.604-1.305,0.604-2.3
		c0-2.043-0.746-3.064-2.238-3.064c-0.688,0-1.233,0.27-1.639,0.808C21.815,13.597,21.612,14.349,21.612,15.314z"/>
	<path fill="#FFFFFF" d="M32.158,19.806v3.929h-2.203V10.641h2.203v0.633c0.551-0.547,1.228-0.82,2.03-0.82
		c3,0,4.501,1.652,4.501,4.958c0,1.541-0.415,2.728-1.244,3.56s-1.962,1.248-3.397,1.248C33.356,20.219,32.726,20.081,32.158,19.806
		z M32.158,12.928v4.948c0.399,0.322,0.865,0.483,1.399,0.483c1.015,0,1.744-0.241,2.187-0.725s0.665-1.247,0.665-2.29
		c0-1.113-0.22-1.896-0.66-2.351s-1.167-0.682-2.182-0.682C33.038,12.312,32.569,12.518,32.158,12.928z"/>
	<path fill="#FFFFFF" d="M40.987,7.121l2.203-0.527v10.585c0,1.161,0.344,1.853,1.031,2.075c-0.34,0.644-0.92,0.965-1.74,0.965
		c-0.996,0-1.494-0.691-1.494-2.074V7.121z"/>
	<path fill="#FFFFFF" d="M54.33,16h-6.722c0.041,0.751,0.299,1.334,0.773,1.751c0.475,0.416,1.113,0.624,1.917,0.624
		c1.002,0,1.764-0.255,2.285-0.766l0.853,1.672c-0.774,0.625-1.929,0.938-3.465,0.938c-1.436,0-2.572-0.42-3.407-1.261
		s-1.253-2.015-1.253-3.521c0-1.482,0.458-2.685,1.375-3.604s2.017-1.38,3.301-1.38c1.365,0,2.461,0.407,3.287,1.22
		c0.826,0.813,1.24,1.85,1.24,3.107C54.514,15.05,54.453,15.456,54.33,16z M47.686,14.344h4.625
		c-0.152-1.364-0.915-2.047-2.286-2.047C48.771,12.297,47.991,12.979,47.686,14.344z"/>
	<path fill="#FFFFFF" d="M70.266,20.219l-6.25-8.141v7.984h-2.203V7.172h1.094L69,14.938V7.172h2.203v13.047H70.266z"/>
	<path fill="#FFFFFF" d="M82.112,16H75.39c0.041,0.751,0.299,1.334,0.773,1.751c0.475,0.416,1.113,0.624,1.916,0.624
		c1.002,0,1.764-0.255,2.285-0.766l0.854,1.672c-0.774,0.625-1.929,0.938-3.465,0.938c-1.437,0-2.572-0.42-3.407-1.261
		c-0.836-0.841-1.253-2.015-1.253-3.521c0-1.482,0.458-2.685,1.375-3.604s2.018-1.38,3.301-1.38c1.365,0,2.461,0.407,3.287,1.22
		c0.826,0.813,1.24,1.85,1.24,3.107C82.296,15.05,82.235,15.456,82.112,16z M75.468,14.344h4.625
		c-0.152-1.364-0.915-2.047-2.286-2.047C76.552,12.297,75.773,12.979,75.468,14.344z"/>
	<path fill="#FFFFFF" d="M89.297,19.113c-0.2,0.325-0.547,0.591-1.043,0.797c-0.495,0.206-1.014,0.309-1.553,0.309
		c-1.015,0-1.812-0.253-2.394-0.759c-0.58-0.507-0.87-1.225-0.87-2.155c0-1.089,0.408-1.94,1.226-2.555s1.979-0.922,3.485-0.922
		c0.258,0,0.562,0.042,0.914,0.125c0-1.104-0.702-1.656-2.104-1.656c-0.827,0-1.52,0.136-2.077,0.406L84.406,11
		c0.756-0.364,1.656-0.547,2.699-0.547c1.437,0,2.488,0.327,3.157,0.981c0.668,0.653,1.003,1.893,1.003,3.716v2.015
		c0,1.255,0.252,2.044,0.756,2.366c-0.182,0.313-0.384,0.507-0.606,0.579s-0.477,0.108-0.763,0.108
		c-0.314,0-0.598-0.116-0.849-0.348C89.553,19.639,89.384,19.387,89.297,19.113z M89.078,15.609
		c-0.375-0.072-0.655-0.109-0.842-0.109c-1.73,0-2.596,0.568-2.596,1.704c0,0.843,0.487,1.265,1.464,1.265
		c1.315,0,1.974-0.659,1.974-1.979V15.609z"/>
	<path fill="#FFFFFF" d="M99.079,12.672c-0.393-0.25-0.822-0.375-1.291-0.375c-0.509,0-0.962,0.231-1.356,0.694
		c-0.396,0.463-0.593,1.028-0.593,1.696v5.359h-2.203v-9.406h2.203v0.844c0.614-0.688,1.431-1.031,2.45-1.031
		c0.749,0,1.323,0.114,1.722,0.342L99.079,12.672z"/>
	<path fill="#FFFFFF" d="M102.887,19.524l-0.492,0.694h-1.24V7.121l2.203-0.527v4.396c0.586-0.357,1.225-0.536,1.917-0.536
		c1.377,0,2.487,0.436,3.332,1.306c0.844,0.87,1.267,1.985,1.267,3.345c0,1.576-0.426,2.823-1.276,3.74s-2.003,1.375-3.457,1.375
		C104.266,20.219,103.515,19.987,102.887,19.524z M103.358,12.867v4.92c0.322,0.382,0.76,0.572,1.312,0.572
		c1.062,0,1.814-0.252,2.258-0.757s0.665-1.312,0.665-2.421c0-1.912-0.916-2.869-2.747-2.869
		C104.194,12.312,103.698,12.497,103.358,12.867z"/>
	<path fill="#FFFFFF" d="M115.919,21.557c-0.235,0.626-0.737,1.146-1.509,1.559c-0.771,0.413-1.669,0.619-2.694,0.619v-1.938
		c1.697,0,2.547-0.425,2.547-1.273c0-0.562-0.235-1.423-0.705-2.583l-2.951-7.3h2.281l2.586,6.501l2.336-6.501h2.281L115.919,21.557
		z"/>
</g>
</svg>
