<?xml version="1.0" encoding="utf-8"?>
<!-- Generator: Adobe Illustrator 12.0.0, SVG Export Plug-In . SVG Version: 6.00 Build 51448)  -->
<!DOCTYPE svg PUBLIC "-//W3C//DTD SVG 1.1 Tiny//EN" "http://www.w3.org/Graphics/SVG/1.1/DTD/svg11-tiny.dtd" [
	<!ENTITY ns_svg "http://www.w3.org/2000/svg">
	<!ENTITY ns_xlink "http://www.w3.org/1999/xlink">
]>
<svg  version="1.1" baseProfile="tiny" id="Layer_1" xmlns="&ns_svg;" xmlns:xlink="&ns_xlink;" width="102.824" height="120.918"
	 viewBox="0 0 102.824 120.918" xml:space="preserve">
<g>
	<g>
		<path fill-rule="evenodd" fill="#F2F2F2" d="M-0.082,50.345c0,25.92,19.241,41.395,51.471,41.395
			c32.228,0,51.468-15.475,51.468-41.395c0-25.923-19.24-41.397-51.468-41.397C19.159,8.948-0.082,24.422-0.082,50.345z"/>
	</g>
</g>
<g>
	<g>
		<path fill-rule="evenodd" fill="#E0E0E0" d="M-0.082,48.464c0,25.921,19.241,41.396,51.471,41.396
			c32.228,0,51.468-15.475,51.468-41.396c0-25.921-19.24-41.396-51.468-41.396C19.159,7.068-0.082,22.542-0.082,48.464z"/>
	</g>
</g>
<g>
	<g>
		<path fill-rule="evenodd" fill="#FFFFFF" d="M0.717,48.464c0,25.421,18.943,40.597,50.672,40.597
			c31.728,0,50.668-15.176,50.668-40.597c0-25.42-18.94-40.597-50.668-40.597C19.66,7.867,0.717,23.043,0.717,48.464z"/>
	</g>
	<g>
		<path fill-rule="evenodd" fill="#96C63F" d="M4.812,48.464c0-25.724,20.853-36.502,46.576-36.502
			c25.721,0,46.574,10.779,46.574,36.502S77.11,84.967,51.389,84.967C25.666,84.967,4.812,74.188,4.812,48.464z"/>
		<path fill-rule="evenodd" fill="#FFFFFF" d="M24.901,31.561c-0.937,0-1.724,0.786-1.724,1.722c0,0.968,0.787,1.722,1.724,1.722
			s1.723-0.754,1.723-1.722C26.624,32.347,25.838,31.561,24.901,31.561z"/>
		<path fill-rule="evenodd" fill="#FFFFFF" d="M44.124,38.633h-2.417v2.025h-0.061c-1.179-1.511-2.933-2.418-4.867-2.418
			c-4.262,0-6.833,3.476-6.833,7.528c0,3.929,2.631,7.466,6.802,7.466c1.996,0,3.658-0.787,4.897-2.358h0.061v1.966h2.417V38.633z
			 M37.05,40.479c2.995,0,4.777,2.297,4.777,5.14c0,2.871-1.632,5.38-4.746,5.38c-3.023,0-4.655-2.63-4.655-5.411
			C32.426,42.927,34.24,40.479,37.05,40.479z"/>
		<rect x="49.048" y="38.633" fill-rule="evenodd" fill="#FFFFFF" width="2.42" height="14.209"/>
		<polygon fill-rule="evenodd" fill="#FFFFFF" points="58.811,38.633 56.392,38.633 56.392,61.011 58.811,61.011 58.811,55.176 
			59.445,54.541 65.159,61.011 68.363,61.011 61.139,52.848 67.216,46.802 63.978,46.802 58.811,52.061 		"/>
		<path fill-rule="evenodd" fill="#FFFFFF" d="M72.956,46.802H70.54v8.192c0,3.778,1.418,6.409,5.623,6.409
			c4.199,0,5.622-2.631,5.622-6.409v-8.192h-2.419v7.92c0,2.389-0.271,4.444-3.203,4.444c-2.934,0-3.207-2.056-3.207-4.444V46.802z"
			/>
		<path fill="#FFFFFF" d="M26.11,38.633V54.99c0,3.779-1.425,6.413-5.627,6.413v-2.248c2.931,0,3.209-2.048,3.209-4.436V38.633
			H26.11z"/>
		<path fill-rule="evenodd" fill="#FFFFFF" d="M80.285,40.213v-0.452h0.389c0.173,0,0.402,0,0.402,0.182
			c0,0.227-0.113,0.27-0.312,0.27H80.285z M80.962,40.485c0.318-0.023,0.489-0.158,0.489-0.489c0-0.474-0.285-0.547-0.696-0.547
			h-0.871v1.792h0.4v-0.755h0.279l0.398,0.755h0.436L80.962,40.485z M80.572,41.68c-0.753,0-1.314-0.547-1.314-1.313
			c0-0.776,0.562-1.324,1.314-1.324c0.739,0,1.315,0.548,1.315,1.324C81.887,41.132,81.311,41.68,80.572,41.68z M80.572,42.089
			c0.957,0,1.724-0.771,1.724-1.723c0-0.962-0.767-1.733-1.724-1.733c-0.961,0-1.723,0.771-1.723,1.733
			C78.849,41.318,79.611,42.089,80.572,42.089z"/>
	</g>
</g>
<g>
	<path fill="#FFFFFF" d="M56.517,64.43h1.771c0.483,0,0.824,0.045,1.02,0.133c0.197,0.087,0.362,0.244,0.498,0.465
		c0.135,0.224,0.202,0.475,0.202,0.756c0,0.26-0.06,0.493-0.176,0.703c-0.115,0.209-0.265,0.364-0.452,0.463
		c0.264,0.096,0.47,0.255,0.616,0.479c0.149,0.227,0.223,0.5,0.223,0.822c0,0.395-0.095,0.727-0.282,0.996
		c-0.19,0.271-0.411,0.439-0.67,0.502c-0.18,0.045-0.593,0.066-1.245,0.066h-1.504V64.43L56.517,64.43z M57.407,65.326v1.24h0.589
		c0.354,0,0.568-0.006,0.653-0.018c0.151-0.024,0.27-0.089,0.355-0.194c0.085-0.104,0.129-0.242,0.129-0.422
		c0-0.157-0.034-0.288-0.104-0.387c-0.069-0.097-0.154-0.16-0.255-0.186c-0.1-0.024-0.382-0.038-0.853-0.038h-0.515V65.326z
		 M57.407,67.465v1.439h0.829c0.365,0,0.598-0.021,0.702-0.059c0.103-0.039,0.188-0.111,0.258-0.223
		c0.07-0.113,0.104-0.254,0.104-0.424c0-0.178-0.035-0.322-0.111-0.436c-0.075-0.115-0.175-0.193-0.299-0.234
		c-0.123-0.045-0.377-0.064-0.761-0.064H57.407z"/>
	<path fill="#FFFFFF" d="M61.728,69.814V64.43h3.274v0.912h-2.385v1.189h2.216v0.912h-2.216v1.461h2.467v0.91H61.728L61.728,69.814z
		"/>
	<path fill="#FFFFFF" d="M67.585,69.814v-4.473h-1.313V64.43h3.509v0.912h-1.307v4.473H67.585z"/>
	<path fill="#FFFFFF" d="M74.645,69.814h-0.966l-0.389-1.219h-1.771l-0.365,1.219h-0.946l1.721-5.385h0.945L74.645,69.814z
		 M73.005,67.684l-0.613-1.997l-0.6,1.997H73.005z"/>
</g>
</svg>
