<?xml version="1.0" encoding="utf-8"?>
<!-- Generator: Adobe Illustrator 12.0.1, SVG Export Plug-In . SVG Version: 6.00 Build 51448)  -->
<!DOCTYPE svg PUBLIC "-//W3C//DTD SVG 1.1 Tiny//EN" "http://www.w3.org/Graphics/SVG/1.1/DTD/svg11-tiny.dtd" [
	<!ENTITY ns_svg "http://www.w3.org/2000/svg">
	<!ENTITY ns_xlink "http://www.w3.org/1999/xlink">
]>
<svg  version="1.1" baseProfile="tiny" id="Layer_1" xmlns="&ns_svg;" xmlns:xlink="&ns_xlink;" width="120.771" height="28.5"
	 viewBox="0 0 120.771 28.5" xml:space="preserve">
<rect x="0" fill="none" width="120.771" height="28.5"/>
<g>
	<path fill="#FFFFFF" d="M3.849,21.008h-3.935V8.146C1.648,8.064,2.863,8.023,3.56,8.023c1.335,0,2.379,0.285,3.131,0.855
		s1.129,1.385,1.129,2.443c0,1.018-0.542,1.821-1.625,2.412c1.604,0.557,2.406,1.707,2.406,3.448c0,1.173-0.442,2.104-1.327,2.793
		C6.391,20.663,5.249,21.008,3.849,21.008z M2.196,9.973v3.077c0.352,0.023,0.721,0.035,1.109,0.035c1.49,0,2.235-0.558,2.235-1.675
		c0-0.987-0.678-1.481-2.033-1.481C3.149,9.929,2.712,9.944,2.196,9.973z M2.196,14.831v4.256c0.462,0.041,0.837,0.062,1.125,0.062
		c1.019,0,1.758-0.173,2.217-0.519s0.689-0.92,0.689-1.724c0-0.732-0.214-1.267-0.641-1.601c-0.428-0.334-1.174-0.501-2.239-0.501
		C3.124,14.805,2.74,14.813,2.196,14.831z"/>
	<path fill="#FFFFFF" d="M15.753,20.074c-0.2,0.325-0.547,0.591-1.042,0.797s-1.014,0.309-1.553,0.309
		c-1.015,0-1.812-0.253-2.394-0.759c-0.58-0.507-0.871-1.225-0.871-2.155c0-1.089,0.409-1.94,1.226-2.555s1.979-0.922,3.485-0.922
		c0.258,0,0.562,0.042,0.914,0.125c0-1.104-0.702-1.657-2.104-1.657c-0.827,0-1.52,0.136-2.077,0.406l-0.475-1.703
		c0.756-0.364,1.656-0.547,2.7-0.547c1.437,0,2.488,0.327,3.157,0.981c0.668,0.654,1.002,1.893,1.002,3.717v2.015
		c0,1.255,0.252,2.044,0.756,2.366c-0.182,0.313-0.384,0.507-0.606,0.579c-0.223,0.072-0.477,0.108-0.763,0.108
		c-0.314,0-0.598-0.116-0.849-0.349C16.01,20.6,15.841,20.347,15.753,20.074z M15.534,16.57c-0.375-0.073-0.655-0.109-0.842-0.109
		c-1.73,0-2.596,0.568-2.596,1.704c0,0.843,0.488,1.265,1.464,1.265c1.315,0,1.973-0.659,1.973-1.979V16.57z"/>
	<path fill="#FFFFFF" d="M20.42,13.367h-1.094v-1.766h1.094V9.689l2.203-0.807v2.719h2.578v1.766h-2.578v4.113
		c0,0.672,0.105,1.146,0.315,1.424c0.21,0.278,0.578,0.417,1.104,0.417c0.525,0,1.016-0.146,1.472-0.438v2.032
		c-0.509,0.176-1.236,0.265-2.178,0.265c-0.937,0-1.657-0.265-2.16-0.794c-0.504-0.53-0.755-1.283-0.755-2.261V13.367z"/>
	<path fill="#FFFFFF" d="M27.557,13.367h-1.094v-1.766h1.094V9.689l2.203-0.807v2.719h2.578v1.766H29.76v4.113
		c0,0.672,0.105,1.146,0.315,1.424c0.21,0.278,0.578,0.417,1.104,0.417c0.525,0,1.016-0.146,1.472-0.438v2.032
		c-0.509,0.176-1.236,0.265-2.178,0.265c-0.937,0-1.657-0.265-2.16-0.794c-0.504-0.53-0.755-1.283-0.755-2.261V13.367z"/>
	<path fill="#FFFFFF" d="M42.775,16.961h-6.722c0.041,0.751,0.299,1.334,0.773,1.751c0.475,0.416,1.114,0.624,1.917,0.624
		c1.002,0,1.764-0.255,2.285-0.766l0.853,1.672c-0.774,0.625-1.929,0.938-3.464,0.938c-1.437,0-2.572-0.421-3.408-1.261
		c-0.835-0.842-1.253-2.015-1.253-3.521c0-1.482,0.458-2.684,1.375-3.604s2.018-1.38,3.301-1.38c1.365,0,2.461,0.407,3.287,1.22
		c0.826,0.813,1.24,1.85,1.24,3.108C42.959,16.011,42.898,16.417,42.775,16.961z M36.131,15.305h4.625
		c-0.152-1.365-0.915-2.047-2.286-2.047C37.216,13.257,36.436,13.94,36.131,15.305z"/>
	<path fill="#FFFFFF" d="M50.154,13.632c-0.393-0.25-0.823-0.375-1.291-0.375c-0.509,0-0.962,0.231-1.357,0.694
		s-0.593,1.029-0.593,1.696v5.36H44.71v-9.407h2.203v0.844c0.615-0.688,1.431-1.031,2.451-1.031c0.749,0,1.323,0.114,1.721,0.342
		L50.154,13.632z"/>
	<path fill="#FFFFFF" d="M56.526,22.518c-0.235,0.626-0.737,1.146-1.508,1.559c-0.771,0.413-1.669,0.619-2.695,0.619v-1.938
		c1.698,0,2.547-0.425,2.547-1.273c0-0.562-0.235-1.423-0.705-2.583l-2.952-7.3h2.281l2.586,6.501l2.336-6.501h2.281L56.526,22.518z
		"/>
	<path fill="#FFFFFF" d="M73.493,21.023v-0.791c-0.311,0.264-0.738,0.487-1.283,0.671c-0.545,0.185-1.045,0.276-1.502,0.276
		c-2.186,0-3.277-1.159-3.277-3.477v-6.102h2.203v5.928c0,1.204,0.541,1.807,1.623,1.807c0.496,0,0.959-0.128,1.386-0.386
		s0.71-0.556,0.851-0.895v-6.455h2.203v9.422H73.493z"/>
	<path fill="#FFFFFF" d="M77.488,20.397l0.783-1.749c0.658,0.521,1.4,0.781,2.229,0.781c0.856,0,1.285-0.305,1.285-0.914
		c0-0.357-0.129-0.65-0.387-0.879c-0.259-0.229-0.76-0.497-1.505-0.808c-1.624-0.674-2.437-1.617-2.437-2.832
		c0-0.814,0.311-1.448,0.933-1.902c0.621-0.454,1.416-0.682,2.384-0.682c0.979,0,1.899,0.219,2.762,0.658L82.9,13.773
		c-0.481-0.406-1.15-0.609-2.008-0.609c-0.77,0-1.154,0.305-1.154,0.914c0,0.24,0.126,0.457,0.378,0.65
		c0.253,0.194,0.792,0.453,1.619,0.778s1.422,0.72,1.786,1.183c0.363,0.463,0.545,1.022,0.545,1.679c0,0.873-0.324,1.56-0.972,2.062
		c-0.648,0.5-1.529,0.751-2.643,0.751c-0.628,0-1.13-0.052-1.509-0.153C78.565,20.923,78.079,20.714,77.488,20.397z"/>
	<path fill="#FFFFFF" d="M91.068,20.074c-0.199,0.325-0.547,0.591-1.043,0.797c-0.495,0.206-1.013,0.309-1.553,0.309
		c-1.015,0-1.812-0.253-2.393-0.759c-0.581-0.507-0.871-1.225-0.871-2.155c0-1.089,0.408-1.94,1.227-2.555
		c0.816-0.614,1.979-0.922,3.484-0.922c0.258,0,0.562,0.042,0.914,0.125c0-1.104-0.701-1.657-2.104-1.657
		c-0.828,0-1.52,0.136-2.077,0.406l-0.476-1.703c0.756-0.364,1.656-0.547,2.699-0.547c1.437,0,2.489,0.327,3.157,0.981
		c0.669,0.654,1.003,1.893,1.003,3.717v2.015c0,1.255,0.252,2.044,0.756,2.366c-0.182,0.313-0.384,0.507-0.606,0.579
		c-0.222,0.072-0.477,0.108-0.762,0.108c-0.315,0-0.599-0.116-0.849-0.349C91.324,20.6,91.156,20.347,91.068,20.074z M90.849,16.57
		c-0.374-0.073-0.654-0.109-0.842-0.109c-1.73,0-2.596,0.568-2.596,1.704c0,0.843,0.488,1.265,1.465,1.265
		c1.314,0,1.973-0.659,1.973-1.979V16.57z"/>
	<path fill="#FFFFFF" d="M94.702,23.416l1.387-1.721c0.766,0.708,1.62,1.062,2.562,1.062c0.631,0,1.152-0.093,1.562-0.279
		c0.409-0.186,0.614-0.441,0.614-0.768c0-0.552-0.453-0.828-1.359-0.828c-0.245,0-0.61,0.028-1.096,0.086
		c-0.484,0.058-0.85,0.086-1.096,0.086c-1.508,0-2.262-0.543-2.262-1.628c0-0.312,0.125-0.616,0.375-0.916
		c0.251-0.299,0.542-0.52,0.873-0.66c-1.071-0.697-1.607-1.685-1.607-2.962c0-1.008,0.369-1.842,1.107-2.501
		c0.737-0.659,1.646-0.989,2.723-0.989c0.844,0,1.549,0.158,2.117,0.475l0.861-1.006l1.52,1.384l-1.045,0.767
		c0.363,0.551,0.545,1.202,0.545,1.954c0,1.073-0.326,1.932-0.979,2.573c-0.653,0.643-1.478,0.964-2.474,0.964
		c-0.158,0-0.369-0.016-0.633-0.047l-0.359-0.056c-0.041,0-0.196,0.062-0.465,0.188s-0.402,0.257-0.402,0.392
		c0,0.233,0.201,0.351,0.605,0.351c0.181,0,0.484-0.042,0.911-0.125s0.792-0.125,1.096-0.125c2.134,0,3.2,0.856,3.2,2.568
		c0,0.946-0.428,1.689-1.282,2.23c-0.854,0.54-1.885,0.811-3.091,0.811C97.17,24.695,95.867,24.269,94.702,23.416z M96.89,14.894
		c0,0.558,0.153,1.005,0.461,1.343c0.308,0.337,0.722,0.506,1.242,0.506c0.521,0,0.922-0.164,1.203-0.493
		c0.281-0.328,0.422-0.78,0.422-1.355c0-0.475-0.15-0.877-0.452-1.206c-0.302-0.329-0.692-0.493-1.173-0.493
		c-0.503,0-0.913,0.158-1.229,0.476C97.048,13.987,96.89,14.395,96.89,14.894z"/>
	<path fill="#FFFFFF" d="M112.85,16.961h-6.722c0.041,0.751,0.299,1.334,0.773,1.751c0.475,0.416,1.113,0.624,1.916,0.624
		c1.002,0,1.765-0.255,2.286-0.766l0.853,1.672c-0.773,0.625-1.929,0.938-3.465,0.938c-1.436,0-2.572-0.421-3.407-1.261
		c-0.835-0.842-1.253-2.015-1.253-3.521c0-1.482,0.459-2.684,1.375-3.604c0.918-0.92,2.018-1.38,3.301-1.38
		c1.365,0,2.462,0.407,3.288,1.22c0.826,0.813,1.239,1.85,1.239,3.108C113.034,16.011,112.973,16.417,112.85,16.961z
		 M106.206,15.305h4.625c-0.152-1.365-0.914-2.047-2.286-2.047C107.29,13.257,106.511,13.94,106.206,15.305z"/>
</g>
</svg>
