<?xml version="1.0" encoding="utf-8"?>
<!-- Generator: Adobe Illustrator 12.0.0, SVG Export Plug-In . SVG Version: 6.00 Build 51448)  -->
<!DOCTYPE svg PUBLIC "-//W3C//DTD SVG 1.1//EN" "http://www.w3.org/Graphics/SVG/1.1/DTD/svg11.dtd" [
	<!ENTITY ns_svg "http://www.w3.org/2000/svg">
	<!ENTITY ns_xlink "http://www.w3.org/1999/xlink">
]>
<svg  version="1.1" id="Layer_1" xmlns="&ns_svg;" xmlns:xlink="&ns_xlink;" width="120.772" height="28.5"
	 viewBox="0 0 120.772 28.5" overflow="visible" enable-background="new 0 0 120.772 28.5" xml:space="preserve">
<rect x="0" fill="none" width="120.772" height="28.5"/>
<g>
	<path fill="#FFFFFF" d="M0,20.952V8.077h2.281v10.845h5.812v2.03H0z"/>
	<path fill="#FFFFFF" d="M9.215,16.22c0-1.437,0.414-2.604,1.244-3.507c0.829-0.902,1.924-1.354,3.283-1.354
		c1.431,0,2.541,0.435,3.332,1.302c0.792,0.867,1.188,2.054,1.188,3.56c0,1.5-0.403,2.691-1.209,3.577
		c-0.806,0.885-1.909,1.328-3.311,1.328c-1.43,0-2.542-0.447-3.336-1.342C9.611,18.891,9.215,17.701,9.215,16.22z M11.496,16.22
		c0,2.072,0.749,3.107,2.246,3.107c0.688,0,1.232-0.27,1.635-0.809c0.402-0.538,0.604-1.305,0.604-2.3
		c0-2.042-0.746-3.063-2.238-3.063c-0.687,0-1.232,0.269-1.639,0.808C11.699,14.502,11.496,15.254,11.496,16.22z"/>
	<path fill="#FFFFFF" d="M19.307,23.36l1.387-1.721c0.766,0.708,1.62,1.062,2.562,1.062c0.633,0,1.152-0.094,1.562-0.278
		c0.409-0.188,0.614-0.442,0.614-0.769c0-0.553-0.453-0.828-1.358-0.828c-0.246,0-0.611,0.028-1.097,0.086
		C22.492,20.971,22.127,21,21.882,21c-1.508,0-2.262-0.543-2.262-1.63c0-0.311,0.125-0.615,0.376-0.914
		c0.25-0.301,0.541-0.521,0.873-0.66c-1.072-0.697-1.608-1.686-1.608-2.963c0-1.008,0.369-1.841,1.106-2.501
		c0.738-0.659,1.646-0.989,2.724-0.989c0.844,0,1.549,0.159,2.117,0.476l0.861-1.007l1.52,1.384l-1.045,0.767
		c0.363,0.552,0.545,1.203,0.545,1.954c0,1.072-0.327,1.931-0.979,2.572c-0.653,0.644-1.478,0.964-2.474,0.964
		c-0.158,0-0.368-0.016-0.632-0.047l-0.36-0.057c-0.041,0-0.196,0.062-0.465,0.188c-0.269,0.127-0.402,0.257-0.402,0.392
		c0,0.233,0.202,0.352,0.604,0.352c0.182,0,0.485-0.042,0.912-0.125c0.427-0.084,0.792-0.125,1.096-0.125
		c2.134,0,3.2,0.855,3.2,2.567c0,0.946-0.428,1.689-1.282,2.229c-0.854,0.541-1.885,0.812-3.091,0.812
		C21.775,24.641,20.472,24.214,19.307,23.36z M21.495,14.839c0,0.558,0.153,1.005,0.461,1.342c0.308,0.338,0.722,0.507,1.243,0.507
		s0.922-0.165,1.202-0.493c0.281-0.329,0.422-0.779,0.422-1.354c0-0.476-0.151-0.877-0.452-1.206
		c-0.302-0.328-0.692-0.492-1.172-0.492c-0.504,0-0.914,0.158-1.23,0.475C21.653,13.933,21.495,14.34,21.495,14.839z"/>
	<path fill="#FFFFFF" d="M29.639,20.952v-7.608h-1.203v-1.798h3.422v9.406H29.639z M30.772,7.905c0.351,0,0.651,0.125,0.9,0.374
		s0.373,0.549,0.373,0.899c0,0.352-0.124,0.652-0.373,0.9c-0.249,0.249-0.55,0.373-0.9,0.373c-0.352,0-0.651-0.124-0.9-0.373
		c-0.249-0.248-0.373-0.549-0.373-0.9s0.124-0.65,0.373-0.899S30.421,7.905,30.772,7.905z"/>
	<path fill="#FFFFFF" d="M40.478,20.952v-5.438c0-0.803-0.154-1.389-0.462-1.758s-0.81-0.553-1.507-0.553
		c-0.323,0-0.668,0.09-1.033,0.271c-0.367,0.182-0.652,0.407-0.857,0.677v6.801h-2.203v-9.406H36l0.405,0.88
		c0.599-0.712,1.481-1.067,2.649-1.067c1.121,0,2.006,0.336,2.654,1.007c0.648,0.672,0.973,1.608,0.973,2.811v5.776L40.478,20.952
		L40.478,20.952z"/>
</g>
</svg>
