<?xml version="1.0" encoding="UTF-8"?>
<!DOCTYPE svg PUBLIC "-//W3C//DTD SVG 1.1 Tiny//EN" "http://www.w3.org/Graphics/SVG/1.1/DTD/svg11-tiny.dtd">
<svg baseProfile="tiny" version="1.1" xmlns="http://www.w3.org/2000/svg" xmlns:xlink="http://www.w3.org/1999/xlink" width="100%" height="100%" viewBox="0 0 88 88">
<g>
<g>
<path fill="#FFFFFF" stroke="#B8B8B8" stroke-width="0.8694" stroke-miterlimit="3.8637" d="M82.723,42.542    c0,24.62-22.227,39.465-44.188,39.465l-3.541-6.155c-14.989,0-29.896-16.009-29.896-32.483c0-18.039,15.806-36.626,40.261-36.626    C70.361,6.74,82.723,26.93,82.723,42.542z"/>
<path fill="#FF9900" stroke="#B8B8B8" stroke-width="0.8694" stroke-miterlimit="3.8637" d="M78.266,42.855    c0,21.984-20.94,33.896-36.329,34.365l-3.533-5.311c-16.037,0-29.108-13.604-29.108-28.319c0-16.109,14.111-32.361,35.951-32.361    C65.545,11.229,78.266,28.914,78.266,42.855z"/>
<path fill="url(#XMLID_10_)" d="M70.352,39.84c5.174-3.711-5.34-23.993-25.912-24.352c-22.516-0.394-32.417,21.639-27.494,25.413    C29.903,50.835,54.313,51.345,70.352,39.84z"/>
<path fill="none" d="M70.352,39.84c5.174-3.711-5.34-23.993-25.912-24.352c-22.516-0.394-32.417,21.639-27.494,25.413    C29.903,50.835,54.313,51.345,70.352,39.84z"/>
<path fill="#FFFFFF" stroke="#B8B8B8" stroke-width="0.8694" stroke-miterlimit="3.8637" d="M38.934,33.289l14.871,16.516    l0.254-0.084c3.909-1.223,7.629,0.795,8.309,4.506c0.188,1.037,0.119,2.099-0.161,3.112l-0.737,0.486l-4.23-4.433l-3.729,1.166    L52.2,58.212l4.192,4.392l-0.556,0.734c-3.653,0.805-6.994-1.188-7.633-4.686c-0.274-1.519-0.003-3.079,0.685-4.481l-14.814-16.45    l-0.359,0.121c-3.91,1.223-7.629-0.795-8.307-4.506c-0.188-1.036-0.121-2.096,0.16-3.112l0.854-0.358l4.118,4.304l3.728-1.166    l1.308-3.654l-4.078-4.264l0.438-0.863c3.654-0.804,6.993,1.188,7.632,4.688C39.838,30.388,39.584,31.912,38.934,33.289z"/>
<defs>
<linearGradient id="XMLID_10_" gradientUnits="userSpaceOnUse" x1="18.4839" y1="-740.9307" x2="18.4839" y2="-708.002" gradientTransform="matrix(1 0 0 -1 25.1997 -692.5195)">
<stop offset="0" style="stop-color:#FF9900"/>
<stop offset="1" style="stop-color:#FFE4BC"/>
</linearGradient>
</defs>
</g>
<g>
<g>
<rect fill="none" width="88" height="88"/>
</g>
</g>
</g>
</svg>
