<?xml version="1.0" encoding="utf-8"?>
<!-- Generator: Adobe Illustrator 12.0.1, SVG Export Plug-In . SVG Version: 6.00 Build 51448)  -->
<!DOCTYPE svg PUBLIC "-//W3C//DTD SVG 1.1 Tiny//EN" "http://www.w3.org/Graphics/SVG/1.1/DTD/svg11-tiny.dtd" [
	<!ENTITY ns_svg "http://www.w3.org/2000/svg">
	<!ENTITY ns_xlink "http://www.w3.org/1999/xlink">
]>
<svg  version="1.1" baseProfile="tiny" id="Layer_1" xmlns="&ns_svg;" xmlns:xlink="&ns_xlink;" width="42" height="42"
	 viewBox="0 0 42 42" xml:space="preserve">
<g>
	<path fill="#3C281F" d="M6.426,6.189c-0.793,0-1.436,0.643-1.436,1.436v27.499c0,0.793,0.643,1.437,1.436,1.437h29.148
		c0.793,0,1.437-0.644,1.437-1.437V7.625c0-0.793-0.644-1.436-1.437-1.436H6.426z"/>
	<path fill="#3C281F" d="M35.574,4.752H6.426c-1.586,0-2.873,1.287-2.873,2.873v27.5c0,1.586,1.287,2.873,2.873,2.873h29.148
		c1.586,0,2.873-1.287,2.873-2.873v-27.5C38.447,6.039,37.16,4.752,35.574,4.752L35.574,4.752z M6.426,7.625h29.148v27.5l0,0l0,0
		H6.426V7.625L6.426,7.625L6.426,7.625z"/>
</g>
<line fill="#B8AEB3" stroke="#B8AEB3" stroke-width="0.3993" x1="8.371" y1="23.141" x2="13.385" y2="21.459"/>
<line fill="#B8AEB3" stroke="#B8AEB3" stroke-width="0.3993" x1="13.385" y1="21.459" x2="18.25" y2="21.775"/>
<line fill="#B8AEB3" stroke="#B8AEB3" stroke-width="0.3993" x1="18.25" y1="21.775" x2="28.555" y2="22.771"/>
<line fill="#B8AEB3" stroke="#B8AEB3" stroke-width="0.3993" x1="18.25" y1="21.775" x2="13.164" y2="28.143"/>
<line fill="#B8AEB3" stroke="#B8AEB3" stroke-width="0.3993" x1="18.25" y1="21.775" x2="23.332" y2="15.857"/>
<line fill="#B8AEB3" stroke="#B8AEB3" stroke-width="0.3993" x1="23.332" y1="15.857" x2="29.375" y2="16.926"/>
<line fill="#B8AEB3" stroke="#B8AEB3" stroke-width="0.3993" x1="29.375" y1="16.926" x2="33.63" y2="21.071"/>
<rect x="12.366" y="27.344" fill="#FFFFFF" width="1.597" height="1.598"/>
<rect x="17.451" y="20.977" fill="#FFFFFF" width="1.597" height="1.598"/>
<rect x="12.586" y="20.661" fill="#FFFFFF" width="1.597" height="1.597"/>
<rect x="7.572" y="22.342" fill="#FFFFFF" width="1.597" height="1.597"/>
<rect x="22.533" y="15.058" fill="#FFFFFF" width="1.598" height="1.597"/>
<rect x="28.576" y="16.127" fill="#FFFFFF" width="1.598" height="1.597"/>
<rect x="32.83" y="20.272" fill="#FFFFFF" width="1.598" height="1.597"/>
<rect x="27.757" y="21.972" fill="#FFFFFF" width="1.597" height="1.598"/>
</svg>
