<?xml version="1.0" encoding="UTF-8"?>
<!DOCTYPE svg PUBLIC "-//W3C//DTD SVG 1.1 Tiny//EN" "http://www.w3.org/Graphics/SVG/1.1/DTD/svg11-tiny.dtd">
<svg baseProfile="tiny" xmlns="http://www.w3.org/2000/svg" xmlns:xlink="http://www.w3.org/1999/xlink" width="100%" height="100%" viewBox="0 0 20.031 403.477" style="overflow:visible;enable-background:new 0 0 20.031 403.477">
<g>
<polygon points="0.031,0 20.031,0 20.031,400 0,400 "/>
<path style="fill:#333333;" d="M5.031,400c0,0,0-323.388,0-385.188c0,0,0.1-5.5-5-5.5c5.1,0,5-5.25,5-5.25    c0-1.375,0-4.062,0-4.062h15v400H5.031z"/>
<path style="fill:none;stroke:#4D4D4D;" d="M5.031,403.477c0,0,0-326.864,0-388.664c0,0,0.1-5.5-5-5.5c5.1,0,5-5.25,5-5.25    c0-1.375,0-4.062,0-4.062"/>
</g>
</svg>
