<?xml version="1.0" encoding="UTF-8"?>
<!DOCTYPE svg PUBLIC "-//W3C//DTD SVG 1.1 Tiny//EN" "http://www.w3.org/Graphics/SVG/1.1/DTD/svg11-tiny.dtd">
<svg baseProfile="tiny" xmlns="http://www.w3.org/2000/svg" xmlns:xlink="http://www.w3.org/1999/xlink" width="100%" height="100%" viewBox="0 0 600 4">
<g>
<rect width="600" height="4"/>
<path fill="#FFFFFF" d="M6.717,2c0,0.552-0.448,1-1,1H2C1.448,3,1,2.552,1,2l0,0c0-0.553,0.448-1,1-1h3.717     C6.269,1,6.717,1.447,6.717,2L6.717,2z"/>
<path fill="#FFFFFF" d="M16.717,2c0,0.552-0.448,1-1,1H12c-0.552,0-1-0.448-1-1l0,0c0-0.553,0.448-1,1-1h3.717     C16.269,1,16.717,1.447,16.717,2L16.717,2z"/>
<path fill="#FFFFFF" d="M26.717,2c0,0.552-0.448,1-1,1H22c-0.552,0-1-0.448-1-1l0,0c0-0.553,0.448-1,1-1h3.717     C26.269,1,26.717,1.447,26.717,2L26.717,2z"/>
<path fill="#FFFFFF" d="M36.717,2c0,0.552-0.448,1-1,1H32c-0.552,0-1-0.448-1-1l0,0c0-0.553,0.448-1,1-1h3.717     C36.269,1,36.717,1.447,36.717,2L36.717,2z"/>
<path fill="#FFFFFF" d="M46.717,2c0,0.552-0.448,1-1,1H42c-0.552,0-1-0.448-1-1l0,0c0-0.553,0.448-1,1-1h3.717     C46.269,1,46.717,1.447,46.717,2L46.717,2z"/>
<path fill="#FFFFFF" d="M56.717,2c0,0.552-0.448,1-1,1H52c-0.552,0-1-0.448-1-1l0,0c0-0.553,0.448-1,1-1h3.717     C56.269,1,56.717,1.447,56.717,2L56.717,2z"/>
<path fill="#FFFFFF" d="M66.717,2c0,0.552-0.448,1-1,1H62c-0.552,0-1-0.448-1-1l0,0c0-0.553,0.448-1,1-1h3.717     C66.269,1,66.717,1.447,66.717,2L66.717,2z"/>
<path fill="#FFFFFF" d="M76.717,2c0,0.552-0.448,1-1,1H72c-0.552,0-1-0.448-1-1l0,0c0-0.553,0.448-1,1-1h3.717     C76.269,1,76.717,1.447,76.717,2L76.717,2z"/>
<path fill="#FFFFFF" d="M86.717,2c0,0.552-0.448,1-1,1H82c-0.552,0-1-0.448-1-1l0,0c0-0.553,0.448-1,1-1h3.717     C86.269,1,86.717,1.447,86.717,2L86.717,2z"/>
<path fill="#FFFFFF" d="M96.717,2c0,0.552-0.448,1-1,1H92c-0.552,0-1-0.448-1-1l0,0c0-0.553,0.448-1,1-1h3.717     C96.269,1,96.717,1.447,96.717,2L96.717,2z"/>
<path fill="#FFFFFF" d="M106.717,2c0,0.552-0.448,1-1,1H102c-0.552,0-1-0.448-1-1l0,0c0-0.553,0.448-1,1-1     h3.717C106.269,1,106.717,1.447,106.717,2L106.717,2z"/>
<path fill="#FFFFFF" d="M116.717,2c0,0.552-0.448,1-1,1H112c-0.552,0-1-0.448-1-1l0,0c0-0.553,0.448-1,1-1     h3.717C116.269,1,116.717,1.447,116.717,2L116.717,2z"/>
<path fill="#FFFFFF" d="M126.717,2c0,0.552-0.448,1-1,1H122c-0.552,0-1-0.448-1-1l0,0c0-0.553,0.448-1,1-1     h3.717C126.269,1,126.717,1.447,126.717,2L126.717,2z"/>
<path fill="#FFFFFF" d="M136.717,2c0,0.552-0.448,1-1,1H132c-0.552,0-1-0.448-1-1l0,0c0-0.553,0.448-1,1-1     h3.717C136.269,1,136.717,1.447,136.717,2L136.717,2z"/>
<path fill="#FFFFFF" d="M146.717,2c0,0.552-0.448,1-1,1H142c-0.552,0-1-0.448-1-1l0,0c0-0.553,0.448-1,1-1     h3.717C146.269,1,146.717,1.447,146.717,2L146.717,2z"/>
<path fill="#FFFFFF" d="M156.717,2c0,0.552-0.448,1-1,1H152c-0.552,0-1-0.448-1-1l0,0c0-0.553,0.448-1,1-1     h3.717C156.269,1,156.717,1.447,156.717,2L156.717,2z"/>
<path fill="#FFFFFF" d="M166.717,2c0,0.552-0.448,1-1,1H162c-0.552,0-1-0.448-1-1l0,0c0-0.553,0.448-1,1-1     h3.717C166.269,1,166.717,1.447,166.717,2L166.717,2z"/>
<path fill="#FFFFFF" d="M176.717,2c0,0.552-0.448,1-1,1H172c-0.552,0-1-0.448-1-1l0,0c0-0.553,0.448-1,1-1     h3.717C176.269,1,176.717,1.447,176.717,2L176.717,2z"/>
<path fill="#FFFFFF" d="M186.717,2c0,0.552-0.448,1-1,1H182c-0.552,0-1-0.448-1-1l0,0c0-0.553,0.448-1,1-1     h3.717C186.269,1,186.717,1.447,186.717,2L186.717,2z"/>
<path fill="#FFFFFF" d="M196.717,2c0,0.552-0.448,1-1,1H192c-0.552,0-1-0.448-1-1l0,0c0-0.553,0.448-1,1-1     h3.717C196.269,1,196.717,1.447,196.717,2L196.717,2z"/>
<path fill="#FFFFFF" d="M206.717,2c0,0.552-0.448,1-1,1H202c-0.552,0-1-0.448-1-1l0,0c0-0.553,0.448-1,1-1     h3.717C206.269,1,206.717,1.447,206.717,2L206.717,2z"/>
<path fill="#FFFFFF" d="M216.717,2c0,0.552-0.448,1-1,1H212c-0.552,0-1-0.448-1-1l0,0c0-0.553,0.448-1,1-1     h3.717C216.269,1,216.717,1.447,216.717,2L216.717,2z"/>
<path fill="#FFFFFF" d="M226.717,2c0,0.552-0.448,1-1,1H222c-0.552,0-1-0.448-1-1l0,0c0-0.553,0.448-1,1-1     h3.717C226.269,1,226.717,1.447,226.717,2L226.717,2z"/>
<path fill="#FFFFFF" d="M236.717,2c0,0.552-0.448,1-1,1H232c-0.552,0-1-0.448-1-1l0,0c0-0.553,0.448-1,1-1     h3.717C236.269,1,236.717,1.447,236.717,2L236.717,2z"/>
<path fill="#FFFFFF" d="M246.717,2c0,0.552-0.448,1-1,1H242c-0.552,0-1-0.448-1-1l0,0c0-0.553,0.448-1,1-1     h3.717C246.269,1,246.717,1.447,246.717,2L246.717,2z"/>
<path fill="#FFFFFF" d="M256.717,2c0,0.552-0.448,1-1,1H252c-0.552,0-1-0.448-1-1l0,0c0-0.553,0.448-1,1-1     h3.717C256.269,1,256.717,1.447,256.717,2L256.717,2z"/>
<path fill="#FFFFFF" d="M266.717,2c0,0.552-0.448,1-1,1H262c-0.552,0-1-0.448-1-1l0,0c0-0.553,0.448-1,1-1     h3.717C266.269,1,266.717,1.447,266.717,2L266.717,2z"/>
<path fill="#FFFFFF" d="M276.717,2c0,0.552-0.448,1-1,1H272c-0.552,0-1-0.448-1-1l0,0c0-0.553,0.448-1,1-1     h3.717C276.269,1,276.717,1.447,276.717,2L276.717,2z"/>
<path fill="#FFFFFF" d="M286.717,2c0,0.552-0.448,1-1,1H282c-0.552,0-1-0.448-1-1l0,0c0-0.553,0.448-1,1-1     h3.717C286.269,1,286.717,1.447,286.717,2L286.717,2z"/>
<path fill="#FFFFFF" d="M296.717,2c0,0.552-0.448,1-1,1H292c-0.552,0-1-0.448-1-1l0,0c0-0.553,0.448-1,1-1     h3.717C296.269,1,296.717,1.447,296.717,2L296.717,2z"/>
<path fill="#FFFFFF" d="M306.717,2c0,0.552-0.447,1-1,1H302c-0.553,0-1-0.448-1-1l0,0c0-0.553,0.447-1,1-1     h3.717C306.27,1,306.717,1.447,306.717,2L306.717,2z"/>
<path fill="#FFFFFF" d="M316.717,2c0,0.552-0.447,1-1,1H312c-0.553,0-1-0.448-1-1l0,0c0-0.553,0.447-1,1-1     h3.717C316.27,1,316.717,1.447,316.717,2L316.717,2z"/>
<path fill="#FFFFFF" d="M326.717,2c0,0.552-0.447,1-1,1H322c-0.553,0-1-0.448-1-1l0,0c0-0.553,0.447-1,1-1     h3.717C326.27,1,326.717,1.447,326.717,2L326.717,2z"/>
<path fill="#FFFFFF" d="M336.717,2c0,0.552-0.447,1-1,1H332c-0.553,0-1-0.448-1-1l0,0c0-0.553,0.447-1,1-1     h3.717C336.27,1,336.717,1.447,336.717,2L336.717,2z"/>
<path fill="#FFFFFF" d="M346.717,2c0,0.552-0.447,1-1,1H342c-0.553,0-1-0.448-1-1l0,0c0-0.553,0.447-1,1-1     h3.717C346.27,1,346.717,1.447,346.717,2L346.717,2z"/>
<path fill="#FFFFFF" d="M356.717,2c0,0.552-0.447,1-1,1H352c-0.553,0-1-0.448-1-1l0,0c0-0.553,0.447-1,1-1     h3.717C356.27,1,356.717,1.447,356.717,2L356.717,2z"/>
<path fill="#FFFFFF" d="M366.717,2c0,0.552-0.447,1-1,1H362c-0.553,0-1-0.448-1-1l0,0c0-0.553,0.447-1,1-1     h3.717C366.27,1,366.717,1.447,366.717,2L366.717,2z"/>
<path fill="#FFFFFF" d="M376.717,2c0,0.552-0.447,1-1,1H372c-0.553,0-1-0.448-1-1l0,0c0-0.553,0.447-1,1-1     h3.717C376.27,1,376.717,1.447,376.717,2L376.717,2z"/>
<path fill="#FFFFFF" d="M386.717,2c0,0.552-0.447,1-1,1H382c-0.553,0-1-0.448-1-1l0,0c0-0.553,0.447-1,1-1     h3.717C386.27,1,386.717,1.447,386.717,2L386.717,2z"/>
<path fill="#FFFFFF" d="M396.717,2c0,0.552-0.447,1-1,1H392c-0.553,0-1-0.448-1-1l0,0c0-0.553,0.447-1,1-1     h3.717C396.27,1,396.717,1.447,396.717,2L396.717,2z"/>
<path fill="#FFFFFF" d="M406.717,2c0,0.552-0.447,1-1,1H402c-0.553,0-1-0.448-1-1l0,0c0-0.553,0.447-1,1-1     h3.717C406.27,1,406.717,1.447,406.717,2L406.717,2z"/>
<path fill="#FFFFFF" d="M416.717,2c0,0.552-0.447,1-1,1H412c-0.553,0-1-0.448-1-1l0,0c0-0.553,0.447-1,1-1     h3.717C416.27,1,416.717,1.447,416.717,2L416.717,2z"/>
<path fill="#FFFFFF" d="M426.717,2c0,0.552-0.447,1-1,1H422c-0.553,0-1-0.448-1-1l0,0c0-0.553,0.447-1,1-1     h3.717C426.27,1,426.717,1.447,426.717,2L426.717,2z"/>
<path fill="#FFFFFF" d="M436.717,2c0,0.552-0.447,1-1,1H432c-0.553,0-1-0.448-1-1l0,0c0-0.553,0.447-1,1-1     h3.717C436.27,1,436.717,1.447,436.717,2L436.717,2z"/>
<path fill="#FFFFFF" d="M446.717,2c0,0.552-0.447,1-1,1H442c-0.553,0-1-0.448-1-1l0,0c0-0.553,0.447-1,1-1     h3.717C446.27,1,446.717,1.447,446.717,2L446.717,2z"/>
<path fill="#FFFFFF" d="M456.717,2c0,0.552-0.447,1-1,1H452c-0.553,0-1-0.448-1-1l0,0c0-0.553,0.447-1,1-1     h3.717C456.27,1,456.717,1.447,456.717,2L456.717,2z"/>
<path fill="#FFFFFF" d="M466.717,2c0,0.552-0.447,1-1,1H462c-0.553,0-1-0.448-1-1l0,0c0-0.553,0.447-1,1-1     h3.717C466.27,1,466.717,1.447,466.717,2L466.717,2z"/>
<path fill="#FFFFFF" d="M476.717,2c0,0.552-0.447,1-1,1H472c-0.553,0-1-0.448-1-1l0,0c0-0.553,0.447-1,1-1     h3.717C476.27,1,476.717,1.447,476.717,2L476.717,2z"/>
<path fill="#FFFFFF" d="M486.717,2c0,0.552-0.447,1-1,1H482c-0.553,0-1-0.448-1-1l0,0c0-0.553,0.447-1,1-1     h3.717C486.27,1,486.717,1.447,486.717,2L486.717,2z"/>
<path fill="#FFFFFF" d="M496.717,2c0,0.552-0.447,1-1,1H492c-0.553,0-1-0.448-1-1l0,0c0-0.553,0.447-1,1-1     h3.717C496.27,1,496.717,1.447,496.717,2L496.717,2z"/>
<path fill="#FFFFFF" d="M506.717,2c0,0.552-0.447,1-1,1H502c-0.553,0-1-0.448-1-1l0,0c0-0.553,0.447-1,1-1     h3.717C506.27,1,506.717,1.447,506.717,2L506.717,2z"/>
<path fill="#FFFFFF" d="M516.717,2c0,0.552-0.447,1-1,1H512c-0.553,0-1-0.448-1-1l0,0c0-0.553,0.447-1,1-1     h3.717C516.27,1,516.717,1.447,516.717,2L516.717,2z"/>
<path fill="#FFFFFF" d="M526.717,2c0,0.552-0.447,1-1,1H522c-0.553,0-1-0.448-1-1l0,0c0-0.553,0.447-1,1-1     h3.717C526.27,1,526.717,1.447,526.717,2L526.717,2z"/>
<path fill="#FFFFFF" d="M536.717,2c0,0.552-0.447,1-1,1H532c-0.553,0-1-0.448-1-1l0,0c0-0.553,0.447-1,1-1     h3.717C536.27,1,536.717,1.447,536.717,2L536.717,2z"/>
<path fill="#FFFFFF" d="M546.717,2c0,0.552-0.447,1-1,1H542c-0.553,0-1-0.448-1-1l0,0c0-0.553,0.447-1,1-1     h3.717C546.27,1,546.717,1.447,546.717,2L546.717,2z"/>
<path fill="#FFFFFF" d="M556.717,2c0,0.552-0.447,1-1,1H552c-0.553,0-1-0.448-1-1l0,0c0-0.553,0.447-1,1-1     h3.717C556.27,1,556.717,1.447,556.717,2L556.717,2z"/>
<path fill="#FFFFFF" d="M566.717,2c0,0.552-0.447,1-1,1H562c-0.553,0-1-0.448-1-1l0,0c0-0.553,0.447-1,1-1     h3.717C566.27,1,566.717,1.447,566.717,2L566.717,2z"/>
<path fill="#FFFFFF" d="M576.717,2c0,0.552-0.447,1-1,1H572c-0.553,0-1-0.448-1-1l0,0c0-0.553,0.447-1,1-1     h3.717C576.27,1,576.717,1.447,576.717,2L576.717,2z"/>
<path fill="#FFFFFF" d="M586.717,2c0,0.552-0.447,1-1,1H582c-0.553,0-1-0.448-1-1l0,0c0-0.553,0.447-1,1-1     h3.717C586.27,1,586.717,1.447,586.717,2L586.717,2z"/>
<path fill="#FFFFFF" d="M596.717,2c0,0.552-0.447,1-1,1H592c-0.553,0-1-0.448-1-1l0,0c0-0.553,0.447-1,1-1     h3.717C596.27,1,596.717,1.447,596.717,2L596.717,2z"/>
</g>
</svg>
